<svg width="217" height="48" viewBox="0 0 217 48" fill="none" xmlns="http://www.w3.org/2000/svg">
<g clip-path="url(#clip0_2054_2192)">
<path d="M155.07 17.7859C156.322 16.1024 157.965 14.6682 160.001 13.4827C162.035 12.299 164.65 11.7051 167.844 11.7051C171.725 11.7051 174.714 12.2827 176.813 13.4357C178.91 14.5903 180.444 15.9612 181.415 17.5517C182.385 19.1417 182.948 20.7787 183.105 22.4628C183.261 24.1463 183.34 25.4881 183.34 26.4853V48.0001H178.926V26.5789C178.926 24.9581 178.769 23.492 178.456 22.1827C178.142 20.8728 177.564 19.7664 176.719 18.8616C175.873 17.9585 174.747 17.2565 173.337 16.7568C171.928 16.2582 170.097 16.0083 167.843 16.0083C165.588 16.0083 163.647 16.336 162.02 16.9904C160.391 17.6453 159.061 18.5193 158.028 19.6095C156.995 20.7014 156.244 21.9334 155.774 23.3042C155.305 24.6769 155.07 26.1105 155.07 27.6075V47.9996H150.562V12.8278H155.07V17.7853V17.7859Z" fill="white"/>
<path d="M203.335 15.8695V48.0002H198.827V15.8695H185.163V11.6604H217V15.8695H203.335Z" fill="white"/>
<path fill-rule="evenodd" clip-rule="evenodd" d="M125.72 20.6931C123.49 20.6931 121.682 22.9909 121.682 25.8262C121.682 28.6614 123.49 30.9592 125.72 30.9592C126.824 30.9592 127.825 30.3955 128.555 29.4826C127.701 29.1734 127.075 28.175 127.075 26.9907C127.075 25.56 127.987 24.4007 129.112 24.4007C129.286 24.4007 129.456 24.4291 129.618 24.4809C129.153 22.2988 127.584 20.6931 125.72 20.6931H125.72Z" fill="white"/>
<path fill-rule="evenodd" clip-rule="evenodd" d="M144.875 43.3866C144.385 43.4778 143.959 43.5237 143.593 43.5237C143.103 43.5237 142.829 43.4778 142.769 43.3866C142.707 43.2953 142.616 43.1902 142.494 43.0675C142.371 42.7026 142.311 42.369 142.311 42.0645C142.311 41.8222 142.295 41.563 142.265 41.2893C142.233 41.0156 142.219 40.728 142.219 40.4229V22.0908C142.219 20.0842 141.853 18.4129 141.12 17.0746C140.388 15.738 139.365 14.6734 138.053 13.8825C136.739 13.0928 135.152 12.5302 133.291 12.1949C133.013 12.1449 132.73 12.0996 132.444 12.0572C131.305 7.44135 127.91 0.191291 122.779 0.0030079C120.595 -0.0777679 118.759 1.62201 118.679 3.79656C118.598 5.97228 120.304 7.80107 122.488 7.88068C123.606 7.92252 124.632 7.49772 125.377 6.78236C127.061 7.84465 128.451 9.5055 129.547 11.7631C128.762 11.7167 127.95 11.6934 127.11 11.6934C124.668 11.6934 122.546 11.9073 120.746 12.3321C118.945 12.758 117.404 13.4722 116.122 14.4752C111.689 17.9445 111.065 24.4223 110.54 29.6518C110.201 33.0258 110.216 36.5294 110.852 39.8882C111.134 41.3747 111.722 43.2053 112.51 44.2077C113.403 45.3444 114.696 46.0685 115.985 46.6699C117.48 47.3684 118.991 47.7787 120.518 47.9013C122.043 48.0222 123.157 48.0222 123.887 47.9559C124.849 47.8688 126.298 47.7839 127.474 47.4329C127.669 47.3748 127.863 47.315 128.058 47.2539L126.894 43.3238C126.841 43.3366 126.788 43.3494 126.735 43.3616C123.669 44.0642 118.249 44.5401 116.141 41.5932C114.363 39.1066 114.542 35.3508 114.596 32.4569C114.661 28.908 115.142 25.3666 116.031 21.9293C116.25 21.0849 116.5 20.2312 116.986 19.5066C118.063 17.9039 120.201 16.8549 122.028 16.3906C123.34 16.0571 125.004 15.8891 127.018 15.8891C129.276 15.8891 131.123 16.0571 132.558 16.3906C133.992 16.7253 135.106 17.1972 135.9 17.8045C136.693 18.4129 137.228 19.1126 137.502 19.9023C137.777 20.6932 137.914 21.5754 137.914 22.547L138.018 29.2601L138.13 40.1846C138.012 42.8304 138.455 45.2055 139.379 46.2602C140.116 47.1005 141.088 47.7194 142.859 47.7194C143.652 47.7194 144.355 47.6584 144.966 47.5369C145.575 47.4143 146.308 47.2319 147.163 46.9895V42.7944C146.125 43.0995 145.362 43.2959 144.874 43.3872L144.875 43.3866Z" fill="white"/>
<path d="M27.8629 41.8966C26.8343 43.2215 25.6843 44.2768 24.4141 45.0602C23.1427 45.8435 21.8567 46.4299 20.5568 46.8222C19.2556 47.2132 18.0006 47.4672 16.7905 47.584C15.5804 47.6996 14.4904 47.7583 13.523 47.7583C12.7966 47.7583 11.6758 47.6996 10.164 47.584C8.65167 47.4672 7.1539 47.0633 5.67248 46.37C4.18989 45.6768 2.87358 44.6232 1.72473 43.2064C0.574716 41.7908 0 39.7569 0 37.1047C0 35.2979 0.347747 33.7766 1.04382 32.5405C1.7399 31.3045 2.66237 30.2957 3.81238 29.5117C4.96123 28.729 6.2927 28.1571 7.80505 27.7951C9.3174 27.4331 10.8601 27.1925 12.4337 27.0716L23.4163 26.2574C24.9287 26.1377 25.9713 25.8664 26.5466 25.4445C27.1214 25.0226 27.409 24.0288 27.409 22.4616C27.409 21.4969 27.2725 20.6229 27.0006 19.8396C26.7281 19.0568 26.1983 18.3641 25.4118 17.7615C24.6253 17.1588 23.5208 16.691 22.0994 16.3598C20.6769 16.0286 18.8472 15.8629 16.6084 15.8629C14.6112 15.8629 12.9623 16.0286 11.6612 16.3598C10.3601 16.691 9.28648 17.1891 8.43987 17.8515C7.59267 18.514 6.95727 19.388 6.53368 20.4724C6.10891 21.5579 5.80726 22.8527 5.62638 24.3589H1.27021C1.57245 21.9496 2.08648 19.9465 2.8129 18.3484C3.53932 16.7521 4.53763 15.4562 5.80784 14.4613C7.07805 13.4676 8.60557 12.7592 10.3916 12.3373C12.1764 11.9154 14.2792 11.7039 16.6994 11.7039C18.9382 11.7039 20.9798 11.8706 22.8247 12.2019C24.6696 12.5331 26.2432 13.091 27.5438 13.8738C28.8449 14.6571 29.8578 15.7124 30.5848 17.0374C31.3101 18.3635 31.6736 20.0214 31.6736 22.0089V40.1782C31.6736 40.4792 31.6876 40.7657 31.7185 41.0371C31.7494 41.3085 31.7646 41.5648 31.7646 41.8053C31.7646 42.1064 31.8247 42.4376 31.9461 42.7991C32.0662 42.9199 32.1573 43.0257 32.2185 43.1164C32.2786 43.207 32.5511 43.2517 33.036 43.2517C33.3983 43.2517 33.8219 43.207 34.305 43.1164C34.7887 43.0257 35.546 42.8299 36.5747 42.5277V46.6862C35.7275 46.9262 35.0011 47.1069 34.396 47.2278C33.791 47.3475 33.0949 47.4085 32.3096 47.4085C30.5545 47.4085 29.4056 46.9256 28.8607 45.9621C28.3157 44.9986 27.9831 43.6428 27.8629 41.8948V41.8966ZM27.409 29.3124C26.259 29.9162 24.8377 30.2474 23.1439 30.3073L12.6152 31.1203C9.9528 31.301 7.91124 31.8287 6.48875 32.7027C5.06625 33.5767 4.35617 35.037 4.35617 37.0861C4.35617 38.533 4.65841 39.6784 5.26347 40.5222C5.86852 41.366 6.63987 42.014 7.5775 42.4655C8.51513 42.9176 9.52862 43.2186 10.6185 43.3691C11.7073 43.5196 12.7359 43.5946 13.7051 43.5946C15.2775 43.5946 16.8803 43.415 18.514 43.053C20.1477 42.691 21.6152 42.1191 22.9163 41.3352C24.2174 40.5524 25.2916 39.5436 26.1388 38.3076C26.986 37.0715 27.409 35.581 27.409 33.8329V29.3124Z" fill="white"/>
<path d="M55.3572 16.0025V47.8624H50.9124V16.0025H36.6086V11.6714H69.5641V16.0025H55.3572Z" fill="white"/>
<path d="M101.678 41.8652C100.426 43.5493 98.7672 44.9666 96.7029 46.1196C94.638 47.2713 92.01 47.8484 88.819 47.8484C84.939 47.8484 81.9662 47.2713 79.9019 46.1196C77.837 44.9666 76.3036 43.5952 75.303 42.0058C74.3018 40.4164 73.7224 38.7969 73.566 37.1447C73.4096 35.4938 73.332 34.1694 73.332 33.1716V11.6719H77.837V32.9856C77.837 34.6064 77.9934 36.0702 78.3067 37.3789C78.6188 38.6888 79.1825 39.7941 79.9964 40.6983C80.8092 41.6019 81.9359 42.3033 83.3753 42.8014C84.8147 43.2994 86.6602 43.5487 88.9136 43.5487C91.1669 43.5487 93.1052 43.2221 94.7325 42.5683C96.3598 41.9146 97.6895 41.0568 98.7217 39.9974C99.7538 38.9381 100.505 37.7073 100.974 36.305C101.443 34.9028 101.678 33.4842 101.678 32.0506V11.6719H106.089V46.8198H101.678V41.8652H101.678Z" fill="white"/>
</g>
<defs>
<clipPath id="clip0_2054_2192">
<rect width="217" height="48" fill="white"/>
</clipPath>
</defs>
</svg>
