<?xml version="1.0" encoding="UTF-8"?>
<svg id="Camada_2" data-name="Camada 2" xmlns="http://www.w3.org/2000/svg" viewBox="0 0 371.01 318.89">
  <defs>
    <style>
      .cls-1 {
        fill: #fff;
      }
    </style>
  </defs>
  <g id="Camada_1-2" data-name="Camada 1">
    <g>
      <path class="cls-1" d="M84.69,252.6c.89,0,1.54-.1,1.94-.29.4-.19.73-.51.98-.96.29-.48.49-1.13.6-1.96.11-.83.17-1.71.17-2.63v-21.2c0-1.44-.27-2.41-.81-2.92-.54-.51-1.5-.77-2.87-.77v-1.15h13.31l8.14,21.2,8.61-21.2h13.21v1.15c-.8.03-1.46.1-1.99.19-.53.1-.95.29-1.27.57-.32.29-.53.69-.65,1.2-.11.51-.17,1.2-.17,2.06v22.69c0,.86.06,1.55.17,2.06.11.51.33.91.65,1.2.32.29.74.48,1.27.57.53.1,1.19.16,1.99.19v1.15h-16.56v-1.15c.83-.03,1.5-.1,2.01-.22.51-.11.92-.31,1.24-.6.32-.29.53-.69.65-1.2.11-.51.17-1.18.17-2.01v-23.74h-.1l-11.87,28.91h-1.58l-11.15-28.91h-.1v22.69c0,.89.06,1.67.17,2.32.11.65.33,1.18.65,1.58.32.4.77.69,1.36.89.59.19,1.36.29,2.32.29v1.15h-10.48v-1.15Z"/>
      <path class="cls-1" d="M141.5,230.82c.96,0,1.99.17,3.11.5,1.12.33,2.15.9,3.11,1.7.96.8,1.75,1.87,2.39,3.21.64,1.34.96,3,.96,4.98v.72h-13.02c.03,2.62.59,4.69,1.67,6.22,1.08,1.53,2.63,2.3,4.64,2.3,1.4,0,2.54-.33,3.4-.98.86-.65,1.66-1.49,2.39-2.51l1.05.62c-.8,2.11-2.07,3.76-3.83,4.98-1.75,1.21-3.8,1.82-6.13,1.82-1.69,0-3.2-.29-4.52-.86-1.32-.57-2.45-1.39-3.37-2.44-.93-1.05-1.63-2.32-2.11-3.8-.48-1.48-.72-3.13-.72-4.95,0-1.69.26-3.24.79-4.64s1.27-2.61,2.23-3.61c.96-1.01,2.11-1.79,3.45-2.37,1.34-.57,2.84-.86,4.5-.86ZM138.01,240.25h6.27v-1.96c0-1.44-.06-2.55-.17-3.35-.11-.8-.3-1.37-.55-1.72-.26-.38-.56-.65-.91-.79s-.73-.21-1.15-.21c-.93,0-1.65.37-2.18,1.1-.53.73-.87,1.75-1.03,3.06-.06.64-.12,1.24-.17,1.79-.05.56-.09,1.25-.12,2.08Z"/>
      <path class="cls-1" d="M153.61,232.59v-1.15h9.62v3.3h.1c.93-1.21,1.95-2.17,3.06-2.87,1.12-.7,2.49-1.05,4.12-1.05,1.44,0,2.64.26,3.61.77.97.51,1.76,1.48,2.37,2.92,1.05-1.05,2.09-1.93,3.11-2.63,1.02-.7,2.3-1.05,3.83-1.05,2.01,0,3.53.54,4.57,1.6,1.04,1.07,1.56,2.51,1.56,4.33v13.07c0,1.12.17,1.85.5,2.2.34.35.96.54,1.89.57v1.15h-11.96v-1.15c.99,0,1.59-.25,1.79-.77s.31-1.2.31-2.06v-12.06c0-.45-.02-.88-.05-1.29s-.12-.8-.26-1.15c-.14-.35-.38-.63-.69-.84-.32-.21-.75-.31-1.29-.31-.38,0-.77.11-1.15.33-.38.22-.73.49-1.05.79-.32.3-.58.61-.79.93s-.31.59-.31.81v12.87c0,1.08.13,1.8.38,2.15.26.35.75.54,1.48.57v1.15h-11.44v-1.15c.99,0,1.59-.25,1.79-.77.21-.51.31-1.2.31-2.06v-12.2c0-.45-.02-.87-.07-1.27-.05-.4-.14-.77-.29-1.1s-.37-.6-.67-.79c-.3-.19-.73-.29-1.27-.29-.38,0-.77.11-1.15.33-.38.22-.73.49-1.05.79-.32.3-.58.61-.79.93s-.31.59-.31.81v12.97c0,1.08.15,1.79.45,2.13s.77.5,1.41.5v1.15h-11.68v-1.15c.93-.03,1.55-.23,1.87-.6.32-.37.48-1.11.48-2.23v-15.03c0-.7-.16-1.24-.48-1.6-.32-.37-.94-.55-1.87-.55Z"/>
      <path class="cls-1" d="M206.02,230.82c1.66,0,3.19.3,4.59.89,1.4.59,2.62,1.41,3.66,2.46,1.04,1.05,1.84,2.3,2.42,3.73s.86,3,.86,4.69-.29,3.25-.86,4.69c-.57,1.44-1.38,2.68-2.42,3.73-1.04,1.05-2.26,1.88-3.66,2.46-1.41.59-2.94.89-4.59.89s-3.15-.29-4.57-.86-2.64-1.38-3.66-2.42c-1.02-1.04-1.83-2.28-2.42-3.73-.59-1.45-.89-3.04-.89-4.76s.29-3.31.89-4.76c.59-1.45,1.4-2.7,2.42-3.73,1.02-1.04,2.24-1.84,3.66-2.42s2.94-.86,4.57-.86ZM206.02,252.98c1.24,0,2.15-.57,2.73-1.7.57-1.13.86-2.96.86-5.48v-6.13c0-1.05-.04-2.03-.12-2.94-.08-.91-.26-1.7-.53-2.37-.27-.67-.65-1.2-1.12-1.58s-1.1-.57-1.87-.57c-1.37,0-2.31.64-2.8,1.91-.5,1.28-.74,3.02-.74,5.22v6.37c0,1.05.05,2.03.14,2.92.1.89.28,1.66.55,2.3.27.64.64,1.14,1.1,1.51.46.37,1.06.55,1.79.55Z"/>
      <path class="cls-1" d="M220.13,252.6c.92-.03,1.55-.23,1.87-.6.32-.37.48-1.11.48-2.23v-15.03c0-.7-.16-1.24-.48-1.6-.32-.37-.94-.55-1.87-.55v-1.15h9.62v4.69h.1c.54-1.53,1.21-2.8,2.01-3.81s1.69-1.51,2.68-1.51c1.15,0,1.91.38,2.3,1.15.38.77.58,1.66.58,2.68,0,.89-.2,1.68-.6,2.37-.4.69-1.09,1.03-2.08,1.03-.51,0-.89-.1-1.15-.29-.26-.19-.47-.41-.65-.65-.18-.24-.34-.45-.5-.65-.16-.19-.4-.29-.72-.29-.19,0-.39.1-.6.29-.21.19-.4.42-.57.69-.18.27-.32.55-.43.84-.11.29-.17.51-.17.67v10.96c0,.99.21,1.73.62,2.23.41.5,1.28.74,2.58.74v1.15h-13.02v-1.15Z"/>
      <path class="cls-1" d="M238.56,253.74v-1.15c.92-.03,1.55-.23,1.87-.6.32-.37.48-1.11.48-2.23v-15.03c0-.7-.16-1.24-.48-1.6-.32-.37-.94-.55-1.87-.55v-1.15h9.81v18.43c0,1.08.13,1.8.38,2.15.25.35.75.54,1.48.57v1.15h-11.68ZM244.64,219.86c1.21,0,2.18.33,2.9.98.72.65,1.08,1.57,1.08,2.75s-.36,2.1-1.08,2.75c-.72.65-1.68.98-2.9.98s-2.18-.33-2.9-.98c-.72-.65-1.08-1.57-1.08-2.75s.36-2.1,1.08-2.75c.72-.65,1.68-.98,2.9-.98Z"/>
      <path class="cls-1" d="M264.98,240.25v-4.26c0-1.25-.24-2.19-.72-2.82-.48-.64-1.26-.96-2.35-.96-.8,0-1.5.17-2.11.5-.61.33-.91.81-.91,1.41,0,.32.06.58.19.79.13.21.28.42.45.62.17.21.33.46.46.74.13.29.19.67.19,1.15,0,.99-.36,1.77-1.08,2.34s-1.56.86-2.51.86c-1.02,0-1.81-.34-2.37-1.03-.56-.69-.84-1.49-.84-2.42,0-1.08.27-2.03.81-2.82.54-.8,1.27-1.46,2.18-1.99.91-.53,1.95-.92,3.11-1.17,1.16-.26,2.35-.38,3.57-.38,1.31,0,2.53.1,3.66.29,1.13.19,2.12.55,2.97,1.08.84.53,1.52,1.26,2.01,2.2.49.94.74,2.16.74,3.66v11.63c0,.35.05.74.14,1.17s.43.65,1,.65c.42,0,.73-.1.96-.29v1.15c-.7.54-1.51,1.01-2.42,1.41-.91.4-1.81.6-2.7.6-2.14,0-3.57-.99-4.31-2.97-.96.83-2.04,1.53-3.25,2.11-1.21.57-2.46.86-3.73.86-1.66,0-2.98-.41-3.95-1.22-.97-.81-1.46-2.03-1.46-3.66,0-.83.2-1.65.6-2.46.4-.81,1.08-1.61,2.03-2.39s2.22-1.54,3.78-2.27c1.56-.73,3.51-1.44,5.84-2.11ZM260.19,247.24c0,.96.17,1.77.5,2.44s.87,1,1.6,1,1.4-.21,1.92-.62c.51-.41.77-1.08.77-2.01v-6.13c-1.5.38-2.67,1.05-3.52,2.01-.85.96-1.27,2.06-1.27,3.3Z"/>
      <path class="cls-1" d="M276.27,220.72h9.81v29.15c0,1.08.13,1.8.38,2.15.25.35.75.54,1.48.57v1.15h-11.68v-1.15c.48-.03.87-.09,1.17-.17.3-.08.54-.22.72-.43.17-.21.29-.49.36-.84.06-.35.1-.81.1-1.39v-25.75c0-.7-.16-1.24-.48-1.6-.32-.37-.94-.55-1.87-.55v-1.15Z"/>
    </g>
    <g>
      <path class="cls-1" d="M38.64,275.86v-1.15h15.84c1.4,0,2.86.05,4.38.14,1.51.1,2.9.39,4.16.88,1.26.5,2.3,1.25,3.11,2.27.81,1.02,1.22,2.46,1.22,4.31,0,1.08-.21,2.06-.62,2.92-.42.86-.98,1.61-1.7,2.25-.72.64-1.56,1.17-2.51,1.58-.96.42-1.96.72-3.02.91v.1c1.08.1,2.21.35,3.37.77,1.16.42,2.23.97,3.18,1.67.96.7,1.75,1.54,2.37,2.51.62.97.93,2.08.93,3.33,0,3.1-1.24,5.43-3.71,7.01-2.47,1.58-6.45,2.37-11.94,2.37h-15.08v-1.15c.83,0,1.51-.06,2.03-.19.53-.13.94-.34,1.24-.65s.51-.73.62-1.27c.11-.54.17-1.21.17-2.01v-22.54c0-.8-.06-1.46-.17-1.99-.11-.53-.32-.94-.62-1.25-.3-.3-.72-.52-1.24-.65-.53-.13-1.2-.19-2.03-.19ZM53.38,289.41c.77,0,1.46-.1,2.08-.31.62-.21,1.16-.57,1.6-1.08.45-.51.79-1.17,1.03-1.99s.36-1.83.36-3.04c0-.92-.07-1.79-.22-2.58s-.41-1.49-.79-2.08c-.38-.59-.9-1.06-1.56-1.41-.65-.35-1.49-.53-2.51-.53-.51,0-.93.1-1.27.29s-.5.54-.5,1.05v11.68h1.77ZM51.61,302.57c0,.77.02,1.38.05,1.84.03.46.12.81.26,1.05s.38.4.72.48c.33.08.79.12,1.36.12,2.11,0,3.64-.58,4.62-1.75.97-1.16,1.46-3.04,1.46-5.62,0-1.08-.12-2.09-.36-3.01s-.62-1.73-1.15-2.42c-.53-.69-1.2-1.22-2.03-1.6-.83-.38-1.85-.57-3.06-.57h-1.87v11.49Z"/>
      <path class="cls-1" d="M84.97,284.81c1.66,0,3.19.3,4.59.89,1.4.59,2.62,1.41,3.66,2.46,1.04,1.05,1.84,2.3,2.42,3.73.57,1.44.86,3,.86,4.69s-.29,3.25-.86,4.69c-.57,1.44-1.38,2.68-2.42,3.73-1.04,1.05-2.26,1.88-3.66,2.46-1.4.59-2.94.89-4.59.89s-3.15-.29-4.57-.86c-1.42-.57-2.64-1.38-3.66-2.42-1.02-1.04-1.83-2.28-2.42-3.73-.59-1.45-.89-3.04-.89-4.76s.29-3.31.89-4.76c.59-1.45,1.4-2.7,2.42-3.73,1.02-1.04,2.24-1.84,3.66-2.42,1.42-.57,2.94-.86,4.57-.86ZM84.97,306.97c1.24,0,2.15-.57,2.73-1.7.57-1.13.86-2.96.86-5.48v-6.13c0-1.05-.04-2.03-.12-2.94-.08-.91-.26-1.7-.53-2.37-.27-.67-.65-1.2-1.12-1.58s-1.1-.57-1.87-.57c-1.37,0-2.31.64-2.8,1.91-.5,1.28-.74,3.02-.74,5.22v6.37c0,1.05.05,2.03.14,2.92.1.89.28,1.66.55,2.3.27.64.64,1.14,1.1,1.51.46.37,1.06.55,1.79.55Z"/>
      <path class="cls-1" d="M107.03,284.81c.93,0,1.68.06,2.25.17.57.11,1.04.23,1.39.36.35.13.65.25.89.36.24.11.5.17.79.17.35,0,.63-.11.84-.33.21-.22.31-.46.31-.72h.96v7.23h-.96c-.1-.67-.3-1.35-.6-2.03-.3-.69-.69-1.31-1.17-1.87s-1.05-1.02-1.7-1.39c-.65-.37-1.36-.55-2.13-.55-.86,0-1.6.23-2.2.69-.61.46-.91,1.11-.91,1.94s.32,1.51.96,2.03c.64.53,1.6,1.09,2.87,1.7.96.45,1.85.89,2.68,1.34.83.45,1.56.97,2.2,1.58.64.61,1.14,1.33,1.51,2.18.37.85.55,1.89.55,3.13,0,1.15-.2,2.19-.6,3.11-.4.93-.95,1.72-1.65,2.39-.7.67-1.55,1.18-2.54,1.53-.99.35-2.06.53-3.21.53-.64,0-1.24-.06-1.82-.17-.57-.11-1.08-.24-1.53-.38-.45-.14-.85-.27-1.2-.38-.35-.11-.64-.17-.86-.17-.35,0-.64.12-.86.36-.22.24-.37.49-.43.74h-.96v-8.28h.96c.16.73.41,1.51.77,2.32.35.81.81,1.56,1.36,2.23.56.67,1.2,1.23,1.91,1.68.72.45,1.51.67,2.37.67.92,0,1.75-.23,2.49-.69.73-.46,1.1-1.19,1.1-2.18,0-.92-.34-1.67-1.03-2.25-.69-.57-1.67-1.18-2.94-1.82-.86-.45-1.72-.9-2.58-1.36-.86-.46-1.63-1-2.3-1.63-.67-.62-1.22-1.35-1.65-2.18-.43-.83-.65-1.8-.65-2.92,0-2.2.67-3.94,2.01-5.22,1.34-1.28,3.11-1.92,5.31-1.92Z"/>
      <path class="cls-1" d="M129.96,284.81c1.44,0,2.59.27,3.47.81.88.54,1.73,1.18,2.56,1.91l4.69-2.92v30.39c0,1.08.12,1.8.36,2.15.24.35.74.53,1.51.53v1.2h-12.59v-1.15c.77,0,1.37-.07,1.82-.22.45-.14.77-.38.98-.69.21-.32.33-.73.38-1.22.05-.5.07-1.09.07-1.79v-7.94c-.99.96-1.95,1.61-2.87,1.96-.93.35-1.9.53-2.92.53-1.18,0-2.31-.3-3.37-.91-1.07-.61-1.99-1.4-2.78-2.37-.78-.97-1.4-2.09-1.87-3.35-.46-1.26-.69-2.56-.69-3.9,0-1.98.24-3.77.72-5.38.48-1.61,1.2-2.98,2.15-4.12.96-1.13,2.14-2,3.54-2.61,1.4-.61,3.02-.91,4.83-.91ZM130.39,305.59c.8,0,1.47-.38,2.01-1.15.54-.77.81-1.87.81-3.3v-10.15c0-.67-.03-1.3-.1-1.89-.06-.59-.21-1.1-.43-1.53-.22-.43-.52-.77-.89-1.01-.37-.24-.87-.36-1.51-.36-.73,0-1.38.21-1.94.65-.56.43-.97,1.27-1.22,2.51-.32,1.47-.48,3.8-.48,6.99,0,1.75.07,3.22.22,4.4s.36,2.13.65,2.85.67,1.23,1.15,1.53c.48.3,1.05.46,1.72.46Z"/>
      <path class="cls-1" d="M144.32,285.44h9.81v15.84c0,1.44.17,2.46.53,3.09.35.62.96.93,1.82.93.45,0,.99-.13,1.63-.38.64-.25,1.13-.56,1.48-.91v-13.3c0-1.53-.13-2.59-.38-3.18-.26-.59-.91-.9-1.96-.93v-1.15h9.81v17.61c0,.83.18,1.5.55,2.01.37.51.96.77,1.79.77v1.15c-.45,0-1.08.05-1.91.14-.83.1-1.72.22-2.68.38-.96.16-1.89.33-2.8.53s-1.65.38-2.23.57h-.19v-2.97c-1.21.8-2.33,1.45-3.35,1.96s-2.19.77-3.49.77c-2.07,0-3.61-.55-4.59-1.65-.99-1.1-1.48-2.58-1.48-4.43v-13.54c0-.7-.16-1.24-.48-1.6-.32-.37-.94-.55-1.87-.55v-1.15Z"/>
      <path class="cls-1" d="M182.75,284.81c.96,0,1.99.17,3.11.5,1.12.33,2.15.9,3.11,1.7.96.8,1.75,1.87,2.39,3.21.64,1.34.96,3,.96,4.98v.72h-13.02c.03,2.62.59,4.69,1.67,6.22,1.08,1.53,2.63,2.3,4.64,2.3,1.4,0,2.54-.33,3.4-.98s1.66-1.49,2.39-2.51l1.05.62c-.8,2.11-2.07,3.76-3.83,4.98-1.76,1.21-3.8,1.82-6.13,1.82-1.69,0-3.2-.29-4.52-.86-1.32-.57-2.45-1.39-3.37-2.44-.93-1.05-1.63-2.32-2.11-3.8-.48-1.48-.72-3.13-.72-4.95,0-1.69.26-3.24.79-4.64s1.27-2.61,2.23-3.61c.96-1.01,2.11-1.79,3.45-2.37,1.34-.57,2.84-.86,4.5-.86ZM179.26,294.24h6.27v-1.96c0-1.44-.06-2.55-.17-3.35-.11-.8-.29-1.37-.55-1.72-.26-.38-.56-.65-.91-.79-.35-.14-.73-.21-1.15-.21-.93,0-1.65.37-2.18,1.1-.53.73-.87,1.75-1.03,3.06-.06.64-.12,1.24-.17,1.79-.05.56-.09,1.25-.12,2.08Z"/>
      <path class="cls-1" d="M215.75,289.98c.96,0,1.77.15,2.42.44.65.3,1.33.73,2.02,1.29v-6.66c0-.57-.19-.95-.57-1.15-.38-.2-.91-.3-1.57-.3h-.37v-.74c.99-.2,1.97-.46,2.96-.79.99-.33,1.92-.6,2.81-.8v22.09c0,.52.02.94.07,1.26.05.32.16.57.33.74.17.17.41.29.7.35s.68.09,1.15.09v.74c-1.78.39-3.57.91-5.37,1.55v-2.55h-.07c-.79,1.01-1.63,1.69-2.53,2.03-.9.35-1.81.52-2.72.52-1.04,0-2.01-.17-2.92-.5-.91-.33-1.71-.85-2.41-1.55s-1.23-1.59-1.63-2.66-.59-2.34-.59-3.79c0-1.28.22-2.5.65-3.66.43-1.16,1.02-2.18,1.76-3.07.74-.89,1.62-1.59,2.63-2.11,1.01-.52,2.1-.78,3.26-.78ZM210.72,298.41c0,1.01.13,1.97.39,2.87.26.9.63,1.68,1.13,2.35s1.09,1.2,1.79,1.59,1.51.59,2.42.59c.47,0,.92-.04,1.37-.11.44-.07.84-.17,1.2-.3.36-.12.64-.26.85-.41.21-.15.31-.3.31-.44v-9.14c0-.17,0-.41-.02-.72-.01-.31-.06-.56-.13-.76-.27-.79-.77-1.46-1.48-2.02-.72-.55-1.67-.83-2.85-.83-.76,0-1.46.19-2.09.56s-1.15.88-1.57,1.54c-.42.65-.75,1.43-.98,2.33-.24.9-.35,1.87-.35,2.9Z"/>
      <path class="cls-1" d="M230.7,299.82c.76-.57,1.73-1.08,2.89-1.55,1.16-.47,2.75-1,4.77-1.59v-2c0-1.41-.3-2.36-.91-2.85-.6-.49-1.35-.74-2.24-.74-.3,0-.61.03-.94.07-.33.05-.64.14-.92.28-.28.14-.52.31-.7.52-.19.21-.28.47-.28.79,0,.15.01.33.04.54.02.21.04.41.04.61,0,.54-.13,1-.39,1.39-.26.38-.7.57-1.31.57-.54,0-.94-.17-1.18-.52-.25-.35-.37-.78-.37-1.3,0-.67.2-1.25.59-1.76s.89-.93,1.5-1.28,1.29-.6,2.05-.78c.76-.17,1.52-.26,2.26-.26,1.13,0,2.09.15,2.87.44.78.3,1.4.72,1.87,1.26.47.54.8,1.2,1,1.98.2.78.3,1.65.3,2.61v8.33c0,.32.05.68.17,1.07.11.4.41.59.91.59.27,0,.52-.09.74-.26.22-.17.43-.37.63-.59l.44.41c-.47.72-1.01,1.28-1.63,1.68-.62.41-1.36.61-2.22.61-.67,0-1.2-.27-1.59-.8s-.6-1.08-.63-1.65c-.86.64-1.79,1.21-2.77,1.7-.99.49-2.05.74-3.18.74s-2.17-.38-2.96-1.15c-.79-.76-1.18-1.74-1.18-2.92,0-.79.18-1.53.54-2.22s.97-1.36,1.83-2ZM231.59,303.11c0,2.1,1.05,3.14,3.14,3.14.37,0,.77-.07,1.2-.22.43-.15.83-.34,1.18-.57s.65-.48.89-.74c.23-.26.35-.5.35-.72v-6.4c-.1.05-.21.09-.33.13-.12.04-.28.09-.46.17-.19.07-.41.17-.68.28s-.62.25-1.04.43c-1.18.47-2.19,1.07-3.02,1.79-.83.73-1.24,1.63-1.24,2.72Z"/>
      <path class="cls-1" d="M258.63,275.86v-1.15h14.41c.83,0,1.71,0,2.66.02.94.02,1.87.08,2.8.19.92.11,1.82.28,2.68.5s1.63.56,2.3,1c1.12.7,2.03,1.59,2.75,2.66.72,1.07,1.08,2.51,1.08,4.33,0,1.4-.27,2.7-.81,3.88-.54,1.18-1.35,2.2-2.42,3.06-1.07.86-2.39,1.53-3.95,2.01-1.56.48-3.35.72-5.36.72h-3.16v9.48c0,.86.06,1.55.19,2.06.13.51.34.91.65,1.2.3.29.72.48,1.24.57s1.19.16,1.99.19v1.15h-17.04v-1.15c.83,0,1.51-.06,2.03-.19.53-.13.94-.34,1.24-.65.3-.3.51-.73.62-1.27.11-.54.17-1.21.17-2.01v-22.59c0-.83-.06-1.5-.17-2.01-.11-.51-.33-.92-.65-1.22-.32-.3-.73-.51-1.24-.62-.51-.11-1.18-.17-2.01-.17ZM271.6,291.18h.57c1.12,0,2.07-.12,2.87-.36.8-.24,1.44-.65,1.94-1.22.5-.57.85-1.35,1.08-2.32.22-.97.33-2.18.33-3.61,0-2.65-.4-4.48-1.2-5.5-.8-1.02-1.95-1.53-3.45-1.53-.73,0-1.28.12-1.63.36-.35.24-.53.79-.53,1.65v12.54Z"/>
      <path class="cls-1" d="M300.07,294.24v-4.26c0-1.25-.24-2.19-.72-2.82-.48-.64-1.26-.96-2.35-.96-.8,0-1.5.17-2.11.5-.61.33-.91.81-.91,1.41,0,.32.06.58.19.79.13.21.28.42.45.62.17.21.33.46.46.74.13.29.19.67.19,1.15,0,.99-.36,1.77-1.08,2.34s-1.56.86-2.51.86c-1.02,0-1.81-.34-2.37-1.03-.56-.69-.84-1.49-.84-2.42,0-1.08.27-2.03.81-2.82.54-.8,1.27-1.46,2.18-1.99.91-.53,1.95-.92,3.11-1.17,1.16-.26,2.35-.38,3.57-.38,1.31,0,2.53.1,3.66.29,1.13.19,2.12.55,2.97,1.08.84.53,1.52,1.26,2.01,2.2.49.94.74,2.16.74,3.66v11.63c0,.35.05.74.14,1.17s.43.65,1,.65c.42,0,.73-.1.96-.29v1.15c-.7.54-1.51,1.01-2.42,1.41-.91.4-1.81.6-2.7.6-2.14,0-3.57-.99-4.31-2.97-.96.83-2.04,1.53-3.25,2.11-1.21.57-2.46.86-3.73.86-1.66,0-2.98-.41-3.95-1.22-.97-.81-1.46-2.03-1.46-3.66,0-.83.2-1.65.6-2.46.4-.81,1.08-1.61,2.03-2.39s2.22-1.54,3.78-2.27c1.56-.73,3.51-1.44,5.84-2.11ZM295.29,301.23c0,.96.17,1.77.5,2.44s.87,1,1.6,1,1.4-.21,1.92-.62c.51-.41.77-1.08.77-2.01v-6.13c-1.5.38-2.67,1.05-3.52,2.01-.85.96-1.27,2.06-1.27,3.3Z"/>
      <path class="cls-1" d="M310.99,306.83l11.01-19.72h-1.91c-1.08,0-2.02.06-2.8.17-.78.11-1.44.34-1.99.69-.54.35-.99.85-1.34,1.51-.35.65-.62,1.52-.81,2.61h-1.15l.38-6.65h18.04v.96l-10.96,19.67h2.06c1.12,0,2.07-.1,2.87-.31.8-.21,1.49-.56,2.08-1.05.59-.49,1.1-1.15,1.53-1.96.43-.81.82-1.81,1.17-2.99h1.05l-.91,7.99h-18.33v-.91Z"/>
    </g>
    <path class="cls-1" d="M182.01,199.59c.12-5.54,4.86-8.62-1.99-11v5c-.79.75-11.01-4.02-12.52-4.99-3.65-2.33-6.53-8.01-8.02-12-.46-1.24.6-2.68.04-3.97-.78-1.8-4.67-3.56-5.32-5.76-.25-.85.51-16.66.85-17.69,1.37-4.07,5.14-4.45.98-10.12-2.08-2.84-5.89-2.54-6.06-6.95-.09-2.31,2-1.86,3.54-1.56,1.3.25-1.55,3.86,4.05,3.11,1.87-.25,1.33-1.85,2.13-2.04,5.3-1.27,6.64,2.12,11.31,2.97,1.25-5.14-3.46-5.58-5.44-8.05-.35-.43-5.45-8.53-5.79-9.19-1.07-2.03-2.59-9.8-1.54-11.56.27-.45,2.34-.88,3.28-2.19,1.1-1.52,1.11-3.86,2.04-4.98,1.07-1.29,6.38-2.55,6.54-3.64.37-2.57-2.96-4.14-2.84-6.73.13-2.81,3.15-5.16,3.61-7.41.42-2.04-.72-4.07-.29-5.32,2.54-7.33-.14-5.68.45-11.36.17-1.66,1.51-2.92,1.77-4.31.45-2.37-.27-5.3.7-7.31.69-1.43,3.45-1.66,3.61-2.6.32-1.95-2.9-5.57-2.09-6.36.14-.14,2.2.31,3.47-1.02.34-.35,4.23-8.08,4.41-8.67.49-1.59-1.73-.99-2.27-3.49-1.54-7.14,3.41-3.43,8.39-4.84.82-2.61-2.96-2.47-3.08-3.64-.16-1.52,1.52-2.86.61-5.29-1.8-4.81-5.36-7.31-7.07-14.05-1.3-5.1,4.65-1.42,6.88.14,3.74,2.61,6.65,6.87,11.22,8.81l-1.55,7.03,3.98-1c.68.47,1.44,8.12,1.07,9.39-.34,1.16-3.47.41-3.82,2.05-.93,4.35,4.25,11.34,3.8,13.91-.12.67-1.7.62-2.32,1.89-1.67,3.43-1.6,9.37-.74,13.05.29,1.22,2.98.84,3.05,3.15s-3.5,4.52-3.12,6.95c.06.39,4.7,2.56,4.69,6.1,0,.57-1.75,4.89-2.16,5.47-1.41,1.98-3.46,1.32-3.44,3.42.05,4.89,1.97,4.02,4.29,5.59,1.28.87-.16,3.24,3.7,1.02-.73,2.9,1.98,6.2,1.92,8.52-.05,1.89-1.77,2.97-1.69,5.7.16,5.21,3.64,3.36,3.8,4.29.29,1.62-1.37,5.15-1.04,5.48.45.44,5.51.67,6.8,4.76.16.49-.07,9.82-.2,10.32-.7,2.66-2.65,1.61-4.05,2.94-5.28,5.04,2.36,4.19,4.77,5.21,1.49.63,1.43,2.11,2.38,2.84.9.69,3.2.82,3.31.95.24.29-1.59,2.49-1.8,3.69-1.2,6.88,1.15,6.62-3.86,12.69-.52.63-.16,2.17-.44,2.45-1.03,1-11.92-1.54-10.89,2.65.11.45,4.04,3.18,4.76,3.34,2.52.56,4.68-1.79,6.82.06,1.79,1.55,1.91,7.75,3.47,10.37.75,1.25,2.35.21,1.94,1.74-2.28-.2-2.13.16-1.04,1.94-2.21,2.13-12.36,1.73-12.86,2.16-.31.27-.31,2.95-1.09,4.2-1.3,2.06-6.49,4.56-6.8,4.99-.53.73.27,2.49-.73,2.78-2.1.61-5.99-.19-5.48-3.05l3-.99-4.98-3.01c-.81,3.57-4.1,9.9-1.01,13,.77.77,1.09,1.22,2.4,1.05,40.53-.04,81.08-.14,121.6-.05,18.99.04,38.02-.03,57.01,0v2.99c-17.49.25-35.04-.31-52.55-.04-88.18,1.35-176.72,1.32-264.92,0-17.84-.27-35.72.29-53.55.04v-2.99c17.51-.25,35.06.31,52.58.04,1.89-.03,3.73-1.03,4.43-1.04h125ZM181.98,164.57c3.15-3.6-12.8-10.49-9.99-16.98l-4.51,2.99c-.95,1.29,2.15,1.68,2.85,3.25,2.23,5.01.39,9.79.96,13.11.16.93,1.77,1.81,1.59,2.99-.15.97-2.29,2.08-1.88,2.65.48.66,13.05,2.67,14.99,6.01,1.22-5.48-5.12-8.84-6.98-12.51-1.15-2.27,2.7-1.2,2.97-1.51ZM182.59,159.02c.94.92,1.26,2.89,2.9,2.57,2.95-.59.32-6.78-.99-7.99-3.43-3.16-6.29,1.11-1.91,5.42ZM190.01,160.59c5.46.99,12.5-3.83,3.82-5.36-4.59-.81-4.07,1.47-3.82,5.36ZM198.01,161.6c-5.76,1.7-10.38,3.07-7.86,10.38.63,1.84,3.58.92,2.85,3.09l-3.98,5.51c1.18,1.1,7.38-4,7.85-5.72.97-3.54-4.66-8.17,1.14-13.26ZM174.99,175.61c-2.13-1.78-1.75,1.64-2.34,2.62-.29.49-1.57.55-1.66.88-.93,3.21,1.36,2.13,3.5,3.49,1.6,1.02,3.81,4,4.1,4,10.93.06,7.57-7.82.45-9.59-1.5-.37-3.32.89-3.85.42-.41-.37-.04-1.69-.19-1.82Z"/>
    <path class="cls-1" d="M182.01,199.59H57.01c41.64-.58,83.36.43,125,0Z"/>
    <path class="cls-1" d="M314.01,200.59c-40.52-.09-81.07.02-121.6.05-1.31.16-1.63-.28-2.4-1.05l124,1Z"/>
    <path class="cls-1" d="M148.51,247.59c.65.33.65.67,0,1v-1Z"/>
  </g>
</svg>