<svg width="255" height="72" viewBox="0 0 255 72" fill="none" xmlns="http://www.w3.org/2000/svg">
<g clip-path="url(#clip0_2104_1624)">
<path d="M81.7619 19.53C73.5491 19.53 67.3005 24.6998 67.3005 34.3856C67.3005 44.0714 73.1326 49.3006 81.7619 49.3006C87.3561 49.3006 91.7005 46.9239 94.0809 42.764L102.115 45.9136C98.3658 52.6282 91.0457 56.7286 81.7619 56.7286C67.9549 56.7286 58.552 47.6963 58.552 34.3856C58.552 21.0749 67.9549 12.1021 81.7619 12.1021C90.8674 12.1021 98.0683 16.1429 101.937 22.6197L93.6643 25.4719C91.2244 21.6689 87.0583 19.5297 81.7619 19.5297V19.53Z" fill="#F7F7F7"/>
<path d="M122.587 56.4315C112.589 56.4315 105.09 49.7168 105.09 39.6742C105.09 29.0971 113.124 22.917 122.706 22.917C132.288 22.917 140.203 29.1562 140.203 39.6742L140.143 41.5164H114.077C114.791 46.4484 118.302 48.9444 122.587 48.9444C126.336 48.9444 129.49 47.1022 130.8 43.4181L139.369 45.3789C137.048 52.0341 130.681 56.4315 122.587 56.4315ZM122.706 30.3449C119.85 30.3449 116.695 31.5928 115.089 34.6828H130.264C128.776 31.7117 125.801 30.3449 122.706 30.3449H122.706Z" fill="#F7F7F7"/>
<path d="M195.311 37.5945V56.0156H186.562V38.1294C186.562 27.9682 174.421 28.919 174.421 38.1889V55.9561H165.673V38.1294C165.673 27.3144 151.926 28.3247 151.926 37.654V55.9561H143.177V23.3924H151.926V27.8493C153.473 25.3536 156.449 23.2144 160.853 23.2144C165.257 23.2144 168.887 24.5811 171.268 27.4333C173.827 24.6997 177.516 23.2144 181.444 23.2144C189.776 23.2144 195.311 27.9682 195.311 37.5945Z" fill="#F7F7F7"/>
<path d="M201.023 30.8205H196.5V23.3926H201.023V22.0258C201.023 15.8457 204.832 12.5181 211.855 12.5181H214.711V19.3517H213.461C211.081 19.3517 209.772 20.659 209.772 23.0357V23.3922H216.497V30.8202H209.772V56.0153H201.023V30.8202V30.8205Z" fill="#F7F7F7"/>
<path d="M219.471 23.3926H229.112L237.146 45.0223L245.24 23.3926H255L235.539 72.0002H226.553L232.385 55.9562L219.47 23.3926H219.471Z" fill="#F7F7F7"/>
<path d="M22.4781 50.4575C22.4781 50.4575 12.4043 33.9448 10.0009 28.7048C8.89803 26.3004 8.74846 25.0211 8.74846 22.2839C8.74846 12.5978 14.9971 7.42795 23.2099 7.42795C28.077 7.42795 31.9885 9.23575 34.4843 12.4798V8.37879C34.4843 7.86462 34.9018 7.44767 35.4165 7.44767H41.1415C39.3176 5.38396 37.0744 3.68708 34.4843 2.43723V6.51687C34.4843 7.03105 34.067 7.44767 33.5521 7.44767H27.9579C27.4429 7.44767 27.0257 7.03071 27.0257 6.51687V0.930791C27.0257 0.679217 27.1261 0.451029 27.2887 0.283647C25.978 0.0965537 24.6169 0 23.2102 0C9.40294 0 0 9.15089 0 22.2835C0 26.013 0.738463 29.4065 2.10497 32.3599L2.10664 32.3632C2.38704 32.9692 2.69521 33.5559 3.0278 34.1239L22.2041 66.025L42.8928 34.924L43.563 33.8115L35.2187 30.5404L22.4781 50.4575Z" fill="#BABABA"/>
<path d="M44.7397 16.7568H50.3335C50.8481 16.7568 51.2657 17.1741 51.2657 17.6876V23.2734C51.2657 23.7872 50.8478 24.2045 50.3332 24.2045H44.7393C44.2247 24.2045 43.8071 23.7872 43.8071 23.2737V17.688C43.8071 17.1741 44.225 16.7568 44.7397 16.7568Z" fill="#F7F7F7"/>
<path d="M46.6044 0H50.3339C50.8485 0 51.2661 0.417286 51.2661 0.930791V4.65429C51.2661 5.16813 50.8481 5.58541 50.3335 5.58541H46.6041C46.0895 5.58541 45.6719 5.16813 45.6719 4.65462V0.930791C45.6719 0.416952 46.0895 0 46.6041 0H46.6044Z" fill="#F7F7F7"/>
<path d="M37.2812 9.7251H41.0106C41.5252 9.7251 41.9428 10.1424 41.9428 10.6559V14.3794C41.9428 14.8932 41.5249 15.3105 41.0103 15.3105H37.2812C36.7665 15.3105 36.3486 14.8932 36.3486 14.3794V10.6559C36.3486 10.142 36.7665 9.7251 37.2808 9.7251H37.2812Z" fill="#F7F7F7"/>
<path d="M27.9576 18.6184H31.687C32.2017 18.6184 32.6196 19.0357 32.6196 19.5495V23.2734C32.6196 23.7872 32.2017 24.2042 31.6874 24.2042H27.9579C27.4433 24.2042 27.0254 23.7869 27.0254 23.273V19.5492C27.0254 19.0354 27.4433 18.6184 27.9576 18.6184Z" fill="#F7F7F7"/>
</g>
<defs>
<clipPath id="clip0_2104_1624">
<rect width="255" height="72" fill="white"/>
</clipPath>
</defs>
</svg>
