<svg width="231" height="78" viewBox="0 0 231 78" fill="none" xmlns="http://www.w3.org/2000/svg">
<g clip-path="url(#clip0_2054_2078)">
<path d="M147.183 56.8885C146.597 56.8885 146.25 56.8876 145.903 56.8885C141.088 56.9033 136.274 56.9002 131.46 56.9398C128.266 56.9661 125.361 57.7132 123.16 60.2654C121.886 61.743 120.502 63.1275 119.161 64.5483C116.436 67.4363 113.639 70.2444 110.375 72.5516C104.747 76.5295 98.4723 78.1989 91.5954 77.9808C85.1455 77.7759 79.3223 75.7712 73.9971 72.2553C70.4857 69.937 67.0716 67.4734 63.5515 65.169C59.085 62.2451 54.2005 60.2771 48.8833 59.5893C36.2323 57.9533 24.8708 60.7647 15.3916 69.5927C12.8382 71.9707 10.4847 74.56 8.04041 77.0535C7.81461 77.2837 7.59596 77.521 7.30765 77.8254C7.12477 77.6091 6.95806 77.4571 6.84579 77.2723C4.69758 73.7384 2.55747 70.1996 0.409888 66.6654C0.131216 66.2066 -0.0395332 65.7953 0.396514 65.3084C4.13371 61.1352 7.98442 57.0807 12.5822 53.8088C18.1087 49.8764 24.251 47.5933 31.0349 47.0155C37.9367 46.4278 44.6578 47.0167 51.062 49.8773C55.2097 51.73 58.8844 54.3292 62.551 56.946C66.5625 59.8084 70.6312 62.6078 75.4203 64.0326C87.2048 67.5383 97.8565 65.5392 107.003 57.1629C110.011 54.408 112.844 51.4439 115.559 48.4007C117.951 45.7187 120.822 44.5408 124.356 44.5723C129.17 44.6153 133.985 44.5847 138.8 44.5538C139.499 44.5492 139.941 44.7404 140.312 45.3615C142.434 48.9108 144.599 52.4354 146.744 55.9711C146.875 56.1865 146.964 56.4266 147.183 56.8888V56.8885Z" fill="white"/>
<path d="M69.4428 14.4102C90.379 2.88568 87.1714 24.4819 87.1556 38.051C87.1587 38.665 86.9313 38.8813 86.3202 38.8745C84.2703 38.8516 82.2194 38.8352 80.1701 38.8816C79.3692 38.8995 79.3425 38.4901 79.3434 37.8931C79.3556 32.0218 79.3767 26.1501 79.3254 20.2794C79.4227 17.6787 77.9274 14.4643 74.8023 15.5216C73.2929 15.9854 69.3131 17.7321 69.4636 19.5381C69.4375 25.6456 69.4279 31.753 69.4652 37.8601C69.4705 38.7407 69.2643 39.0339 68.3346 38.9971C66.3768 38.9196 64.4133 38.9573 62.4527 38.9835C61.8866 38.9913 61.6645 38.8318 61.6658 38.2383C61.6807 30.5671 61.6695 22.8962 61.7 15.225C61.7012 14.934 61.9883 14.5184 62.2576 14.375C64.4198 13.3544 66.4579 11.7486 68.962 11.858C69.7694 12.2044 69.3579 13.4786 69.4425 14.4099L69.4428 14.4102Z" fill="white"/>
<path d="M58.6187 23.7224C59.5903 40.4823 36.356 45.4255 30.1167 30.8921C22.3864 10.7209 55.5919 2.69867 58.6187 23.7224ZM50.5969 26.5857C50.2946 23.2552 50.089 18.4514 47.3303 15.7518C35.9682 6.967 34.3472 31.2146 41.6642 35.9053C47.6171 39.9324 50.8451 31.8023 50.5969 26.586V26.5857Z" fill="white"/>
<path d="M144.234 23.6713C145.159 40.2153 122.79 45.2932 116.015 31.539C107.241 11.1163 141.036 2.36149 144.234 23.6713ZM128.368 13.811C120.357 15.2119 121.766 32.0408 127.402 35.9609C138.712 42.5278 139.138 12.909 128.368 13.811Z" fill="white"/>
<path d="M174.344 35.872C160.185 47.9524 146.74 26.8651 173.731 22.0996C174.332 21.9293 174.644 21.6778 174.591 21.007C174.502 19.8928 174.525 18.7693 174.416 17.6579C174.275 12.9082 168.307 12.0878 165.98 15.4694C165.37 16.185 165.237 17.598 164.408 18.067C162.426 18.1078 160.444 18.0923 158.213 18.0923C161.156 9.27235 182.638 7.99747 182.504 19.0264C182.504 25.2806 182.504 31.5344 182.504 37.7883C182.504 38.5781 182.094 38.9732 181.273 38.9736C179.312 38.9739 177.352 38.9526 175.391 38.9859C174.771 38.9965 174.536 38.8052 174.571 38.182C174.613 37.4518 174.581 36.7174 174.581 35.9848C174.502 35.9471 174.423 35.9094 174.344 35.8717V35.872ZM174.496 24.4003C163.367 27.2522 163.668 40.4629 173.941 33.7629C174.451 33.4823 174.598 33.0958 174.592 32.5337C174.512 29.7976 174.697 27.1425 174.496 24.4003Z" fill="white"/>
<path d="M231 30.6032C225.232 44.3898 204.583 40.8838 204.354 26.3723C203.404 13.6139 219.147 5.95049 228.088 15.4876C230.707 18.4999 231.09 22.0403 230.451 25.804C230.348 26.4121 229.935 26.4038 229.463 26.4032C223.616 26.3951 217.854 26.3988 211.997 26.3985C213.227 34.9111 222.23 38.4805 227.127 30.4821C227.229 30.2806 227.578 30.0535 227.784 30.0779C228.804 30.1991 229.815 30.4008 231 30.6035L231 30.6032ZM211.676 24.3985C215.418 24.3985 219.097 24.4102 222.776 24.3697C222.998 24.3673 223.352 23.981 223.411 23.7212C226.065 10.1116 208.822 10.7011 211.676 24.3985Z" fill="white"/>
<path d="M90.1665 33.5988C91.5813 33.0889 92.882 32.6199 94.2359 32.132C100.392 43.3355 114.333 32.0718 96.4942 26.218C78.6427 16.8829 103.211 3.96611 110.813 16.1309C109.477 16.5625 108.252 16.9812 107.007 17.3316C106.846 17.377 106.529 17.1097 106.38 16.9148C101.783 9.23092 88.3467 17.602 105.724 23.5104C126.26 33.7366 97.8505 47.8838 90.1662 33.5984L90.1665 33.5988Z" fill="white"/>
<path d="M24.7523 15.8844C23.4292 16.8709 22.1556 17.8211 20.7871 18.8416C12.2341 5.01331 3.17758 22.0038 9.83679 31.3695C13.7286 37.8474 20.9 34.6197 23.0725 28.5821C23.3378 28.0114 23.6205 27.8439 24.2276 28.0772C24.8319 28.3096 25.4745 28.4523 26.1089 28.5963C26.5671 28.7005 26.6719 28.8967 26.522 29.349C23.0756 43.6785 1.90707 42.15 0.109383 27.7349C-0.785416 20.6606 3.85808 13.0967 11.8183 11.5511C16.5305 10.699 22.0209 11.4986 24.7523 15.8847V15.8844Z" fill="white"/>
<path d="M155.062 19.5584C155.062 25.6655 155.041 31.7729 155.084 37.8797C155.091 38.7989 154.821 39.0269 153.931 38.9942C152.062 38.9256 150.187 38.9305 148.317 38.9929C147.483 39.0208 147.272 38.7578 147.274 37.9529C147.288 26.5356 147.325 15.1167 147.272 3.7C147.262 2.96399 147.518 2.59352 148.168 2.29751C150.37 1.44749 152.408 -0.482122 154.896 0.111131C155.348 6.41876 154.919 13.1584 155.062 19.5584Z" fill="white"/>
<path d="M206.434 12.3944C205.702 13.6674 204.998 14.8892 204.268 16.1572C200.5 12.8863 194.409 15.1101 193.929 19.3707C193.915 25.5677 193.903 31.7647 193.939 37.9614C193.943 38.7975 193.687 39.0126 192.879 38.991C190.89 38.9378 188.897 38.9548 186.907 38.9845C186.277 38.9937 186.008 38.843 186.01 38.1511C186.031 30.3607 186.017 22.5702 186.045 14.7798C186.047 14.481 186.304 14.0481 186.566 13.9072C188.054 13.1088 189.567 12.3512 191.105 11.6544C191.382 11.5289 191.899 11.6408 192.166 11.8333C192.826 12.3094 193.372 13.2691 194.028 13.3282C194.624 13.3816 195.308 12.5072 195.947 12.0348C199.026 9.55761 203.571 9.51621 206.434 12.3947V12.3944Z" fill="white"/>
</g>
<defs>
<clipPath id="clip0_2054_2078">
<rect width="231" height="78" fill="white"/>
</clipPath>
</defs>
</svg>
