<svg width="166" height="109" viewBox="0 0 166 109" fill="none" xmlns="http://www.w3.org/2000/svg">
<g clip-path="url(#clip0_2054_2202)">
<path d="M91.0323 54.5967C88.1821 54.3718 85.5621 54.766 83.172 55.7791C80.782 56.7923 79.2611 58.3577 78.611 60.4747C78.2071 62.389 78.7175 63.8638 80.143 64.8992C81.5676 65.9354 83.4132 66.0705 85.6805 65.3045C84.5362 64.7863 83.8682 63.8347 83.6773 62.4505C83.4864 61.0655 83.8571 59.777 84.7884 58.5826C85.7197 57.389 87.3071 56.8487 89.5514 56.9615C91.414 57.2095 92.8165 58.0764 93.7589 59.5624C94.7013 61.0484 95.2176 62.7156 95.3071 64.5615L95.4417 67.6693C95.4417 67.7369 95.3625 67.7762 95.2057 67.7873C95.048 67.7993 94.8691 67.7933 94.6672 67.7702C94.4652 67.748 94.2744 67.7258 94.0946 67.7027C93.96 67.6805 93.8586 67.6685 93.7913 67.6685H90.2569C88.776 67.736 87.3165 67.9387 85.8807 68.2764C80.8757 69.6948 77.8407 72.105 76.7748 75.5053C75.7088 78.9055 76.2584 81.8723 78.4244 84.4056C80.5894 86.9389 84.0062 87.6195 88.6746 86.449C91.7489 85.5257 94.0827 83.7251 95.6769 81.0447V87.0911H104.193V71.1141C104.238 69.1331 104.126 67.1623 103.857 65.2027C102.667 58.7177 98.3915 55.1823 91.0314 54.5967H91.0323ZM91.0493 82.3964C89.1305 82.9368 87.3855 82.6444 85.8151 81.5184C83.7957 79.74 83.0826 77.5555 83.6773 74.9658C84.272 72.3769 86.5666 70.5865 90.5611 69.5948C92.2891 69.2793 93.9608 69.2006 95.5772 69.3579L95.6786 79.0526C94.5112 80.7412 92.969 81.8561 91.0502 82.3964H91.0493Z" fill="white"/>
<path d="M132.168 69.9829C129.362 68.4858 126.288 67.4103 122.944 66.7571C120.633 66.262 118.675 65.6712 117.07 64.9838C115.466 64.2973 114.641 63.267 114.596 61.8931C114.776 59.7992 115.813 58.4364 117.709 57.8062C119.605 57.1761 121.452 56.9059 123.247 56.9957C125.85 57.1539 127.69 57.8567 128.767 59.1067C129.844 60.3567 130.305 61.6904 130.148 63.1097C129.99 64.5281 129.373 65.5755 128.296 66.2509C130.563 66.9939 132.408 66.7066 133.834 65.3899C135.258 64.0724 135.77 62.4462 135.366 60.5088C134.558 58.0764 132.948 56.4673 130.535 55.6782C128.123 54.8899 125.772 54.5077 123.483 54.5299C120.184 54.3949 117.031 55.0421 114.023 56.4725C111.016 57.9029 109.311 60.4413 108.907 64.0895C108.884 67.8053 110.287 70.4172 113.114 71.9263C115.942 73.4353 119.028 74.5271 122.371 75.2026C124.661 75.7207 126.596 76.3175 128.178 76.9929C129.76 77.6683 130.585 78.6593 130.652 79.9657C130.518 83.1411 127.724 84.7741 122.27 84.8639C119.42 84.7741 116.834 83.9183 114.512 82.2964C112.189 80.6753 110.59 78.7832 109.715 76.6218V83.7156C111.218 85.0443 113.125 85.9848 115.437 86.5362C117.748 87.0877 119.992 87.3638 122.169 87.3638C126.567 87.3638 129.979 86.4635 132.402 84.6612C134.826 82.8598 136.128 80.5744 136.307 77.8043C136.352 74.0885 134.972 71.4825 132.167 69.9846L132.168 69.9829Z" fill="white"/>
<path d="M161.858 69.9829C159.052 68.4858 155.978 67.4103 152.635 66.7571C150.323 66.262 148.365 65.6712 146.761 64.9838C145.156 64.2973 144.331 63.267 144.286 61.8931C144.465 59.7992 145.503 58.4364 147.4 57.8062C149.295 57.1761 151.142 56.9059 152.937 56.9957C155.54 57.1539 157.381 57.8567 158.458 59.1067C159.535 60.3567 159.995 61.6904 159.838 63.1097C159.68 64.5281 159.063 65.5755 157.986 66.2509C160.253 66.9939 162.098 66.7066 163.524 65.3899C164.949 64.0724 165.46 62.4462 165.056 60.5088C164.248 58.0764 162.638 56.4673 160.226 55.6782C157.813 54.8899 155.463 54.5077 153.173 54.5299C149.874 54.3949 146.721 55.0421 143.714 56.4725C140.706 57.9029 139.001 60.4413 138.597 64.0895C138.574 67.8053 139.977 70.4172 142.804 71.9263C145.632 73.4353 148.718 74.5271 152.061 75.2026C154.351 75.7207 156.286 76.3175 157.868 76.9929C159.45 77.6683 160.275 78.6593 160.342 79.9657C160.208 83.1411 157.414 84.7741 151.961 84.8639C149.111 84.7741 146.525 83.9183 144.202 82.2964C141.879 80.6753 140.28 78.7832 139.405 76.6218V83.7156C140.908 85.0443 142.816 85.9848 145.127 86.5362C147.438 87.0877 149.682 87.3638 151.859 87.3638C156.258 87.3638 159.669 86.4635 162.093 84.6612C164.517 82.8598 165.818 80.5744 165.997 77.8043C166.042 74.0885 164.662 71.4825 161.857 69.9846L161.858 69.9829Z" fill="white"/>
<path d="M71.1206 46.1187C68.7076 41.2093 64.1133 38.5521 57.336 38.1468H39.7307V66.4886H23.4385V41.2025C23.4385 38.9847 23.7324 36.7019 24.3204 34.3541C24.9083 32.0063 26.1071 30.7264 27.9177 30.5144C29.6815 30.5853 30.8565 31.3523 31.4453 32.8151C32.0332 34.278 32.1448 35.8238 31.7801 37.4517C31.4155 39.0796 30.7159 40.1654 29.6815 40.7075C32.973 41.7463 35.3545 41.1144 36.8243 38.8137C38.2933 36.5129 38.2933 34.0831 36.8243 31.5224C35.3545 28.9626 31.8568 27.8007 26.3312 28.0358C22.8505 28.2957 20.0115 29.5995 17.8132 31.9465C15.614 34.2943 14.5148 37.839 14.5148 42.5824V43.0022H14.4876V66.4878H1.62744V68.4055H49.3309V68.4106H54.5088C62.79 68.1635 68.2313 65.6131 70.8352 60.7602C73.4382 55.9074 73.5336 51.0271 71.1214 46.1178L71.1206 46.1187ZM63.0754 59.883C61.65 64.2862 58.9515 66.4869 54.98 66.4869H48.2479V40.0722H55.0473C59.2437 40.0722 61.9874 42.2738 63.2782 46.6761C64.5683 51.0793 64.5009 55.4807 63.0763 59.883H63.0754Z" fill="white"/>
<path d="M43.1347 70.325H39.7307V86.4841H48.247V75.4557C48.247 72.6223 45.9584 70.3258 43.1347 70.3258V70.325Z" fill="white"/>
<path d="M18.0543 70.325H14.4876V80.4497C14.4876 82.6675 14.1936 84.9503 13.6057 87.2981C13.0178 89.6458 11.8189 90.9257 10.0083 91.1378C8.24453 91.0668 7.06954 90.2999 6.48077 88.837C5.89285 87.3742 5.78123 85.8283 6.14591 84.2005C6.51059 82.5726 7.21013 81.4867 8.24453 80.9447C4.95302 79.9059 2.57152 80.5377 1.10171 82.8385C-0.367238 85.1392 -0.367238 87.5691 1.10171 90.1298C2.57152 92.6896 6.06922 93.8515 11.5948 93.6164C15.0755 93.3565 17.9146 92.0526 20.1129 89.7057C22.1016 87.5819 23.1905 84.4792 23.3805 80.3958L23.3822 80.4018L23.389 80.1991C23.3942 80.0666 23.3984 79.9332 23.4018 79.7982L23.4385 78.6508V75.7293C23.4385 72.7454 21.028 70.3267 18.0543 70.3267V70.325Z" fill="white"/>
<path d="M33.8593 99.8849C34.4813 100.471 34.7923 101.249 34.7923 102.216V108.637C34.7923 108.764 34.7284 108.827 34.6023 108.827H33.6309C33.5039 108.827 33.44 108.764 33.44 108.637V107.853C33.44 107.828 33.4307 107.809 33.4119 107.796C33.3932 107.783 33.3702 107.79 33.3455 107.815C33.0276 108.197 32.6152 108.487 32.1074 108.684C31.5996 108.882 31.0347 108.98 30.4127 108.98C29.5112 108.98 28.7563 108.751 28.1462 108.292C27.537 107.834 27.2319 107.133 27.2319 106.19C27.2319 105.248 27.5779 104.48 28.2697 103.926C28.9616 103.372 29.9236 103.095 31.1548 103.095H33.3642C33.4145 103.095 33.44 103.07 33.44 103.019V102.293C33.44 101.644 33.2594 101.131 32.8973 100.755C32.5352 100.38 31.9736 100.192 31.2119 100.192C30.6027 100.192 30.1076 100.31 29.7268 100.545C29.3459 100.781 29.1107 101.108 29.0221 101.529C28.9838 101.656 28.9079 101.714 28.7938 101.701L27.7653 101.568C27.6256 101.542 27.5685 101.491 27.5941 101.414C27.6955 100.701 28.0763 100.122 28.7367 99.6754C29.397 99.23 30.2218 99.0068 31.2119 99.0068C32.3545 99.0068 33.2364 99.3001 33.8593 99.8858V99.8849ZM32.6212 107.251C33.1674 106.876 33.44 106.369 33.44 105.732V104.242C33.44 104.191 33.4145 104.166 33.3642 104.166H31.3644C30.5268 104.166 29.8537 104.338 29.3459 104.681C28.8381 105.025 28.5842 105.503 28.5842 106.114C28.5842 106.675 28.7776 107.098 29.1653 107.385C29.5521 107.671 30.0574 107.815 30.6794 107.815C31.4283 107.815 32.0759 107.627 32.6221 107.251H32.6212Z" fill="white"/>
<path d="M41.1623 108.579C40.6102 108.35 40.1842 108.044 39.8868 107.662C39.5886 107.28 39.4395 106.853 39.4395 106.382V106.153C39.4395 106.025 39.5025 105.961 39.6303 105.961H40.5446C40.6715 105.961 40.7346 106.025 40.7346 106.153V106.306C40.7346 106.727 40.9536 107.092 41.3915 107.405C41.8295 107.717 42.3782 107.873 43.0386 107.873C43.6989 107.873 44.2314 107.723 44.6379 107.424C45.0443 107.125 45.2471 106.746 45.2471 106.287C45.2471 105.969 45.1423 105.707 44.9327 105.504C44.7231 105.3 44.476 105.141 44.1897 105.026C43.9042 104.911 43.4629 104.765 42.8664 104.587C42.155 104.383 41.5713 104.179 41.1146 103.975C40.6579 103.772 40.2736 103.488 39.9626 103.125C39.6516 102.761 39.4957 102.299 39.4957 101.739C39.4957 100.925 39.8127 100.275 40.4474 99.7901C41.0822 99.3062 41.9198 99.0642 42.961 99.0642C43.6589 99.0642 44.2783 99.1788 44.8177 99.4079C45.357 99.637 45.7728 99.9525 46.0651 100.354C46.3573 100.755 46.503 101.204 46.503 101.701V101.758C46.503 101.886 46.4391 101.949 46.3122 101.949H45.4175C45.2906 101.949 45.2266 101.886 45.2266 101.758V101.701C45.2266 101.268 45.0204 100.905 44.6081 100.612C44.1957 100.318 43.6401 100.172 42.9414 100.172C42.2939 100.172 41.7732 100.303 41.3796 100.564C40.9859 100.825 40.7891 101.185 40.7891 101.644C40.7891 102.077 40.98 102.408 41.3608 102.637C41.7417 102.866 42.3322 103.095 43.1323 103.325C43.8685 103.543 44.4649 103.746 44.9225 103.937C45.3792 104.128 45.7728 104.405 46.1034 104.768C46.4332 105.131 46.5985 105.606 46.5985 106.191C46.5985 107.02 46.2747 107.682 45.6271 108.178C44.9795 108.675 44.1224 108.924 43.0564 108.924C42.345 108.924 41.7136 108.809 41.1615 108.58L41.1623 108.579Z" fill="white"/>
<path d="M52.3208 108.579C51.7686 108.35 51.3426 108.044 51.0452 107.662C50.747 107.28 50.5979 106.853 50.5979 106.382V106.153C50.5979 106.025 50.661 105.961 50.7888 105.961H51.703C51.83 105.961 51.893 106.025 51.893 106.153V106.306C51.893 106.727 52.112 107.092 52.55 107.405C52.9879 107.717 53.5367 107.873 54.197 107.873C54.8573 107.873 55.3899 107.723 55.7963 107.424C56.2028 107.125 56.4055 106.746 56.4055 106.287C56.4055 105.969 56.3007 105.707 56.0911 105.504C55.8815 105.3 55.6344 105.141 55.3481 105.026C55.0627 104.911 54.6213 104.765 54.0249 104.587C53.3134 104.383 52.7298 104.179 52.273 103.975C51.8163 103.772 51.4321 103.488 51.1211 103.125C50.8101 102.761 50.6541 102.299 50.6541 101.739C50.6541 100.925 50.9711 100.275 51.6059 99.7901C52.2407 99.3062 53.0782 99.0642 54.1195 99.0642C54.8173 99.0642 55.4367 99.1788 55.9761 99.4079C56.5155 99.637 56.9313 99.9525 57.2235 100.354C57.5158 100.755 57.6615 101.204 57.6615 101.701V101.758C57.6615 101.886 57.5976 101.949 57.4706 101.949H56.576C56.449 101.949 56.3851 101.886 56.3851 101.758V101.701C56.3851 101.268 56.1789 100.905 55.7665 100.612C55.3541 100.318 54.7986 100.172 54.0999 100.172C53.4523 100.172 52.9317 100.303 52.538 100.564C52.1444 100.825 51.9476 101.185 51.9476 101.644C51.9476 102.077 52.1384 102.408 52.5193 102.637C52.9002 102.866 53.4906 103.095 54.2907 103.325C55.0269 103.543 55.6233 103.746 56.0809 103.937C56.5376 104.128 56.9313 104.405 57.2619 104.768C57.5916 105.131 57.7569 105.606 57.7569 106.191C57.7569 107.02 57.4331 107.682 56.7856 108.178C56.138 108.675 55.2808 108.924 54.2149 108.924C53.5034 108.924 52.872 108.809 52.3199 108.58L52.3208 108.579Z" fill="white"/>
<path d="M62.652 97.0952C62.4483 96.8917 62.3469 96.6369 62.3469 96.3308C62.3469 96.0247 62.4483 95.7546 62.652 95.5571C62.8548 95.3596 63.1087 95.2612 63.4137 95.2612C63.7187 95.2612 63.9718 95.3604 64.1754 95.5571C64.3782 95.7546 64.4805 96.0128 64.4805 96.3308C64.4805 96.6489 64.3791 96.8917 64.1754 97.0952C63.9727 97.2995 63.7187 97.4013 63.4137 97.4013C63.1087 97.4013 62.8548 97.2995 62.652 97.0952ZM62.6895 108.618V99.331C62.6895 99.2036 62.7525 99.1403 62.8803 99.1403H63.8517C63.9786 99.1403 64.0417 99.2044 64.0417 99.331V108.618C64.0417 108.745 63.9778 108.808 63.8517 108.808H62.8803C62.7534 108.808 62.6895 108.745 62.6895 108.618Z" fill="white"/>
<path d="M70.9067 108.579C70.3546 108.35 69.9285 108.044 69.6312 107.662C69.3329 107.28 69.1838 106.853 69.1838 106.382V106.153C69.1838 106.025 69.2469 105.961 69.3747 105.961H70.289C70.4159 105.961 70.479 106.025 70.479 106.153V106.306C70.479 106.727 70.6979 107.092 71.1359 107.405C71.5739 107.717 72.1226 107.873 72.7829 107.873C73.4433 107.873 73.9758 107.723 74.3823 107.424C74.7887 107.125 74.9915 106.746 74.9915 106.287C74.9915 105.969 74.8867 105.707 74.6771 105.504C74.4675 105.3 74.2204 105.141 73.9341 105.026C73.6486 104.911 73.2073 104.765 72.6108 104.587C71.8994 104.383 71.3157 104.179 70.859 103.975C70.4023 103.772 70.018 103.488 69.707 103.125C69.396 102.761 69.2401 102.299 69.2401 101.739C69.2401 100.925 69.557 100.275 70.1918 99.7901C70.8266 99.3062 71.6642 99.0642 72.7054 99.0642C73.4032 99.0642 74.0227 99.1788 74.562 99.4079C75.1014 99.637 75.5172 99.9525 75.8095 100.354C76.1017 100.755 76.2474 101.204 76.2474 101.701V101.758C76.2474 101.886 76.1835 101.949 76.0566 101.949H75.1619C75.0349 101.949 74.971 101.886 74.971 101.758V101.701C74.971 101.268 74.7648 100.905 74.3524 100.612C73.94 100.318 73.3845 100.172 72.6858 100.172C72.0382 100.172 71.5176 100.303 71.124 100.564C70.7303 100.825 70.5335 101.185 70.5335 101.644C70.5335 102.077 70.7244 102.408 71.1052 102.637C71.4861 102.866 72.0766 103.095 72.8767 103.325C73.6128 103.543 74.2093 103.746 74.6668 103.937C75.1235 104.128 75.5172 104.405 75.8478 104.768C76.1775 105.131 76.3428 105.606 76.3428 106.191C76.3428 107.02 76.0191 107.682 75.3715 108.178C74.7239 108.675 73.8668 108.924 72.8008 108.924C72.0894 108.924 71.458 108.809 70.9058 108.58L70.9067 108.579Z" fill="white"/>
<path d="M85.1983 100.287H83.0469C82.9958 100.287 82.9711 100.313 82.9711 100.363V106C82.9711 106.611 83.1074 107.041 83.38 107.29C83.6527 107.539 84.0813 107.663 84.6658 107.663H85.1421C85.2691 107.663 85.333 107.727 85.333 107.853V108.637C85.333 108.764 85.2691 108.827 85.1421 108.827C84.9896 108.84 84.7544 108.846 84.4375 108.846C83.5232 108.846 82.8313 108.674 82.3618 108.331C81.8924 107.987 81.6572 107.35 81.6572 106.42V100.362C81.6572 100.312 81.6316 100.286 81.5814 100.286H80.42C80.293 100.286 80.23 100.223 80.23 100.094V99.3489C80.23 99.2216 80.293 99.1583 80.42 99.1583H81.5814C81.6316 99.1583 81.6572 99.1326 81.6572 99.0822V96.8652C81.6572 96.7378 81.7202 96.6746 81.848 96.6746H82.781C82.908 96.6746 82.9719 96.7387 82.9719 96.8652V99.0822C82.9719 99.1335 82.9975 99.1583 83.0477 99.1583H85.1992C85.3262 99.1583 85.3901 99.2224 85.3901 99.3489V100.094C85.3901 100.222 85.3262 100.286 85.1992 100.286L85.1983 100.287Z" fill="white"/>
<path d="M97.462 103.707V104.318C97.462 104.445 97.3981 104.509 97.272 104.509H91.121C91.0699 104.509 91.0451 104.534 91.0451 104.585C91.0707 105.286 91.1082 105.738 91.1593 105.942C91.2991 106.515 91.5973 106.968 92.054 107.299C92.5107 107.63 93.0952 107.795 93.8058 107.795C94.3392 107.795 94.8087 107.675 95.2151 107.432C95.6216 107.19 95.9385 106.846 96.1669 106.4C96.2427 106.285 96.3313 106.26 96.4336 106.324L97.1766 106.763C97.278 106.827 97.3035 106.916 97.2524 107.031C96.9346 107.642 96.4591 108.124 95.8243 108.473C95.1896 108.824 94.4594 108.999 93.6346 108.999C92.7331 108.986 91.9781 108.77 91.3681 108.349C90.7588 107.929 90.3209 107.343 90.0542 106.591C89.8258 105.98 89.7117 105.101 89.7117 103.955C89.7117 103.419 89.721 102.983 89.7398 102.646C89.7585 102.308 89.8062 102.005 89.8829 101.738C90.0985 100.91 90.5331 100.247 91.1874 99.7507C91.841 99.254 92.6317 99.0052 93.5587 99.0052C94.7141 99.0052 95.6028 99.2985 96.2248 99.8841C96.8468 100.471 97.2345 101.298 97.3862 102.368C97.4364 102.724 97.462 103.171 97.462 103.705V103.707ZM92.0063 100.678C91.5939 101.003 91.3238 101.439 91.1968 101.987C91.121 102.255 91.0699 102.688 91.0443 103.287C91.0443 103.338 91.0699 103.363 91.1201 103.363H96.0527C96.103 103.363 96.1285 103.337 96.1285 103.287C96.103 102.714 96.0646 102.306 96.0144 102.064C95.8746 101.491 95.5917 101.036 95.1666 100.698C94.7414 100.36 94.2046 100.192 93.557 100.192C92.9095 100.192 92.417 100.354 92.0054 100.679L92.0063 100.678ZM91.1593 97.7928C91.1338 97.7484 91.1465 97.6945 91.1977 97.6304L92.7211 95.5665C92.7714 95.4904 92.8541 95.4519 92.9691 95.4519H94.0734C94.1875 95.4519 94.2702 95.4904 94.3213 95.5665L95.8635 97.6304C95.8891 97.656 95.9019 97.6945 95.9019 97.745C95.9019 97.7706 95.8891 97.7963 95.8635 97.8211C95.838 97.8467 95.7996 97.8595 95.7494 97.8595H94.9876C94.8735 97.8595 94.7908 97.8211 94.7397 97.745L93.5971 96.1778C93.5843 96.1521 93.5655 96.1393 93.54 96.1393C93.5144 96.1393 93.4957 96.1521 93.4829 96.1778L92.3215 97.745C92.2704 97.8211 92.1886 97.8595 92.0736 97.8595H91.3118C91.236 97.8595 91.1849 97.8373 91.1593 97.7928Z" fill="white"/>
<path d="M108.859 99.9234C109.462 100.522 109.764 101.325 109.764 102.331V108.636C109.764 108.764 109.7 108.827 109.574 108.827H108.603C108.476 108.827 108.412 108.764 108.412 108.636V102.599C108.412 101.898 108.199 101.325 107.774 100.879C107.349 100.434 106.799 100.211 106.127 100.211C105.454 100.211 104.863 100.428 104.432 100.86C104 101.294 103.784 101.861 103.784 102.561V108.637C103.784 108.765 103.72 108.828 103.593 108.828H102.622C102.495 108.828 102.432 108.765 102.432 108.637V99.3505C102.432 99.2231 102.495 99.1599 102.622 99.1599H103.593C103.72 99.1599 103.784 99.224 103.784 99.3505V100.172C103.784 100.198 103.794 100.217 103.812 100.229C103.831 100.242 103.847 100.236 103.86 100.211C104.418 99.4206 105.275 99.0256 106.431 99.0256C107.446 99.0256 108.256 99.3249 108.859 99.9234Z" fill="white"/>
<path d="M116.134 108.265C115.48 107.787 115.033 107.14 114.791 106.325C114.626 105.765 114.543 104.975 114.543 103.956C114.543 103.039 114.626 102.263 114.791 101.625C115.02 100.835 115.465 100.201 116.124 99.7233C116.784 99.2454 117.572 99.0068 118.485 99.0068C119.398 99.0068 120.215 99.2428 120.894 99.7139C121.573 100.185 122.014 100.772 122.217 101.472C122.28 101.701 122.318 101.892 122.331 102.045V102.083C122.331 102.172 122.274 102.229 122.16 102.255L121.208 102.388H121.17C121.081 102.388 121.024 102.331 120.999 102.216L120.942 101.93C120.827 101.446 120.548 101.035 120.104 100.697C119.659 100.359 119.12 100.191 118.485 100.191C117.85 100.191 117.32 100.36 116.895 100.697C116.47 101.035 116.194 101.484 116.067 102.045C115.953 102.529 115.896 103.172 115.896 103.974C115.896 104.776 115.953 105.465 116.067 105.924C116.194 106.497 116.47 106.952 116.895 107.29C117.32 107.628 117.85 107.796 118.485 107.796C119.12 107.796 119.643 107.634 120.094 107.309C120.545 106.984 120.827 106.567 120.942 106.057V105.981L120.96 105.905C120.973 105.777 121.049 105.727 121.189 105.752L122.122 105.905C122.249 105.93 122.306 106.001 122.293 106.115L122.217 106.497C122.026 107.236 121.588 107.835 120.903 108.294C120.218 108.753 119.411 108.982 118.485 108.982C117.559 108.982 116.787 108.743 116.133 108.265L116.134 108.265Z" fill="white"/>
<path d="M127.188 97.0952C126.984 96.8917 126.883 96.6369 126.883 96.3308C126.883 96.0247 126.984 95.7546 127.188 95.5571C127.391 95.3596 127.645 95.2612 127.95 95.2612C128.255 95.2612 128.508 95.3604 128.711 95.5571C128.914 95.7546 129.016 96.0128 129.016 96.3308C129.016 96.6489 128.915 96.8917 128.711 97.0952C128.509 97.2995 128.255 97.4013 127.95 97.4013C127.645 97.4013 127.391 97.2995 127.188 97.0952ZM127.226 108.618V99.331C127.226 99.2036 127.289 99.1403 127.417 99.1403H128.388C128.515 99.1403 128.578 99.2044 128.578 99.331V108.618C128.578 108.745 128.515 108.808 128.388 108.808H127.417C127.29 108.808 127.226 108.745 127.226 108.618Z" fill="white"/>
<path d="M140.156 99.8849C140.778 100.471 141.089 101.249 141.089 102.216V108.637C141.089 108.764 141.025 108.827 140.899 108.827H139.928C139.801 108.827 139.737 108.764 139.737 108.637V107.853C139.737 107.828 139.728 107.809 139.709 107.796C139.69 107.783 139.667 107.79 139.643 107.815C139.325 108.197 138.912 108.487 138.405 108.684C137.897 108.882 137.332 108.98 136.71 108.98C135.808 108.98 135.053 108.751 134.443 108.292C133.834 107.834 133.529 107.133 133.529 106.19C133.529 105.248 133.875 104.48 134.567 103.926C135.259 103.372 136.221 103.095 137.452 103.095H139.661C139.712 103.095 139.737 103.07 139.737 103.019V102.293C139.737 101.644 139.557 101.131 139.194 100.755C138.832 100.38 138.271 100.192 137.509 100.192C136.9 100.192 136.405 100.31 136.024 100.545C135.643 100.781 135.408 101.108 135.319 101.529C135.281 101.656 135.205 101.714 135.091 101.701L134.062 101.568C133.923 101.542 133.866 101.491 133.891 101.414C133.993 100.701 134.373 100.122 135.034 99.6754C135.694 99.23 136.519 99.0068 137.509 99.0068C138.652 99.0068 139.534 99.3001 140.156 99.8858V99.8849ZM138.918 107.251C139.465 106.876 139.737 106.369 139.737 105.732V104.242C139.737 104.191 139.712 104.166 139.661 104.166H137.662C136.824 104.166 136.151 104.338 135.643 104.681C135.135 105.025 134.881 105.503 134.881 106.114C134.881 106.675 135.075 107.098 135.462 107.385C135.849 107.671 136.354 107.815 136.976 107.815C137.725 107.815 138.373 107.627 138.919 107.251H138.918Z" fill="white"/>
<path fill-rule="evenodd" clip-rule="evenodd" d="M90.0254 40.6126C93.8051 40.2313 112.643 36.9533 111.908 23.9729C111.778 21.6679 112.423 19.7288 113.914 18.1505C114.772 17.2416 115.908 16.4713 117.332 15.8386C117.156 15.7813 116.979 15.7283 116.803 15.6779C115.707 15.3641 114.641 15.1786 113.607 15.1221C113.149 15.099 112.765 14.8186 112.585 14.427C112.166 13.6387 111.659 12.9992 111.096 12.505C110.235 11.7501 109.232 11.3337 108.2 11.2379C107.148 11.1405 106.055 11.3696 105.034 11.9065C104.278 12.3041 103.559 12.8727 102.921 13.6045C102.489 14.1004 101.738 14.15 101.244 13.7165C100.75 13.2831 100.701 12.529 101.133 12.0339C101.964 11.0781 102.92 10.3274 103.934 9.79388C105.362 9.04321 106.91 8.7243 108.415 8.8628C109.937 9.00388 111.409 9.61006 112.661 10.7087C113.302 11.2704 113.886 11.9621 114.387 12.7863C115.401 12.8838 116.425 13.0804 117.455 13.3763C118.664 13.7225 119.904 14.2124 121.173 14.846C121.511 14.9853 121.78 15.2786 121.874 15.6608C122.034 16.3012 121.646 16.9501 121.008 17.1091C118.501 17.7427 116.728 18.637 115.636 19.7938C114.625 20.8633 114.19 22.2116 114.282 23.8404C115.209 40.1928 98.6874 43.3126 86.3368 45.645C83.6392 46.1546 81.1469 46.6248 79.1497 47.1814V47.1788C78.6802 47.3088 78.1604 47.1395 77.8639 46.7189C77.4856 46.1819 77.6134 45.439 78.1476 45.0593C79.5859 44.0376 81.348 43.0159 83.2796 41.8959C85.9772 40.3313 89.014 38.57 91.7474 36.4847C96 33.2401 98.4735 29.5286 98.5221 23.7831C98.5783 17.1288 94.1127 14.6425 86.589 13.4506C81.325 12.617 76.8482 13.6319 72.5939 7.36145C72.1193 15.2222 74.8962 27.6339 84.3626 29.9509C85.5554 30.2433 86.8293 30.4101 88.1789 30.4357C88.835 30.446 89.3582 30.988 89.348 31.6464C89.3377 32.3047 88.7975 32.8297 88.1414 32.8194C86.6052 32.7903 85.1584 32.6005 83.8028 32.2688C78.7875 31.041 75.0052 27.8827 72.5087 23.6292C70.0582 19.4552 68.8593 14.2244 68.9624 8.75337C69.0118 6.16448 69.351 3.52002 69.9857 0.910612C70.14 0.27023 70.7824 -0.122207 71.4206 0.0316903C71.7853 0.120608 72.0699 0.369408 72.2173 0.685752C76.0788 8.38829 81.7288 9.28431 87.0934 10.135C91.6204 10.8515 95.211 11.5688 98.4488 14.7177C101.274 17.4622 102.371 20.6239 102.281 23.7788C102.134 28.9737 98.9779 33.3914 95.2434 36.7027C93.4455 38.2973 91.9851 39.3788 90.0228 40.6109L90.0254 40.6126Z" fill="white"/>
</g>
<defs>
<clipPath id="clip0_2054_2202">
<rect width="166" height="109" fill="white"/>
</clipPath>
</defs>
</svg>
