<svg width="243" height="87" viewBox="0 0 243 87" fill="none" xmlns="http://www.w3.org/2000/svg">
<g clip-path="url(#clip0_2157_699)">
<path d="M5.56758 51.478C5.47209 51.4951 5.48345 51.4273 5.45874 51.3706C5.48812 51.3818 5.53219 51.3614 5.56758 51.3706C5.57025 51.4062 5.56558 51.4424 5.56758 51.478Z" fill="white"/>
<path d="M23.0339 20.9217C22.7087 20.4639 24.5436 20.6115 24.7806 20.6003C24.5376 20.8914 24.3359 21.7028 24.1336 21.9307C24.0181 22.0604 23.8151 21.9801 23.7984 21.9979C23.8572 21.793 23.7036 21.8069 23.6896 21.7825C23.6655 21.7423 23.6014 21.712 23.5807 21.6751C23.5467 21.6152 23.5333 21.5579 23.4719 21.4598C23.3931 21.3353 23.3297 21.2503 23.2535 21.137C23.2409 21.1179 23.2736 21.0317 23.2175 20.9546C23.1781 20.8999 23.0412 20.9302 23.0352 20.9217H23.0339Z" fill="white"/>
<path d="M44.3205 50.2943C43.8911 50.4234 44.0534 50.4524 43.8597 50.5433C43.0711 50.9128 43.6621 50.0223 43.5532 49.8695C43.5325 49.8405 43.0645 49.7306 42.975 49.7483C42.8501 49.7734 42.8294 50.2179 42.4648 50.0783L43.3376 37.4907H44.9748V39.5351L43.3382 39.4284C43.2321 39.8111 43.7041 39.5733 43.7756 39.6424C43.847 39.7116 43.8484 41.6157 43.7756 41.6881C43.7135 41.75 43.222 41.5584 43.2294 41.7955H45.1945V43.9472H43.011L43.6661 44.0559C43.4237 44.3259 43.6447 45.7992 43.5572 45.8842C43.5219 45.9191 43.0371 45.8579 42.9022 45.8842C42.8555 45.9929 43.1566 46.0983 43.1746 46.0983H47.2685L47.378 47.9279L46.7223 47.9266L46.8872 47.6072C46.1527 48.2585 47.0795 47.9529 47.1596 48.0346C47.2024 48.0781 47.1142 48.4976 47.1596 48.5734L46.8925 48.5806C46.8451 48.5957 46.8518 48.6616 46.8324 48.6807C46.4278 49.0891 46.9233 49.0864 46.9413 49.1108C46.9513 49.124 46.9513 49.3736 46.9413 49.4335C46.9366 49.4612 46.8391 49.5066 46.8324 49.5409C46.7517 49.5666 46.5346 49.5132 46.5053 49.5422C46.4732 49.5731 46.7663 50.1587 46.5033 50.4017C46.3203 50.571 46.2261 50.0355 45.901 49.9736C45.4162 49.8814 45.1177 49.9835 45.1938 50.5104C44.7638 50.5736 44.8647 50.4465 44.8667 50.0783C44.655 50.0467 44.5936 50.0684 44.4306 50.187C44.3912 50.2153 44.3405 50.2522 44.3218 50.2943H44.3205ZM45.521 46.745C45.075 46.72 45.3 46.1516 44.8126 46.199C44.5014 46.2293 44.5335 46.5013 44.5388 46.7437L44.265 46.6377L44.213 46.8504L44.6483 46.8517V46.3123C45.3447 46.2102 44.9628 46.5013 45.1017 46.7246C45.113 46.7424 45.5564 46.9709 45.5217 46.7444L45.521 46.745ZM43.3376 47.1751C43.0738 47.1639 42.9576 47.1066 43.0117 47.3892L43.3376 47.2805V47.1751ZM43.4477 47.3878C43.6073 47.4234 43.6761 47.3424 43.7723 47.2265C43.6634 47.1804 43.3416 47.3378 43.4477 47.3878ZM44.7565 47.1744C44.4493 47.0638 43.61 47.9971 43.7749 48.142L44.7571 48.1433L44.7558 47.1751L44.7565 47.1744ZM46.1761 48.142C46.2882 47.8397 45.3414 47.0124 45.1945 47.1744L45.1932 48.1426L46.1754 48.1413L46.1761 48.142ZM42.955 47.4991C42.8468 47.5742 43.0137 47.6467 43.0665 47.7099C43.1753 47.6394 43.0157 47.5676 42.955 47.4991ZM43.3369 48.2493V47.8199H43.2301V48.2493H43.3369ZM43.1192 48.2506C42.9069 48.2638 42.8067 48.1334 42.7914 48.4087C42.7413 49.2978 43.1085 48.7189 43.3376 48.8961L43.2301 49.1661L43.4464 49.2175L43.4477 48.7881C43.0504 48.7861 42.78 48.9125 42.8995 48.4258C42.9296 48.304 43.1666 48.4258 43.1192 48.2513V48.2506ZM44.7578 48.6794C44.5782 48.7387 43.6821 48.5273 43.7763 48.8394C43.8724 49.1589 44.3819 49.5988 44.7565 49.5409L44.7578 48.6801V48.6794ZM46.1761 48.6807L45.1938 48.6794L45.1952 49.5409C45.5724 49.7674 46.325 48.8144 46.1767 48.6807H46.1761ZM43.8831 50.2937C43.9612 50.1429 43.8143 50.0065 43.7763 50.0796C43.6981 50.2304 43.845 50.3668 43.8831 50.2937Z" fill="white"/>
<path d="M41.5913 20.7064C41.6033 20.6939 41.7796 20.7558 41.8117 20.6353C41.8838 20.3665 41.7355 19.0625 41.8103 18.9854C41.9419 18.9505 42.5335 19.1711 42.5609 19.214C42.7351 19.4866 42.0046 20.1802 43.1184 20.2757L43.3995 19.6236C43.7761 19.7139 44.1607 19.8528 44.0566 20.277C44.0031 20.495 42.8306 22.7923 42.6704 23.005C42.3779 23.3936 42.2898 23.0452 42.054 22.9819C41.5947 22.8588 40.1924 24.6456 39.518 24.5791C39.506 24.5778 39.4032 24.5027 39.2997 24.4717C39.2723 24.4632 39.1781 24.3986 39.0813 24.3644C38.9645 24.3229 38.8737 24.2933 38.7541 24.257C38.7067 24.2425 38.6313 24.1793 38.5358 24.1497C38.427 24.1154 38.3548 24.0812 38.2086 24.0423C37.9582 23.8889 37.9375 23.7953 38.0998 23.5042C38.2133 23.4693 38.25 23.4272 38.3181 23.3969C38.7181 23.2197 38.6072 23.1005 38.6453 23.0741C38.692 23.0425 38.7768 23.0359 38.8636 22.9668C39.1281 22.756 39.2149 22.7593 39.5187 22.4287C39.9173 22.3865 39.7704 22.189 39.8459 22.106C39.8913 22.0744 39.924 22.0177 39.9547 21.9986C40.0095 21.965 40.0889 21.9466 40.1731 21.8913C40.4295 21.722 40.3754 21.6871 40.3914 21.6759C40.4341 21.6535 40.5096 21.6285 40.5002 21.5685C40.5904 21.5014 40.6598 21.5007 40.8274 21.3532C40.9483 21.2471 40.9977 21.1819 41.0458 21.1378C41.0738 21.1128 41.1927 21.1082 41.2641 21.0304C41.2982 20.9936 41.3409 20.9619 41.373 20.9231C41.3937 20.9099 41.4831 20.9488 41.5606 20.8915C41.612 20.8533 41.576 20.7248 41.5913 20.7077V20.7064Z" fill="white"/>
<path d="M6.33133 50.9398C6.51896 50.4498 6.22182 50.3371 6.22449 50.2397C6.23317 49.9611 6.66786 50.1679 6.76668 50.2943L7.09521 46.0982H11.571C11.5383 47.2159 12.0037 48.9711 11.7967 50.0203C11.7693 50.1586 11.4328 50.0111 11.4621 50.1323C11.5269 50.4004 11.9603 50.0941 11.9843 50.0546C12.1359 49.801 11.7586 49.5527 12.4437 49.6482C12.4377 50.0236 12.3329 50.3398 12.815 50.1731C12.9872 50.1139 12.9372 49.7365 13.2617 49.8656C13.6062 50.0019 13.2243 50.4326 13.3632 50.623C13.4874 50.7936 13.886 50.7125 14.081 50.7257C14.1043 51.0537 13.7671 51.2678 13.8559 51.6241C13.898 51.7927 14.509 51.6774 14.3007 52.2307C14.0723 52.2307 13.7958 52.1707 13.6456 52.3934C13.5248 52.6713 13.86 52.6759 13.866 52.7141C13.9508 53.2496 13.2997 52.9907 13.1441 53.1936C13.0146 53.3628 13.3525 53.7264 13.0433 53.8436C12.6373 53.9978 12.8497 53.5479 12.7121 53.515C11.9783 53.3385 12.3001 53.8785 12.2254 53.9536C12.214 53.9648 11.9095 53.9655 11.8988 53.9536C11.8628 53.9161 11.9803 53.0546 11.2458 53.5776C11.9896 53.3694 11.5169 53.7923 11.7286 54.0695C11.8154 54.1835 12.0838 54.1084 12.1225 54.2368C12.3008 54.8243 12.1225 56.3029 12.3883 56.7521C12.4697 56.8904 13.7097 57.3343 13.9728 57.3962V55.6746C15.0191 55.8123 16.0234 56.3523 17.055 56.6718C24.569 58.996 32.334 58.6977 39.709 56.0151C39.8245 55.9479 40.0636 56.0816 40.0636 56.1587V57.719L42.0113 56.8417L42.2557 54.2144C42.0421 53.9582 41.9593 53.9128 42.0287 53.5216C41.5079 53.3721 41.5092 53.8351 41.0458 53.7363C41.7229 52.7721 40.561 53.131 40.507 53.0889C40.4943 53.079 40.3941 52.7977 40.4035 52.7846C40.4335 52.7424 40.6792 52.7319 40.7106 52.5988C40.8301 52.0937 40.0963 52.261 40.0629 52.2307C39.7805 51.9751 40.4956 51.771 40.5063 51.7354C40.5584 51.5628 40.5216 51.1749 40.334 51.0484L40.3974 51.6287C40.0763 51.6353 39.7544 52.0924 39.9654 52.3321C40.0322 52.4078 40.6191 52.1391 40.0015 52.9776C39.307 53.92 38.1806 54.1031 37.0655 54.1723C35.2039 54.2889 30.5031 53.8002 29.1042 54.3949C28.3276 54.7249 27.8549 55.4335 27.6171 56.2114L27.1644 55.315C26.8493 54.825 26.046 54.2902 25.4637 54.1934C23.1247 53.8041 19.7026 54.356 17.1946 54.1664C14.6051 53.9708 14.7474 52.7648 14.5143 50.5677C14.7333 42.8591 14.2392 35.0097 14.5137 27.3183C14.519 27.1714 14.5137 27.0028 14.6258 26.8915C14.1023 27.0601 13.8045 26.8711 14.3053 26.4674C14.5484 26.2717 14.9984 26.2296 15.1734 25.9793C14.9684 25.9312 14.4255 26.391 14.302 26.3014C14.2699 26.2783 14.1538 25.6994 13.9728 25.5947C13.8259 25.5091 12.825 25.7732 13.8252 24.9189L15.4999 24.2583L13.2416 22.5466C12.9285 22.4577 12.865 22.8877 12.5552 22.8581C12.4631 22.2041 10.9186 20.165 11.0168 19.6987C11.6418 19.1659 11.7586 19.8759 11.971 19.9437C12.1713 20.0076 12.4437 19.8364 12.6587 19.8416C12.5185 19.125 12.4844 18.9301 13.3171 18.8781C13.3284 19.2172 13.3037 19.561 13.3171 19.9009C13.3224 20.0313 13.2343 20.3007 13.4253 20.2757C12.9926 19.6901 14.8662 19.0289 14.953 19.0928C14.9751 19.1086 15.0018 19.4774 15.172 19.5821C15.3189 19.6724 16.5409 19.3589 16.589 19.3048C16.6811 19.2008 16.416 18.6278 16.4821 18.556C16.5382 18.4947 17.9885 18.2036 18.118 18.2833C18.6342 18.6014 18.2943 20.0899 17.684 20.0629C17.6486 20.2737 17.9578 20.1202 18.0119 20.1696C18.066 20.219 17.7508 21.3459 17.7021 21.5284C17.6647 21.6686 17.6119 21.7839 17.5485 22.021C17.437 22.4399 17.3021 22.8575 17.246 23.2889L16.2651 22.6441L17.1365 23.5589L17.6834 23.6103L17.3555 23.5036L18.5688 18.7127C18.6229 18.5198 17.5077 17.4245 17.5752 17.3718C17.7922 17.4271 18.1027 17.2315 18.2683 17.2552C18.4185 17.2763 18.5027 18.0614 19.0408 17.9026C19.3847 17.7538 18.9661 17.2256 19.113 17.057C19.1343 17.0326 19.7193 16.9187 19.754 16.943C19.8334 17.0636 19.8495 17.5582 19.8728 17.5806C19.9263 17.6326 20.4751 17.5582 20.632 17.5865L20.6307 16.7244L21.2864 16.7257L21.1782 17.5852C21.3579 17.6313 21.2283 17.3988 21.3565 17.3678C21.5395 17.3244 22.4569 17.3369 22.5491 17.4706C22.6519 17.6207 22.5624 17.9804 22.5958 18.0166C22.6593 18.0838 24.3533 18.0258 24.4368 17.8934C24.5202 17.761 24.398 17.2078 24.4514 17.1551C24.5082 17.0991 25.867 17.0352 26.036 17.1531L25.7615 16.2956L26.4159 16.1869C26.5241 16.8614 26.3845 17.0477 27.1811 16.9411L27.1798 16.1869C28.4017 16.0348 27.726 16.4603 27.9917 16.8403C28.1099 17.0089 28.5166 16.9279 28.7089 16.9411L28.7075 16.1869L29.4721 16.1882L29.1476 17.1037C29.3713 17.0418 30.8296 17.0958 30.8923 17.1558C30.9377 17.1986 30.8456 17.9725 30.891 18.0179C30.9411 18.0673 32.2552 18.0607 32.3053 18.012C32.342 17.9764 32.3126 17.3909 32.4875 17.3645C32.5597 17.354 33.8717 17.5602 33.9265 17.6076C34.3004 17.9316 33.8337 18.5665 33.6741 18.8761L34.2791 18.2787L33.9485 16.835C34.229 16.8087 34.6029 16.8139 34.691 17.1248C34.8166 17.5687 34.478 17.7044 35.1938 17.8032C35.3407 17.792 35.3855 17.1834 35.3675 17.0491C35.6078 17.0583 36.1273 17.1274 36.1267 17.4153C36.126 17.5957 35.8669 17.8967 36.2014 18.0041C36.9159 18.2319 36.7964 17.4456 36.8972 17.3718C36.962 17.3244 37.6003 17.597 37.7686 17.5891L37.3326 18.3406C37.5209 18.3195 38.6019 18.612 38.6427 18.6653C38.7101 18.7549 38.3562 19.3266 38.4236 19.4162C38.4664 19.4728 39.7237 19.8476 39.7958 19.8456C40.1317 19.837 40.1123 19.2706 40.346 19.2159C40.4108 19.2008 41.3383 19.5419 41.4511 19.6085C41.789 19.8067 41.807 20.4963 41.5907 20.7084C41.5746 20.7235 41.4364 20.6833 41.3977 20.7334C41.3423 20.8058 41.3857 20.9073 41.3723 20.9237C41.3262 20.9527 41.2955 21.012 41.2635 21.0311C41.2114 21.0627 41.1092 21.1088 41.0451 21.1385C40.7293 21.2873 40.8428 21.3439 40.8268 21.3538C40.7573 21.3947 40.4135 21.3235 40.2813 21.3551V21.4592L40.4989 21.5692C40.4589 21.5988 40.4295 21.6482 40.3901 21.6765C40.0616 21.8504 40.2452 21.8188 40.1717 21.8919C40.1497 21.9136 40.0248 21.9209 39.9534 21.9993C39.9193 22.0368 39.8786 22.0691 39.8446 22.1066C39.5294 22.3279 39.6703 22.2627 39.5174 22.4293C39.2857 22.4537 39.0834 22.3569 38.863 22.3227C38.8143 22.5189 39.0854 22.3602 39.0827 22.4847C39.082 22.5202 38.881 22.949 38.8623 22.9674C38.8416 22.9879 38.7214 23.0037 38.644 23.0748C38.4777 23.2276 38.4984 23.1901 38.3168 23.3975C38.3055 23.4107 38.1572 23.3995 38.0985 23.5049C38.027 23.5266 37.8761 23.4496 37.7933 23.5286C37.7539 23.5661 37.7893 23.7156 37.7365 23.7927C37.6838 23.8698 37.5095 23.7644 37.5543 23.9336C37.7552 24.037 38.0337 23.9962 38.2086 24.0423C38.3856 24.1503 38.4677 24.1181 38.5358 24.1497C38.6086 24.1839 38.678 24.2228 38.7542 24.257C38.8957 24.3209 39.0253 24.338 39.0813 24.3644C39.1535 24.398 39.2249 24.4368 39.2997 24.4717C39.3745 24.5066 39.4433 24.5442 39.518 24.5791C39.8245 24.724 41.6321 25.5723 41.7002 25.7099C41.8598 26.032 40.9183 25.7942 40.8288 25.7633C40.7754 25.9563 41.0772 25.8101 41.0458 25.9233C40.961 26.227 40.6418 26.3053 40.5016 26.5148C41.2081 26.605 41.3202 27.3249 40.5009 26.9462V50.5084C40.5009 50.5215 40.1831 50.4504 40.2839 50.6678C40.4228 50.9694 40.965 50.8311 41.0365 50.5406C41.0946 50.3049 40.6645 50.0809 40.9931 49.9716C41.3296 49.8596 41.2695 50.1784 41.369 50.239C41.7609 50.4787 41.9973 50.1297 41.9205 49.7543C42.4707 49.6219 42.1062 50.0697 42.3185 50.1916C42.8594 50.5018 43.1191 49.7852 43.3388 49.9709C43.3642 49.992 43.2039 50.428 43.2299 50.6157C43.1051 50.5446 42.4527 50.3345 42.3566 50.4017C42.5449 50.59 42.422 51.327 42.4654 51.3692C42.5088 51.4113 43.3742 51.3389 43.5571 51.3679C43.503 51.225 43.4984 50.9391 43.4483 50.8304C43.6927 50.8594 44.4726 50.4702 44.0486 51.1578C43.9898 51.2526 43.684 51.2105 43.7768 51.4206C43.9311 51.7703 44.4085 51.4476 44.4298 51.4759C44.5754 52.2221 43.4102 51.8572 44.104 52.8182L43.3461 52.9901L43.4476 53.6269C43.3575 53.7113 42.3218 52.9268 42.4667 53.9497C42.6951 53.9747 42.5175 53.5729 42.5749 53.5189C42.8427 53.2673 43.1211 53.8101 43.1852 53.8318C43.7314 54.0182 43.7181 53.4551 43.5571 53.0902C44.8645 53.4452 44.0118 52.2247 44.1027 52.122C44.7337 52.1055 44.6903 51.9264 44.6489 51.3672H43.9932C44.0305 51.1802 44.3925 51.0214 44.4178 50.868C44.4399 50.733 44.1654 50.6355 44.321 50.2917C44.3577 50.2805 44.4011 50.1889 44.4298 50.1843C44.53 50.1679 44.6515 50.1942 44.757 50.185L44.6489 50.6138C44.7951 50.5907 45.3794 50.65 45.4134 50.6151C45.5129 50.5136 45.175 49.9136 45.7406 50.0776C45.4321 50.4149 45.5576 50.4208 45.7413 50.7731C45.2612 51.1295 44.962 50.459 44.9767 51.4746C45.0475 51.4838 45.125 51.466 45.1944 51.4746C45.1363 52.1833 44.6542 51.9541 44.757 52.6581H45.3039C45.4081 53.0678 45.0068 52.8807 45.1089 53.2239C45.2939 53.8456 45.4982 53.5117 45.6892 53.5387C46.0057 53.5835 45.6484 54.0333 45.8448 54.2164C46.2527 54.5964 46.2788 54.2131 46.3896 54.1328C46.7869 53.843 46.7989 54.2704 46.6694 54.5964L40.0816 58.0555C39.9547 58.6101 40.2165 59.5888 40.0068 60.0801C39.8933 60.3469 37.42 62.0435 36.9553 62.4525C36.8505 62.5447 36.5861 62.7245 36.6234 62.8773C42.4407 61.485 47.9 58.643 52.289 54.6485C52.3037 54.6175 52.0326 54.4878 52.0166 54.4878H50.3793C50.3399 54.4878 50.2518 54.3686 50.2324 54.3093L50.4327 51.4752L48.7414 52.7655L48.5791 52.4441C48.4623 52.7431 48.8449 53.0125 48.7968 53.2482C48.7407 53.5242 48.1284 53.1304 48.0322 53.4676C47.9762 53.6658 48.4148 53.9964 48.085 54.0564C47.9681 54.0774 47.0186 53.1942 47.1582 54.3804C46.616 54.5214 46.9191 54.0366 46.8317 53.9484C46.811 53.9279 46.3322 53.9266 46.2467 53.9484C46.1312 53.9773 46.2147 54.2006 46.1225 54.1644C45.7853 54.0327 46.2093 53.7962 46.1285 53.625C45.991 53.3312 45.579 53.4926 45.4054 53.3444C45.1056 53.0882 45.5944 53.0421 45.6231 52.9189C45.7413 52.4131 45.0088 52.5804 44.9754 52.5508C44.6936 52.2952 45.4087 52.0904 45.4188 52.0548C45.4368 51.9916 45.4288 51.4983 45.4114 51.4746C45.3987 51.4575 45.2585 51.4838 45.1937 51.4752C45.2024 51.3666 45.1704 51.0748 45.1951 51.0452C45.2198 51.0155 45.6571 51.3593 45.9062 50.9398C46.0965 50.619 45.4468 50.4695 45.9055 50.293C46.1392 50.2034 46.0664 50.5677 46.2374 50.6039C46.8878 50.7422 46.6808 50.0309 46.7328 49.9742C46.7903 49.9117 47.2577 50.0862 46.9779 49.7549C46.9552 49.7279 46.7802 49.801 46.8317 49.5389C46.8958 49.5185 46.9085 49.4664 46.9405 49.4315C47.1662 49.1832 46.9739 49.2162 46.9405 49.1088C46.9125 49.0199 46.7495 48.7492 46.8317 48.6787C46.8757 48.6405 47.1709 48.7611 47.1588 48.5714C47.1649 48.5812 47.3078 48.5253 47.3725 48.6504C47.4713 48.8414 47.5995 50.3233 47.4827 50.399C47.4393 50.4267 47.251 50.3852 47.1588 50.401L47.0507 50.0776C47.0013 50.3536 47.1175 50.5512 47.4326 50.515C47.647 50.4906 47.8085 49.967 48.0316 50.185C48.1344 50.2851 47.5468 51.3442 48.7954 50.9378C48.961 51.1057 48.2352 51.6471 48.5784 51.906C48.6753 51.9791 49.1053 51.5655 49.1761 52.014C49.4785 51.933 50.5536 50.729 50.7606 50.9378L50.5422 54.1657L52.7804 54.2724C52.8839 54.2796 52.8459 54.4548 52.8185 54.5253C52.723 54.7723 51.5425 55.7451 51.2493 55.9914C47.9648 58.7556 43.3902 61.1879 39.273 62.4782C38.7929 62.6283 35.7748 63.4957 35.5865 63.3107L35.696 61.373C29.9301 62.5677 24.0715 62.4815 18.3391 61.1583V62.9873C11.2004 61.7056 4.53981 57.2645 -0.000732422 51.798V51.6906C0.816566 51.4983 1.67326 51.4568 2.51059 51.4759L2.0739 47.9253C2.2435 47.8943 2.32696 47.9417 2.46051 48.0273C2.84646 48.2743 4.21396 49.7101 4.58656 50.1277C4.95915 50.5446 5.23759 50.864 5.45727 51.3679C5.3471 51.3257 5.21422 51.331 5.12675 51.2144L2.45383 48.4653L2.84312 51.6247C2.77234 51.875 0.910715 51.7571 0.544133 51.9066C2.12665 54.0103 4.2567 55.8347 6.40411 57.3732C9.59651 59.6599 13.3645 61.6562 17.246 62.4485L14.0269 59.7587L13.9581 57.7275C11.7079 56.9951 9.8409 55.4849 7.71018 54.497C7.49918 54.0201 7.60936 54.0801 7.96659 54.057C8.012 54.3949 8.09613 54.3528 8.46605 54.169C8.59359 54.0103 8.34452 53.7587 8.44936 53.623C8.59292 53.4366 9.05766 53.6223 9.15581 53.3457C9.28535 52.9808 9.17584 53.0085 8.94948 52.9808C8.95616 52.8959 8.93146 52.6726 8.94882 52.6581C9.12977 52.5066 9.66729 53.0513 9.49502 52.0133L9.27934 52.0647L9.38685 52.4427C9.21257 52.4513 8.88939 52.3887 8.77855 52.5435C8.58223 52.8201 8.69041 52.9492 8.94948 52.9808C8.94281 53.0665 8.97018 53.2871 8.94948 53.3029C8.89206 53.349 8.39727 53.1962 8.23301 53.5209C8.03603 53.9108 8.641 54.0136 7.96659 54.0564C7.95791 53.9925 7.98395 53.8535 7.96726 53.8417C7.94522 53.8259 7.43909 53.8212 7.42039 53.841C7.26481 53.9964 7.7656 54.3126 7.0932 54.3798C7.0932 54.8487 6.44017 55.8643 6.16373 56.3187C6.08093 56.4551 6.18509 56.5914 5.8933 56.5308C5.8312 56.1561 6.88821 54.8 6.87352 54.6472C6.86083 54.5187 6.52363 54.5615 6.54834 54.3804C6.72729 54.3659 6.91559 54.3969 7.09387 54.3791C7.09387 53.978 7.08052 54.0412 6.65785 53.947L6.87486 53.7343C6.49759 53.5874 6.50494 54.0274 6.38341 54.0557C5.88929 54.1716 6.33199 53.4544 6.32999 53.3022C6.55034 53.3339 6.76134 53.4004 6.98436 53.4096L6.9857 52.3334L5.89396 52.3347C5.78446 52.7391 6.32532 52.9789 6.32999 53.3022C6.18509 53.2818 5.58815 53.2535 5.56544 53.1389C5.51737 52.8952 5.8292 52.801 5.74239 52.4368C5.6616 52.097 5.27164 52.2004 5.23225 52.0542C5.11005 51.5991 5.36646 51.7492 5.52872 51.6537C5.59282 51.6162 5.5581 51.4779 5.56544 51.4733C5.5828 51.4627 5.89263 51.7202 5.78446 51.4206C5.74439 51.3086 5.6449 51.3863 5.56544 51.3659C5.55342 51.2092 5.34376 50.891 5.62554 50.8344C5.71034 50.8173 6.07358 50.9602 6.32932 50.9358C6.28993 51.0386 5.84121 51.6504 5.89263 51.688L6.98503 51.6893L6.9837 50.7211C6.73196 50.7198 6.59374 50.9101 6.32932 50.9358L6.33133 50.9398ZM23.7977 21.998C23.771 22.025 23.8665 22.2943 23.7396 22.3279C23.6669 22.347 22.3054 22.4392 22.2339 22.4155C22.0156 22.3444 21.229 20.7084 20.9125 20.4838C20.6801 20.3191 19.8027 20.3455 19.7547 20.5635C19.6979 20.8203 19.4535 22.8812 19.5396 22.9661C23.6488 22.2397 27.6519 21.9927 31.8051 22.5505C33.4925 22.7771 35.1351 23.2276 36.787 23.6103L35.8061 23.2875L36.0298 23.1216C35.7674 22.6487 35.8709 21.0232 35.6479 20.7011C35.5504 20.5602 34.5234 20.3145 34.2751 20.5424C33.8023 20.9758 33.1933 21.9716 32.8428 22.5209L31.1114 22.32C31.5267 21.452 32.4088 20.8513 32.8047 19.9562C32.4942 19.9918 32.5363 20.3297 32.3974 20.4667C32.1036 20.7564 30.5338 20.4713 30.1305 20.277C30.0804 20.9046 30.459 20.5635 30.8383 20.5892C31.0125 20.601 31.9433 20.6689 31.9854 20.7077C32.1637 20.8724 31.4198 21.5488 31.3431 21.6337C31.1407 21.857 31.3611 21.8037 30.9411 22.0421C30.8957 22.0678 30.8857 22.1916 30.8149 22.2087C30.6793 22.241 29.2344 22.1317 29.1636 22.0888C28.972 21.9736 28.4672 20.0912 28.2221 19.8429C28.0298 19.6473 27.1711 19.6631 26.9748 19.9114C26.7271 20.2243 26.0954 22.0105 25.9645 22.0888C25.8904 22.133 24.2999 22.27 24.2351 22.2127L26.3725 17.9092L26.3071 17.3724C26.1268 17.4218 26.1982 17.7729 26.1148 17.9876C26.0313 18.2023 25.7569 18.7602 25.5746 18.8537C25.2894 19.0012 22.4095 19.1527 21.9995 19.0888C21.8253 19.0618 21.7438 18.8767 21.6163 18.9294L21.894 19.4175C23.0699 19.1099 24.3286 19.1343 25.5438 19.0934C25.2975 19.4629 25.0364 20.491 24.5069 20.491H22.8696C22.7294 20.491 22.5898 19.9516 22.3808 20.0056C22.5558 20.3369 22.8255 20.6227 23.0332 20.9211C23.1874 21.1424 23.2429 21.12 23.2515 21.1365C23.2756 21.1806 23.2021 21.3644 23.2709 21.4388C23.323 21.4954 23.4599 21.446 23.4699 21.4592C23.4906 21.4855 23.4946 21.5725 23.5787 21.6746C23.6114 21.7141 23.6635 21.7457 23.6876 21.7819C23.7149 21.8228 23.6261 22.0085 23.7964 21.9973L23.7977 21.998ZM29.4734 18.7694C29.5515 18.6186 29.4046 18.4822 29.3666 18.5553C29.2885 18.7062 29.4354 18.8425 29.4734 18.7694ZM37.1596 20.136C37.0388 19.671 36.765 19.048 37.0047 18.6074L36.7062 18.907C37.0728 20.2783 37.2524 21.7009 37.6097 23.0728C37.6417 23.1953 37.603 23.4219 37.7699 23.3962C37.8027 22.9951 37.6497 22.6223 37.579 22.2377C37.4541 21.5613 37.2685 21.0245 37.3192 20.217C37.3226 20.1657 37.1683 20.1709 37.1596 20.136ZM33.3295 19.127C33.2301 19.214 33.2401 19.428 33.0351 19.4115L29.4768 18.9294L29.5849 19.3068L29.85 19.0829L32.9683 19.5235L32.8588 19.8449C33.0311 20.0129 33.4624 19.1329 33.6207 19.0374C33.5793 18.9755 33.3543 19.1053 33.3295 19.127ZM22.1057 19.5229V19.6302C22.1765 19.5946 22.1765 19.5584 22.1057 19.5229ZM17.3562 20.277L16.7025 20.385V20.4904L17.3562 20.3824V20.277ZM37.6611 20.277C37.5075 20.1999 37.37 20.3448 37.4441 20.3824C37.5977 20.4594 37.7352 20.3145 37.6611 20.277ZM16.5923 20.4923C16.4387 20.4153 16.3012 20.5602 16.3753 20.5977C16.5289 20.6748 16.6664 20.5299 16.5923 20.4923ZM16.2651 20.6004C16.0675 20.5536 15.9232 20.6438 15.755 20.688C15.6435 20.7176 15.2762 20.7894 15.2835 20.9211C15.5593 20.8651 16.1049 20.8572 16.2651 20.6004ZM14.8455 21.0304C14.4923 21.0983 14.2733 20.8599 13.9748 20.7591L14.6833 21.3499C14.6125 21.0212 14.8061 21.2412 14.8449 21.0304H14.8455ZM30.4022 20.8144V20.9218C30.473 20.8862 30.473 20.85 30.4022 20.8144ZM15.1734 20.9231C15.0198 20.846 14.8822 20.9909 14.9564 21.0285C15.1099 21.1055 15.2475 20.9606 15.1734 20.9231ZM30.5645 21.2438C30.6426 21.093 30.4957 20.9567 30.4577 21.0298C30.3795 21.1806 30.5264 21.3169 30.5645 21.2438ZM30.8923 21.8893C30.9177 21.7576 30.7321 21.3387 30.676 21.4605C30.6506 21.5922 30.8363 22.0111 30.8923 21.8893ZM35.9143 23.9356C31.3163 22.6546 26.454 22.2469 21.7244 23.0748L22.1091 23.1854C25.7729 22.4814 29.4594 22.7521 33.0998 23.4285C33.9071 23.5786 34.7772 23.8948 35.5611 24.016C35.6779 24.0338 35.9404 24.1306 35.9143 23.9363V23.9356ZM21.6136 23.1822C21.3478 23.1947 20.7976 23.1354 20.632 23.3949L21.6136 23.1822ZM20.5225 23.3975C20.2955 23.414 19.7693 23.3699 19.6505 23.6103C19.8775 23.5938 20.4037 23.6379 20.5225 23.3975ZM33.0758 24.043C28.9165 23.3606 24.6551 23.1242 20.5212 24.0957L25.3749 23.6063C27.1591 23.5885 28.9426 23.6577 30.7154 23.8401C31.3591 23.9066 32.0756 24.1022 32.6965 24.1477C32.8181 24.1563 33.1025 24.228 33.0751 24.043H33.0758ZM19.5396 23.6129C19.0856 23.5595 19.0856 23.7716 19.5396 23.7183V23.6129ZM37.2244 23.6129C36.7703 23.5595 36.7703 23.7716 37.2244 23.7183V23.6129ZM19.1029 23.7202C18.8692 23.7189 18.6502 23.8013 18.4299 23.8625C18.2943 23.9001 17.9965 23.8717 18.0126 24.041C18.2463 24.0423 18.4653 23.96 18.6856 23.8987C18.8212 23.8612 19.119 23.8895 19.1029 23.7202ZM17.9024 24.043C17.3088 24.1227 16.4981 24.3012 16.0474 24.6864C16.5602 24.5975 17.1191 24.4171 17.6032 24.2294C17.7188 24.1846 17.9284 24.1977 17.903 24.0436L17.9024 24.043ZM15.174 26.6241H39.6269C39.5394 26.4535 39.1541 26.3251 38.9705 26.2487C32.1951 23.4351 22.6412 23.2105 15.8992 26.2085C15.6889 26.302 15.2996 26.445 15.174 26.6241ZM36.6782 24.151C36.6281 24.1042 36.1033 24.0067 36.0245 24.043C35.9764 24.2063 36.5667 24.3077 36.6782 24.2557C36.6729 24.2208 36.6929 24.1648 36.6782 24.1503V24.151ZM20.413 24.1503C20.1927 24.1912 19.6598 24.1497 19.541 24.3631C19.7607 24.3222 20.2895 24.365 20.413 24.1503ZM33.622 24.1503H33.1867V24.2557H33.622V24.1503ZM34.1675 24.2583H33.7322V24.3637H34.1675V24.2583ZM37.0061 24.2583C36.8525 24.1813 36.7149 24.3262 36.789 24.3637C36.9426 24.4408 37.0802 24.2959 37.0061 24.2583ZM19.4308 24.3657H18.9954V24.5791C19.0555 24.6377 19.563 24.4243 19.4308 24.3657ZM35.9143 24.6891L34.2784 24.3664L35.5611 24.7688L35.9143 24.6891ZM40.6084 25.5492C39.4673 25.1185 38.3422 24.5435 37.1162 24.3657L39.7404 25.382C39.9434 25.4083 40.1324 25.5137 40.3166 25.5677C40.4141 25.596 40.6238 25.7732 40.6084 25.5492ZM15.9379 24.6884C15.7343 24.6594 15.56 24.6878 15.5012 24.9012C15.7049 24.9301 15.8792 24.9018 15.9379 24.6884ZM18.0112 24.7958C17.8616 24.7457 17.3261 24.9466 17.467 25.0092L18.0112 24.9012V24.7958ZM37.0061 25.0111L36.0245 24.7958L36.6735 25.0704L37.0061 25.0111ZM15.3924 24.9038C15.1967 24.8959 14.8014 25.0237 14.738 25.2245C14.9564 25.1791 15.3069 25.1429 15.3924 24.9038ZM17.3562 25.0111C17.061 25.0915 16.5622 25.1837 16.3753 25.4399C16.589 25.4221 16.7786 25.3042 16.9716 25.2219C17.1004 25.1672 17.3702 25.1804 17.3562 25.0118V25.0111ZM37.3332 25.1192C37.1797 25.0421 37.0421 25.187 37.1162 25.2245C37.2698 25.3016 37.4074 25.1567 37.3332 25.1192ZM14.6272 25.2265C14.4736 25.1495 14.336 25.2944 14.4102 25.3319C14.5637 25.409 14.7013 25.2641 14.6272 25.2265ZM37.6611 25.2265C37.5075 25.1495 37.37 25.2944 37.4441 25.3319C37.5977 25.409 37.7352 25.2641 37.6611 25.2265ZM37.9883 25.3339C37.8347 25.2568 37.6972 25.4017 37.7713 25.4392C37.9248 25.5163 38.0624 25.3714 37.9883 25.3339ZM16.2651 25.4419C16.1115 25.3648 15.974 25.5097 16.0481 25.5473C16.2017 25.6243 16.3392 25.4794 16.2651 25.4419ZM38.8617 25.6573L38.0991 25.4419C38.1065 25.5782 38.8336 25.8733 38.8617 25.6573ZM39.1895 25.7646C39.0359 25.6876 38.8984 25.8324 38.9725 25.87C39.1261 25.947 39.2636 25.8022 39.1895 25.7646ZM30.7782 28.9826C30.8503 28.8799 30.1846 27.8544 30.057 27.8169C29.7378 27.7227 28.2542 28.8997 27.7801 28.8917C27.2733 28.8838 25.9558 27.5626 25.5078 27.7102C25.3549 27.7602 24.8501 28.4933 24.9042 28.6994C24.9996 29.063 26.1094 29.5675 26.3084 29.9574C26.2423 30.0529 24.5483 30.8762 24.2845 31.1383C23.9433 31.4768 24.6491 32.4358 24.814 32.4206C25.2821 32.3778 27.3521 30.9183 27.6545 30.9453C28.1079 31.1106 30.1011 32.6189 30.3862 32.5352C30.4837 32.5063 31.2609 31.4729 31.2142 31.3181C31.1488 31.1034 29.5963 30.3163 29.3239 30.0753C29.2417 30.0028 29.2043 29.9146 29.2564 29.8533C29.3506 29.742 30.7094 29.0801 30.7782 28.982V28.9826ZM18.1194 27.8083C17.867 27.7543 17.9451 27.8399 17.8757 27.9453C17.5845 28.3886 17.7014 28.9214 17.6854 29.4206L18.6663 28.8819L18.3404 28.8832C18.4105 28.4742 18.2416 28.1752 18.1194 27.8077V27.8083ZM37.5516 29.4213C37.6224 29.2138 37.5823 27.5811 37.1169 27.9157C36.9152 28.0606 37.1944 28.9833 36.7897 28.8852C36.7069 28.953 37.4167 29.2955 37.5516 29.4213ZM20.1947 28.5611H19.1043L19.977 28.6691C19.7807 29.3772 19.2312 29.1835 18.7517 29.3429C18.3431 29.4786 17.686 30.155 17.5999 30.5765L17.684 34.3702L17.0303 34.1561V35.339L17.6834 35.0163C17.6279 35.3278 17.5885 36.5331 17.8596 36.6207C18.6249 36.8677 18.2623 35.4582 18.3404 35.0163L18.9934 35.231V33.8334C18.8011 33.8281 18.8706 34.1054 18.7477 34.2358C18.691 34.2964 18.3858 34.4202 18.3397 34.3702C18.2836 33.9836 18.4626 33.6226 18.4579 33.2413C18.4532 32.8599 18.275 32.4865 18.3297 32.0485C18.3591 31.8154 18.5995 31.9287 18.5574 31.843C18.2943 31.3089 18.2302 30.5469 18.3691 29.933C18.5547 29.1104 20.2655 29.7657 20.1947 28.5611ZM36.351 28.5611H35.1504C35.0917 29.6143 36.2669 29.2461 36.8438 29.742C36.8371 29.0465 35.5197 29.5234 35.3715 28.8279C35.27 28.351 36.4959 29.0393 36.351 28.5618V28.5611ZM18.9941 28.6691C18.8405 28.5921 18.703 28.737 18.7771 28.7745C18.9307 28.8516 19.0682 28.7067 18.9941 28.6691ZM17.6299 29.5293V29.6366C17.7007 29.6011 17.7007 29.5649 17.6299 29.5293ZM17.3582 29.7447L17.3014 30.0648C17.4684 29.9548 17.5725 29.7256 17.3582 29.7447ZM37.0067 35.0163V36.6299C37.8467 36.8071 37.5296 35.5708 37.5529 35.0163L38.206 35.231V34.2635L37.5523 34.3708V32.2731C37.5523 32.2053 38.0571 31.7877 37.9876 31.5737C37.7613 31.6086 37.8407 31.9359 37.6624 31.8957C37.6391 31.0612 37.8875 30.2149 37.0074 29.7447L37.0061 34.3708C36.5714 34.4703 36.6068 34.0837 36.353 33.9414L36.2428 35.1249L37.0067 35.0169V35.0163ZM38.0971 31.465C38.24 30.9565 38.3729 30.2064 37.8808 29.8527C38.1091 30.3736 38.0644 30.6042 38.0197 31.1205C38.0097 31.2391 37.8901 31.4861 38.0965 31.465H38.0971ZM17.3562 31.6804L17.1405 30.1754L17.0343 30.8617L17.3568 31.6804H17.3562ZM18.6122 32.0037V32.1111C18.6829 32.0755 18.6829 32.0393 18.6122 32.0037ZM18.9934 32.6485C19.0716 32.4977 18.9247 32.3614 18.8866 32.4345C18.8085 32.5853 18.9554 32.7216 18.9934 32.6485ZM19.1023 33.7247C19.137 33.4362 19.358 32.9337 18.9954 32.7579L19.1023 33.7247ZM32.2031 33.402C32.2124 33.3835 32.4007 33.404 32.3126 33.0799H23.361L23.9066 33.1873C24.0408 34.0125 23.142 33.6595 22.5965 33.7247V42.9237C22.5965 43.0133 22.8749 43.5316 22.9718 43.6297C23.7597 44.4346 26.1909 43.7443 26.7551 44.2047C26.8873 44.3127 26.904 44.4952 27.0175 44.5926C27.1811 44.4418 26.5201 43.8385 26.472 43.8385H24.6705C24.6231 43.6508 24.7493 43.6231 24.8334 43.5151C25.2307 43.0034 26.8786 41.3693 27.3941 40.9827C27.4816 40.9175 27.541 40.8168 27.6726 40.822C28.0572 40.822 30.2714 43.5296 30.7855 43.8899C31.9747 44.2034 33.0431 43.2076 32.6919 42.0108L29.5909 38.9278C29.5656 38.7842 30.7461 37.6771 30.9444 37.4874C31.5808 36.8795 32.8588 36.1833 32.7473 35.2316L32.3393 35.7645C31.8806 36.1425 30.6192 35.8988 30.5591 35.2791C30.5331 35.013 31.2389 34.3115 31.2916 33.9348C32.0195 33.7655 32.1096 34.6369 32.748 34.9083C32.7179 34.7173 32.7927 33.7655 32.75 33.7241C32.7072 33.6826 32.2532 33.7669 32.2031 33.7247C32.1871 33.7115 32.2084 33.4856 32.2038 33.402C32.2004 33.4079 32.1377 33.3967 32.115 33.4283C31.9554 33.6549 32.2665 33.8248 31.4399 33.7241C31.5033 33.1102 31.6021 33.1405 32.2044 33.1873C32.2104 33.2584 32.1998 33.3309 32.2038 33.402H32.2031ZM38.4243 35.6611C38.5024 35.5102 38.3555 35.3739 38.3175 35.447C38.2393 35.5978 38.3862 35.7342 38.4243 35.6611ZM16.9195 35.8764C16.9736 35.4292 16.7586 35.4292 16.8126 35.8764H16.9195ZM38.5331 37.06C38.5792 37.0165 38.6487 36.5877 38.6487 36.4745C38.6487 36.3612 38.5792 35.8073 38.427 35.7697L38.425 36.6292L38.0971 36.2545C38.1786 36.3335 38.2894 37.2879 38.5338 37.0593L38.5331 37.06ZM16.8126 36.8446L16.7038 35.9851C16.7372 36.2703 16.5449 37.0527 16.9742 37.0613L17.029 36.6306L16.8126 36.8446ZM17.1378 36.5219C17.216 36.3711 17.069 36.2347 17.031 36.3078C16.9529 36.4587 17.0998 36.595 17.1378 36.5219ZM26.7451 50.2917C26.3705 50.2581 26.3131 50.843 26.4646 51.055C26.5548 51.1808 26.884 51.138 27.0669 51.2138C27.3347 51.3238 27.3794 51.6886 27.8983 51.3764C28.349 51.1051 28.0144 50.6144 28.996 50.5209C29.9575 50.43 30.226 50.9628 30.9444 51.0498C31.2663 51.0886 32.3974 51.169 32.4288 50.7758C32.4682 50.2746 30.8623 49.5191 30.4216 49.1977C29.858 48.7874 29.3713 48.2862 28.811 47.8798C28.4558 47.6223 27.8695 47.4313 27.5617 47.1744C26.9594 46.6719 26.9207 45.4245 25.6467 45.8229C25.1292 45.985 25.2193 46.3999 25.0451 46.7358C24.9556 46.9083 24.6678 47.0065 24.6665 47.2265C24.6631 47.7613 25.6093 47.5591 25.6534 47.6025C25.7114 47.6605 25.7195 48.9323 25.8103 49.2234C25.8891 49.4763 26.7972 50.2232 26.7451 50.2904V50.2917ZM9.70135 46.2188C9.3174 45.9566 9.1084 46.3446 9.063 46.691C9.41756 46.6271 9.09505 46.1714 9.60586 46.3123C9.58049 46.6475 9.61988 46.9195 10.0426 46.8497C10.0826 46.6844 9.89232 46.7878 9.82821 46.6653C9.76812 46.5514 9.76678 46.2629 9.70135 46.2188ZM8.95149 46.8504L8.73448 46.6363C8.70309 46.8609 8.72379 46.8813 8.95149 46.8504ZM9.16917 47.1744C8.67505 47.2614 8.15289 47.5867 8.18761 48.1419L9.1705 48.1433L9.16917 47.1751V47.1744ZM10.4792 48.1419C10.512 47.5815 10.0512 47.3588 9.6072 47.1744L9.60586 48.1433L10.4792 48.1419ZM7.64074 47.9279C7.06649 47.8554 6.91492 48.001 6.98703 48.572L7.20271 48.5207C7.11257 48.4337 7.04913 48.0807 7.09521 48.0346C7.15797 47.972 7.64742 48.1624 7.64074 47.9279ZM10.3704 50.2943C10.7109 50.6684 10.4559 49.7793 10.4799 49.7569L11.4595 49.9189L11.0254 49.7556C11.5363 49.1391 10.9306 49.1786 10.9179 49.0574C10.8959 48.8447 11.5476 48.9191 11.5717 48.8961C11.6237 48.8454 11.595 48.3343 11.404 48.2533C11.3339 48.2236 11.0936 48.1966 11.1343 48.3567C11.5423 48.192 11.5216 48.7387 11.4621 48.7874C11.396 48.8421 10.7771 48.6313 10.8372 49.0601C10.8472 49.1338 11.2852 49.45 11.0248 49.6489C10.9346 49.718 10.4899 49.3828 10.311 49.7582C10.2723 49.8399 10.3457 50.2673 10.3697 50.2937C10.3357 50.2647 9.54376 50.0296 9.49702 50.0776C9.52707 50.5459 9.54977 50.5479 9.06033 50.509C9.16383 49.7635 8.93012 49.9867 8.29578 49.9716C8.73381 50.3424 8.10481 50.8733 8.78656 51.0484C9.21658 50.9042 8.64901 50.9668 8.62297 50.9371C8.54351 50.8476 8.83196 50.2752 8.62297 50.079L8.95015 50.0776C8.97486 50.1975 8.91677 50.5835 8.95015 50.6171C8.97285 50.6401 9.58383 50.6408 9.60653 50.6171C9.67397 50.5479 9.42758 50.0408 9.87896 50.183C9.95575 50.2074 10.1307 50.8127 10.5881 50.6144C10.6161 50.4702 10.4866 50.5301 10.3684 50.4405C10.3377 50.4175 10.3884 50.3082 10.3704 50.293V50.2943ZM9.1705 48.6794C8.96484 48.7433 8.1215 48.518 8.18561 48.8421C8.26373 49.2366 8.77654 49.5896 9.16984 49.6476L9.17117 48.6794H9.1705ZM10.4792 48.6807L9.60586 48.6794L9.6072 49.5402C10.0926 49.5665 10.504 49.1747 10.4799 48.6807H10.4792ZM13.3178 51.4772C13.2209 50.5854 12.0951 50.1139 11.3586 50.5683C10.2322 51.2632 10.5908 52.913 11.8988 52.9841L11.9002 51.9073H10.8078C10.5247 51.1156 11.7346 51.6412 11.9002 51.4779C11.9609 51.4179 11.81 50.5281 11.9549 50.5084C12.6227 50.4155 12.2521 50.9536 12.3362 51.4779L13.3184 51.4766L13.3178 51.4772ZM42.1369 50.403C41.5713 50.3365 41.0224 50.8489 40.937 51.3699C42.3879 51.4469 41.7235 51.3712 41.9165 50.5788C41.9472 50.4531 42.1836 50.5802 42.1369 50.4037V50.403ZM7.64074 51.6932C7.67546 51.7275 8.42665 51.6616 8.62163 51.7479C8.43734 51.2006 8.23301 50.9595 7.69549 50.7251C7.62338 50.8634 7.60602 51.659 7.64141 51.6932H7.64074ZM9.27734 50.8324C8.94281 50.5525 9.18185 51.1439 9.16583 51.1966C9.12309 51.3382 8.84999 51.3303 8.8333 51.439C8.81193 51.5773 8.97018 52.2406 9.16783 51.9639C8.79324 51.4542 9.33143 51.47 9.38084 51.304C9.4022 51.2329 9.29537 50.8476 9.27734 50.8324ZM46.7215 50.8324C46.4143 50.7218 45.575 51.655 45.7399 51.7999L46.7222 51.8013L46.7208 50.8331L46.7215 50.8324ZM48.1037 51.192C48.0175 51.1051 47.4446 50.7587 47.3779 50.8324L47.3765 51.8006L48.3588 51.7993C48.3828 51.5839 48.2486 51.3382 48.1037 51.1914V51.192ZM10.3711 51.4772L10.3691 51.1551C10.1888 51.109 10.3203 51.3422 10.1908 51.3731C9.68866 51.4917 9.66596 51.1104 9.71604 52.0146L9.93171 51.9633L9.82421 51.4772H10.3711ZM13.3178 51.9086L12.3349 51.9073L12.3362 52.9835C12.4985 53.158 13.5121 52.2478 13.3178 51.9086ZM10.2609 52.0166C10.1073 51.9396 9.96977 52.0845 10.0439 52.122C10.1975 52.1991 10.335 52.0542 10.2609 52.0166ZM41.9192 52.0153C41.8898 51.987 41.2194 51.9988 41.0979 52.0153C40.9637 52.0337 40.8929 51.9626 40.9343 52.178C41.0264 52.6555 41.5526 52.9446 41.9746 53.0889C41.8785 52.8847 41.9579 52.0528 41.9192 52.0146V52.0153ZM43.5558 52.016L42.4641 52.0146L42.4654 53.0908C42.9976 52.9914 43.5765 52.5975 43.5558 52.016ZM10.2622 52.2313L10.2055 52.5514C10.3724 52.4414 10.4766 52.2122 10.2622 52.2313ZM8.62363 52.3387L7.64074 52.3374L7.64208 53.4136C7.80433 53.5881 8.81794 52.6779 8.62363 52.3387ZM46.7228 52.4454L45.7399 52.4467C45.6718 52.8313 46.2347 53.4254 46.5606 53.5203C46.7642 53.5795 46.7055 53.486 46.7222 53.3628C46.7602 53.079 46.6954 52.7391 46.7222 52.4454H46.7228ZM48.4683 52.4467L47.3765 52.4454L47.3779 53.5216C47.9414 53.4985 48.3855 52.9789 48.4683 52.4467ZM39.7357 56.4268C31.4392 59.1982 22.4309 59.4498 14.3013 55.9967C14.2552 57.2184 14.3407 58.4283 14.4208 59.6441C22.5758 62.5104 31.5427 62.7179 39.7364 59.8694V56.4268H39.7357Z" fill="white"/>
<path d="M43.447 50.8317C43.3909 50.8251 43.3695 50.756 43.3381 50.7244C43.3715 50.7599 43.4256 50.7843 43.447 50.8317Z" fill="white"/>
<path d="M43.3381 50.7245C43.3074 50.6936 43.2359 50.6672 43.2292 50.6172C43.274 50.6429 43.304 50.6883 43.3381 50.7245Z" fill="white"/>
<path d="M179.794 28.453C196.954 26.028 214.119 23.5937 231.279 21.1509L232.083 21.1377C232.119 21.1706 231.988 21.9438 231.794 21.9814L225.096 24.3109L231.974 24.5797L231.85 33.0647L214.836 35.1229L243 35.2309L242.003 52.1094L229.354 54.599L241.908 54.0596L241.253 65.3576C225.031 66.225 208.83 67.3466 192.625 68.4814C167.297 69.5227 142.042 70.7635 116.747 71.8081C115.946 71.841 115.161 71.9049 114.345 71.9148C114.067 71.9181 113.563 72.1974 113.552 71.7851L113.874 67.9545L134.599 65.2509L110.91 64.7121C110.894 62.9569 110.934 61.1951 110.91 59.4398C110.896 58.3591 110.845 57.2894 110.801 56.2113L112.234 56.0427L114.185 45.5601C114.724 45.5772 115.204 45.5798 115.738 45.6977C116.615 45.8913 117.011 46.3912 118.005 46.0428C118.569 45.8459 119.187 45.2097 119.289 44.6202C119.705 42.2301 116.852 41.7993 115.058 41.7947C115.053 41.7236 115.062 41.6511 115.059 41.58C115.043 41.2099 115.676 37.6908 115.819 37.542L122.591 36.5231C122.387 37.6948 122.627 38.9863 123.265 40.0006C123.592 40.519 124.289 40.9095 124.206 41.4977C124.112 42.1714 123.602 43.411 123.357 44.1098C122.111 47.6558 119.749 52.7575 116.916 55.2984C116.307 55.8438 115.453 56.1876 115.144 56.9944C114.511 58.6442 115.937 60.0214 117.658 59.5815C118.896 59.2647 121.294 56.3904 122.069 55.3208C124.665 51.736 126.52 47.391 127.831 43.193C127.907 43.1251 129.473 43.9636 129.554 44.2375C129.81 45.101 129.303 47.1019 129.25 48.0898C129.13 50.3028 129.46 52.7081 131.795 53.6486C133.789 54.4521 135.333 53.7447 137.217 53.0914C138.175 57.1933 141.879 56.1948 144.474 54.1643C147.213 52.0205 149.44 48.9737 151.901 46.5289C151.976 47.5379 151.586 48.5772 151.519 49.5961C151.185 54.6583 154.134 56.075 158.469 53.7559C160.932 52.438 162.886 50.3812 165.054 48.6813C164.638 50.3232 163.262 52.6936 164.308 54.3118C165.407 56.0111 167.357 54.6161 168.44 53.6855C170.328 52.0653 172.15 50.0097 174.004 48.3032C175.397 47.0215 176.819 45.7524 178.317 44.5919C178.501 44.5886 177.995 46.249 177.968 46.3998C176.926 52.2839 179.748 55.6238 185.726 52.9695C185.99 52.8523 187.183 52.0969 187.324 52.2312C187.591 54.244 189.083 56.0038 190.961 56.7698C196.199 58.907 202.582 55.3096 206.754 52.3392C207.529 55.9972 211.643 57.1347 214.943 56.1599C219.875 54.7037 225.092 46.8503 222.126 42.0858C221.955 41.8112 221.195 41.0445 221.182 40.9734C221.117 40.6375 221.796 40.131 221.293 39.0338C220.554 37.4228 218.382 37.9121 217.017 38.2994C213.732 39.2314 211.048 41.8158 209.068 44.4516C208.711 44.9278 208.418 45.6312 208.057 46.0369C205.835 48.5377 199.626 52.8293 196.385 53.6842C192.361 54.7452 190.239 53.0394 191.578 48.9467C192.259 46.8648 195.186 42.0463 197.537 41.6953C198.82 41.5036 198.593 42.0272 198.889 42.8241C199.67 44.933 203.402 44.283 202.665 41.254C201.407 36.0878 194.914 38.5029 192.125 40.9872C190.056 42.8301 189.613 44.4042 188.179 46.4584C187.555 47.3528 184.122 49.6389 183.046 49.8997C181.596 50.2508 181.562 49.7792 181.643 48.5166C181.79 46.1936 184.214 42.3697 183.155 40.3635C182.434 38.9975 180.478 39.0937 179.217 39.5626C175.849 40.8134 172.847 44.1796 170.129 46.4209C170.345 44.7374 172.569 40.926 170.589 39.7306C168.397 38.4074 166.036 42.0397 164.729 43.3596C163.227 44.8771 161.669 46.3925 160.034 47.7697C158.599 48.9776 157.038 50.2508 155.339 51.0497C155.466 48.8999 156.283 46.6652 156.428 44.5392C156.534 42.9789 156.12 40.8055 154.192 40.6138C153.892 40.5842 152.894 40.7488 152.839 40.7093C152.806 40.6856 152.757 40.4136 152.66 40.2957C150.902 38.1835 147.16 39.4408 145.195 40.6757C141.276 43.1383 139.445 47.7421 135.147 49.7087C134.365 50.0663 133.229 50.5188 133.169 49.276C133.072 47.2784 134.078 45.2327 133.429 43.1093C132.823 41.1302 130.697 40.1225 128.939 39.3051C129.008 38.1697 129.134 36.7484 128.702 35.6643C145.728 33.2517 162.763 30.8622 179.791 28.4556L179.794 28.453Z" fill="#E0E0E0"/>
<path d="M110.911 59.4394L61.7876 66.9701L61.9071 62.5698L91.044 56.1575L62.0052 57.395V51.4773L56.3242 50.8681L57.2504 32.5353L78.0534 28.8299L57.8627 29.4154L57.4286 23.5715L57.6944 23.397L63.4255 23.0729L62.9881 17.2632C70.0594 16.8312 77.1546 16.6066 84.2205 16.0797C109.658 14.1815 135.113 11.7525 160.526 9.5165C167.532 8.90003 174.537 8.17686 181.541 7.58081L181.323 10.2706C180.744 10.3523 180.159 10.4405 179.575 10.4853C179.721 12.0074 180.096 13.5005 180.341 15.0041C180.483 15.8834 180.522 16.8134 180.668 17.6939L179.794 28.4532C162.767 30.8598 145.732 33.2493 128.705 35.6618C128.648 35.5176 128.279 35.0071 128.157 34.8576C126.255 32.5215 123.07 33.7755 122.592 36.5226L115.821 37.5415C115.677 37.6904 115.044 41.2094 115.06 41.5795C114.885 41.8588 114.977 41.7541 114.736 41.7468C111.077 41.6395 107.386 42.1367 103.796 42.7967C102.008 43.1253 100.243 43.5646 98.4678 43.9453C100.04 40.0015 100.626 35.7264 102.411 31.8556C102.867 30.8677 103.674 30.2249 103.098 28.9873C115.309 24.892 127.935 21.7833 140.804 20.4187C142.792 19.8793 142.607 16.8074 140.555 16.6125C137.093 16.2838 130.941 17.5115 127.393 18.1754C113.536 20.7684 95.2641 25.8365 83.1108 32.8455C79.5585 34.8945 73.5836 38.8726 74.1539 43.5389C74.5592 46.8551 79.2213 47.1166 80.2402 44.326C80.6749 43.1365 80.0292 42.2533 80.6141 41.0368C81.7453 38.6823 86.1042 36.1762 88.4212 34.9597C91.6483 33.2651 95.1045 31.8846 98.5226 30.6069C96.4439 35.376 95.2841 40.4665 93.4939 45.3389C91.1856 46.3736 88.1675 47.2496 86.2925 49.0002C84.1905 50.9629 86.4828 53.629 88.7444 52.1702C89.155 51.9054 89.553 51.4734 90.0278 51.1757C90.2514 51.036 91.8066 50.189 91.9161 50.2944C91.3145 52.8031 90.606 57.3463 92.1531 59.5823C93.09 60.9351 95.2407 60.5999 95.7074 59.0343C96.056 57.8659 95.2995 57.2258 95.192 56.1562C94.9389 53.6461 95.8377 50.9438 96.6349 48.5965C99.7993 47.6514 103.039 46.89 106.306 46.3466C108.778 45.935 111.69 45.4792 114.185 45.5596L112.234 56.0422L110.801 56.2108C110.845 57.289 110.897 58.3586 110.91 59.4394H110.911ZM78.5976 28.6692H78.1622V28.7746H78.5976V28.6692Z" fill="white"/>
<path d="M180.339 15.0041L212.98 14.4653L213.307 22.8581C213.154 22.8779 212.81 23.0873 212.583 23.0597L182.196 26.5161C181.799 23.7769 181.305 21.0509 180.851 18.3202C180.813 18.0904 180.692 17.8454 180.668 17.6939C180.521 16.8133 180.483 15.8833 180.34 15.0041H180.339Z" fill="#E0E0E0"/>
<path d="M181.321 10.2705C193.124 8.60287 204.988 7.29155 216.794 5.64697L217.345 9.94777L203.373 10.9173L203.534 11.132L221.227 11.3401L221.915 21.7687C219.054 22.1738 216.173 22.4945 213.306 22.8594L212.979 14.4666L180.338 15.0053C180.093 13.5017 179.719 12.0079 179.573 10.4865C180.157 10.4417 180.742 10.3535 181.321 10.2718L181.321 10.2705Z" fill="white"/>
<path d="M87.5497 80.0971C87.5938 80.1432 87.4709 80.4784 87.6038 80.5272C88.2435 79.7691 89.7405 79.7243 90.224 80.6352C90.9712 79.7447 92.7353 79.6584 93.172 80.8505C93.2007 80.9296 93.3356 81.4117 93.3356 81.4426V84.9393H91.6983V81.4426C91.6983 81.0461 90.4978 81.1542 90.4978 81.4426V84.9393H88.8605V81.55C88.8605 80.9361 87.5504 81.164 87.5504 81.55V84.9393H86.022V80.0977C86.2543 80.1379 87.4977 80.0431 87.5504 80.0977L87.5497 80.0971Z" fill="white"/>
<path d="M79.69 84.9386H78.0528V81.5493C78.0528 80.9098 76.7427 81.2253 76.7427 81.5493V84.9386H75.2142V81.5493C75.2142 80.9355 73.9042 81.1633 73.9042 81.5493V84.9386H72.3757V80.097C72.9146 80.1991 73.8461 79.7776 73.9582 80.5271C74.6093 79.8 76.0629 79.7111 76.5784 80.6332C77.2201 79.8382 78.7832 79.6775 79.3628 80.5805C79.4583 80.7293 79.69 81.4163 79.69 81.5493V84.9386Z" fill="white"/>
<path d="M62.333 5.21367V7.58075H60.5862V0.479492H64.025C64.1018 0.479492 64.7788 0.7245 64.9177 0.783117C66.7486 1.557 66.9356 4.00839 65.1027 4.87711C64.9605 4.94429 64.222 5.21367 64.1338 5.21367H62.3323H62.333ZM62.333 1.87841V3.76141C62.333 3.99719 64.7829 4.28896 64.5585 2.76096C64.5171 2.48104 64.2246 1.87841 63.9161 1.87841H62.333Z" fill="white"/>
<path d="M63.2057 80.635H61.5684C61.5424 80.635 61.5644 80.3044 61.4856 80.1259C61.1371 79.3428 59.8016 79.3613 59.4384 80.095C59.0751 80.8287 58.9997 83.4223 59.9258 83.7062C60.1715 83.7819 60.4887 83.7813 60.7431 83.7477C61.7146 83.6193 61.4936 82.6787 61.5691 82.6787H63.2063C63.2357 85.0616 59.7562 85.8283 58.2945 84.2384C57.2943 83.1503 57.2843 80.6989 58.0548 79.4838C59.3502 77.4401 63.1249 78.0605 63.207 80.6344L63.2057 80.635Z" fill="white"/>
<path d="M135.909 84.5079V86.7676H134.381V79.9891C134.788 80.0464 135.365 79.9127 135.74 79.9818C135.881 80.0075 135.728 80.3013 135.856 80.3131C138.289 79.0815 139.258 81.0752 138.956 83.2611C138.755 84.7147 137.056 85.5597 135.909 84.5079ZM136.539 81.0844C136.335 81.1101 135.994 81.253 135.93 81.4624C135.84 81.7575 135.851 83.466 136.066 83.6537C137.531 84.934 138.109 80.8848 136.539 81.0844Z" fill="white"/>
<path d="M111.784 2.30835V6.1277C111.784 6.51299 113.203 6.43198 113.203 6.02034V2.30835H114.95V7.58062H113.313C113.283 7.58062 113.381 7.18281 113.259 7.1512C112.566 7.80784 111.153 7.9613 110.473 7.2052C110.381 7.1018 110.038 6.42671 110.038 6.34373V2.30901H111.785L111.784 2.30835Z" fill="white"/>
<path d="M92.0255 5.53644C92.1391 6.25763 92.8201 6.47168 93.4885 6.3887C93.8338 6.34589 94.3212 5.95532 94.4654 5.98233C94.5676 6.00209 95.2046 6.63305 95.1826 6.75884C92.9143 9.01528 89.3446 7.02624 90.445 3.8181C91.1715 1.70063 94.5549 1.63081 95.2246 3.83456C95.2987 4.07957 95.5825 5.53644 95.2447 5.53644H92.0242H92.0255ZM93.6628 4.46025C93.8752 3.1193 91.9888 3.17067 92.0255 4.46025H93.6628Z" fill="white"/>
<path d="M129.469 7.58085H127.722C127.699 7.58085 127.676 7.18502 127.559 7.15077C126.241 8.62081 123.58 6.95713 124.726 5.21903C125.294 4.35689 126.568 4.32857 127.505 4.3536C127.521 3.83395 127.547 3.38345 126.904 3.38279C126.226 3.38279 126.349 3.92286 126.303 3.92286H124.557C124.75 1.75534 128.87 1.60122 129.225 3.67983C129.435 4.91475 128.994 6.35779 129.469 7.58085ZM127.504 5.2131C126.327 4.785 125.559 6.52047 126.794 6.51652C127.61 6.51388 127.535 5.81838 127.504 5.2131Z" fill="white"/>
<path d="M80.9999 5.53642H77.7247C77.8816 6.32216 78.5467 6.50592 79.2825 6.37156C79.8608 6.26618 80.1612 5.57989 80.6774 6.44532C81.2623 7.42601 78.9079 7.75532 78.2275 7.67629C74.356 7.22579 75.7976 0.712678 79.7159 2.44419C80.1719 2.64573 80.9992 3.49338 80.9992 3.97615V5.53642H80.9999ZM79.362 4.46024C79.5316 3.10348 77.6579 3.19107 77.7247 4.46024H79.362Z" fill="white"/>
<path d="M125.539 84.9385H123.901V81.5492C123.901 80.9914 122.591 81.1033 122.591 81.4419V84.9385H120.954V79.9896H122.483C122.51 79.9896 122.462 80.4421 122.484 80.5277C123.166 79.8513 124.59 79.5687 125.194 80.4915C125.278 80.6206 125.539 81.2305 125.539 81.3345V84.9385H125.539Z" fill="white"/>
<path d="M161.345 83.1096C161.327 83.7715 160.994 84.2832 160.468 84.6659C160.292 84.7936 159.899 84.8358 159.818 84.9945C159.714 85.1961 160.451 85.2356 160.449 85.5537C160.687 86.6213 159.663 87.0784 158.725 86.9836C158.75 86.757 158.689 86.4955 158.716 86.2795C158.746 86.0378 158.981 86.1069 159.038 85.9495C159.28 85.2837 158.119 85.8152 158.617 84.9399C155.271 84.0343 156.873 78.4551 160.351 80.1616C160.795 80.3789 161.68 81.596 161.241 81.8773C161.135 81.9451 159.871 81.9708 159.821 81.9214C159.742 81.8437 159.935 81.1337 159.198 81.0981C158.286 81.0533 158.328 82.3218 158.406 82.939C158.465 83.4073 158.592 83.7458 159.109 83.7603C159.987 83.784 159.759 83.1102 159.816 83.1102H161.344L161.345 83.1096Z" fill="white"/>
<path d="M228.808 81.4952C228.886 79.9619 230.666 79.6333 231.924 79.9837C233.922 80.5395 232.86 83.3598 233.284 84.8298C232.919 84.7672 232.008 84.9444 231.75 84.7771C231.625 84.6961 231.719 84.43 231.485 84.5097C231.408 84.5361 231.26 84.758 231.054 84.839C229.994 85.2546 228.667 84.5532 228.69 83.3789C228.717 81.9714 230.419 81.7547 231.537 81.8186C231.633 81.2449 231.288 80.6989 230.662 81.0105C230.403 81.1395 230.473 81.4959 230.445 81.4959H228.808V81.4952ZM231.538 82.6787C230.78 82.3455 229.823 83.228 230.491 83.7661C231.052 84.2179 231.837 83.3433 231.538 82.6787Z" fill="white"/>
<path d="M215.709 81.4952C215.741 79.7972 218.392 79.433 219.477 80.3103C220.58 81.2021 219.802 83.5771 220.185 84.8304C219.784 84.7646 219.071 84.9319 218.723 84.8166C218.541 84.756 218.581 84.4873 218.494 84.509C218.367 84.5406 218.106 84.7995 217.873 84.866C216.808 85.1723 215.554 84.5505 215.59 83.3775C215.631 82.0069 217.362 81.7613 218.438 81.8186C218.438 81.5143 218.476 81.1007 218.12 81.0038C217.238 80.7648 217.403 81.4958 217.347 81.4958H215.709L215.709 81.4952ZM218.438 82.6787C216.278 82.3968 217.512 84.7488 218.336 83.6014C218.521 83.3439 218.418 82.9823 218.438 82.6787Z" fill="white"/>
<path d="M226.734 81.8179H225.206C225.168 81.8179 225.293 81.3878 224.94 81.1658C223.642 80.3511 223.55 83.3564 224.25 83.6752C225.241 84.1263 225.137 83.1088 225.206 83.1088H226.734C226.814 84.1046 225.958 84.5617 225.206 84.9924C226.834 85.7208 225.452 87.1705 224.114 86.9828C224.148 86.7417 224.06 86.4157 224.113 86.197C224.143 86.0673 224.589 86.0139 224.547 85.7551C224.496 85.4442 223.924 85.4989 223.896 85.4752C223.852 85.4383 224.094 84.9377 224.001 84.835C223.988 84.8199 223.721 84.8034 223.603 84.7467C222.319 84.1349 222.013 82.8288 222.333 81.5149C222.903 79.1807 226.714 79.292 226.734 81.8179Z" fill="white"/>
<path d="M100.103 84.9379C99.5253 84.8312 98.5211 85.2659 98.4116 84.5084C97.6784 85.4674 95.7827 85.0248 95.5437 83.892C95.1838 82.1848 97.018 81.8173 98.3568 81.926C98.3735 81.6224 98.3662 81.1383 97.9742 81.0645C97.1135 80.9038 97.3526 81.4972 97.0875 81.5894C96.7543 81.7053 96.0198 81.5348 95.6272 81.6026C95.5484 79.5767 99.5868 79.3778 99.8779 81.2331C100.014 82.1025 99.9587 83.4263 99.9941 84.3458C100.002 84.546 100.122 84.7324 100.102 84.9372L100.103 84.9379ZM98.3575 82.7861C96.2895 82.391 97.1042 84.7212 98.1999 83.7616C98.465 83.5291 98.3335 83.1049 98.3575 82.7861Z" fill="white"/>
<path d="M185.47 82.8942H182.413C182.388 83.6411 183.241 83.8598 183.862 83.73C184.39 83.62 184.642 82.9199 185.127 83.8242C185.324 84.191 185.288 84.2589 184.96 84.4914C183.566 85.4813 181.04 84.8905 180.785 83.047C180.199 78.8101 186.046 78.816 185.47 82.8949V82.8942ZM183.941 81.926C184.02 80.7194 182.386 80.8018 182.413 81.926H183.941Z" fill="white"/>
<path d="M154.795 84.9378C154.259 84.8331 153.11 85.2599 153.157 84.5077C151.749 85.8829 149.062 84.0414 150.587 82.4588C151.315 81.7033 152.958 82.0168 153.049 81.9259C153.239 81.7343 152.819 80.6166 152.133 81.0763C151.979 81.1791 151.933 81.4241 151.776 81.4787C151.431 81.5973 150.719 81.43 150.319 81.4952C150.333 79.4693 154.274 79.3441 154.57 81.2337C154.749 82.3745 154.381 83.7615 154.795 84.9378H154.795ZM153.048 82.6787C152.102 82.2921 151.085 83.7721 152.229 83.8715C153.047 83.9426 153.119 83.3321 153.048 82.6787Z" fill="white"/>
<path d="M163.419 81.4953C163.48 79.4253 167.433 79.3212 167.679 81.3313C167.821 82.4898 167.47 83.7741 167.895 84.9373C167.321 84.8292 166.319 85.2679 166.202 84.5065C165.753 84.7897 165.683 84.9201 165.115 84.9438C162.803 85.0393 162.665 82.2824 164.701 81.9511C165.033 81.8971 165.962 82.0123 166.103 81.8233C166.279 81.5862 165.966 81.0362 165.631 80.9743C164.909 80.8413 164.998 81.4946 164.948 81.4946H163.42L163.419 81.4953ZM166.148 82.6788C164.339 82.2968 164.601 84.5164 165.881 83.7616C166.256 83.5403 166.14 83.0424 166.148 82.6788Z" fill="white"/>
<path d="M204.329 79.9099C208.034 79.3646 208.174 84.461 205.476 84.9128C201.69 85.5471 201.513 80.3242 204.329 79.9099ZM204.652 81.0869C203.748 81.2878 203.641 83.9868 205.059 83.7556C205.977 83.6061 206.081 80.7694 204.652 81.0869Z" fill="white"/>
<path d="M174.078 84.3623C172.923 85.4918 170.529 85.0407 170.021 83.4343C169.302 81.1594 171.159 79.0979 173.488 80.1254C174.998 80.7912 175.188 83.2769 174.078 84.3629V84.3623ZM172.888 83.6194C173.34 83.2025 173.365 81.4439 172.67 81.1462C171.201 80.5179 171.187 83.4942 172.011 83.7326C172.231 83.7965 172.72 83.7741 172.887 83.6194H172.888Z" fill="white"/>
<path d="M84.6023 3.49193C84.5589 3.44912 83.8811 3.5354 83.8377 3.49193C83.7943 3.44846 83.795 2.34922 83.8377 2.30707C83.8805 2.26492 84.5609 2.3512 84.6029 2.30839C84.6877 2.22211 84.4333 0.964139 85.4002 0.350961C85.8523 0.0638023 86.8766 -0.0982187 87.3707 0.0638023C87.6271 0.147447 87.599 1.29279 87.5503 1.34021C87.4675 1.42122 86.0085 1.10311 86.3484 2.30839C86.5333 2.33934 87.3981 2.26492 87.4415 2.30773C87.4849 2.35054 87.4842 3.45044 87.4415 3.49259C87.3987 3.53474 86.534 3.46163 86.3491 3.49259V7.58131H84.6023C84.4908 7.0722 84.7492 3.63748 84.6023 3.49259V3.49193Z" fill="white"/>
<path d="M237.076 79.9073C239.257 79.5411 240.405 80.8544 240.162 82.9482C239.92 85.0241 237.019 85.6702 235.795 84.023C234.857 82.7604 235.32 80.2017 237.077 79.9073H237.076ZM237.512 81.0862C236.56 81.2924 236.636 83.9736 237.919 83.7556C238.914 83.5864 239.036 80.7563 237.512 81.0862Z" fill="white"/>
<path d="M200.207 84.8313H198.679V81.55C198.679 80.8736 197.26 80.9909 197.26 81.4427V84.832H195.732V79.9904C195.952 80.0286 197.102 79.9391 197.151 79.9891C197.2 80.0392 197.074 80.4245 197.206 80.4218C197.856 79.8916 199.124 79.5788 199.773 80.2565C199.861 80.3481 200.207 81.0442 200.207 81.12V84.832L200.207 84.8313Z" fill="white"/>
<path d="M67.1079 80.0152C69.2573 79.6754 70.3531 81.1468 70.0739 83.1536C69.9444 84.0849 69.0797 84.8871 68.1449 85.0175C64.5772 85.5154 64.3515 80.4506 67.1079 80.0152ZM67.4338 81.1942C66.565 81.3819 66.4208 84.0342 67.8351 83.8596C68.8654 83.7325 68.9448 80.8675 67.4338 81.1942Z" fill="white"/>
<path d="M107.745 83.3249C107.859 83.4237 107.562 83.9803 108.455 83.9796C108.908 83.9796 109.294 83.815 109.002 83.323C108.767 82.9285 106.511 83.072 106.346 81.6283C106.105 79.5234 110.592 79.3113 110.645 81.4992C110.534 81.6474 109.433 81.6507 109.236 81.5868C109.061 81.5295 108.697 80.4046 108.008 81.1673C107.373 81.87 109.298 82.0182 109.71 82.1947C111.019 82.7566 110.993 84.2161 109.71 84.7772C108.399 85.3509 106.331 84.9583 106.216 83.3243C106.45 83.3645 107.681 83.2696 107.744 83.3243L107.745 83.3249Z" fill="white"/>
<path d="M132.088 81.4953H130.451C130.4 81.4953 130.552 80.8274 129.747 80.9572C129.416 81.0105 129.222 81.4617 129.374 81.6968C129.559 81.9826 131.785 81.8463 132.064 83.1879C132.537 85.4641 127.687 85.6841 127.613 83.3242H129.141C129.161 83.3242 129.129 83.5534 129.243 83.7043C129.57 84.139 130.652 84.0316 130.54 83.5014C130.412 82.8955 127.99 83.1003 127.828 81.6586C127.572 79.389 131.969 79.3231 132.088 81.4953H132.088Z" fill="white"/>
<path d="M105.998 1.01758C106.032 1.22175 105.952 2.26369 105.998 2.30914C106.061 2.3717 106.85 2.21232 106.874 2.37039C106.839 2.55678 106.917 3.44921 106.873 3.49268C106.834 3.53088 106.161 3.46502 105.999 3.49268V6.28985C105.999 6.40379 106.947 6.36295 106.982 6.3972C107.017 6.43145 107.001 7.29161 106.963 7.40226C106.801 7.87844 105.35 7.70786 104.94 7.49513C104.672 7.35616 104.252 6.83058 104.252 6.55922V3.49268C104.252 3.45843 103.617 3.56908 103.595 3.43077C103.574 3.29246 103.556 2.34799 103.597 2.30848C103.639 2.26698 104.21 2.35129 104.253 2.30979C104.3 2.26435 104.218 1.22241 104.253 1.01824H106L105.998 1.01758Z" fill="white"/>
<path d="M210.687 79.989C210.793 80.0588 211.212 82.0913 211.327 82.4239C211.376 82.5649 211.358 82.7526 211.559 82.7862L212.215 79.989H213.852L212.257 84.8371C211.897 84.7647 210.832 84.9629 210.63 84.7245L209.049 79.989H210.686H210.687Z" fill="white"/>
<path d="M71.3934 2.30846C71.4241 2.33942 71.3707 2.72867 71.3947 2.84656C71.8681 2.43887 72.3529 2.02394 73.038 2.24853C73.2103 2.36642 73.0867 3.75743 73.0313 3.81539C72.9759 3.87335 71.5029 3.69486 71.5029 4.19146V7.58073H69.7561V2.30846C69.9998 2.35062 71.3359 2.25116 71.3934 2.30846Z" fill="white"/>
<path d="M118.443 2.30839C119.034 2.41377 120.22 1.9534 120.081 2.84649C120.372 2.65746 120.592 2.34857 120.95 2.25175C122.141 1.931 121.611 3.05461 121.718 3.81532C121.389 3.70336 120.08 3.88843 120.08 4.29875V7.58H118.443V2.30839Z" fill="white"/>
<path d="M146.935 79.989C146.986 80.0404 146.85 80.4481 146.989 80.5265C147.134 80.1425 148.033 79.6979 148.361 79.9278C148.494 80.0213 148.516 81.3359 148.463 81.3886C148.402 81.4492 147.242 81.2029 147.065 81.7857C146.888 82.3686 147.215 84.5276 146.996 84.8378C146.841 85.0565 145.729 84.8852 145.406 84.9386V79.9897C145.638 80.0292 146.881 79.9363 146.935 79.9897V79.989Z" fill="white"/>
<path d="M46.7223 37.4907L46.94 41.6875C46.1467 41.8725 46.6756 41.0144 46.4492 40.5026L46.3944 41.6875H43.8838V39.6431H46.504C46.526 39.6431 46.4232 40.0356 46.6121 39.9652L46.7223 39.5351H45.085L45.1939 37.4907H46.7223Z" fill="white"/>
<path d="M100.431 2.30835H98.6841V7.58062H100.431V2.30835Z" fill="white"/>
<path d="M104.033 84.9386H102.396V79.9897C102.662 80.0253 104.033 79.8758 104.033 80.1511V84.9386Z" fill="white"/>
<path d="M116.915 84.9384V79.9895C117.242 80.0429 118.35 79.8716 118.505 80.0903C118.733 80.411 118.443 84.0756 118.538 84.7626C118.424 85.105 117.248 84.8725 116.916 84.9391L116.915 84.9384Z" fill="white"/>
<path d="M142.896 79.989V84.9379C142.568 84.8846 141.461 85.0558 141.306 84.8371C141.078 84.5164 141.368 80.8518 141.273 80.1649C141.387 79.8224 142.562 80.0549 142.895 79.9884L142.896 79.989Z" fill="white"/>
<path d="M193.221 79.989H191.693V84.8305H193.221V79.989Z" fill="white"/>
<path d="M10.5888 39.6425H11.135L11.3466 43.8333C10.6302 43.9822 9.89902 43.9492 9.16919 43.9459V41.7942H11.1343V41.6875C11.0475 41.6664 10.5888 41.7132 10.5888 41.6862V39.6418V39.6425Z" fill="white"/>
<path d="M46.7223 44.1613V45.9903H44.048C44.0187 45.9903 43.6728 45.8625 43.6594 45.8158L43.7749 44.054H46.4492C46.4852 44.054 46.6148 44.1962 46.7223 44.1613Z" fill="white"/>
<path d="M10.5887 44.054L10.6989 45.8836L7.64136 45.991V44.162C7.78091 44.2206 7.96454 44.0546 8.0233 44.0546H10.5887V44.054Z" fill="white"/>
<path d="M10.3705 39.6426L10.48 41.6869H7.9687L7.85986 39.6426H10.3705Z" fill="white"/>
<path d="M8.95153 41.7942L9.06037 43.9459H7.3136C7.50457 44.2206 7.62676 45.9014 7.53128 45.9909C7.51525 46.0061 7.11128 46.0054 7.09592 45.9909C6.94167 45.846 7.355 42.3185 7.3136 41.7942H8.95086H8.95153Z" fill="white"/>
<path d="M47.1588 43.9465H45.3032V41.7948C45.6578 41.8119 46.7989 41.7078 46.9993 42.0062C47.1188 42.1847 47.0807 43.5994 47.1588 43.9472V43.9465Z" fill="white"/>
<path d="M45.9036 35.6618C46.6982 35.7652 46.0725 36.8526 46.1767 37.3834H44.3752C44.3391 37.3834 44.2096 37.2411 44.1021 37.2761V35.6624C44.6716 35.7145 45.35 35.5906 45.9036 35.6624V35.6618Z" fill="white"/>
<path d="M10.1521 35.6616L10.2616 37.2759L8.2023 37.3681C8.06474 37.0296 7.87978 35.6616 8.35053 35.6616H10.1521Z" fill="white"/>
<path d="M9.27874 33.6175L10.5882 33.6161C10.6256 33.4074 10.3418 33.5694 10.2717 33.5015C10.2136 33.4449 10.0934 31.9512 10.1521 31.8958C10.1802 31.8695 10.482 31.9136 10.5875 31.8958C10.6362 33.0813 10.8566 34.2583 10.8072 35.4478C10.5648 35.3556 9.27808 35.7455 9.27808 35.3931V33.6181L9.27874 33.6175Z" fill="white"/>
<path d="M10.9166 37.4907L11.1356 39.4277C10.548 39.4264 9.97974 39.6036 9.38814 39.5357L9.2793 37.4907H10.9166Z" fill="white"/>
<path d="M166.499 77.9711C166.673 77.8703 167.121 77.9842 167.349 77.9454C167.441 78.6494 166.831 79.3021 166.106 79.231C165.687 79.1902 165.367 78.851 164.891 78.9017C164.647 78.9274 164.716 79.1658 164.552 79.2205C164.328 79.2955 163.991 79.2093 163.746 79.2363C163.707 78.5441 164.235 77.8611 164.973 77.9664C165.303 78.0132 165.789 78.3794 166.078 78.3491C166.398 78.3155 166.418 78.0185 166.5 77.9711H166.499Z" fill="white"/>
<path d="M231.887 77.9697C232.051 77.8696 232.515 77.9842 232.738 77.9447C232.851 78.6218 232.208 79.2988 231.511 79.2165C231.201 79.1796 230.443 78.6665 230.22 78.8503C230.019 79.0156 230.343 79.4029 229.408 79.2349C228.928 79.1487 229.211 78.6507 229.415 78.382C230.226 77.3131 231.231 78.5566 231.757 78.2121C231.826 78.1667 231.836 78.0007 231.886 77.9697H231.887Z" fill="white"/>
<path d="M9.16998 37.4907V39.5351H7.53271L7.64155 37.4907H9.16998Z" fill="white"/>
<path d="M9.16992 33.6174V35.5537H7.85984L7.96868 37.3834H7.64216C7.52864 36.1129 7.84181 34.8806 7.85917 33.6167H9.16992V33.6174Z" fill="white"/>
<path d="M45.1939 33.6174H46.5046L46.7216 37.3834L46.2856 37.3821L46.5033 35.5551L45.085 35.5538C45.0203 35.4036 45.1939 35.2324 45.1939 35.1777V33.6174Z" fill="white"/>
<path d="M45.0857 33.6168L44.9762 35.5544L43.556 35.4471C43.4892 35.3839 43.598 33.6932 43.6715 33.6234C43.7363 33.5608 44.858 33.657 45.0857 33.6168Z" fill="white"/>
<path d="M45.9584 31.8958V33.51H44.2117L44.3205 31.8958H45.9584Z" fill="white"/>
<path d="M10.0432 28.5605C10.1327 28.575 10.3377 28.5361 10.3684 28.5605C10.496 28.6626 10.5547 31.3662 10.5894 31.7884H9.27803L9.16919 30.2808L10.3698 30.1721C10.4112 29.9706 10.0432 30.0984 10.0432 30.0661V28.5598V28.5605Z" fill="white"/>
<path d="M9.9337 31.8958L10.152 33.51H8.40527V31.8958H9.9337Z" fill="white"/>
<path d="M100.289 1.52396C99.7791 2.14965 98.0624 1.65502 98.6974 0.545245C99.269 -0.454543 101.099 0.530755 100.289 1.52396Z" fill="white"/>
<path d="M10.8079 27.2689C10.3852 27.097 10.2637 27.473 10.1054 27.4928C9.54387 27.5633 8.92088 27.4625 8.35465 27.5988C8.40473 27.0067 7.68826 27.4691 7.74902 27.1068C7.82047 26.6781 8.61774 26.6557 9.00702 26.6247C9.60397 26.5773 10.9815 26.3962 10.8079 27.2689Z" fill="white"/>
<path d="M46.0672 31.8958L46.2848 31.7891H45.1931C45.2011 31.5928 45.2499 30.3362 45.3026 30.2815C45.348 30.2341 46.2041 30.298 46.2695 30.4053L46.5032 33.5088H46.0672V31.8958Z" fill="white"/>
<path d="M117.319 78.0749C118.554 77.7133 119.007 79.1083 118.088 79.4765C116.859 79.9678 116.358 78.3562 117.319 78.0749Z" fill="white"/>
<path d="M103.896 79.3165C103.129 80.1213 101.589 78.9457 102.617 78.2166C103.536 77.5645 104.533 78.6467 103.896 79.3165Z" fill="white"/>
<path d="M45.8489 28.6686V30.1748L44.4299 30.0668V28.5605L45.8489 28.6686Z" fill="white"/>
<path d="M192.209 77.963C193.683 77.6627 193.687 79.9145 191.988 79.4278C191.339 79.242 191.453 78.1171 192.209 77.963Z" fill="white"/>
<path d="M141.663 78.0756C143.148 77.6508 143.457 79.4713 142.179 79.5549C141.16 79.6221 140.933 78.2844 141.663 78.0756Z" fill="white"/>
<path d="M46.0919 27.3986C46.0599 27.4151 46.1133 27.5771 45.911 27.6021C45.7086 27.6271 43.64 27.4592 43.5559 27.3769C43.4871 27.3097 43.5812 26.929 43.7101 26.8295C44.0814 26.5424 45.935 26.8526 46.4578 26.9389C46.9539 27.668 46.1854 27.3512 46.0912 27.3993L46.0919 27.3986Z" fill="white"/>
<path d="M9.82497 28.5605V30.0668L8.51489 30.1748V28.6686L9.82497 28.5605Z" fill="white"/>
<path d="M45.1938 30.2835C44.9814 30.7518 45.121 31.2899 45.0849 31.7891H43.7742L43.8843 30.1748L45.1938 30.2828V30.2835Z" fill="white"/>
<path d="M9.06115 30.2814L9.16932 31.7876L7.96875 31.7889C8.04888 30.8669 7.80449 30.0377 9.06115 30.2814Z" fill="white"/>
<path d="M11.4622 45.883H10.8065C10.7978 45.2889 10.8652 44.6882 10.6963 44.1093C10.7016 43.9796 11.4622 44.0342 11.4622 44.2154V45.883Z" fill="white"/>
<path d="M45.0695 27.7156C45.1503 27.844 45.0495 28.2648 45.0856 28.4539H43.9932L44.0953 27.6398C44.2502 27.5331 44.9968 27.599 45.0695 27.7149V27.7156Z" fill="white"/>
<path d="M10.2568 27.5976L10.371 28.4525L9.27862 28.4538C9.13506 27.5567 9.43954 27.593 10.2568 27.5976Z" fill="white"/>
<path d="M10.3704 35.6618C10.3858 35.6453 10.699 35.6605 10.8058 35.5544C10.8525 36.1294 10.9701 36.6945 10.9166 37.2767H10.3704C10.4118 37.0363 10.3143 35.7211 10.3704 35.6625V35.6618Z" fill="white"/>
<path d="M43.447 35.6616H43.9932C44.052 35.7176 43.9445 37.2067 43.8757 37.268C43.8276 37.3108 43.5592 37.2561 43.447 37.2752V35.6616Z" fill="white"/>
<path d="M7.75097 39.6424V41.4174C7.75097 41.4503 7.90188 41.5695 7.85981 41.6854L7.31361 41.6868C7.24684 41.6209 7.40509 39.9361 7.44181 39.8215C7.48722 39.6793 7.60207 39.6141 7.75097 39.6417V39.6424Z" fill="white"/>
<path d="M46.0619 27.7061C46.0933 27.7358 46.1621 28.4227 46.1768 28.5604C46.1267 28.6091 45.272 28.5419 45.2079 28.4405C45.1438 28.3391 45.2426 27.7621 45.3187 27.7154C45.3848 27.6752 46.0352 27.6811 46.0619 27.7061Z" fill="white"/>
<path d="M44.211 31.8958C44.3385 32.0157 44.0187 33.2354 44.1021 33.5107C43.996 33.493 43.6948 33.5371 43.6661 33.5107C43.6067 33.4554 43.7128 31.9663 43.7823 31.9037C43.8023 31.8859 44.1949 31.8813 44.211 31.8958Z" fill="white"/>
<path d="M46.8318 44.1614H47.159C47.0962 44.4597 47.4007 45.8665 47.2678 45.991C47.2518 46.0062 46.8318 46.0121 46.8318 45.991V44.162V44.1614Z" fill="white"/>
<path d="M9.06114 27.6996C9.17399 28.5466 8.99504 28.5459 8.18776 28.5611C8.10295 27.7358 8.22648 27.6179 9.06114 27.6996Z" fill="white"/>
<path d="M8.29663 31.8958V33.5095C8.29663 33.5312 7.87663 33.5246 7.86061 33.5095C7.73374 33.3903 8.02019 32.1692 7.96945 31.8945H8.29663V31.8958Z" fill="white"/>
<path d="M44.3204 28.5604V30.0667C44.3204 30.0884 43.9625 30.0528 43.8844 30.0667C43.8257 29.5569 44.05 29.0715 43.9933 28.5591H44.3204V28.5604Z" fill="white"/>
<path d="M45.9583 28.6685C46.2714 28.6191 46.1399 28.7331 46.1913 28.9175C46.3101 29.3403 46.2981 29.7421 46.2854 30.1755H45.9583V28.6685Z" fill="white"/>
<path d="M8.40547 28.6685V30.1748H8.07829C8.0656 29.7421 8.05358 29.3403 8.17243 28.9175C8.22452 28.7331 8.09231 28.6191 8.40547 28.6685Z" fill="white"/>
<path d="M24.3435 60.8383C24.473 60.6407 24.457 59.7529 24.3508 59.4855C23.6877 57.8218 22.5867 60.6308 23.7679 60.9305C23.8827 60.9595 24.3228 60.8699 24.3435 60.8383C24.3261 60.8614 24.3815 60.9878 24.2753 61.0609C22.9546 61.9672 22.5152 58.3869 24.0463 58.8124C24.451 58.925 24.686 59.7661 24.6753 60.1356C24.6633 60.5419 24.5291 60.5907 24.3435 60.839V60.8383Z" fill="white"/>
<path d="M33.4044 60.6229C33.5981 60.3792 33.6608 59.058 33.2228 58.9157C32.2359 58.5963 32.2212 60.5616 32.714 60.717C32.8415 60.7572 33.363 60.6749 33.4044 60.6229C33.3811 60.6518 33.4672 60.7908 33.2736 60.8731C31.9214 61.4481 31.9381 58.9974 32.7427 58.7339C33.6996 58.4204 33.8645 59.5256 33.7083 60.2244C33.6488 60.4905 33.5106 60.4911 33.4044 60.6229Z" fill="white"/>
<path d="M37.4435 57.9331V60.0848C36.9768 60.2053 37.3801 58.9994 37.1691 59.0073L36.5094 59.2174L36.3518 60.2995V58.1478L36.4606 58.9013C36.695 58.8888 37.121 58.9922 37.2098 58.7241C37.3 58.4528 37.0356 57.8488 37.4435 57.9324V57.9331Z" fill="white"/>
<path d="M16.7018 57.7176C16.6745 57.6952 16.4635 57.7314 16.3747 57.7176C16.394 58.0482 16.2191 58.8702 16.7065 58.5303C16.8801 58.4091 16.7352 57.7459 16.7018 57.7182C16.9456 57.958 17.0337 58.2662 16.9048 58.6205C16.82 58.853 16.4681 58.6285 16.7012 59.2245L16.376 58.7944C16.2912 59.0401 16.5883 59.8397 16.157 59.7619V57.5029C16.5102 57.441 16.5262 57.545 16.7025 57.7182L16.7018 57.7176Z" fill="white"/>
<path d="M18.7759 60.4069C18.4955 60.4537 18.5776 60.3674 18.5262 60.1751C18.3726 59.6001 18.607 59.4763 17.7943 59.4387C17.7616 59.4716 17.8284 60.0802 17.5767 60.0842C17.6468 59.388 17.8351 58.5601 18.1763 57.9331L18.7759 60.4062V60.4069ZM18.2297 58.5779C17.9386 58.5443 18.0588 58.5898 18.01 58.7373C17.8638 59.1779 17.8277 59.2787 18.3392 59.3307L18.2297 58.5779Z" fill="white"/>
<path d="M29.4741 61.1602C29.1036 61.2688 29.2404 60.6129 29.1369 60.5266C29.0568 60.4594 28.6388 60.4969 28.544 60.6208C28.4312 60.7676 28.524 61.2188 28.2749 61.2682L28.8211 59.0104C28.9774 58.9847 28.9693 59.1975 29.0054 59.3094C29.2004 59.9114 29.2932 60.5549 29.4741 61.1608V61.1602ZM29.0368 60.2994L28.8204 59.4399L28.6008 60.2987H29.0368V60.2994Z" fill="white"/>
<path d="M38.753 57.6096L39.1897 59.546C38.8037 59.6309 39.0721 59.2048 38.8685 59.0533C38.751 58.9657 38.4284 59.0441 38.3436 59.1435C38.174 59.3424 38.3737 59.9438 37.9897 59.868L38.4271 58.0403C38.7383 58.1253 38.341 58.7892 38.4271 58.9005L38.8631 58.7918C38.9393 58.7247 38.1881 57.5596 38.7523 57.6089L38.753 57.6096Z" fill="white"/>
<path d="M31.3304 59.1167C31.3517 59.1463 31.4753 59.1667 31.496 59.2299C31.6863 59.8161 31.2035 59.9999 31.2162 60.129C31.2469 60.4293 31.6055 60.7053 31.5474 61.0537L30.8944 60.0861L30.7842 61.1617V58.9019C31.3952 58.8143 31.2035 58.9415 31.3297 59.1173H30.8937C30.7047 60.2146 31.4386 60.1283 31.3297 59.1173L31.3304 59.1167Z" fill="white"/>
<path d="M14.7373 57.0722C15.4117 56.9806 16.0013 57.5938 14.957 57.2875C14.9837 57.5049 14.9156 57.7782 14.9496 57.9798C14.9703 58.1049 15.5352 57.96 15.5032 58.3084L14.957 58.2564C14.8381 58.394 15.1974 59.4287 14.738 59.3319V57.0722H14.7373Z" fill="white"/>
<path d="M22.3776 59.0086C22.198 59.0554 22.3262 58.8196 22.2007 58.7899C21.0001 58.5061 21.113 61.3382 22.4871 60.6236C22.5092 61.1103 21.6919 60.9983 21.4989 60.7625C21.121 60.3002 21.0555 59.1812 21.4989 58.734C21.7907 58.4396 22.3603 58.5416 22.3776 59.0086Z" fill="white"/>
<path d="M19.322 58.2558C19.6258 58.5232 20.0038 59.1726 19.923 59.546L19.5404 59.0086V60.5149H19.322V58.2551V58.2558Z" fill="white"/>
<path d="M27.4001 61.0529C27.4075 61.0509 27.507 60.9528 27.509 60.9456C27.4856 60.9798 27.4349 61.0246 27.4001 61.0529Z" fill="white"/>
<path d="M27.4003 61.0528C27.1225 61.2801 27.0845 61.3268 26.6357 61.2689V59.0085C26.8781 59.0052 27.1506 58.9881 27.3783 59.0816C27.5772 59.1626 27.4798 59.2844 27.5091 59.3319C27.4898 59.2989 26.7987 59.1725 26.7453 59.2238V61.0541C26.9416 61.0252 27.226 61.0956 27.4003 61.0541V61.0528Z" fill="white"/>
<path d="M27.5098 60.9457C27.5892 60.7178 27.6119 59.5033 27.5098 59.332C27.8323 59.8543 27.865 60.4221 27.5098 60.9457Z" fill="white"/>
<path d="M20.5226 58.363V60.7301C20.2121 60.6149 20.2936 60.1591 20.0879 59.9207L20.3042 59.9773V58.3637H20.5226V58.363Z" fill="white"/>
<path d="M35.6961 58.6859C34.7613 58.3921 34.5743 58.7227 34.5971 59.602C34.6117 60.1645 34.7339 60.5649 35.4083 60.4101C35.5212 60.3844 35.4444 60.0551 35.5886 60.2475C35.5993 60.4036 35.4244 60.561 35.2915 60.6011C34.0368 60.9779 34.123 58.3704 35.2234 58.2815C35.4184 58.2657 35.7449 58.4481 35.6955 58.6865L35.6961 58.6859Z" fill="white"/>
<path d="M17.0284 59.9775C16.784 59.8846 16.6892 59.5705 16.7032 59.332C16.9476 59.4249 17.0425 59.7391 17.0284 59.9775Z" fill="white"/>
<path d="M20.0317 59.6548C20.1025 59.6904 20.1025 59.7266 20.0317 59.7621V59.6548Z" fill="white"/>
<path d="M25.3256 33.1879L25.2167 33.832C26.2918 34.1054 25.6668 32.9179 26.7451 33.1879L26.5275 33.832C26.6964 33.7998 27.1985 33.89 27.28 33.8215C27.4816 33.6509 27.0643 32.937 28.1641 33.1879L28.0552 33.832C28.9533 33.9506 28.5754 33.7155 28.8271 33.3565C28.9894 33.1253 29.2137 33.182 29.4741 33.1873L29.366 33.8314C30.2774 34.0665 29.9636 33.4132 30.2347 33.236C30.3969 33.1293 30.6988 33.2024 30.8937 33.1879C30.7735 33.4843 30.6313 33.7866 31.0026 33.8854C30.0437 34.6237 29.191 35.7368 28.2749 36.4692C28.1127 36.5989 27.7781 36.8966 27.5798 36.8387L24.6124 33.7207C24.4822 33.1148 24.8261 33.1431 25.3262 33.1873L25.3256 33.1879Z" fill="white"/>
<path d="M22.7061 41.6867V35.4463C23.0713 35.9732 25.7142 38.4931 25.7469 38.854C25.7576 38.9699 25.6868 39.0404 25.6073 39.1102L22.7061 41.6867Z" fill="white"/>
<path d="M28.1941 37.8917C28.4525 38.3192 29.5849 38.2823 28.8892 39.3901C28.2969 40.3332 26.1087 39.8715 26.4399 38.7519C26.4893 38.5859 26.8426 38.2691 26.9641 38.0834C27.1517 37.7949 27.1203 37.2502 27.6619 37.2752C28.2254 37.3009 28.0645 37.6777 28.1941 37.8924V37.8917Z" fill="white"/>
<path d="M31.4119 41.1771C31.5 41.264 31.5241 41.4926 31.6536 41.6362C31.9688 41.9859 32.4155 41.868 32.1017 42.6096C31.699 43.5613 29.8895 43.0838 30.0437 42.2935C30.0671 42.1729 30.5018 41.7468 30.6133 41.569C30.6928 41.4432 30.6273 41.2239 30.7408 41.1382C30.8944 41.0223 31.2683 41.0368 31.4112 41.1771H31.4119Z" fill="white"/>
<path d="M24.4234 41.2877C24.4821 41.3536 24.4741 41.536 24.5589 41.6315C24.806 41.9108 25.3034 42.1577 25.1732 42.549C24.7826 43.7239 22.7601 43.2379 23.0899 42.3375C23.152 42.1683 23.4031 41.9549 23.5146 41.7836C23.6488 41.5775 23.9132 40.7134 24.4234 41.2877Z" fill="white"/>
<path d="M23.3991 35.7263C22.7327 35.3391 23.3857 34.8286 23.6255 34.4703C23.7563 34.2747 23.6428 33.898 24.0875 33.8578C24.5296 33.8176 24.5069 34.2537 24.6671 34.4275C24.9783 34.7654 25.4477 34.7068 25.1332 35.4194C24.8554 36.0497 23.9319 36.0359 23.3984 35.7263H23.3991Z" fill="white"/>
<path d="M8.73186 56.6433C8.6938 56.6763 9.04702 57.1722 8.67443 57.6063C8.13892 58.2306 6.69195 57.213 7.69354 56.4214C7.80372 56.3344 8.03208 56.3391 8.06146 56.3055C8.15628 56.1955 7.91589 55.6159 8.37195 55.4809C9.19392 55.2378 9.82092 56.0664 9.04769 56.5814C8.94553 56.6493 8.74454 56.6321 8.73119 56.644L8.73186 56.6433ZM9.04369 56.4102C9.54916 56.0954 8.53888 55.1199 8.31653 55.8576C8.15294 56.3997 8.71383 56.6157 9.04369 56.4102ZM8.49882 57.487C8.87942 57.2519 8.47745 56.0967 7.79437 56.6321C7.25952 57.0517 7.99602 57.7973 8.49882 57.487Z" fill="white"/>
<path d="M10.697 57.7191C10.6503 57.7593 11.1397 58.3889 10.4066 58.7814C9.82364 59.0936 9.02237 58.4515 9.35957 57.7435C9.54052 57.3634 10.0039 57.4346 10.044 57.3937C10.0841 57.3529 9.65671 56.7983 10.4039 56.5039C10.9501 56.2886 11.4883 56.9281 11.1905 57.5037C11.0663 57.7435 10.7304 57.6894 10.6964 57.7184L10.697 57.7191ZM10.2897 56.7766C9.71079 57.3588 11.0449 57.9312 11.0362 57.1257C11.0316 56.7206 10.5434 56.5211 10.2897 56.7766ZM9.78958 57.6242C9.41566 57.7461 9.41165 58.4982 9.88173 58.5819C10.9514 58.7729 10.7331 57.316 9.78958 57.6242Z" fill="white"/>
<path d="M13.2089 57.8264L12.2267 58.4179C14.0402 59.577 11.0795 60.6644 11.2344 59.0607C11.2952 58.4323 12.6253 57.862 13.2089 57.8264ZM12.4176 59.521C12.9845 58.9645 11.8768 58.1827 11.5155 58.9013C11.1877 59.552 12.0344 59.8984 12.4176 59.521Z" fill="white"/>
<path d="M43.9925 59.5467C43.4656 59.6184 44.0005 58.6272 43.8829 58.4705C42.6076 59.3721 42.0707 57.2296 43.31 57.0913C44.4832 56.9602 44.0299 58.894 43.9925 59.5467ZM43.7481 58.3368C44.2001 57.8836 43.6406 57.0742 43.0096 57.4483C42.3999 57.8099 43.2332 58.8525 43.7481 58.3368Z" fill="white"/>
<path d="M47.4848 55.1358C47.5736 55.2214 47.8794 56.2015 48.023 56.3595C48.1378 56.486 48.3368 56.405 48.3602 56.4267C48.3936 56.4577 48.2674 56.6777 48.2787 56.7896C48.2968 56.9675 48.5151 57.0814 48.4684 57.2862C48.1318 57.3409 48.1759 56.8621 47.8741 56.8555C47.6698 56.8509 47.1436 57.2803 47.0508 57.1789C47.1269 56.5565 47.1783 55.9183 47.2711 55.2978C47.2932 55.1516 47.3139 54.9705 47.4848 55.1358ZM47.2685 56.8568C48.0704 56.7639 47.8173 56.2226 47.4314 55.7819L47.2685 56.8568Z" fill="white"/>
<path d="M46.3951 57.3975C46.4305 57.4324 46.3023 57.6458 46.3136 57.7577C46.325 57.8697 46.5894 58.1753 46.5033 58.255C46.2876 58.4546 46.0319 58.037 46.0659 57.8249L45.0857 58.147L45.3047 56.1033C45.68 56.2804 45.7701 57.0662 46.0145 57.2881C46.1514 57.4126 46.3797 57.3817 46.3958 57.3968L46.3951 57.3975ZM45.304 57.8249C46.106 57.732 45.8529 57.1907 45.467 56.75L45.304 57.8249Z" fill="white"/>
<path d="M42.2459 60.4069C41.9554 60.4661 42.0582 60.3344 41.9748 60.1948C41.7951 59.8931 41.3671 58.8235 41.2109 58.6833C40.9919 58.487 40.6487 58.728 40.7181 58.3645C40.8717 58.3566 41.0399 58.2229 41.1915 58.265C41.3564 58.3105 42.2338 60.0697 42.2452 60.4062L42.2459 60.4069Z" fill="white"/>
<path d="M33.4036 22.5366H32.9683V22.642H33.4036V22.5366Z" fill="white"/>
<path d="M28.355 30.5765C27.9931 30.9137 26.9508 30.674 27.0884 30.0377C27.101 29.9778 27.467 29.2796 27.5043 29.2546C27.8903 28.9899 28.0332 29.4443 28.2188 29.6366C28.3831 29.8072 28.6328 29.7394 28.5854 30.0944C28.5767 30.1589 28.4011 30.5337 28.3557 30.5765H28.355Z" fill="white"/>
<path d="M27.1833 48.3566C27.3736 48.2736 27.1539 47.8811 27.1779 47.6598C27.1906 47.5439 27.1579 47.4266 27.3435 47.4984C27.8243 47.6828 29.6185 48.8446 29.8007 49.2741C29.965 49.662 29.0422 49.1226 29.0382 49.4328C29.3948 49.66 29.9209 49.4209 30.2054 49.5158C30.6334 49.6587 31.5782 50.424 31.9842 50.7243C30.4291 50.8416 28.5641 49.0244 27.6707 51.1551C27.3422 50.9812 27.3956 50.7013 26.8541 50.8323C26.7292 50.5267 27.4276 50.4108 27.3989 50.3496C26.8748 49.7522 26.2064 49.4624 26.1022 48.6154C26.0074 47.8481 26.3439 47.1724 25.2168 47.1223C25.5994 46.4584 25.8899 45.5186 26.6838 46.5362C27.2106 47.2112 26.8267 47.6571 27.1826 48.3586L27.1833 48.3566ZM28.1087 48.79C28.0006 48.865 28.1675 48.9375 28.2202 49.0007C28.3291 48.9302 28.1695 48.8585 28.1087 48.79ZM28.928 49.2194C28.9067 49.2009 28.4813 49.0593 28.3852 49.0554C28.4773 49.1739 28.8112 49.3781 28.928 49.3248C28.9227 49.2899 28.9427 49.2326 28.928 49.2194Z" fill="white"/>
<path d="M216.892 42.5634C216.931 42.5858 217.215 43.1252 217.417 43.2853C218.029 43.7713 218.628 43.6528 219.063 44.5669C220.255 47.0717 217.359 51.0148 215.076 52.0917C212.652 53.2357 209.336 52.4342 210.6 49.1865C211.302 47.3839 212.405 45.7353 213.851 44.4293C214.239 44.0789 216.509 42.3461 216.892 42.5641V42.5634Z" fill="#E0E0E0"/>
<path d="M149.664 43.0864C149.711 43.2892 149.547 43.3412 149.446 43.4624C148.173 44.9917 146.29 46.853 144.864 48.3066C143.776 49.4157 142.674 50.5512 141.421 51.4752C141.811 50.1106 142.625 48.8276 143.462 47.6776C144.898 45.705 147.078 43.3347 149.664 43.0857V43.0864Z" fill="#E0E0E0"/>
</g>
<defs>
<clipPath id="clip0_2157_699">
<rect width="243" height="87" fill="white"/>
</clipPath>
</defs>
</svg>
