<svg width="210" height="70" viewBox="0 0 210 70" fill="none" xmlns="http://www.w3.org/2000/svg">
<g clip-path="url(#clip0_2054_2102)">
<path d="M5.57181 20.5363C6.98823 20.4351 8.4033 20.3216 9.82108 20.2355C10.9482 20.1671 12.0768 20.1343 13.2039 20.0851C14.3311 20.0358 15.4583 19.9811 16.5854 19.9374C17.4464 19.9045 18.3088 19.8745 19.1711 19.8635C21.6142 19.8321 24.0573 19.7992 26.5004 19.791C27.7566 19.7869 29.0127 19.8321 30.2689 19.8621C31.005 19.8799 31.7424 19.9059 32.4784 19.936C33.5689 19.9811 34.6581 20.0304 35.7472 20.0851C36.6041 20.1288 37.461 20.1794 38.3179 20.2341C39.4166 20.3052 40.5139 20.3763 41.6112 20.4611C42.7084 20.5459 43.8071 20.6252 44.9003 20.7483C48.567 21.1599 52.2364 21.5401 55.8935 22.027C58.964 22.4358 62.0237 22.935 65.0765 23.4656C70.3226 24.3777 75.5306 25.4868 80.7061 26.7518C88.1915 28.5815 95.5833 30.734 102.881 33.2175C110.482 35.8035 117.955 38.7204 125.282 42.0176C125.414 42.0764 125.551 42.127 125.731 42.1995C125.444 38.6466 125.158 35.1361 124.872 31.6079C124.963 31.597 125.021 31.586 125.08 31.5847C127.364 31.5546 129.648 31.5176 131.932 31.4985C135.913 31.467 139.894 31.4479 143.875 31.4219C147.213 31.3987 150.549 31.3727 153.887 31.3481C157.25 31.3235 160.612 31.2988 163.975 31.2729C167.325 31.2482 170.675 31.225 174.026 31.1976C176.102 31.1812 178.183 31.0746 180.254 31.1607C182.005 31.2346 183.751 31.5122 185.494 31.7282C186.689 31.8773 187.884 32.04 189.069 32.2588C192.863 32.9604 196.581 33.9341 200.088 35.5984C202.673 36.825 205.017 38.3854 206.861 40.6254C208.401 42.4962 209.34 44.6432 209.766 47.0255C209.852 47.5014 209.924 47.98 210.001 48.4573V51.1459C209.868 51.8078 209.764 52.4778 209.598 53.1315C208.968 55.6245 207.811 57.8769 206.425 60.0171C204.341 63.239 201.868 66.1327 199.036 68.7146C198.829 68.9047 198.591 69.0592 198.367 69.2315C198.352 69.2165 198.337 69.2001 198.322 69.185C199.156 68.2524 200.003 67.332 200.821 66.3843C203.13 63.7067 205.183 60.8554 206.62 57.5952C207.212 56.2495 207.661 54.8587 207.911 53.4078C208.515 49.8782 207.616 46.7711 205.298 44.0675C203.188 41.6059 200.538 39.9116 197.621 38.596C195.063 37.4418 192.388 36.665 189.633 36.1673C188.385 35.9416 187.125 35.7693 185.862 35.638C184.826 35.53 183.78 35.4835 182.737 35.4726C180.418 35.4493 178.097 35.4589 175.776 35.4684C174.915 35.4726 174.056 35.53 173.195 35.5368C171.626 35.5491 170.057 35.5314 168.489 35.5423C165.974 35.5601 163.457 35.5888 160.942 35.6148C158.662 35.638 156.382 35.664 154.102 35.6886C151.808 35.7132 149.515 35.7379 147.221 35.7638C144.953 35.7885 142.684 35.8131 140.416 35.8391C138.148 35.8637 135.88 35.8883 133.612 35.9143C133.527 35.9143 133.442 35.9252 133.323 35.932C133.233 36.8114 133.152 37.6852 133.055 38.5563C132.887 40.0907 132.705 41.6251 132.537 43.1595C132.474 43.727 132.455 44.3 132.375 44.8648C132.326 45.2135 132.432 45.3831 132.747 45.5431C134.927 46.6521 137.1 47.7763 139.264 48.9168C140.237 49.4296 141.183 49.9917 142.142 50.5332C142.248 50.5934 142.348 50.6604 142.43 50.7698C139.028 49.4706 135.627 48.1715 132.173 46.8532C132.065 47.7681 131.965 48.6255 131.863 49.4802C131.6 51.6874 131.393 53.9015 130.506 55.9828C129.446 58.4704 128.032 60.7405 126.34 62.826C125.161 64.2783 123.87 65.6376 122.627 67.0366C122.54 67.1351 122.437 67.2199 122.273 67.265C122.347 67.1023 122.422 66.9382 122.495 66.7754C123.955 63.5467 125.184 60.2386 125.888 56.7514C126.242 54.9927 126.358 53.2163 126.287 51.4248C126.248 50.4375 126.204 49.4515 126.15 48.4655C126.083 47.2812 126.011 46.0983 125.915 44.9167C125.905 44.8032 125.721 44.6514 125.588 44.6104C122.319 43.5697 119.055 42.5058 115.77 41.5198C110.258 39.8664 104.69 38.4237 99.0598 37.2326C98.0589 37.0206 97.0513 36.8387 96.045 36.6555C93.7676 36.2411 91.4969 35.7748 89.2087 35.4425C86.7343 35.0842 84.2424 34.8462 81.7558 34.5713C80.8446 34.4715 79.9279 34.4072 79.0126 34.3471C78.3635 34.3047 77.713 34.291 77.0638 34.2691C76.2775 34.2418 75.4912 34.1939 74.7049 34.1994C73.4107 34.2076 72.1152 34.2172 70.8237 34.2855C66.6002 34.5125 62.4379 35.0937 58.4426 36.5734C55.8718 37.5252 53.4898 38.8093 51.4188 40.6364C51.3645 40.6842 51.302 40.7225 51.2735 40.7444C50.1219 39.5246 49.0124 38.2869 47.8377 37.115C43.9823 33.2708 39.6149 30.1323 34.7993 27.6188C29.6374 24.9248 24.1877 23.0567 18.4907 21.9189C16.7511 21.5716 14.9911 21.3158 13.2324 21.071C12.2343 20.9329 11.2226 20.8864 10.2135 20.8304C8.66675 20.7442 7.11724 20.684 5.56909 20.6129C5.57045 20.5856 5.57181 20.5582 5.57452 20.5309L5.57181 20.5363Z" fill="white"/>
<path d="M154.701 16.7443C153.529 16.2547 152.359 15.761 151.182 15.2769C143.939 12.2943 136.518 9.86969 128.857 8.24233C126.396 7.71993 123.913 7.30283 121.431 6.8953C119.963 6.65462 118.478 6.51513 117 6.35103C115.741 6.21017 114.478 6.09256 113.216 5.97632C112.022 5.86692 110.827 5.75478 109.632 5.67546C108.555 5.60435 107.476 5.577 106.396 5.5264C105.403 5.47991 104.411 5.42931 103.419 5.37734C102.059 5.30486 100.699 5.20777 99.3384 5.15854C97.5132 5.09289 95.688 5.04366 93.8628 5.02315C92.7275 5.01084 91.5922 5.05734 90.4583 5.09426C89.2904 5.13255 88.1225 5.18452 86.9546 5.24196C85.7038 5.30486 84.4531 5.37734 83.2037 5.45392C82.0792 5.52367 80.9561 5.59341 79.8331 5.68367C78.7697 5.76846 77.7105 5.88606 76.6471 5.97222C75.3203 6.08025 73.9908 6.15957 72.6654 6.27308C71.0303 6.41256 69.398 6.56846 67.7643 6.72436C66.5135 6.84334 65.2641 6.96642 64.0148 7.10043C61.3802 7.38351 58.747 7.66796 56.1151 7.96335C53.6842 8.23686 51.2547 8.5213 48.8266 8.81396C46.2925 9.12028 43.7611 9.43755 41.2284 9.75892C38.8668 10.0584 36.5065 10.3647 34.1463 10.6765C32.901 10.8406 31.6597 11.0294 30.4144 11.1989C29.108 11.3767 27.7975 11.534 26.4911 11.7145C24.7229 11.9593 22.9575 12.2205 21.1893 12.4694C19.4266 12.7183 17.6612 12.9576 15.8985 13.2078C14.3707 13.4253 12.8456 13.6523 11.3192 13.8766C9.9571 14.0776 8.595 14.2786 7.23289 14.4824C5.51499 14.7381 3.79572 14.9966 2.07782 15.2537C2.01807 15.2619 1.95695 15.2537 1.8877 15.1785C3.01893 14.9241 4.14745 14.6588 5.28141 14.4181C12.9027 12.8044 20.5239 11.188 28.1492 9.59345C30.7146 9.05738 33.2907 8.576 35.8615 8.07275C37.6677 7.71993 39.4725 7.36027 41.2814 7.02659C43.5669 6.60539 45.8539 6.19513 48.1435 5.79991C51.912 5.15033 55.6819 4.50622 59.4531 3.87989C61.607 3.5216 63.7662 3.19202 65.9241 2.86655C67.1002 2.68877 68.2817 2.55065 69.4604 2.38928C71.3237 2.13218 73.1842 1.86004 75.0487 1.61662C76.1012 1.4785 77.1591 1.38961 78.2143 1.27063C79.5818 1.1161 80.9466 0.935588 82.3155 0.7961C83.421 0.683962 84.5305 0.616953 85.6373 0.52396C86.4657 0.454216 87.2927 0.357121 88.1211 0.303787C89.4927 0.214898 90.8643 0.151991 92.2359 0.0740415C92.2862 0.0713064 92.3351 0.0275453 92.384 0.00292969C94.3871 0.00292969 96.3915 0.00292969 98.3946 0.00292969C98.84 0.0521609 99.2855 0.112332 99.7322 0.150623C101.485 0.298317 103.24 0.421395 104.991 0.589602C106.358 0.720885 107.724 0.879519 109.085 1.07371C110.575 1.28568 112.066 1.51132 113.542 1.80124C116.456 2.37287 119.383 2.90621 122.267 3.60638C130.626 5.63854 138.672 8.57874 146.417 12.334C149.171 13.6701 151.857 15.1484 154.575 16.5638C154.64 16.598 154.701 16.6404 154.764 16.68C154.742 16.7019 154.72 16.7251 154.698 16.747L154.701 16.7443Z" fill="white"/>
<path d="M174.202 42.0503C174.125 42.1994 174.082 42.2965 174.027 42.3867C169.259 50.3171 164.49 58.2474 159.727 66.1805C159.589 66.4116 159.443 66.5018 159.173 66.5005C157.084 66.4895 154.994 66.495 152.861 66.495C151.369 58.3554 149.877 50.2282 148.381 42.0708H154.739C155.706 47.4507 156.676 52.8402 157.666 58.3417C157.791 58.153 157.863 58.0505 157.928 57.9452C161.127 52.7472 164.328 47.5505 167.521 42.3498C167.653 42.1365 167.782 42.0421 168.042 42.0435C169.971 42.0558 171.901 42.0503 173.83 42.0503H174.202Z" fill="white"/>
<path d="M178.692 41.1848C179.886 41.3544 180.99 41.4802 182.083 41.6717C184.234 42.0464 186.429 42.287 188.517 42.8888C191.904 43.8652 195.14 45.2669 198.07 47.2909C198.42 47.5329 198.734 47.8515 199.004 48.1852C199.402 48.6748 199.364 49.1288 198.868 49.5158C198.434 49.855 197.957 50.1613 197.459 50.3965C195.158 51.4837 192.714 52.1456 190.265 52.787C188.82 53.1644 187.364 53.4995 185.899 53.8578V54.8205C187.944 55.3429 189.981 55.8366 192.003 56.3863C193.873 56.8951 195.727 57.4653 197.479 58.3118C197.933 58.5306 198.373 58.7959 198.773 59.1009C199.387 59.5658 199.46 60.0773 198.917 60.6147C198.367 61.1577 197.752 61.6582 197.096 62.063C194.696 63.5413 192.123 64.6722 189.453 65.5283C187.806 66.0562 186.077 66.331 184.374 66.6702C183.149 66.9136 181.911 67.0873 180.675 67.2705C180.031 67.3663 179.379 67.4155 178.689 67.4907C179.034 66.9423 179.366 66.4213 179.69 65.8962C179.965 65.4531 180.261 65.0209 180.496 64.5574C180.676 64.2004 180.942 64.0131 181.308 63.9242C183.058 63.4989 184.817 63.0996 186.558 62.6387C187.784 62.3132 188.991 61.9098 190.203 61.5283C190.424 61.4585 190.633 61.3395 190.836 61.2233C191.633 60.7665 191.728 60.3946 191.204 59.6301C190.989 59.3156 190.732 59.0175 190.446 58.7672C189.088 57.5829 187.537 56.7761 185.763 56.4178C184.844 56.2318 184.094 56.4821 183.66 57.3313C183.103 58.4226 182.618 59.5508 182.098 60.6612C181.882 61.1207 181.674 61.5857 181.422 62.0247C181.35 62.1505 181.135 62.1943 180.986 62.2749C180.911 62.1231 180.762 61.9631 180.775 61.8195C180.809 61.4544 180.904 61.0934 180.994 60.7351C181.369 59.2417 181.699 57.747 181.818 56.199C181.94 54.629 181.974 53.066 181.722 51.5206C181.472 49.9849 181.092 48.4697 180.787 46.9421C180.756 46.7849 180.846 46.6044 180.88 46.4348C181.033 46.5086 181.255 46.5428 181.329 46.6645C181.59 47.098 181.818 47.5534 182.029 48.0143C182.409 48.8485 182.762 49.6964 183.141 50.5319C183.258 50.7904 183.417 51.0297 183.562 51.2745C184.074 52.1319 184.776 52.5107 185.796 52.2796C187.737 51.8393 189.435 50.9654 190.836 49.5377C191.065 49.3039 191.247 49.0071 191.391 48.709C191.63 48.2112 191.557 47.909 191.081 47.6396C190.569 47.3483 190.034 47.057 189.472 46.9025C187.258 46.2953 185.03 45.7442 182.808 45.1684C182.235 45.0194 181.657 44.8813 181.097 44.6898C180.899 44.6214 180.701 44.4423 180.582 44.2604C180.017 43.3852 179.478 42.4935 178.932 41.606C178.863 41.4925 178.799 41.3763 178.688 41.1862L178.692 41.1848Z" fill="white"/>
<path d="M20.1097 26.7217C15.54 27.3781 11.6397 29.3843 8.40895 32.6841C5.63722 35.5163 3.75907 38.8749 2.84104 42.7464C2.57758 43.8555 2.42956 44.9988 2.31548 46.1352C2.22042 47.0692 2.19462 48.0196 2.24758 48.9578C2.30055 49.915 2.4282 50.8778 2.62376 51.8159C4.00215 58.4307 7.60229 63.4154 13.5043 66.6769C15.1135 67.5658 16.8423 68.1443 18.6322 68.5587C20.4927 68.9894 22.3722 69.1166 24.268 68.9935C29.3389 68.6639 33.7416 66.7617 37.4517 63.2567C37.7396 62.9846 38.0167 62.7015 38.2978 62.4239C38.3222 62.4485 38.3467 62.4745 38.3711 62.4991C35.7596 65.5063 32.5601 67.626 28.8052 68.9005C27.2991 69.412 25.7564 69.7922 24.1689 69.8852C22.8299 69.9645 21.4732 70.0643 20.1437 69.9399C15.3865 69.4968 11.1359 67.7586 7.50179 64.6037C3.9261 61.4994 1.64598 57.5992 0.583998 52.9756C0.305602 51.7612 0.171158 50.5263 0.0584414 49.2832C-0.0651392 47.928 0.0231326 46.5824 0.251281 45.275C1.84561 36.1508 7.06315 30.1761 15.8564 27.4273C17.2266 26.9993 18.6892 26.8694 20.1084 26.6013C20.1084 26.641 20.1097 26.6806 20.1111 26.7217H20.1097Z" fill="white"/>
<path d="M32.2559 50.9011C30.8748 53.9999 28.5458 56.0499 25.3925 57.1904C23.7479 57.7853 22.0327 57.9453 20.3243 57.773C15.4327 57.2806 11.5528 54.0327 10.2138 49.3804C9.80637 47.9677 9.65562 46.5127 9.8213 45.0809C10.2953 40.981 12.4206 37.9505 16.0098 35.969C16.5802 35.6544 17.1968 35.4233 17.7943 35.158C17.8798 35.1197 17.9763 35.1061 18.0931 35.1444C17.8595 35.2606 17.6218 35.37 17.3923 35.4958C14.4617 37.104 12.7533 39.623 12.0362 42.8545C11.8638 43.634 11.728 44.4463 11.7443 45.2395C11.8067 48.1961 12.7872 50.8177 14.8053 52.9975C16.6753 55.0174 18.9717 56.2577 21.7203 56.508C24.9253 56.7993 27.7052 55.7463 30.0858 53.602C30.8626 52.9032 31.509 52.0881 32.0088 51.1623C32.0644 51.0597 32.1391 50.9681 32.2057 50.8724C32.2138 50.8956 32.2301 50.9052 32.2546 50.9025L32.2559 50.9011Z" fill="white"/>
<path d="M20.1097 26.7217C20.1097 26.6821 20.1083 26.6424 20.1069 26.6014C20.8362 26.5576 21.5655 26.5125 22.2947 26.4688C22.2947 26.4934 22.2974 26.5193 22.2988 26.544C21.5695 26.6028 20.8403 26.6616 20.1097 26.7217Z" fill="white"/>
<path d="M38.3683 62.4991C38.3438 62.4745 38.3194 62.4485 38.2949 62.4239C38.5204 62.1572 38.7471 61.8919 38.9726 61.6252C39.0025 61.6512 39.0337 61.6758 39.0636 61.7018C38.8313 61.9671 38.5991 62.2338 38.3669 62.4991H38.3683Z" fill="#FFFFF1"/>
<path d="M5.57186 20.5364C5.57051 20.5637 5.56915 20.5911 5.56643 20.6184C5.1468 20.6499 4.72853 20.68 4.3089 20.7114C4.30754 20.6813 4.30482 20.6499 4.30347 20.6198C4.72581 20.5924 5.14952 20.5637 5.57186 20.5364Z" fill="white"/>
<path d="M32.2559 50.9011C32.2315 50.9038 32.2152 50.8929 32.207 50.871C32.2912 50.6686 32.3754 50.4648 32.4596 50.2625C32.5072 50.2871 32.5533 50.3117 32.6009 50.3377C32.4854 50.5264 32.3714 50.7137 32.2559 50.9025V50.9011Z" fill="white"/>
<path d="M39.9286 60.4834C39.8295 60.6078 39.7303 60.7337 39.6326 60.8581L39.623 60.8485C39.7222 60.7241 39.8227 60.601 39.9218 60.4766L39.9286 60.4834Z" fill="white"/>
<path d="M39.3448 61.3299C39.262 61.4339 39.1791 61.5364 39.0963 61.6404C39.0718 61.6212 39.0474 61.6021 39.0229 61.5843C39.1044 61.4776 39.1859 61.3696 39.2674 61.2629C39.2932 61.2848 39.3176 61.3081 39.3434 61.3299H39.3448Z" fill="#FFFFF1"/>
<path d="M39.5036 61.0319C39.4696 61.1085 39.4357 61.1851 39.4017 61.263C39.3759 61.248 39.3515 61.233 39.3257 61.2193C39.3773 61.155 39.4275 61.0921 39.4791 61.0278L39.5022 61.0333L39.5036 61.0319Z" fill="#FFFFF1"/>
<path d="M32.5776 50.1012C32.6265 50.0246 32.6741 49.9494 32.7229 49.8728L32.7311 49.8796C32.6808 49.9535 32.6306 50.0287 32.5804 50.1025L32.5776 50.0998V50.1012Z" fill="white"/>
<path d="M32.7217 49.8727C32.7298 49.7647 32.738 49.6566 32.7461 49.5486C32.7733 49.5527 32.8018 49.5568 32.829 49.5609C32.7964 49.6676 32.7638 49.7729 32.7298 49.8795L32.7217 49.8727Z" fill="white"/>
<path d="M40.787 59.1912C40.7775 59.2117 40.7734 59.2445 40.7585 59.25C40.7435 59.2554 40.7191 59.2349 40.6987 59.2267C40.7082 59.2062 40.7123 59.1734 40.7272 59.1679C40.7422 59.1624 40.7666 59.1829 40.7884 59.1925L40.787 59.1912Z" fill="white"/>
<path d="M32.996 49.1111C32.9865 49.1316 32.9824 49.1644 32.9675 49.1699C32.9525 49.1753 32.9281 49.1548 32.9077 49.1466C32.9172 49.1261 32.9213 49.0933 32.9362 49.0878C32.9512 49.0824 32.9756 49.1029 32.9973 49.1124L32.996 49.1111Z" fill="white"/>
<path d="M33.0775 48.5654C33.0978 48.575 33.1182 48.5832 33.1399 48.5928C33.1304 48.6133 33.1263 48.6461 33.1114 48.6516C33.0965 48.6571 33.0707 48.6365 33.0503 48.6283C33.0598 48.6078 33.0679 48.5873 33.0775 48.5654Z" fill="white"/>
<path d="M33.1264 48.3302C33.1359 48.3097 33.1399 48.2769 33.1549 48.2714C33.1698 48.266 33.1943 48.2865 33.2146 48.2947C33.2051 48.3152 33.201 48.348 33.1861 48.3535C33.1712 48.3589 33.1467 48.3384 33.125 48.3289L33.1264 48.3302Z" fill="white"/>
<path d="M39.5036 61.0319L39.4805 61.0264C39.528 60.9676 39.5755 60.9088 39.6231 60.8486L39.6326 60.8582C39.5891 60.9156 39.547 60.9731 39.5036 61.0319Z" fill="white"/>
<path d="M40.116 60.236C40.1065 60.2565 40.0984 60.277 40.0888 60.2975C40.0685 60.288 40.0359 60.2839 40.0304 60.2688C40.025 60.2538 40.0454 60.2278 40.0535 60.2073C40.0739 60.2168 40.0943 60.2251 40.116 60.2346V60.236Z" fill="white"/>
<path d="M40.2682 60.0117C40.2587 60.0322 40.2546 60.065 40.2397 60.0705C40.2247 60.076 40.2003 60.0555 40.1799 60.0473C40.1894 60.0268 40.1935 59.9939 40.2084 59.9885C40.2234 59.983 40.2478 60.0035 40.2696 60.0131L40.2682 60.0117Z" fill="white"/>
<path d="M40.4162 59.7888C40.4066 59.8093 40.4026 59.8421 40.3876 59.8476C40.3727 59.8531 40.3483 59.8326 40.3279 59.8244C40.3374 59.8039 40.3415 59.771 40.3564 59.7656C40.3713 59.7601 40.3958 59.7806 40.4175 59.7902L40.4162 59.7888Z" fill="white"/>
<path d="M41.0069 58.8178C40.9974 58.8383 40.9892 58.8588 40.9797 58.8793C40.9593 58.8697 40.9268 58.8656 40.9213 58.8506C40.9159 58.8356 40.9363 58.8109 40.9444 58.7891C40.9648 58.7986 40.9851 58.8068 41.0069 58.8164V58.8178Z" fill="white"/>
<path d="M31.957 40.1591C31.972 40.1454 31.9842 40.1304 31.9991 40.1222C32.0032 40.1194 32.0263 40.1331 32.0263 40.14C32.0263 40.1605 32.0195 40.181 32.0154 40.2015C31.9964 40.1878 31.9788 40.1755 31.957 40.1591Z" fill="white"/>
<path d="M28.2687 27.385C28.2633 27.3658 28.2484 27.3412 28.2552 27.3303C28.2647 27.3152 28.2891 27.3084 28.3081 27.2988C28.3135 27.318 28.3285 27.3426 28.3217 27.3549C28.3136 27.3699 28.2877 27.3754 28.2687 27.385Z" fill="white"/>
<path d="M32.8696 49.3791C32.8546 49.3681 32.8383 49.3586 32.8261 49.3463C32.8234 49.3435 32.8343 49.3189 32.841 49.3176C32.8614 49.3148 32.8818 49.3189 32.9022 49.3217C32.8913 49.3408 32.8804 49.3599 32.8696 49.3791Z" fill="white"/>
<path d="M18.2356 35.0007V35.1129C18.2247 35.1129 18.2152 35.1129 18.2043 35.1129V35.0007C18.2152 35.0007 18.2247 35.0007 18.2356 35.0007Z" fill="white"/>
<path d="M18.4582 34.9255V35.0377C18.4474 35.0377 18.4379 35.0377 18.427 35.0377V34.9255C18.4379 34.9255 18.4474 34.9255 18.4582 34.9255Z" fill="white"/>
<path d="M154.766 16.6771L154.849 16.7715C154.8 16.7619 154.751 16.7524 154.701 16.7428C154.723 16.7209 154.745 16.6977 154.766 16.6758V16.6771Z" fill="white"/>
<path d="M40.499 59.5973C40.4895 59.6 40.4745 59.6068 40.4718 59.6041C40.465 59.5959 40.465 59.5836 40.4609 59.5727C40.4704 59.5699 40.4854 59.5631 40.4881 59.5658C40.4949 59.574 40.4949 59.5863 40.499 59.5973Z" fill="white"/>
<path d="M30.7945 38.4593C30.785 38.447 30.7768 38.4347 30.7673 38.4224C30.7796 38.4319 30.7918 38.4401 30.804 38.4497L30.7945 38.4593Z" fill="white"/>
<path d="M198.366 69.233C198.34 69.244 198.314 69.2563 198.287 69.2672C198.298 69.2399 198.309 69.2139 198.319 69.1865C198.334 69.2016 198.349 69.2166 198.364 69.233H198.366Z" fill="white"/>
<path d="M31.2468 38.9707C31.2563 38.983 31.2645 38.9953 31.274 39.0076C31.2617 38.9981 31.2495 38.9898 31.2373 38.9803L31.2468 38.9707Z" fill="white"/>
<path d="M31.388 39.2059C31.3785 39.1936 31.3703 39.1813 31.3608 39.1689C31.3731 39.1785 31.3853 39.1867 31.3975 39.1963L31.388 39.2059Z" fill="white"/>
<path d="M31.3974 39.1963C31.407 39.2031 31.4165 39.2113 31.426 39.2182C31.4137 39.2141 31.4002 39.21 31.3879 39.2059L31.3974 39.1963Z" fill="white"/>
<path d="M31.5359 39.4302C31.5264 39.4179 31.5183 39.4056 31.5088 39.3933C31.521 39.4029 31.5332 39.4111 31.5455 39.4207L31.5359 39.4302Z" fill="white"/>
<path d="M31.5456 39.4207C31.5551 39.4275 31.5647 39.4357 31.5742 39.4425C31.5619 39.4384 31.5484 39.4343 31.5361 39.4302L31.5456 39.4207Z" fill="white"/>
<path d="M31.6841 39.6546L31.657 39.6177C31.6692 39.6272 31.6814 39.6355 31.6936 39.645L31.6841 39.6546Z" fill="white"/>
<path d="M31.6936 39.645C31.7031 39.6519 31.7126 39.6601 31.7221 39.6669C31.7099 39.6628 31.6963 39.6587 31.6841 39.6546L31.6936 39.645Z" fill="white"/>
<path d="M31.1653 38.9078C31.1558 38.8955 31.1477 38.8832 31.1382 38.8708C31.1504 38.8804 31.1626 38.8886 31.1749 38.8982L31.1653 38.9078Z" fill="white"/>
<path d="M31.0242 38.6726C31.0337 38.6849 31.0418 38.6972 31.0513 38.7095C31.0391 38.7 31.0269 38.6917 31.0146 38.6822L31.0242 38.6726Z" fill="white"/>
<path d="M30.9494 38.5974C30.9739 38.622 30.9983 38.6466 31.0241 38.6726L31.0146 38.6822C30.9902 38.6576 30.9657 38.633 30.9399 38.607L30.9494 38.5974Z" fill="white"/>
<path d="M30.876 38.5222C30.9004 38.5468 30.9249 38.5714 30.9507 38.5974L30.9411 38.607C30.9167 38.5824 30.8923 38.5578 30.8665 38.5318L30.876 38.5222Z" fill="white"/>
<path d="M30.8042 38.4497C30.8286 38.4743 30.8517 38.4976 30.8762 38.5222L30.8667 38.5318C30.8422 38.5071 30.8191 38.4839 30.7947 38.4593L30.8042 38.4497Z" fill="white"/>
<path d="M30.6521 38.224C30.6616 38.2363 30.6697 38.2486 30.6792 38.2596C30.667 38.25 30.6548 38.2418 30.6426 38.2322L30.6521 38.2227V38.224Z" fill="white"/>
<path d="M30.6438 38.2337C30.6193 38.2091 30.5949 38.1845 30.5691 38.1585L30.5786 38.1489C30.603 38.1735 30.6275 38.1982 30.6533 38.2241L30.6438 38.2337Z" fill="white"/>
<path d="M30.5691 38.1585L30.4944 38.0833L30.5039 38.0737C30.5283 38.0983 30.5528 38.123 30.5786 38.1489L30.5691 38.1585Z" fill="white"/>
<path d="M30.4944 38.0833C30.4699 38.0587 30.4455 38.0341 30.4197 38.0081L30.4292 37.9985C30.4536 38.0232 30.4781 38.0478 30.5039 38.0738L30.4944 38.0833Z" fill="white"/>
<path d="M30.4211 38.0093C30.3967 37.9847 30.3722 37.9601 30.3464 37.9341L30.3559 37.9246C30.3804 37.9492 30.4048 37.9738 30.4306 37.9998L30.4211 38.0093Z" fill="white"/>
<path d="M30.3464 37.9342C30.322 37.9095 30.2975 37.8849 30.2717 37.8589L30.2812 37.8494C30.3057 37.874 30.3301 37.8986 30.3559 37.9246L30.3464 37.9342Z" fill="white"/>
<path d="M30.208 37.7756C30.2324 37.8003 30.2569 37.8249 30.2827 37.8508L30.2732 37.8604C30.2487 37.8358 30.2243 37.8112 30.1985 37.7852L30.208 37.7756Z" fill="white"/>
<path d="M30.1985 37.785C30.174 37.7604 30.1496 37.7358 30.1238 37.7098L30.1333 37.7002C30.1577 37.7248 30.1822 37.7494 30.208 37.7754L30.1985 37.785Z" fill="white"/>
<path d="M30.1238 37.7098C30.0993 37.6852 30.0749 37.6606 30.0491 37.6346L30.0586 37.625C30.083 37.6496 30.1075 37.6742 30.1333 37.7002L30.1238 37.7098Z" fill="white"/>
<path d="M30.0503 37.6361C30.0258 37.6114 30.0014 37.5868 29.9756 37.5608L29.9851 37.5513C30.0095 37.5759 30.034 37.6005 30.0598 37.6265L30.0503 37.6361Z" fill="white"/>
<path d="M29.9756 37.5609C29.9511 37.5362 29.9267 37.5116 29.9009 37.4856L29.9104 37.4761C29.9348 37.5007 29.9593 37.5253 29.9851 37.5513L29.9756 37.5609Z" fill="white"/>
<path d="M29.8357 37.4021C29.8601 37.4267 29.8846 37.4513 29.9104 37.4773L29.9009 37.4869C29.8764 37.4623 29.852 37.4377 29.8262 37.4117L29.8357 37.4021Z" fill="white"/>
<path d="M29.7624 37.3284C29.7869 37.353 29.8113 37.3776 29.8371 37.4036L29.8276 37.4132C29.8032 37.3885 29.7787 37.3639 29.7529 37.3379L29.7624 37.3284Z" fill="white"/>
<path d="M29.7529 37.3365C29.7285 37.3119 29.704 37.2873 29.6782 37.2613L29.6877 37.2517C29.7122 37.2763 29.7366 37.3009 29.7624 37.3269L29.7529 37.3365Z" fill="white"/>
<path d="M29.6145 37.1792C29.6389 37.2038 29.6634 37.2284 29.6892 37.2544L29.6797 37.264C29.6552 37.2394 29.6294 37.2148 29.605 37.1901L29.6145 37.1806V37.1792Z" fill="white"/>
<path d="M29.6049 37.1874C29.5954 37.1806 29.5859 37.1724 29.5764 37.1655C29.5886 37.1696 29.6022 37.1737 29.6144 37.1778L29.6049 37.1874Z" fill="white"/>
<path d="M29.3918 37.0288C29.4013 37.0411 29.4095 37.0534 29.419 37.0657C29.4068 37.0562 29.3945 37.048 29.3823 37.0384L29.3918 37.0288Z" fill="white"/>
<path d="M32.5789 50.1026C32.5735 50.1122 32.5667 50.1231 32.5613 50.1327C32.5667 50.1217 32.5721 50.1108 32.5776 50.0999L32.5803 50.1026H32.5789Z" fill="white"/>
<path d="M29.3823 37.0384C29.3579 37.0138 29.3334 36.9892 29.3076 36.9632L29.3171 36.9536C29.3416 36.9782 29.366 37.0028 29.3918 37.0288L29.3823 37.0384Z" fill="white"/>
<path d="M29.2424 36.8799C29.2669 36.9045 29.2913 36.9291 29.3171 36.9551L29.3076 36.9647C29.2832 36.9401 29.2587 36.9154 29.2329 36.8895L29.2424 36.8799Z" fill="white"/>
<path d="M29.1689 36.8059C29.1934 36.8305 29.2178 36.8551 29.2436 36.8811L29.2341 36.8907C29.2097 36.8661 29.1839 36.8415 29.1594 36.8168L29.1689 36.8073V36.8059Z" fill="white"/>
<path d="M29.1596 36.8141C29.1501 36.8073 29.1406 36.7991 29.1311 36.7922C29.1433 36.7963 29.1569 36.8004 29.1691 36.8045L29.1596 36.8141Z" fill="white"/>
<path d="M28.9463 36.6555C28.9558 36.6678 28.9639 36.6801 28.9734 36.6924C28.9612 36.6829 28.949 36.6747 28.9368 36.6651L28.9463 36.6555Z" fill="white"/>
<path d="M28.8716 36.5815C28.896 36.6062 28.9205 36.6308 28.9463 36.6568L28.9368 36.6663C28.9123 36.6417 28.8865 36.6171 28.8621 36.5925L28.8716 36.5829V36.5815Z" fill="white"/>
<path d="M28.862 36.5912C28.8525 36.5844 28.843 36.5762 28.8335 36.5693C28.8457 36.5734 28.8593 36.5775 28.8715 36.5816L28.862 36.5912Z" fill="white"/>
<path d="M28.6489 36.4326C28.6584 36.4449 28.6666 36.4572 28.6761 36.4695C28.6638 36.46 28.6516 36.4518 28.6394 36.4422L28.6489 36.4326Z" fill="white"/>
<path d="M28.6394 36.4408C28.6299 36.434 28.6203 36.4258 28.6108 36.4189C28.6231 36.423 28.6366 36.4272 28.6489 36.4313L28.6394 36.4408Z" fill="white"/>
<path d="M28.4263 36.2822L28.4534 36.3191C28.4412 36.3096 28.429 36.3014 28.4167 36.2918L28.4263 36.2822Z" fill="white"/>
<path d="M28.4179 36.2917C28.4084 36.2848 28.3989 36.2766 28.3894 36.2698C28.4016 36.2739 28.4152 36.278 28.4274 36.2821L28.4179 36.2917Z" fill="white"/>
<path d="M39.9219 60.4765C39.9287 60.4669 39.9355 60.4573 39.9422 60.4478C39.9382 60.4601 39.9327 60.4724 39.9287 60.4833L39.9219 60.4765Z" fill="white"/>
<path d="M28.2034 36.1331C28.2129 36.1454 28.221 36.1577 28.2305 36.17C28.2183 36.1604 28.2061 36.1522 28.1938 36.1426L28.2034 36.1331Z" fill="white"/>
<path d="M28.1953 36.1427C28.1858 36.1359 28.1763 36.1277 28.1667 36.1208C28.179 36.125 28.1926 36.1291 28.2048 36.1332L28.1953 36.1427Z" fill="white"/>
<path d="M31.1748 38.8982C31.1992 38.9228 31.2223 38.9461 31.2468 38.9707L31.2373 38.9802C31.2128 38.9556 31.1897 38.9324 31.1653 38.9078L31.1748 38.8982Z" fill="white"/>
</g>
<defs>
<clipPath id="clip0_2054_2102">
<rect width="210" height="70" fill="white"/>
</clipPath>
</defs>
</svg>
