<svg width="255" height="70" viewBox="0 0 255 70" fill="none" xmlns="http://www.w3.org/2000/svg">
<g clip-path="url(#clip0_2157_830)">
<path d="M120.667 35.0376V11.0142H123.911L136.464 29.8755V11.0142H139.496V35.0376H136.253L123.7 16.1611V35.0376H120.667Z" fill="white"/>
<path d="M142.187 35.0376L151.365 11.0142H154.772L164.552 35.0376H160.949L158.162 27.7618H148.168L145.545 35.0376H142.187ZM149.083 25.1721H157.185L154.69 18.5193C153.93 16.4986 153.364 14.8371 152.994 13.5368C152.688 15.0772 152.26 16.6068 151.707 18.1256L149.081 25.1721H149.083Z" fill="white"/>
<path d="M166.005 27.3184L168.988 27.0566C169.13 28.2595 169.458 29.2439 169.974 30.0141C170.491 30.7843 171.291 31.4074 172.378 31.8812C173.465 32.3572 174.688 32.593 176.046 32.593C177.253 32.593 178.317 32.4134 179.242 32.0521C180.166 31.6908 180.854 31.1975 181.304 30.5701C181.754 29.9427 181.98 29.2569 181.98 28.5126C181.98 27.7684 181.763 27.0999 181.328 26.5374C180.893 25.9749 180.176 25.5032 179.176 25.1203C178.534 24.8693 177.116 24.4777 174.92 23.9477C172.725 23.4176 171.188 22.9178 170.308 22.4484C169.167 21.8469 168.317 21.1027 167.757 20.2113C167.198 19.3221 166.918 18.3247 166.918 17.2213C166.918 16.0076 167.26 14.8761 167.944 13.8203C168.629 12.7667 169.63 11.9662 170.945 11.4188C172.26 10.8736 173.721 10.5989 175.331 10.5989C177.103 10.5989 178.665 10.8866 180.019 11.4599C181.373 12.0333 182.413 12.877 183.14 13.9912C183.868 15.1054 184.259 16.3668 184.313 17.7774L181.281 18.0067C181.117 16.4879 180.566 15.3413 179.625 14.5646C178.685 13.79 177.297 13.4006 175.461 13.4006C173.625 13.4006 172.154 13.7533 171.278 14.4586C170.402 15.1639 169.965 16.012 169.965 17.0072C169.965 17.8704 170.275 18.58 170.895 19.1382C171.504 19.6964 173.093 20.2654 175.663 20.8517C178.233 21.4358 179.996 21.9464 180.953 22.3835C182.344 23.0282 183.371 23.8438 184.036 24.8325C184.699 25.8213 185.03 26.9593 185.03 28.2487C185.03 29.5381 184.666 30.7324 183.937 31.8617C183.209 32.9933 182.163 33.8716 180.798 34.499C179.434 35.1265 177.899 35.4423 176.192 35.4423C174.029 35.4423 172.217 35.1265 170.755 34.4926C169.294 33.8586 168.147 32.9067 167.316 31.6324C166.485 30.3603 166.046 28.9194 166.003 27.3141L166.005 27.3184Z" fill="white"/>
<path d="M188.274 27.3184L191.257 27.0566C191.399 28.2595 191.726 29.2439 192.243 30.0141C192.759 30.7843 193.56 31.4074 194.647 31.8812C195.734 32.3572 196.957 32.593 198.315 32.593C199.522 32.593 200.586 32.4134 201.511 32.0521C202.434 31.6908 203.123 31.1975 203.573 30.5701C204.023 29.9427 204.249 29.2569 204.249 28.5126C204.249 27.7684 204.032 27.0999 203.597 26.5374C203.162 25.9749 202.445 25.5032 201.444 25.1203C200.803 24.8693 199.385 24.4777 197.189 23.9477C194.994 23.4176 193.455 22.9178 192.574 22.4484C191.434 21.8469 190.583 21.1027 190.024 20.2113C189.464 19.3221 189.184 18.3247 189.184 17.2213C189.184 16.0076 189.527 14.8761 190.211 13.8203C190.895 12.7667 191.896 11.9662 193.211 11.4188C194.527 10.8736 195.988 10.5989 197.598 10.5989C199.369 10.5989 200.932 10.8866 202.286 11.4599C203.64 12.0333 204.679 12.877 205.407 13.9912C206.134 15.1054 206.526 16.3668 206.58 17.7774L203.547 18.0067C203.384 16.4879 202.833 15.3413 201.892 14.5646C200.951 13.79 199.563 13.4006 197.727 13.4006C195.891 13.4006 194.421 13.7533 193.545 14.4586C192.669 15.1639 192.232 16.012 192.232 17.0072C192.232 17.8704 192.542 18.58 193.162 19.1382C193.771 19.6964 195.36 20.2654 197.932 20.8517C200.502 21.4358 202.264 21.9464 203.222 22.3835C204.613 23.0282 205.639 23.8438 206.304 24.8325C206.967 25.8213 207.299 26.9593 207.299 28.2487C207.299 29.5381 206.935 30.7324 206.205 31.8617C205.478 32.9933 204.432 33.8716 203.067 34.499C201.703 35.1265 200.168 35.4423 198.461 35.4423C196.298 35.4423 194.486 35.1265 193.024 34.4926C191.563 33.8586 190.416 32.9067 189.585 31.6324C188.754 30.3603 188.315 28.9194 188.272 27.3141L188.274 27.3184Z" fill="white"/>
<path d="M211.685 35.0376V11.0142H228.967V13.8483H214.849V21.2064H228.071V24.0254H214.849V32.2013H229.522V35.0355H211.687L211.685 35.0376Z" fill="white"/>
<path d="M233.939 35.0376V11.0142H244.535C246.666 11.0142 248.285 11.2305 249.393 11.661C250.502 12.0937 251.386 12.8553 252.051 13.9479C252.714 15.0404 253.046 16.2477 253.046 17.5696C253.046 19.2744 252.497 20.711 251.399 21.8793C250.301 23.0475 248.605 23.7918 246.313 24.1077C247.15 24.5122 247.785 24.9103 248.22 25.3041C249.143 26.1565 250.019 27.2209 250.846 28.4996L255.002 35.0376H251.025L247.863 30.04C246.939 28.5969 246.177 27.4957 245.581 26.7298C244.983 25.9661 244.449 25.4296 243.976 25.1245C243.502 24.8194 243.022 24.6053 242.533 24.4863C242.174 24.4105 241.589 24.3716 240.773 24.3716H237.105V35.0398H233.943L233.939 35.0376ZM237.101 21.6153H243.898C245.342 21.6153 246.474 21.466 247.288 21.1653C248.104 20.8646 248.724 20.3843 249.146 19.7222C249.57 19.0624 249.781 18.3441 249.781 17.5674C249.781 16.4316 249.369 15.4969 248.549 14.7657C247.729 14.0344 246.434 13.6666 244.662 13.6666H237.099V21.6153H237.101Z" fill="white"/>
<path d="M118.631 58.0013L123.775 44.5356H125.684L131.167 58.0013H129.148L127.585 53.9231H121.984L120.512 58.0013H118.629H118.631ZM122.497 52.4714H127.038L125.639 48.7415C125.213 47.6078 124.897 46.6775 124.688 45.9484C124.518 46.8116 124.277 47.6684 123.967 48.5208L122.497 52.4692V52.4714Z" fill="white"/>
<path d="M134.606 58.0013V44.5356H139.221C140.263 44.5356 141.057 44.6005 141.606 44.7282C142.374 44.9056 143.028 45.228 143.571 45.6931C144.277 46.2924 144.806 47.0604 145.157 47.9929C145.508 48.9275 145.682 49.9941 145.682 51.1927C145.682 52.2161 145.564 53.1226 145.325 53.9122C145.088 54.7019 144.783 55.3553 144.41 55.8724C144.038 56.3895 143.631 56.7962 143.19 57.0948C142.749 57.3912 142.215 57.6162 141.591 57.7698C140.966 57.9234 140.25 57.9991 139.438 57.9991H134.604L134.606 58.0013ZM136.378 56.4111H139.238C140.121 56.4111 140.814 56.3289 141.317 56.1623C141.819 55.9979 142.221 55.7642 142.518 55.4635C142.938 55.0416 143.265 54.4726 143.5 53.7586C143.734 53.0447 143.851 52.1814 143.851 51.1646C143.851 49.7562 143.62 48.6744 143.16 47.9172C142.699 47.16 142.142 46.6537 141.483 46.3963C141.007 46.2124 140.243 46.1215 139.189 46.1215H136.373V56.4089L136.378 56.4111Z" fill="white"/>
<path d="M153.969 58.0013L148.78 44.5356H150.699L154.18 54.3168C154.46 55.1 154.694 55.8356 154.884 56.5214C155.09 55.7858 155.331 55.0524 155.605 54.3168L159.223 44.5356H161.033L155.788 58.0013H153.969Z" fill="white"/>
<path d="M164.104 51.4436C164.104 49.2087 164.701 47.4585 165.895 46.195C167.09 44.9315 168.631 44.2976 170.519 44.2976C171.756 44.2976 172.869 44.594 173.863 45.189C174.856 45.7839 175.613 46.6104 176.134 47.6727C176.655 48.7349 176.916 49.94 176.916 51.2879C176.916 52.6357 176.642 53.8754 176.093 54.9528C175.544 56.0303 174.77 56.8459 173.764 57.3998C172.759 57.9536 171.674 58.2305 170.512 58.2305C169.251 58.2305 168.123 57.9233 167.131 57.3111C166.138 56.6988 165.385 55.8637 164.873 54.8036C164.361 53.7434 164.104 52.6228 164.104 51.4415V51.4436ZM165.932 51.4696C165.932 53.0922 166.367 54.3709 167.234 55.3033C168.101 56.238 169.191 56.7031 170.501 56.7031C171.812 56.7031 172.934 56.2315 173.795 55.2882C174.656 54.3449 175.088 53.0079 175.088 51.2749C175.088 50.178 174.903 49.2217 174.535 48.4039C174.167 47.5861 173.627 46.9522 172.919 46.5022C172.208 46.0522 171.412 45.8272 170.529 45.8272C169.275 45.8272 168.194 46.2599 167.29 47.1275C166.386 47.9929 165.934 49.4402 165.934 51.4674L165.932 51.4696Z" fill="white"/>
<path d="M187.49 52.7202V51.1409L193.164 51.1322V56.1277C192.292 56.8265 191.395 57.3501 190.469 57.7027C189.544 58.0554 188.592 58.2306 187.617 58.2306C186.302 58.2306 185.106 57.9472 184.031 57.3804C182.957 56.8135 182.144 55.9957 181.597 54.9227C181.05 53.8496 180.775 52.6531 180.775 51.3312C180.775 50.0093 181.048 48.7978 181.593 47.662C182.137 46.5261 182.923 45.6823 183.945 45.1307C184.968 44.579 186.147 44.3042 187.482 44.3042C188.45 44.3042 189.326 44.4621 190.11 44.778C190.893 45.0939 191.507 45.5331 191.95 46.0956C192.396 46.6581 192.734 47.3937 192.964 48.3002L191.365 48.7415C191.164 48.0557 190.915 47.517 190.616 47.1254C190.316 46.7338 189.89 46.4201 189.337 46.1843C188.782 45.9485 188.168 45.8316 187.49 45.8316C186.681 45.8316 185.979 45.9549 185.39 46.2038C184.8 46.4526 184.322 46.7771 183.96 47.1817C183.599 47.5862 183.317 48.0297 183.115 48.5144C182.774 49.3473 182.602 50.2495 182.602 51.2231C182.602 52.4238 182.809 53.4277 183.22 54.2347C183.631 55.0438 184.229 55.6431 185.015 56.0347C185.801 56.4263 186.636 56.6232 187.518 56.6232C188.287 56.6232 189.036 56.4739 189.765 56.1775C190.495 55.8811 191.05 55.563 191.429 55.2277V52.7202H187.49Z" fill="white"/>
<path d="M196.328 58.0013L201.472 44.5356H203.381L208.864 58.0013H206.845L205.282 53.9231H199.682L198.211 58.0013H196.328ZM200.194 52.4714H204.735L203.336 48.7415C202.91 47.6078 202.594 46.6775 202.385 45.9484C202.215 46.8116 201.974 47.6684 201.664 48.5208L200.194 52.4692V52.4714Z" fill="white"/>
<path d="M212.303 58.0013V44.5356H216.918C217.959 44.5356 218.754 44.6005 219.303 44.7282C220.071 44.9056 220.725 45.228 221.268 45.6931C221.974 46.2924 222.503 47.0604 222.854 47.9929C223.205 48.9275 223.379 49.9941 223.379 51.1927C223.379 52.2161 223.261 53.1226 223.022 53.9122C222.785 54.7019 222.479 55.3553 222.107 55.8724C221.735 56.3895 221.328 56.7962 220.887 57.0948C220.445 57.3912 219.912 57.6162 219.287 57.7698C218.663 57.9234 217.947 57.9991 217.135 57.9991H212.301L212.303 58.0013ZM214.074 56.4111H216.935C217.817 56.4111 218.51 56.3289 219.014 56.1623C219.516 55.9979 219.918 55.7642 220.215 55.4635C220.635 55.0416 220.962 54.4726 221.197 53.7586C221.431 53.0447 221.547 52.1814 221.547 51.1646C221.547 49.7562 221.317 48.6744 220.857 47.9172C220.396 47.16 219.838 46.6537 219.18 46.3963C218.704 46.2124 217.94 46.1215 216.885 46.1215H214.07V56.4089L214.074 56.4111Z" fill="white"/>
<path d="M227.299 51.4436C227.299 49.2087 227.895 47.4585 229.09 46.195C230.284 44.9315 231.825 44.2976 233.713 44.2976C234.951 44.2976 236.063 44.594 237.058 45.189C238.05 45.7839 238.808 46.6104 239.328 47.6727C239.849 48.7349 240.11 49.94 240.11 51.2879C240.11 52.6357 239.836 53.8754 239.288 54.9528C238.739 56.0303 237.962 56.8459 236.957 57.3998C235.951 57.9536 234.867 58.2305 233.704 58.2305C232.443 58.2305 231.317 57.9233 230.323 57.3111C229.328 56.6988 228.577 55.8637 228.065 54.8036C227.553 53.7434 227.297 52.6228 227.297 51.4415L227.299 51.4436ZM229.126 51.4696C229.126 53.0922 229.561 54.3709 230.428 55.3033C231.296 56.238 232.385 56.7031 233.696 56.7031C235.006 56.7031 236.128 56.2315 236.989 55.2882C237.85 54.3449 238.282 53.0079 238.282 51.2749C238.282 50.178 238.097 49.2217 237.729 48.4039C237.361 47.5861 236.821 46.9522 236.113 46.5022C235.403 46.0522 234.606 45.8272 233.724 45.8272C232.469 45.8272 231.388 46.2599 230.484 47.1275C229.58 47.995 229.128 49.4402 229.128 51.4674L229.126 51.4696Z" fill="white"/>
<path d="M243.812 53.6741L245.484 53.527C245.564 54.1998 245.747 54.7537 246.037 55.1842C246.326 55.6169 246.776 55.9653 247.385 56.2314C247.994 56.4975 248.678 56.6316 249.44 56.6316C250.116 56.6316 250.714 56.5299 251.231 56.3287C251.75 56.1275 252.135 55.8506 252.387 55.4979C252.639 55.1453 252.766 54.7623 252.766 54.3448C252.766 53.9272 252.643 53.5529 252.4 53.2371C252.157 52.9212 251.754 52.6573 251.194 52.4431C250.835 52.3024 250.041 52.0839 248.81 51.7854C247.578 51.489 246.717 51.2077 246.225 50.9459C245.585 50.6084 245.107 50.1909 244.795 49.6933C244.481 49.1935 244.324 48.6353 244.324 48.0166C244.324 47.3372 244.516 46.7011 244.899 46.1105C245.282 45.5199 245.844 45.072 246.58 44.7648C247.316 44.4598 248.136 44.3062 249.038 44.3062C250.03 44.3062 250.906 44.4663 251.666 44.7886C252.423 45.111 253.007 45.5826 253.416 46.2079C253.825 46.8331 254.044 47.5406 254.074 48.3303L252.374 48.4579C252.284 47.6077 251.974 46.9629 251.446 46.5281C250.919 46.0932 250.142 45.8769 249.111 45.8769C248.08 45.8769 247.258 46.0737 246.767 46.4697C246.276 46.8656 246.031 47.3415 246.031 47.8976C246.031 48.3822 246.205 48.7803 246.552 49.0918C246.892 49.4034 247.783 49.7236 249.225 50.0524C250.665 50.3791 251.655 50.6668 252.191 50.9113C252.97 51.2726 253.547 51.7313 253.917 52.2851C254.29 52.839 254.475 53.4772 254.475 54.1998C254.475 54.9224 254.27 55.591 253.863 56.2249C253.454 56.8588 252.869 57.352 252.105 57.7025C251.341 58.0552 250.48 58.2304 249.524 58.2304C248.312 58.2304 247.296 58.053 246.476 57.6982C245.656 57.3434 245.015 56.809 244.548 56.0951C244.081 55.3811 243.838 54.5741 243.812 53.6741Z" fill="white"/>
<path d="M20.3681 37.1906V32.3984L37.5786 32.3703V47.5235C34.9354 49.6415 32.2105 51.2339 29.4038 52.3005C26.5949 53.3671 23.7129 53.9015 20.7576 53.9015C16.7671 53.9015 13.1403 53.0425 9.87947 51.3247C6.6186 49.6069 4.15626 47.1232 2.49462 43.8736C0.832975 40.6241 0 36.9937 0 32.9826C0 28.9715 0.826518 25.3 2.47955 21.8535C4.13259 18.4093 6.51098 15.8498 9.61472 14.1796C12.7185 12.5072 16.2936 11.6721 20.3401 11.6721C23.2781 11.6721 25.9341 12.1503 28.3082 13.1065C30.6823 14.0628 32.5441 15.3955 33.8915 17.1047C35.2389 18.8138 36.2656 21.0422 36.9673 23.7899L32.118 25.1269C31.5088 23.0478 30.7512 21.4122 29.845 20.2244C28.9389 19.0367 27.6474 18.0847 25.9643 17.3686C24.2833 16.6547 22.4171 16.2955 20.3659 16.2955C17.9079 16.2955 15.7835 16.672 13.9927 17.4227C12.1997 18.1756 10.7555 19.1643 9.65562 20.3889C8.55575 21.6156 7.70125 22.9613 7.09212 24.4281C6.05682 26.9529 5.54025 29.6919 5.54025 32.6451C5.54025 36.2841 6.16444 39.3303 7.41068 41.7815C8.65691 44.2328 10.4735 46.0523 12.8562 47.2422C15.2389 48.43 17.7701 49.0249 20.4499 49.0249C22.7766 49.0249 25.0495 48.5749 27.2665 47.6727C29.4834 46.7727 31.1644 45.8121 32.3095 44.7888V37.1841H20.3659L20.3681 37.1906Z" fill="white"/>
<path d="M45.4478 53.2091V12.373H50.9622L72.301 44.4339V12.373H77.4559V53.2091H71.9415L50.6027 21.1201V53.2091H45.4478Z" fill="white"/>
<path d="M99.8213 0H96.7175V70H99.8213V0Z" fill="white"/>
</g>
<defs>
<clipPath id="clip0_2157_830">
<rect width="255" height="70" fill="white"/>
</clipPath>
</defs>
</svg>
