<?xml version="1.0" encoding="UTF-8"?>
<svg id="Camada_2" data-name="Camada 2" xmlns="http://www.w3.org/2000/svg" viewBox="0 0 3656.5 629.61">
  <defs>
    <style>
      .cls-1 {
        fill: #fff;
      }
    </style>
  </defs>
  <g id="Camada_1-2" data-name="Camada 1">
    <path class="cls-1" d="M540.54,360.37h-113.16l20.55,5.79c102.6,34.41,125.62,172.74,37.81,236.94-14.3,10.45-47.76,26.51-65.19,26.51H.12v-269.23h117.06l-27.85-8.24C5.48,320.79-27.39,219.08,25.82,145.12c20.36-28.3,64.45-55.93,100.14-55.93h411.65c.21,0,2.93,2.72,2.93,2.93v268.26Z"/>
    <path class="cls-1" d="M606.87,629.61V150.65c0-29.52,36.02-61.82,65.61-61.2,112.08,5.24,231.91-7.88,343.1-.23,72.02,4.96,127.1,56.83,131.8,129.63,3.1,47.97,5.65,160.04-13.99,200.8-49.61,102.99-167.22,69.06-259.3,76.27l-267.22,133.7Z"/>
    <g>
      <path class="cls-1" d="M1464.84,170.95c-8.41-6.83-16.81-11.88-25.21-15.17-8.41-3.28-16.54-4.92-24.42-4.92-9.98,0-18.12,2.36-24.42,7.09-6.3,4.73-9.45,10.9-9.45,18.51,0,5.26,1.58,9.59,4.73,13,3.15,3.42,7.29,6.37,12.41,8.86,5.12,2.5,10.89,4.67,17.33,6.5,6.43,1.84,12.8,3.81,19.1,5.91,25.21,8.41,43.66,19.63,55.34,33.68,11.68,14.05,17.53,32.37,17.53,54.95,0,15.23-2.56,29.02-7.68,41.36-5.12,12.35-12.6,22.91-22.45,31.71-9.85,8.8-21.93,15.63-36.24,20.48-14.32,4.86-30.53,7.29-48.65,7.29-37.56,0-72.35-11.16-104.38-33.48l33.09-62.24c11.55,10.24,22.98,17.86,34.27,22.85,11.29,4.99,22.45,7.48,33.48,7.48,12.6,0,21.99-2.89,28.16-8.67,6.17-5.77,9.26-12.34,9.26-19.7,0-4.46-.79-8.33-2.36-11.62-1.58-3.28-4.2-6.3-7.88-9.06-3.68-2.76-8.47-5.32-14.38-7.68-5.91-2.36-13.07-4.99-21.47-7.88-9.98-3.15-19.76-6.63-29.35-10.44-9.59-3.8-18.12-8.86-25.6-15.17-7.48-6.3-13.53-14.24-18.12-23.83-4.6-9.58-6.89-21.73-6.89-36.44s2.43-28.03,7.29-39.98c4.86-11.95,11.68-22.19,20.48-30.72,8.79-8.53,19.56-15.17,32.3-19.89,12.73-4.73,26.98-7.09,42.74-7.09,14.7,0,30.07,2.04,46.09,6.11,16.01,4.07,31.38,10.04,46.09,17.92l-30.72,60.27Z"/>
      <path class="cls-1" d="M1719.3,340.33h-110.29l-17.73,51.6h-82.33l113.05-297h84.3l113.05,297h-82.33l-17.73-51.6ZM1577.89,63.81c0-19.43,4.46-34.86,13.39-46.28,8.92-11.42,20.35-17.13,34.27-17.13,5.51,0,11.68.86,18.51,2.56,6.83,1.71,13.59,3.54,20.29,5.51,6.7,1.97,12.86,3.74,18.51,5.32,5.64,1.58,10.17,2.36,13.59,2.36,8.4,0,14.04-5.38,16.94-16.15h39c-2.63,23.63-8.34,40.18-17.13,49.63-8.8,9.45-20.68,14.18-35.65,14.18-7.35,0-14.57-.85-21.67-2.56-7.09-1.7-13.79-3.54-20.09-5.51-6.3-1.97-11.95-3.8-16.94-5.51-4.99-1.7-9.19-2.56-12.6-2.56-2.89,0-5.39,1.05-7.48,3.15-2.1,2.1-4.07,6.44-5.91,13h-37.03ZM1698.82,281.64l-34.66-98.87-34.66,98.87h69.33Z"/>
      <path class="cls-1" d="M1826.83,243.43c0-22.06,4.07-42.6,12.21-61.65,8.14-19.04,19.43-35.65,33.88-49.83,14.44-14.18,31.71-25.27,51.8-33.29,20.09-8.01,42.21-12.01,66.37-12.01s45.95,4.01,66.18,12.01c20.22,8.01,37.62,19.1,52.19,33.29s25.93,30.79,34.07,49.83c8.14,19.04,12.21,39.59,12.21,61.65s-4.07,42.61-12.21,61.65c-8.14,19.04-19.5,35.65-34.07,49.83s-31.97,25.28-52.19,33.29c-20.22,8.01-42.28,12.01-66.18,12.01s-46.28-4.01-66.37-12.01c-20.09-8.01-37.36-19.1-51.8-33.29-14.45-14.18-25.74-30.79-33.88-49.83-8.14-19.04-12.21-39.59-12.21-61.65ZM1907.58,243.43c0,11.82,2.23,22.72,6.7,32.69,4.46,9.98,10.5,18.65,18.12,26,7.61,7.36,16.48,13.07,26.59,17.13,10.11,4.08,20.81,6.11,32.1,6.11s21.99-2.03,32.1-6.11c10.11-4.07,19.04-9.78,26.79-17.13,7.74-7.35,13.85-16.01,18.32-26,4.46-9.98,6.7-20.88,6.7-32.69s-2.23-22.71-6.7-32.69c-4.47-9.98-10.57-18.64-18.32-26-7.75-7.35-16.68-13.06-26.79-17.13-10.11-4.07-20.82-6.11-32.1-6.11s-22,2.04-32.1,6.11c-10.11,4.07-18.97,9.79-26.59,17.13-7.62,7.35-13.66,16.02-18.12,26-4.47,9.98-6.7,20.88-6.7,32.69Z"/>
      <path class="cls-1" d="M2388.93,391.93h-77.21V94.93h122.9c33.35,0,58.89,8.67,76.61,26,17.73,17.33,26.59,41.75,26.59,73.27s-8.86,55.93-26.59,73.27c-17.73,17.33-43.27,26-76.61,26h-45.69v98.48ZM2388.93,231.22h25.6c28.36,0,42.54-12.34,42.54-37.03s-14.18-37.03-42.54-37.03h-25.6v74.05Z"/>
      <path class="cls-1" d="M2730.84,340.33h-110.29l-17.73,51.6h-82.33l113.05-297h84.29l113.05,297h-82.33l-17.73-51.6ZM2710.35,281.64l-34.66-98.87-34.66,98.87h69.33Z"/>
      <path class="cls-1" d="M2920.3,94.93v161.5c0,8.67.33,17.53.99,26.59.65,9.06,2.62,17.27,5.91,24.62,3.28,7.36,8.47,13.33,15.56,17.92,7.09,4.6,17.07,6.89,29.94,6.89s22.78-2.3,29.74-6.89c6.96-4.59,12.14-10.57,15.56-17.92,3.41-7.35,5.45-15.56,6.11-24.62.65-9.06.98-17.92.98-26.59V94.93h76.81v172.14c0,46.22-10.57,79.96-31.71,101.23-21.14,21.27-53.64,31.91-97.49,31.91s-76.42-10.63-97.69-31.91c-21.27-21.27-31.91-55.01-31.91-101.23V94.93h77.21Z"/>
      <path class="cls-1" d="M3227.93,94.93v231.61h92.57v65.39h-169.77V94.93h77.21Z"/>
      <path class="cls-1" d="M3327.59,243.43c0-22.06,4.07-42.6,12.21-61.65,8.14-19.04,19.43-35.65,33.88-49.83,14.44-14.18,31.71-25.27,51.8-33.29,20.09-8.01,42.21-12.01,66.37-12.01s45.95,4.01,66.18,12.01c20.22,8.01,37.62,19.1,52.19,33.29s25.93,30.79,34.07,49.83c8.14,19.04,12.21,39.59,12.21,61.65s-4.07,42.61-12.21,61.65c-8.14,19.04-19.5,35.65-34.07,49.83s-31.97,25.28-52.19,33.29c-20.22,8.01-42.28,12.01-66.18,12.01s-46.28-4.01-66.37-12.01c-20.09-8.01-37.36-19.1-51.8-33.29-14.45-14.18-25.74-30.79-33.88-49.83-8.14-19.04-12.21-39.59-12.21-61.65ZM3408.34,243.43c0,11.82,2.23,22.72,6.7,32.69,4.46,9.98,10.5,18.65,18.12,26,7.61,7.36,16.48,13.07,26.59,17.13,10.11,4.08,20.81,6.11,32.1,6.11s21.99-2.03,32.1-6.11c10.11-4.07,19.04-9.78,26.79-17.13,7.74-7.35,13.85-16.01,18.32-26,4.46-9.98,6.7-20.88,6.7-32.69s-2.23-22.71-6.7-32.69c-4.47-9.98-10.57-18.64-18.32-26-7.75-7.35-16.68-13.06-26.79-17.13-10.11-4.07-20.82-6.11-32.1-6.11s-22,2.04-32.1,6.11c-10.11,4.07-18.97,9.79-26.59,17.13-7.62,7.35-13.66,16.02-18.12,26-4.47,9.98-6.7,20.88-6.7,32.69Z"/>
    </g>
    <g>
      <path class="cls-1" d="M1370.45,535.05h78.85c0,8.11-.34,15.47-1.01,22.09-.68,6.62-2.03,12.77-4.05,18.45-2.84,7.97-6.69,15.03-11.55,21.18-4.86,6.15-10.58,11.29-17.13,15.41-6.56,4.12-13.75,7.27-21.59,9.43-7.84,2.16-16.08,3.24-24.73,3.24-11.89,0-22.74-1.96-32.53-5.88-9.8-3.92-18.21-9.43-25.24-16.52-7.03-7.09-12.5-15.61-16.42-25.54-3.92-9.93-5.88-20.91-5.88-32.94s1.93-22.8,5.78-32.74c3.85-9.93,9.32-18.41,16.42-25.44,7.09-7.03,15.64-12.5,25.64-16.42,10-3.92,21.15-5.88,33.45-5.88,15.94,0,29.93,3.45,41.96,10.34,12.03,6.89,21.55,17.57,28.58,32.03l-37.7,15.61c-3.52-8.38-8.08-14.39-13.68-18.04-5.61-3.65-11.99-5.47-19.16-5.47-5.95,0-11.35,1.11-16.22,3.34-4.86,2.23-9.02,5.41-12.47,9.53-3.45,4.12-6.15,9.09-8.11,14.9-1.96,5.81-2.94,12.3-2.94,19.46,0,6.49.84,12.5,2.53,18.04,1.69,5.54,4.22,10.34,7.6,14.39,3.38,4.05,7.57,7.2,12.57,9.43,5,2.23,10.81,3.34,17.43,3.34,3.92,0,7.7-.44,11.35-1.32,3.65-.88,6.92-2.3,9.83-4.26,2.9-1.96,5.3-4.49,7.2-7.6,1.89-3.11,3.17-6.89,3.85-11.35h-32.64v-30.81Z"/>
      <path class="cls-1" d="M1460.65,544.17c0-11.35,2.09-21.92,6.28-31.72,4.19-9.8,10-18.34,17.43-25.64,7.43-7.3,16.32-13,26.66-17.13,10.34-4.12,21.72-6.18,34.16-6.18s23.65,2.06,34.05,6.18c10.4,4.12,19.36,9.83,26.86,17.13,7.5,7.3,13.34,15.85,17.53,25.64,4.19,9.8,6.28,20.37,6.28,31.72s-2.1,21.93-6.28,31.72c-4.19,9.8-10.03,18.34-17.53,25.64-7.5,7.3-16.45,13.01-26.86,17.13-10.41,4.12-21.76,6.18-34.05,6.18s-23.82-2.06-34.16-6.18c-10.34-4.12-19.23-9.83-26.66-17.13-7.43-7.3-13.25-15.84-17.43-25.64-4.19-9.8-6.28-20.37-6.28-31.72ZM1502.2,544.17c0,6.08,1.15,11.69,3.45,16.83,2.3,5.14,5.4,9.6,9.32,13.38,3.92,3.79,8.48,6.72,13.68,8.82,5.2,2.1,10.71,3.14,16.52,3.14s11.32-1.05,16.52-3.14c5.2-2.09,9.8-5.03,13.78-8.82,3.98-3.78,7.13-8.24,9.43-13.38,2.3-5.13,3.45-10.74,3.45-16.83s-1.15-11.69-3.45-16.82c-2.3-5.13-5.44-9.59-9.43-13.38-3.99-3.78-8.58-6.72-13.78-8.82-5.2-2.09-10.71-3.14-16.52-3.14s-11.32,1.05-16.52,3.14c-5.2,2.1-9.76,5.04-13.68,8.82-3.92,3.78-7.03,8.24-9.32,13.38-2.3,5.14-3.45,10.74-3.45,16.82Z"/>
      <path class="cls-1" d="M1668.22,467.75l36.89,93.04,37.09-93.04h43.18l-64.46,152.84h-31.62l-64.26-152.84h43.18Z"/>
      <path class="cls-1" d="M1881.46,501.4h-47.23v25.54h44.59v33.65h-44.59v26.35h47.23v33.65h-86.96v-152.84h86.96v33.65Z"/>
      <path class="cls-1" d="M2030.24,620.59h-49.46l-37.91-58.78v58.78h-39.73v-152.84h61.82c8.51,0,15.94,1.25,22.3,3.75,6.35,2.5,11.59,5.91,15.71,10.24,4.12,4.33,7.23,9.32,9.33,15,2.09,5.68,3.14,11.76,3.14,18.24,0,11.62-2.81,21.05-8.41,28.28-5.61,7.23-13.89,12.13-24.83,14.7l48.04,62.64ZM1942.88,536.07h7.5c7.84,0,13.85-1.62,18.04-4.87,4.19-3.24,6.28-7.91,6.28-13.99s-2.1-10.74-6.28-13.99c-4.19-3.24-10.21-4.87-18.04-4.87h-7.5v37.7Z"/>
      <path class="cls-1" d="M2039.97,620.59v-152.84h39.73l73.38,93.45v-93.45h39.53v152.84h-39.53l-73.38-93.45v93.45h-39.73Z"/>
      <path class="cls-1" d="M2212.67,544.17c0-11.35,2.09-21.92,6.28-31.72,4.19-9.8,10-18.34,17.43-25.64,7.43-7.3,16.32-13,26.66-17.13,10.34-4.12,21.72-6.18,34.16-6.18s23.65,2.06,34.05,6.18c10.4,4.12,19.36,9.83,26.86,17.13,7.5,7.3,13.34,15.85,17.53,25.64,4.19,9.8,6.28,20.37,6.28,31.72s-2.1,21.93-6.28,31.72c-4.19,9.8-10.03,18.34-17.53,25.64-7.5,7.3-16.45,13.01-26.86,17.13-10.41,4.12-21.76,6.18-34.05,6.18s-23.82-2.06-34.16-6.18c-10.34-4.12-19.22-9.83-26.66-17.13-7.43-7.3-13.25-15.84-17.43-25.64-4.19-9.8-6.28-20.37-6.28-31.72ZM2254.23,544.17c0,6.08,1.15,11.69,3.45,16.83,2.3,5.14,5.4,9.6,9.32,13.38,3.92,3.79,8.48,6.72,13.68,8.82,5.2,2.1,10.71,3.14,16.52,3.14s11.32-1.05,16.52-3.14c5.2-2.09,9.8-5.03,13.78-8.82,3.98-3.78,7.13-8.24,9.43-13.38,2.3-5.13,3.45-10.74,3.45-16.83s-1.15-11.69-3.45-16.82c-2.3-5.13-5.44-9.59-9.43-13.38-3.99-3.78-8.58-6.72-13.78-8.82-5.2-2.09-10.71-3.14-16.52-3.14s-11.32,1.05-16.52,3.14c-5.2,2.1-9.76,5.04-13.68,8.82-3.92,3.78-7.03,8.24-9.32,13.38-2.3,5.14-3.45,10.74-3.45,16.82Z"/>
      <path class="cls-1" d="M2462.2,467.75h58.78c10.4,0,20.17,2.1,29.29,6.28,9.12,4.19,17.09,9.76,23.92,16.72,6.82,6.96,12.19,15.07,16.11,24.32,3.92,9.26,5.88,18.95,5.88,29.09s-1.93,19.63-5.78,28.89c-3.85,9.26-9.19,17.4-16.01,24.43-6.83,7.03-14.8,12.64-23.92,16.82-9.12,4.19-18.95,6.28-29.49,6.28h-58.78v-152.84ZM2501.93,586.94h9.12c6.89,0,13.04-1.08,18.45-3.24,5.4-2.16,9.96-5.13,13.68-8.92,3.71-3.78,6.55-8.28,8.51-13.48,1.96-5.2,2.94-10.91,2.94-17.13s-1.01-11.76-3.04-17.03c-2.03-5.27-4.9-9.8-8.62-13.58-3.72-3.78-8.28-6.76-13.68-8.92-5.41-2.16-11.49-3.24-18.24-3.24h-9.12v85.54Z"/>
      <path class="cls-1" d="M2607.74,544.17c0-11.35,2.09-21.92,6.28-31.72,4.19-9.8,10-18.34,17.43-25.64,7.43-7.3,16.32-13,26.66-17.13,10.34-4.12,21.72-6.18,34.16-6.18s23.65,2.06,34.05,6.18c10.4,4.12,19.36,9.83,26.86,17.13,7.5,7.3,13.34,15.85,17.53,25.64,4.19,9.8,6.28,20.37,6.28,31.72s-2.1,21.93-6.28,31.72c-4.19,9.8-10.03,18.34-17.53,25.64-7.5,7.3-16.45,13.01-26.86,17.13-10.41,4.12-21.76,6.18-34.05,6.18s-23.82-2.06-34.16-6.18c-10.34-4.12-19.22-9.83-26.66-17.13-7.43-7.3-13.25-15.84-17.43-25.64-4.19-9.8-6.28-20.37-6.28-31.72ZM2649.29,544.17c0,6.08,1.15,11.69,3.45,16.83,2.3,5.14,5.4,9.6,9.32,13.38,3.92,3.79,8.48,6.72,13.68,8.82,5.2,2.1,10.71,3.14,16.52,3.14s11.32-1.05,16.52-3.14c5.2-2.09,9.8-5.03,13.78-8.82,3.98-3.78,7.13-8.24,9.43-13.38,2.3-5.13,3.45-10.74,3.45-16.83s-1.15-11.69-3.45-16.82c-2.3-5.13-5.44-9.59-9.43-13.38-3.99-3.78-8.58-6.72-13.78-8.82-5.2-2.09-10.71-3.14-16.52-3.14s-11.32,1.05-16.52,3.14c-5.2,2.1-9.76,5.04-13.68,8.82-3.92,3.78-7.03,8.24-9.32,13.38-2.3,5.14-3.45,10.74-3.45,16.82Z"/>
      <path class="cls-1" d="M2944.22,501.4h-47.23v25.54h44.59v33.65h-44.59v26.35h47.23v33.65h-86.96v-152.84h86.96v33.65Z"/>
      <path class="cls-1" d="M3049.83,506.88c-4.33-3.51-8.65-6.11-12.97-7.8-4.33-1.69-8.51-2.53-12.57-2.53-5.14,0-9.32,1.22-12.57,3.65-3.24,2.43-4.86,5.61-4.86,9.53,0,2.71.81,4.93,2.43,6.69,1.62,1.76,3.75,3.28,6.38,4.56,2.63,1.29,5.61,2.4,8.92,3.34,3.31.95,6.59,1.96,9.83,3.04,12.97,4.33,22.47,10.1,28.48,17.33,6.01,7.23,9.02,16.66,9.02,28.28,0,7.84-1.32,14.93-3.95,21.28-2.64,6.35-6.49,11.79-11.55,16.32-5.07,4.53-11.28,8.04-18.65,10.54-7.37,2.5-15.71,3.75-25.03,3.75-19.33,0-37.23-5.74-53.72-17.23l17.03-32.03c5.95,5.27,11.82,9.19,17.64,11.76,5.81,2.57,11.55,3.85,17.23,3.85,6.49,0,11.32-1.49,14.49-4.46,3.17-2.97,4.76-6.35,4.76-10.14,0-2.3-.41-4.29-1.22-5.98-.81-1.69-2.16-3.24-4.05-4.66-1.89-1.42-4.36-2.74-7.4-3.95-3.04-1.22-6.72-2.57-11.05-4.05-5.14-1.62-10.17-3.41-15.1-5.37-4.93-1.96-9.32-4.56-13.18-7.8s-6.96-7.33-9.32-12.26c-2.37-4.93-3.55-11.18-3.55-18.75s1.25-14.42,3.75-20.57c2.5-6.15,6.01-11.42,10.54-15.81,4.53-4.39,10.07-7.8,16.62-10.24,6.55-2.43,13.89-3.65,21.99-3.65,7.57,0,15.47,1.05,23.72,3.14,8.24,2.1,16.15,5.17,23.72,9.22l-15.81,31.01Z"/>
      <path class="cls-1" d="M3148.95,501.4v119.19h-39.73v-119.19h-32.63v-33.65h105v33.65h-32.63Z"/>
      <path class="cls-1" d="M3278.88,594.04h-56.76l-9.12,26.55h-42.37l58.18-152.84h43.38l58.18,152.84h-42.37l-9.12-26.55ZM3268.34,563.84l-17.84-50.88-17.84,50.88h35.68Z"/>
      <path class="cls-1" d="M3340.91,467.75h58.78c10.4,0,20.17,2.1,29.29,6.28,9.12,4.19,17.09,9.76,23.92,16.72,6.82,6.96,12.19,15.07,16.11,24.32,3.92,9.26,5.88,18.95,5.88,29.09s-1.93,19.63-5.78,28.89c-3.85,9.26-9.19,17.4-16.01,24.43-6.83,7.03-14.8,12.64-23.92,16.82-9.12,4.19-18.95,6.28-29.49,6.28h-58.78v-152.84ZM3380.64,586.94h9.12c6.89,0,13.04-1.08,18.45-3.24,5.4-2.16,9.96-5.13,13.68-8.92,3.71-3.78,6.55-8.28,8.51-13.48,1.96-5.2,2.94-10.91,2.94-17.13s-1.01-11.76-3.04-17.03c-2.03-5.27-4.9-9.8-8.62-13.58-3.72-3.78-8.28-6.76-13.68-8.92-5.41-2.16-11.49-3.24-18.24-3.24h-9.12v85.54Z"/>
      <path class="cls-1" d="M3486.45,544.17c0-11.35,2.09-21.92,6.28-31.72,4.19-9.8,10-18.34,17.43-25.64,7.43-7.3,16.32-13,26.66-17.13,10.34-4.12,21.72-6.18,34.16-6.18s23.65,2.06,34.05,6.18c10.4,4.12,19.36,9.83,26.86,17.13,7.5,7.3,13.34,15.85,17.53,25.64,4.19,9.8,6.28,20.37,6.28,31.72s-2.1,21.93-6.28,31.72c-4.19,9.8-10.03,18.34-17.53,25.64-7.5,7.3-16.45,13.01-26.86,17.13-10.41,4.12-21.76,6.18-34.05,6.18s-23.82-2.06-34.16-6.18c-10.34-4.12-19.22-9.83-26.66-17.13-7.43-7.3-13.25-15.84-17.43-25.64-4.19-9.8-6.28-20.37-6.28-31.72ZM3528,544.17c0,6.08,1.15,11.69,3.45,16.83,2.3,5.14,5.4,9.6,9.32,13.38,3.92,3.79,8.48,6.72,13.68,8.82,5.2,2.1,10.71,3.14,16.52,3.14s11.32-1.05,16.52-3.14c5.2-2.09,9.8-5.03,13.78-8.82,3.98-3.78,7.13-8.24,9.43-13.38,2.3-5.13,3.45-10.74,3.45-16.83s-1.15-11.69-3.45-16.82c-2.3-5.13-5.44-9.59-9.43-13.38-3.99-3.78-8.58-6.72-13.78-8.82-5.2-2.09-10.71-3.14-16.52-3.14s-11.32,1.05-16.52,3.14c-5.2,2.1-9.76,5.04-13.68,8.82-3.92,3.78-7.03,8.24-9.32,13.38-2.3,5.14-3.45,10.74-3.45,16.82Z"/>
    </g>
  </g>
</svg>