<svg width="298" height="87" viewBox="0 0 298 87" fill="none" xmlns="http://www.w3.org/2000/svg">
<g clip-path="url(#clip0_2156_954)">
<path d="M0 74.5056C0.704705 74.3985 1.41178 74.3002 2.11491 74.1836C3.86995 73.8912 5.61628 73.5381 7.4085 73.5548C10.2107 73.5804 12.8927 74.1692 15.4663 75.2797C15.566 75.3229 15.6656 75.3668 15.7938 75.4227C16.2201 74.615 16.6416 73.8169 17.0885 72.9692C15.063 72.8294 13.5199 71.7557 12.1026 70.5956C11.4082 70.896 10.7723 71.2475 10.0929 71.4497C8.56798 71.9027 7.10637 71.6198 5.71199 70.8936C4.71622 70.3751 3.86441 69.6681 3.0553 68.8484C3.46183 68.7877 3.85571 68.7821 4.21241 68.663C4.65532 68.5152 5.10377 68.3259 5.48578 68.0606C6.03389 67.6795 6.18891 67.0732 6.12326 66.4252C6.11219 66.3166 5.94847 66.1847 5.82667 66.1336C4.1262 65.4146 2.81724 64.2873 2.10541 62.5304C1.67911 61.4791 1.52647 60.1496 1.71391 59.1414C2.66538 60.3166 3.59471 61.4982 5.20659 61.8865C5.14411 61.3297 5.07609 60.8231 5.03101 60.315C4.79136 57.5851 4.84198 54.8767 5.64555 52.2275C6.15569 50.5465 7.06999 49.0725 8.05467 47.6536C9.53764 45.5173 11.0657 43.4113 12.6183 41.3253C13.9889 39.483 14.9404 37.4641 15.3477 35.1959C15.5541 34.0487 15.5367 32.8974 15.2884 31.751C14.4698 31.8165 13.6717 31.9028 12.8706 31.9387C11.575 31.997 10.2843 31.9435 9.03857 31.5249C8.46832 31.3331 7.94632 31.0519 7.55007 30.5837C8.41691 28.7142 10.773 27.0876 13.5673 26.4141C13.6607 25.5809 13.7255 24.7468 13.8529 23.9223C14.0894 22.3923 14.4809 20.9047 15.4046 19.6352C15.7582 19.1495 16.2256 18.7476 16.6424 18.3066C18.8024 20.5005 20.5472 24.4695 17.9482 28.2724C17.9727 28.306 17.9957 28.3491 18.0297 28.3803C19.8456 30.0708 20.6247 32.1257 20.2664 34.6247C19.9358 36.9352 19.3964 39.1882 18.5414 41.3557C17.8557 43.0933 16.7682 44.6017 15.7613 46.1548C15.2378 46.9618 14.9633 47.8358 15.146 48.8145C15.267 49.464 15.638 49.8802 16.1758 49.9593C16.8639 50.0608 17.3432 49.8315 17.6176 49.166C17.7877 48.7537 17.8581 48.296 17.9411 47.8534C17.9807 47.6424 17.9482 47.4179 17.9482 47.104C18.0764 47.2422 18.142 47.3029 18.1966 47.3724C19.5103 49.0485 20.0267 50.9085 19.4351 53.008C19.1892 53.8805 18.8601 54.7305 18.6466 55.6101C18.3793 56.7111 18.176 57.8288 18.5865 58.9536C18.8546 59.6887 19.2619 60.3094 19.901 60.7704C20.8145 61.4279 21.7185 62.0966 22.6281 62.7597C22.7024 62.8141 22.7855 62.8556 22.9017 62.9259C22.583 62.2548 22.2722 61.6388 21.9953 61.0077C21.0795 58.9257 20.6097 56.7342 20.5203 54.4661C20.4712 53.2245 20.5147 51.9798 20.5147 50.7359V21.2411H21.9708C23.0694 21.2411 24.1672 21.2379 25.2658 21.2427C25.7822 21.2451 26.0622 20.8145 26.4553 20.5916C26.4885 20.5732 26.4885 20.4789 26.4885 20.4198C26.4901 19.5082 26.4901 18.5974 26.4901 17.6723C26.3248 17.6827 26.1809 17.6986 26.0377 17.7002C25.0965 17.7082 24.5421 16.8102 25.0087 15.9857C25.1724 15.6965 25.4279 15.4337 25.6976 15.2387C26.2599 14.8321 26.8603 14.479 27.4748 14.0843C27.0991 13.2294 26.7131 12.3458 26.3216 11.4638C26.1223 11.0156 25.9056 10.5754 25.7134 10.124C25.6169 9.89711 25.4501 9.80604 25.2499 9.89631C24.8893 10.0609 24.55 10.2734 24.1988 10.4604C24.1 10.5131 23.9639 10.6153 23.8927 10.5842C23.2489 10.303 22.6059 10.3893 21.9321 10.5746C21.0462 8.86889 20.1659 7.17597 19.2414 5.39596C20.5606 4.63538 21.8648 3.88359 23.2054 3.11102C23.5068 3.86281 23.7701 4.51953 24.047 5.20901C24.3879 5.07079 24.72 4.93577 25.087 4.78717C24.8758 4.07773 24.671 3.38745 24.4416 2.61569C25.7166 2.18986 26.9892 1.76403 28.3045 1.32462C28.7434 2.95124 29.1705 4.53311 29.5984 6.11978C30.8979 5.86493 32.1815 5.61246 33.5031 5.35361C33.2849 3.71501 33.0673 2.086 32.8435 0.407453C34.1659 0.270836 35.4583 0.137416 36.787 0C36.8519 0.635147 36.9262 1.21916 36.9658 1.80478C36.9863 2.11716 37.0583 2.29292 37.4158 2.21463C37.5914 2.17628 37.7788 2.19146 38.0027 2.18107V0.0103861H40.6625V2.17308C41.0089 2.19306 41.3095 2.20983 41.6693 2.23061C41.7453 1.50118 41.8204 0.777356 41.9019 0.000798927C43.2235 0.136617 44.5158 0.26844 45.8462 0.405056C45.6271 2.07961 45.4135 3.70862 45.1984 5.35441C46.4963 5.60927 47.7681 5.85853 49.0818 6.11659C49.5113 4.5443 49.9423 2.96322 50.3884 1.32782C51.6776 1.75524 52.9328 2.17228 54.233 2.60291C54.0195 3.34511 53.8178 4.04417 53.6066 4.77679C53.9459 4.92139 54.2662 5.05881 54.6301 5.2138C54.9085 4.5403 55.1821 3.87719 55.4969 3.11502C56.8209 3.87799 58.1235 4.62899 59.4491 5.39276C58.5324 7.16079 57.6593 8.84493 56.7703 10.561C56.6232 10.5315 56.4832 10.5083 56.3455 10.4755C55.8718 10.3637 55.3996 10.3461 54.948 10.5474C54.7408 10.6401 54.6253 10.5538 54.4616 10.4468C54.1397 10.2359 53.7964 10.0521 53.4453 9.89472C53.2452 9.80524 53.0791 9.89551 52.9802 10.12C52.3957 11.443 51.8017 12.7621 51.2125 14.0795C51.8041 14.4566 52.3918 14.7993 52.9414 15.1964C53.2206 15.3985 53.4666 15.6742 53.6636 15.961C53.9143 16.3277 53.9388 16.7511 53.7023 17.1466C53.4595 17.5516 53.0799 17.7178 52.618 17.6994C52.4883 17.6938 52.3585 17.6771 52.2027 17.6627C52.2027 18.5966 52.2027 19.5194 52.2043 20.443C52.2043 20.5005 52.2138 20.5924 52.2486 20.6107C52.6686 20.8304 52.9636 21.2603 53.5228 21.2499C55.0587 21.2227 56.5955 21.2403 58.1828 21.2403V21.7268C58.1828 31.1438 58.1852 40.5607 58.1805 49.9777C58.1797 51.7258 58.1931 53.4762 58.1196 55.2227C58.0452 56.9787 57.6094 58.6748 56.9854 60.3102C56.6714 61.1315 56.2396 61.9073 55.8615 62.7038C55.837 62.7549 55.818 62.8085 55.7634 62.9411C55.9129 62.85 55.9928 62.8085 56.0648 62.7557C56.9735 62.0926 57.8918 61.4407 58.7871 60.7592C59.9426 59.8804 60.4195 58.6804 60.3183 57.2407C60.2479 56.2413 59.9743 55.2946 59.6413 54.347C59.0916 52.7803 58.7309 51.1745 59.317 49.5143C59.6223 48.6507 60.051 47.8661 60.6663 47.1615C60.724 47.6336 60.7652 48.0811 60.8403 48.5221C60.8767 48.7362 60.9582 48.9487 61.0515 49.1468C61.3726 49.8283 61.8147 50.0656 62.5218 49.9577C63.0826 49.8722 63.4677 49.4201 63.5674 48.741C63.705 47.8038 63.4448 46.9618 62.9552 46.1812C62.506 45.4638 62.0409 44.7567 61.5767 44.0489C59.7916 41.3301 59.026 38.255 58.5182 35.0929C58.3561 34.0822 58.2524 33.0644 58.4755 32.0442C58.78 30.6524 59.4942 29.502 60.5026 28.5249C60.5801 28.4498 60.6719 28.3891 60.7731 28.3092C59.6191 26.637 59.1778 24.841 59.5685 22.8797C59.9165 21.134 60.7644 19.6504 61.9769 18.3562C62.7939 18.8635 63.3459 19.5705 63.7707 20.3902C64.5291 21.8539 64.8384 23.4413 65.0116 25.0639C65.0583 25.5034 65.0804 25.946 65.1152 26.4085C67.6809 26.955 69.7381 28.2684 71.1704 30.5534C70.5409 31.2724 69.7239 31.572 68.8554 31.7462C67.2333 32.0721 65.6032 31.9851 63.9747 31.7917C63.8055 31.7717 63.6362 31.7486 63.4234 31.7214C63.2233 32.5291 63.1537 33.3432 63.2225 34.1653C63.4195 36.5254 64.2191 38.6705 65.5787 40.5895C67.068 42.6923 68.6221 44.7479 70.109 46.8523C71.0993 48.2536 72.0444 49.6933 72.7064 51.2903C73.5638 53.3596 73.8066 55.5478 73.7749 57.764C73.7575 58.9928 73.608 60.2192 73.5187 61.4471C73.51 61.5677 73.5052 61.6892 73.4949 61.8753C75.1227 61.491 76.0496 60.2847 76.9955 59.1038C76.9955 59.7054 77.0604 60.315 76.9837 60.9062C76.6539 63.466 75.1907 65.1437 72.8757 66.1144C72.64 66.2135 72.5443 66.315 72.5459 66.5818C72.5506 67.5134 73.0141 68.1333 73.835 68.4481C74.3942 68.6622 75.0009 68.7517 75.5537 68.8883C73.2632 71.4193 70.1146 72.4939 67.3045 70.9368C67.0917 70.8185 66.89 70.6803 66.6599 70.5373C65.4078 71.5695 64.0886 72.5043 62.4182 72.8734C62.8627 73.7154 63.2882 74.5231 63.7137 75.3293C70.0782 72.5674 74.4868 73.4662 78.9863 74.508C78.855 74.5255 78.7245 74.5479 78.5932 74.5599C77.1972 74.6893 75.7941 74.7668 74.4061 74.9554C71.902 75.2949 69.7476 76.3966 67.9396 78.1814C67.9158 78.2046 67.9048 78.2422 67.8692 78.3069C68.2852 78.3428 68.683 78.3564 69.0737 78.4147C71.8103 78.8206 73.3565 80.2842 73.8485 83.0341C74.047 84.1446 74.0929 85.2823 74.2076 86.408C74.1775 86.4208 74.1482 86.4336 74.1182 86.4463C73.9845 86.2538 73.858 86.0549 73.7148 85.8695C73.0845 85.0578 72.5087 84.1918 71.8008 83.456C70.7117 82.3239 69.3403 82.1098 67.9261 82.7074C66.7983 83.1835 65.7108 83.7747 64.6525 84.3979C63.0865 85.3207 61.5648 86.3217 59.8517 86.96C59.8303 86.968 59.8066 86.9712 59.752 86.9856C58.8765 85.8527 57.9922 84.7087 57.1206 83.5806C45.5765 88.0162 34.052 88.0258 22.4556 83.5806C22.3465 83.718 22.1859 83.9145 22.0301 84.1151C21.3381 85.0067 20.6405 85.8943 19.9619 86.7971C19.8005 87.0112 19.674 87.0447 19.4217 86.9497C17.8248 86.3457 16.4028 85.4189 14.9507 84.5417C14.106 84.0312 13.2557 83.5167 12.3652 83.0972C9.95841 81.9636 8.3046 82.4181 6.73622 84.584C6.33364 85.1401 5.94768 85.7097 5.55301 86.2722C5.49211 86.3585 5.42409 86.4391 5.29913 86.5997C5.47392 84.9875 5.41697 83.444 5.93977 81.9739C6.61363 80.0781 7.94236 78.966 9.88169 78.5905C10.4504 78.4802 11.0317 78.4435 11.6802 78.3636C11.3876 78.0984 11.1298 77.8491 10.8553 77.6198C8.93892 76.0187 6.73938 75.1295 4.25987 74.933C2.88605 74.8235 1.5146 74.6869 0.142365 74.5639C0.0980734 74.5599 0.0522004 74.5759 0.00711823 74.5831V74.5088L0 74.5056ZM49.2455 68.5296C49.4757 68.397 49.7129 68.2763 49.9344 68.1301C51.0282 67.4047 52.0762 66.6226 52.9422 65.6183C53.4579 64.9927 53.9744 64.3664 54.4901 63.7408C55.2288 62.7861 55.7785 61.7219 56.2285 60.6066C56.4602 60.0322 56.624 59.4306 56.8185 58.841C56.9142 58.4551 57.0099 58.0692 57.1064 57.6834C57.2504 56.7374 57.3943 55.7915 57.5382 54.8456C57.5651 54.6898 57.6173 54.5332 57.615 54.3782C57.5944 53.2038 57.5636 52.0301 57.5359 50.8565C57.5422 50.7335 57.5533 50.6113 57.5533 50.4882C57.5541 41.0729 57.5541 31.6583 57.5533 22.2429C57.5533 22.1231 57.5438 22.0033 57.5367 21.8467H57.123C55.818 21.8467 54.5122 21.8523 53.2072 21.8395C53.0403 21.8379 52.86 21.7628 52.7113 21.6773C51.9607 21.2475 51.2481 20.737 50.4667 20.3766C47.5822 19.0448 44.5 18.5735 41.3672 18.3777C39.492 18.2611 37.6183 18.3178 35.7462 18.508C34.0623 18.6789 32.4006 18.9609 30.7737 19.4291C29.1159 19.9053 27.5215 20.5372 26.1231 21.5806C25.859 21.7772 25.6098 21.8555 25.2919 21.8523C24.0351 21.8387 22.7791 21.8467 21.5224 21.8467H21.1063V49.6573C21.1063 49.8051 21.1158 49.9521 21.1214 50.0999C21.115 51.4829 21.1079 52.8658 21.1016 54.2488L21.2511 55.8834C21.3492 56.4738 21.4472 57.0642 21.5453 57.6538C21.6616 58.126 21.7351 58.6141 21.9028 59.0663C22.2184 59.918 22.5885 60.7496 22.9357 61.5901C23.3873 62.6759 24.0414 63.6322 24.7801 64.5342C25.3599 65.1517 25.9396 65.7693 26.5194 66.3869C26.5763 66.45 26.6277 66.5187 26.691 66.5738C29.914 69.3773 33.7001 70.7802 37.8983 71.0918C40.0923 71.2547 42.2728 71.0758 44.4122 70.5133C46.1103 70.0667 47.7436 69.4604 49.2471 68.5296H49.2455ZM24.4393 74.4552C24.4646 74.4177 24.4907 74.3809 24.516 74.3434C24.4353 74.2483 24.3625 74.1437 24.2716 74.0598C23.7243 73.5533 23.1422 73.0819 22.632 72.541C22.0863 71.9626 21.7391 71.2555 21.6149 70.4526C21.5817 70.2393 21.6054 70.0324 21.8625 70.0028C22.0942 69.9765 22.1385 70.1538 22.1931 70.3535C22.2983 70.7402 22.4066 71.1397 22.5964 71.4872C23.0283 72.2766 23.7148 72.8358 24.3831 73.4174C25.2033 74.1325 26.1753 74.309 27.198 74.3562C27.4621 74.3682 27.731 74.3298 27.9944 74.2899C28.2657 74.2483 28.4713 74.1101 28.5235 73.8089C28.5789 73.4901 28.4081 73.2768 28.1637 73.1458C27.8987 73.0036 27.6092 72.8973 27.3206 72.811C26.218 72.4827 25.2183 71.4305 25.1384 70.4255C25.0957 69.8878 25.1701 69.3421 25.1495 68.8012C25.1187 68.0159 25.1258 67.2178 24.9787 66.4524C24.7738 65.389 24.0485 64.6156 23.2371 63.9725C22.0681 63.0458 20.8533 62.1773 19.6455 61.3025C18.8309 60.7121 18.3026 59.9339 17.9941 58.9784C17.6263 57.8383 17.7972 56.7079 18.0661 55.5942C18.3358 54.4765 18.7186 53.3867 18.9978 52.2706C19.3078 51.0331 19.0128 49.8762 18.4157 48.741C18.3184 48.9886 18.2496 49.1987 18.1554 49.3977C17.7434 50.2661 16.9809 50.68 16.0682 50.5378C15.3026 50.4187 14.7229 49.774 14.5726 48.88C14.3796 47.7335 14.7339 46.7333 15.3216 45.7698C16.2137 44.3061 17.2063 42.8824 17.9087 41.3277C18.9163 39.0987 19.4344 36.7019 19.723 34.258C19.9342 32.474 19.4842 30.9233 18.3555 29.5563C17.9988 29.1249 17.6327 28.7007 17.2601 28.2605C19.8195 25 18.5754 21.3298 16.6108 19.1303C15.8744 19.7455 15.4252 20.5548 15.0859 21.4336C14.4445 23.093 14.223 24.8323 14.1677 26.5987C14.1597 26.8392 14.1036 26.9255 13.8513 26.967C12.7867 27.1436 11.7807 27.5007 10.849 28.0591C9.82079 28.6751 8.94762 29.4589 8.21998 30.5198C8.62255 30.698 8.97451 30.8977 9.35177 31.0128C10.8869 31.4825 12.4577 31.4202 14.0292 31.2772C14.594 31.2261 15.1555 31.1462 15.7131 31.0799C16.1592 32.7384 16.1505 34.3555 15.7724 35.9781C15.2528 38.2071 14.2001 40.1597 12.8492 41.986C11.1938 44.223 9.59696 46.5056 7.99773 48.7841C6.20947 51.3327 5.49053 54.208 5.48025 57.3023C5.47471 59.0184 5.5712 60.7233 5.88915 62.4074C6.10507 63.5523 6.38743 64.6844 6.62945 65.8244C6.86988 66.9581 6.62233 68.111 5.47234 68.7892C5.14015 68.985 4.77159 69.116 4.39037 69.2902C5.39246 70.1514 6.49657 70.8017 7.80316 71.0087C9.39211 71.2595 10.8126 70.8305 12.0172 69.7823C12.536 70.1858 13.0216 70.5788 13.5223 70.9503C14.8811 71.9586 16.3767 72.525 18.093 72.3812C18.3959 72.3557 18.7043 72.3573 19.0073 72.3844C19.7547 72.4515 20.4894 72.4947 21.1775 72.9173C22.0341 73.4446 22.9587 73.8608 23.8611 74.309C24.0359 74.3961 24.2471 74.4081 24.4416 74.4552H24.4393ZM74.3191 69.255C74.1269 69.1911 73.9758 69.1472 73.8287 69.092C72.4233 68.5631 71.7834 67.4894 72.0444 65.9954C72.2635 64.7403 72.553 63.498 72.7918 62.246C73.1707 60.2535 73.2774 58.2458 73.1572 56.2189C73.0149 53.8205 72.424 51.5803 71.1578 49.5183C69.716 47.1703 68.0661 44.9764 66.4352 42.7658C65.468 41.4555 64.4572 40.1749 63.8142 38.6481C63.0137 36.7459 62.4585 34.8013 62.68 32.7073C62.7385 32.1552 62.8611 31.6104 62.9536 31.0655C63.1577 31.0887 63.2795 31.099 63.3997 31.1166C65.0575 31.3643 66.7192 31.4985 68.3872 31.2381C69.1109 31.1254 69.8164 30.9417 70.4302 30.4759C70.3439 30.3536 70.2704 30.241 70.1881 30.1363C68.8175 28.3931 67.0292 27.3561 64.8708 26.9678C64.6059 26.9199 64.5355 26.8384 64.5299 26.5787C64.4904 24.8986 64.2697 23.2456 63.6987 21.6573C63.3499 20.6882 62.884 19.791 62.067 19.1247C60.1799 21.305 58.8211 24.9369 61.5197 28.4091C61.3987 28.5089 61.2737 28.6048 61.1567 28.7103C59.7829 29.939 58.8828 31.4186 58.9358 33.3281C58.9603 34.2213 59.075 35.1208 59.2427 35.9989C59.7742 38.7871 60.5263 41.4995 62.1398 43.8867C62.5795 44.537 62.9971 45.2017 63.4195 45.864C63.9771 46.7388 64.2539 47.6872 64.1392 48.7354C64.0356 49.6837 63.425 50.4083 62.6183 50.537C61.6668 50.6887 60.8838 50.239 60.4812 49.305C60.4109 49.1412 60.3563 48.9703 60.274 48.745C59.8161 49.611 59.5306 50.4746 59.5899 51.4174C59.6603 52.5407 59.9553 53.6128 60.3484 54.6658C60.777 55.8147 61.0112 57.0115 60.8474 58.2442C60.6798 59.5089 60.0842 60.5323 59.0465 61.2889C57.8609 62.1534 56.669 63.0122 55.5151 63.919C54.6799 64.5757 53.9087 65.3563 53.7039 66.4388C53.537 67.3232 53.5884 68.25 53.556 69.1591C53.5441 69.5027 53.6177 69.8566 53.5623 70.1906C53.4911 70.6164 53.4184 71.0886 53.1874 71.4313C52.6978 72.1567 52.0042 72.6537 51.1366 72.8821C50.874 72.9517 50.6051 73.0795 50.3939 73.2497C49.9818 73.582 50.0989 74.1349 50.6098 74.2683C50.9104 74.3474 51.2402 74.3817 51.5486 74.3498C52.2336 74.2803 52.9723 74.3258 53.5592 73.912C54.2346 73.4358 54.8776 72.8981 55.4724 72.3221C56.0221 71.7892 56.4151 71.1285 56.5164 70.3376C56.5441 70.1203 56.6326 69.9413 56.8462 70.018C56.9569 70.0579 57.093 70.32 57.0582 70.4302C56.8905 70.9631 56.7299 71.5144 56.4539 71.9929C55.962 72.8454 55.2082 73.467 54.4307 74.051C54.3248 74.1301 54.2457 74.2451 54.1547 74.3442L54.2291 74.4401C54.3564 74.4185 54.4885 74.4105 54.6111 74.3729C55.6187 74.0622 56.5456 73.5876 57.4346 73.0156C57.7937 72.7847 58.2121 72.581 58.6258 72.5194C59.3566 72.4108 60.1071 72.3684 60.8459 72.3908C62.1691 72.4308 63.3863 72.1216 64.4856 71.3914C65.237 70.8928 65.9536 70.34 66.6931 69.8071C69.0903 71.8627 72.1267 71.2364 74.3207 69.2534L74.3191 69.255ZM61.7443 72.8957C61.3805 72.9732 60.9392 72.9469 60.6473 73.1458C54.6862 77.2091 48.0457 79.0395 40.929 79.2999C38.2423 79.3982 35.5706 79.1849 32.9187 78.7263C29.9108 78.2062 26.9923 77.3897 24.1933 76.1474C22.3046 75.3085 20.5045 74.3122 18.8064 73.1266C18.3081 72.7783 17.7948 72.8989 17.5195 73.4222C16.7255 74.9306 15.9306 76.439 15.1373 77.9482C15.082 78.0528 15.0329 78.1607 14.9799 78.2709C15.0582 78.3388 15.112 78.3876 15.1682 78.4339C17.2443 80.1532 19.5301 81.5289 21.9748 82.6371C27.0509 84.9388 32.4006 86.0413 37.9362 86.2514C42.3282 86.4184 46.6742 86.0125 50.9476 84.9332C55.16 83.869 59.1248 82.2304 62.7029 79.7114C63.3499 79.256 63.9676 78.7599 64.5956 78.2853C63.6378 76.4749 62.7092 74.7189 61.7451 72.8957H61.7443ZM19.9983 73.0164C19.9753 73.0811 19.9524 73.1458 19.9303 73.2105C28.1898 78.2501 37.1342 79.6459 46.5833 78.1151C51.2758 77.3553 55.6638 75.6984 59.6445 73.0268C58.9397 73.0196 58.3015 73.1274 57.6672 73.5149C56.7584 74.0694 55.7658 74.492 54.7898 74.925C54.3374 75.1255 53.8747 75.1008 53.662 74.6438C52.8774 74.75 52.1466 74.8731 51.411 74.937C51.0915 74.965 50.7467 74.9202 50.4398 74.8235C49.4994 74.5279 49.2787 73.411 50.0475 72.7863C50.3299 72.5562 50.7 72.4028 51.0543 72.3029C52.3182 71.9466 53.015 71.0446 53.0039 69.7368C52.9968 68.9003 53.0095 68.0638 53.0245 67.2273C53.0292 66.9661 53.0712 66.7064 53.1044 66.3621C49.183 70.0747 44.5372 71.7309 39.3353 71.7309C34.1335 71.7309 29.4932 70.0579 25.696 66.4763C25.696 67.7506 25.6857 69.0505 25.7055 70.3488C25.7095 70.582 25.7886 70.8513 25.923 71.0374C26.3612 71.6438 26.9022 72.1208 27.6607 72.3061C27.962 72.3796 28.2625 72.5154 28.5228 72.6856C29.0036 72.9996 29.1895 73.5277 29.055 74.031C28.9135 74.5623 28.4002 74.9082 27.6868 74.9386C26.7922 74.9761 25.9199 74.8339 25.0688 74.5711C24.7256 75.0329 24.5215 75.1128 23.9687 74.9466C22.8519 74.611 21.8237 74.0901 20.858 73.4318C20.597 73.2545 20.2862 73.1514 19.9983 73.0148V73.0164ZM51.6159 20.2296C51.6159 19.7095 51.6198 19.2294 51.6143 18.7492C51.6088 18.2843 51.7559 17.709 51.5392 17.3839C51.2995 17.0243 50.7348 16.8694 50.2919 16.668C47.36 15.3338 44.2422 14.8417 41.0659 14.6843C38.565 14.5605 36.0704 14.6771 33.5988 15.1189C31.7014 15.4576 29.8649 15.9889 28.0933 16.7807C27.3047 17.133 26.9401 17.5668 27.0651 18.456C27.145 19.0265 27.0801 19.6177 27.0801 20.2217C30.9849 18.2914 35.1103 17.7202 39.3338 17.7194C43.5699 17.7194 47.7072 18.2882 51.6159 20.2296ZM19.409 86.4104C19.4328 86.376 19.4573 86.3417 19.481 86.3081C19.466 86.2386 19.4557 86.1675 19.4359 86.0996C19.0081 84.6144 18.0471 83.5287 16.8757 82.5963C16.1489 82.0179 15.3928 81.4682 14.7252 80.8251C13.8877 80.019 13.811 79.1354 14.3575 78.1127C14.7474 77.3817 15.1326 76.6483 15.5201 75.9157C12.8191 74.4241 6.50844 73.5453 4.43782 74.3929C6.13592 74.5711 7.69955 75.0193 9.15642 75.8182C10.6157 76.6179 11.8621 77.6733 12.9797 79.0171C12.0788 79.0171 11.2579 78.9444 10.4543 79.0315C8.56323 79.236 7.16173 80.1716 6.47601 82.0307C6.17151 82.8552 6.01095 83.71 5.99592 84.5904C6.47126 84.0647 6.89915 83.5271 7.39189 83.0597C8.22709 82.268 9.2276 81.8813 10.3926 81.966C11.2982 82.0315 12.1397 82.3215 12.9172 82.7585C14.3527 83.5654 15.7503 84.4402 17.1795 85.2583C17.9055 85.6738 18.6656 86.0285 19.4098 86.4104H19.409ZM63.9668 75.7982C64.3836 76.5908 64.7933 77.3434 65.1793 78.1087C65.5953 78.934 65.5921 79.7529 64.9847 80.4831C64.6739 80.857 64.3061 81.1894 63.932 81.5018C63.2558 82.0658 62.5313 82.5723 61.8717 83.1548C60.9273 83.9896 60.2764 85.0258 59.9592 86.3193C60.085 86.2714 60.1744 86.2482 60.2535 86.2051C61.4841 85.5364 62.7132 84.8645 63.9439 84.1958C65.1532 83.539 66.3451 82.8472 67.5805 82.2464C68.369 81.8629 69.2446 81.7798 70.1185 81.9452C71.2574 82.1609 72.095 82.8568 72.8203 83.7188C73.0449 83.9856 73.249 84.2701 73.4625 84.5465C73.4554 83.9785 73.3945 83.4328 73.2838 82.8983C72.7902 80.5303 71.2487 79.137 68.8673 78.9452C68.1096 78.8837 67.344 78.9356 66.4993 78.9356C68.7503 76.2472 71.5216 74.6925 74.9241 74.2827C71.1254 73.6651 67.5061 74.2587 63.9668 75.7982ZM52.6417 17.161C53.1518 17.1114 53.4081 16.7192 53.1629 16.2885C53.034 16.0624 52.8331 15.8595 52.6227 15.7029C50.8661 14.3895 48.8461 13.6888 46.747 13.2023C43.8096 12.5216 40.8302 12.2995 37.8192 12.4329C35.3523 12.5416 32.921 12.8627 30.5499 13.569C28.8834 14.0659 27.2881 14.725 25.9009 15.8132C25.458 16.1607 25.3156 16.5945 25.5181 16.8869C25.7198 17.1785 26.1816 17.1905 26.653 16.9229C27.024 16.712 27.3878 16.4859 27.7714 16.2997C30.8457 14.8113 34.1382 14.2768 37.4996 14.0923C40.0622 13.9517 42.6161 14.0795 45.1478 14.5277C47.5585 14.9535 49.8917 15.6086 52.0105 16.8997C52.2027 17.0172 52.4297 17.0763 52.6409 17.1618L52.6417 17.161ZM14.5362 78.8038C14.3946 79.5796 14.6311 80.1676 15.1088 80.6198C15.6751 81.1566 16.2936 81.6408 16.9113 82.1186C17.8755 82.8647 18.7866 83.6581 19.3663 84.7622C19.5443 85.1001 19.6772 85.4629 19.8472 85.8519C20.4823 84.9563 21.0897 84.0991 21.7272 83.1995C19.1362 82.0443 16.8141 80.5239 14.5354 78.803L14.5362 78.8038ZM57.8056 83.2091C58.4351 84.0855 59.0291 84.9132 59.5859 85.6882C59.9822 85.0211 60.3246 84.3428 60.7628 83.7332C61.4375 82.7936 62.4277 82.1952 63.3064 81.4746C63.7944 81.0751 64.2594 80.6333 64.6644 80.1508C64.9697 79.7865 65.0828 79.3119 64.9586 78.7487C62.7567 80.5886 60.3816 82.0211 57.8056 83.2083V83.2091ZM40.2908 11.7874V7.79593C40.2908 6.98982 40.1223 6.82044 39.3164 6.84042C39.1471 6.84441 38.9747 6.86598 38.8102 6.90593C38.5389 6.97224 38.3839 7.10886 38.3894 7.44361C38.4092 8.79619 38.3973 10.1496 38.3989 11.5022C38.3989 11.5964 38.4131 11.6907 38.421 11.7874H40.2908ZM2.29761 60.7448C2.13547 62.4585 4.11987 65.0487 5.9113 65.4865C5.70487 64.4766 5.50002 63.4724 5.29122 62.449C4.05106 62.3403 3.16208 61.5773 2.29761 60.7448ZM72.7776 65.4809C74.5935 64.8601 76.2972 62.9531 76.4166 60.6945C75.5434 61.5749 74.6331 62.3395 73.3866 62.4546C73.1802 63.482 72.9801 64.475 72.7776 65.4809ZM39.2294 3.87879C38.0794 3.92992 36.976 3.97946 35.8419 4.02979C35.8838 4.5443 35.9218 5.00688 35.9605 5.47425C37.0615 5.42552 38.1379 5.37758 39.2294 5.32885V3.87799V3.87879ZM39.4658 5.32964C40.5541 5.37838 41.6282 5.42631 42.7284 5.47505C42.7655 4.9917 42.8019 4.52433 42.8407 4.02579C41.6844 3.97706 40.585 3.93072 39.4658 3.88279V5.32885V5.32964ZM37.3905 2.82181H36.4825C36.4556 2.64525 36.4319 2.49185 36.4034 2.3073C35.4955 2.40317 34.6215 2.49505 33.7191 2.58932C33.7926 3.10863 33.8551 3.55363 33.92 4.01381C35.0889 3.90915 36.235 3.80609 37.3905 3.70223V2.82101V2.82181ZM44.9627 2.58613C44.0516 2.49265 43.1665 2.40158 42.2783 2.3105C42.2467 2.52141 42.223 2.67481 42.1985 2.83859H41.3063V3.70463C42.4666 3.80769 43.6118 3.90995 44.7729 4.01301C44.8362 3.53765 44.8955 3.09105 44.9627 2.58693V2.58613ZM34.3138 5.85134C34.3557 6.37464 34.3913 6.82124 34.4293 7.30379C35.4931 7.21831 36.5149 7.13602 37.5748 7.05133C37.5479 6.56319 37.5226 6.1054 37.4949 5.60288C36.4161 5.68756 35.3903 5.76746 34.3138 5.85134ZM44.2398 7.30539C44.2888 6.82923 44.3371 6.36266 44.3893 5.86253C43.2915 5.77385 42.2514 5.68916 41.1687 5.60208V7.05613C42.1747 7.13762 43.1792 7.21991 44.2398 7.30539ZM30.9279 6.43696C31.0418 6.9307 31.147 7.38608 31.2514 7.83828C32.2828 7.66411 33.2674 7.49793 34.2687 7.32856C34.1952 6.82284 34.128 6.35547 34.0576 5.87292C33.0144 6.06066 32.0154 6.24042 30.9279 6.43616V6.43696ZM44.4162 7.33016C45.4483 7.50353 46.4338 7.6681 47.4398 7.83668C47.5443 7.3733 47.6455 6.9251 47.757 6.42657C46.6972 6.24601 45.6793 6.07265 44.6289 5.89369C44.5538 6.40101 44.4882 6.84681 44.4162 7.33016ZM26.2085 7.60978C27.2043 7.27823 28.1629 6.95866 29.131 6.63669C29.002 6.17571 28.8787 5.7339 28.7466 5.26094C27.7216 5.60448 26.7385 5.93363 25.7277 6.27238C25.9025 6.75893 26.0535 7.17916 26.2085 7.60978ZM49.5492 6.63589C50.5434 6.96665 51.4988 7.28542 52.4772 7.61058C52.6338 7.18316 52.792 6.75014 52.9683 6.26998C51.9465 5.93044 50.9602 5.60208 49.9439 5.26413C49.8055 5.74589 49.6813 6.1789 49.55 6.63589H49.5492ZM43.9669 9.16849C42.9174 9.0886 41.9185 9.0127 40.8942 8.9352V10.398C41.8639 10.4691 42.8122 10.5395 43.7629 10.6098C43.8309 10.128 43.8926 9.69179 43.9669 9.16929V9.16849ZM45.544 9.17009C45.6294 8.71071 45.7133 8.25931 45.809 7.748C44.7721 7.62337 43.7803 7.50353 42.7687 7.38209C42.7141 7.90778 42.6659 8.36397 42.6184 8.81936C43.6015 8.9368 44.5419 9.05025 45.544 9.17009ZM34.9133 10.6114C35.8854 10.5379 36.8266 10.4667 37.7654 10.3956V8.93201C36.7317 9.0143 35.7296 9.09339 34.7148 9.17408C34.7868 9.69578 34.8485 10.1432 34.9133 10.6114ZM35.9249 7.3765C34.8912 7.50512 33.901 7.62896 32.8839 7.75519C32.9859 8.28568 33.0713 8.73467 33.1551 9.17169C34.1588 9.04865 35.104 8.93281 36.0602 8.81616C36.0143 8.33201 35.9732 7.8942 35.9249 7.3765ZM30.7239 6.4793C29.7218 6.75174 28.7584 7.01458 27.7682 7.28462C27.9327 7.78315 28.0735 8.20818 28.2143 8.63481C29.1745 8.38075 30.0983 8.13628 31.0402 7.88701C30.9398 7.43961 30.8409 6.9994 30.7247 6.4793H30.7239ZM47.9611 6.4793C47.844 7.0034 47.7436 7.45 47.6455 7.88941C48.6183 8.14506 49.5413 8.38794 50.4833 8.63561C50.6249 8.18341 50.7585 7.75599 50.908 7.28063C49.9241 7.01298 48.9687 6.75333 47.9618 6.4793H47.9611ZM57.9305 7.03935C57.0336 6.52085 56.1628 6.01752 55.2588 5.49502C55.0603 5.97278 54.8895 6.38503 54.7194 6.79408C55.5855 7.29341 56.4254 7.77756 57.2891 8.27529C57.4932 7.88222 57.6941 7.49394 57.9305 7.03855V7.03935ZM45.7489 9.20924C46.6956 9.40817 47.6051 9.59991 48.5424 9.79725C48.6673 9.33786 48.7884 8.89606 48.9197 8.4143C47.9263 8.19939 46.9724 7.99407 46.0035 7.78475C45.9118 8.29686 45.8311 8.75065 45.7489 9.21004V9.20924ZM23.4269 5.49023C22.5071 6.02631 21.6386 6.53283 20.7568 7.04654C20.994 7.50273 21.1997 7.8974 21.3966 8.27449C22.2666 7.77276 23.1082 7.28622 23.9702 6.78929C23.8002 6.38183 23.6317 5.97837 23.4269 5.48943V5.49023ZM30.1449 9.79645C31.0742 9.59991 31.9798 9.40817 32.9234 9.20764C32.8388 8.73148 32.7565 8.27209 32.6687 7.78155C31.6761 7.99886 30.7357 8.20498 29.7629 8.4183C29.8966 8.89925 30.0128 9.32029 30.1449 9.79645ZM43.9748 10.6401C44.9192 10.7879 45.8011 10.9269 46.6972 11.0667C46.8087 10.5946 46.9115 10.1568 47.0262 9.66862C46.0565 9.50724 45.1201 9.35145 44.1655 9.19246C44.0982 9.70297 44.0381 10.1616 43.9748 10.6401ZM53.518 2.9824C52.6053 2.6796 51.7132 2.3832 50.7917 2.07721C50.6597 2.56456 50.5394 3.00796 50.4153 3.46655C51.3232 3.76295 52.2035 4.05056 53.1036 4.34537C53.2412 3.89237 53.3685 3.47294 53.518 2.9824ZM52.6717 7.67929C53.5378 8.08674 54.3675 8.47742 55.2256 8.88088C55.4162 8.46863 55.6037 8.06517 55.8109 7.61697C54.9195 7.19035 54.059 6.7781 53.1661 6.35067C52.9905 6.82124 52.8339 7.24228 52.6717 7.67849V7.67929ZM31.9909 11.0691C32.9218 10.9213 33.8061 10.7815 34.7132 10.6377C34.646 10.1552 34.5804 9.68859 34.5108 9.19086C33.5498 9.35304 32.6316 9.50803 31.6745 9.67022C31.7845 10.1544 31.8833 10.593 31.9917 11.0691H31.9909ZM28.2744 3.46655C28.1447 2.99837 28.0221 2.55497 27.8892 2.07561C26.9615 2.3864 26.0709 2.68519 25.1772 2.98479C25.3219 3.47294 25.4501 3.90276 25.5813 4.34617C26.4861 4.05056 27.3593 3.76534 28.2744 3.46655ZM22.8748 7.61618C23.0939 8.08115 23.2877 8.4902 23.4712 8.87928C24.3459 8.46544 25.174 8.07396 26.0124 7.67689C25.8447 7.23029 25.6873 6.81086 25.5141 6.34828C24.6235 6.7757 23.763 7.18955 22.8748 7.61618ZM41.058 2.79784C40.7313 2.78266 40.4308 2.76828 40.1223 2.7539C40.1025 2.57734 40.0851 2.42235 40.0685 2.26656H38.6077C38.5919 2.44711 38.5792 2.60051 38.5658 2.75071C38.2241 2.77148 37.9133 2.78985 37.5779 2.80983C37.6048 3.13739 37.6278 3.4242 37.6499 3.69584H41.0588V2.79784H41.058ZM27.3482 10.6649C28.2222 10.3885 29.0756 10.1192 29.9385 9.84678C29.8088 9.39059 29.6862 8.95757 29.547 8.46703C28.6343 8.76423 27.75 9.05185 26.8508 9.34505C27.0295 9.81962 27.1885 10.2407 27.3482 10.6649ZM49.1356 8.46623C48.9972 8.97195 48.8793 9.40417 48.7575 9.84998C49.6299 10.124 50.4793 10.3908 51.3501 10.6641C51.5107 10.2255 51.6641 9.80604 51.8326 9.34346C50.9325 9.05025 50.0594 8.76583 49.1356 8.46544V8.46623ZM29.2101 11.7674C30.0959 11.5389 30.9382 11.3216 31.794 11.1011C31.6793 10.6209 31.5725 10.1743 31.461 9.70457C30.5412 9.94505 29.6656 10.1735 28.7727 10.4068C28.9293 10.8926 29.0669 11.3224 29.2101 11.7674ZM49.9043 10.4028C48.9853 10.164 48.1216 9.93946 47.2279 9.70697C47.1148 10.1991 47.012 10.6457 46.9068 11.1059C47.7855 11.332 48.6238 11.5477 49.4765 11.7666C49.6164 11.3216 49.7509 10.8918 49.9051 10.402L49.9043 10.4028ZM53.8083 8.40631C52.9027 8.05159 52.0185 7.70565 51.1042 7.34774C50.9476 7.84627 50.8139 8.27369 50.6779 8.70751C51.2536 8.92562 51.8223 9.10617 52.3585 9.35624C52.7619 9.54399 53.072 9.20205 53.4381 9.24998C53.4587 9.25238 53.4959 9.17648 53.5141 9.13254C53.6074 8.90804 53.6968 8.68194 53.8075 8.40631H53.8083ZM24.8656 8.4135C25.0095 8.73148 25.0665 9.07502 25.2673 9.2372C25.4667 9.39778 25.8392 9.48007 26.0859 9.41136C26.7337 9.23241 27.3538 8.95198 28.0063 8.70431C27.8552 8.24173 27.716 7.81431 27.5634 7.34694C26.6657 7.70166 25.7957 8.046 24.8656 8.4135ZM45.2047 11.0196C44.2683 10.9141 43.3809 10.8143 42.4508 10.7096C42.412 11.1378 42.3772 11.5109 42.3424 11.8944C43.2259 12.0023 44.0895 12.1077 44.9809 12.2164C45.0505 11.8417 45.1201 11.4718 45.2039 11.0196H45.2047ZM30.432 11.6428C29.6047 11.8976 28.8099 12.1421 27.9849 12.3962C28.1502 12.8523 28.295 13.2502 28.4405 13.6521C29.2322 13.3804 29.9939 13.1184 30.7697 12.8523C30.659 12.4553 30.5538 12.0798 30.432 11.6428ZM48.0489 11.594C47.1567 11.4135 46.297 11.2393 45.4135 11.0604C45.3368 11.4902 45.2688 11.8705 45.2 12.2571C46.0518 12.4401 46.8759 12.6175 47.7159 12.7988C47.8234 12.4105 47.9294 12.0255 48.0489 11.594ZM36.3433 11.8944C36.3054 11.5062 36.269 11.1331 36.2271 10.708C35.2985 10.8151 34.4048 10.9181 33.4857 11.0236C33.5664 11.4734 33.6329 11.8441 33.7001 12.2188C34.5764 12.1109 35.4282 12.0071 36.3433 11.8944ZM30.9722 12.7988C31.8351 12.6119 32.649 12.4353 33.4968 12.2516C33.4248 11.8585 33.356 11.4806 33.2793 11.0596C32.384 11.2409 31.533 11.4127 30.6424 11.5924C30.761 12.0255 30.8662 12.4097 30.9722 12.798V12.7988ZM50.2492 13.6521C50.401 13.2294 50.5426 12.8316 50.7 12.3922C49.8664 12.1389 49.0739 11.8976 48.2505 11.6476C48.1303 12.0982 48.0275 12.48 47.927 12.8579C48.7188 13.1288 49.4622 13.3828 50.2492 13.6521ZM54.8436 5.94482C54.1761 5.66679 53.541 5.40235 52.9011 5.13551C52.9454 4.93018 52.981 4.7656 53.0229 4.56827C52.7239 4.46041 52.4345 4.35575 52.1197 4.2423C51.9702 4.71367 51.8318 5.14909 51.6973 5.57252C52.6591 5.9616 53.5781 6.3331 54.5122 6.71099C54.6221 6.45533 54.7242 6.22125 54.8436 5.94402V5.94482ZM25.6786 4.56188C25.7427 4.95335 25.5987 5.22099 25.2484 5.364C24.7904 5.55255 24.3341 5.74349 23.85 5.94402C23.9671 6.22285 24.0731 6.47371 24.1727 6.71099C25.1289 6.32511 26.0496 5.95441 27.0018 5.57012C26.8579 5.13471 26.7147 4.69929 26.5629 4.24151C26.2552 4.35336 25.9744 4.45482 25.6786 4.56188ZM37.7946 7.05932C38.1371 6.37065 38.7169 6.26359 39.3235 6.254C39.9483 6.24442 40.5265 6.38103 40.9203 7.06891V5.61167H37.71C37.7385 6.09821 37.7646 6.54401 37.7939 7.05932H37.7946ZM35.3207 0.73741C34.7045 0.805319 34.1201 0.869233 33.5023 0.937142C33.5696 1.44206 33.6329 1.91024 33.6953 2.3824C34.2941 2.3113 34.8635 2.24339 35.4512 2.17388C35.4061 1.67775 35.3657 1.23035 35.3215 0.73741H35.3207ZM43.3619 0.735013C43.3216 1.25272 43.286 1.70891 43.2496 2.17947C43.8602 2.24898 44.4201 2.3121 44.9967 2.37761C45.0592 1.88307 45.1185 1.4173 45.1802 0.934745C44.5593 0.866836 43.9836 0.803721 43.3619 0.735013ZM29.0092 11.8249C28.8676 11.3799 28.7308 10.9533 28.5789 10.4771C27.9818 10.6952 27.4091 10.9046 26.8152 11.1219C27.0192 11.586 27.1988 11.9943 27.3815 12.4097C27.9454 12.2068 28.4666 12.0199 29.0084 11.8257L29.0092 11.8249ZM51.869 11.1163C51.2584 10.8958 50.7016 10.6944 50.1139 10.4819C49.9589 10.9501 49.815 11.3847 49.6679 11.8305C50.227 12.0279 50.7514 12.2124 51.3043 12.4073C51.4893 11.9847 51.6681 11.5749 51.869 11.1163ZM33.9342 4.23991C34.0022 4.77199 34.0615 5.24096 34.1232 5.72591C34.6808 5.64522 35.2028 5.57012 35.7549 5.49103C35.7114 5.01647 35.6702 4.56986 35.6252 4.07133C35.062 4.12806 34.5258 4.18159 33.9342 4.24071V4.23991ZM43.0606 4.06574C43.0147 4.56986 42.9743 5.01726 42.9293 5.5086C43.4877 5.56693 44.0255 5.62285 44.5981 5.68197C44.6495 5.17146 44.6954 4.71527 44.7428 4.24071C44.1647 4.17999 43.6348 4.12486 43.0606 4.06494V4.06574ZM40.8966 7.26465V8.73308C41.4028 8.75784 41.8932 8.78101 42.412 8.80658C42.4595 8.32083 42.5037 7.86145 42.5512 7.3741C41.9833 7.33655 41.4542 7.3014 40.8966 7.26385V7.26465ZM26.7551 4.16401C26.9109 4.65056 27.0477 5.07798 27.194 5.53257C27.7113 5.37359 28.2024 5.22339 28.7023 5.06999C28.5694 4.59223 28.4492 4.15922 28.3187 3.69025C27.7919 3.85003 27.2976 3.99943 26.7558 4.16401H26.7551ZM51.483 5.52938C51.6301 5.0676 51.7677 4.63298 51.918 4.16081C51.3841 3.99943 50.8795 3.84763 50.3488 3.68705C50.2215 4.17999 50.1076 4.62259 49.9905 5.07559C50.507 5.23218 50.9784 5.37598 51.483 5.52938ZM36.1408 7.3741C36.1875 7.87103 36.2318 8.33681 36.2769 8.80897C36.8076 8.78101 37.2885 8.75545 37.7812 8.72908V7.26784C37.2347 7.303 36.7087 7.33655 36.1408 7.3733V7.3741ZM38.6219 2.00691H40.0567V0.56644H38.6219V2.00691ZM55.7674 3.97067C55.5831 4.44124 55.4202 4.85668 55.2517 5.2857C55.7089 5.52378 56.1328 5.74349 56.5741 5.97358C56.7774 5.53257 56.964 5.12752 57.1578 4.70568C56.688 4.45801 56.2506 4.22633 55.7666 3.97067H55.7674ZM21.5255 4.70728C21.7264 5.1395 21.9155 5.54615 22.1156 5.97518C22.5703 5.7355 22.9951 5.5126 23.4395 5.27851C23.2561 4.83511 23.0828 4.41567 22.9017 3.97786C22.4145 4.23671 21.9764 4.4692 21.5263 4.70808L21.5255 4.70728ZM21.9297 6.08064C21.7272 5.64442 21.5398 5.24096 21.342 4.81514C20.8881 5.10355 20.4697 5.36959 20.0331 5.64602C20.2577 6.06865 20.4657 6.46093 20.6808 6.86518C21.1103 6.59515 21.5002 6.34987 21.9289 6.08064H21.9297ZM58.6534 5.64442C58.2042 5.36 57.7866 5.09556 57.3445 4.81514C57.142 5.25135 56.9538 5.6572 56.7568 6.08303C57.1863 6.34828 57.5936 6.60074 58.0167 6.86199C58.2335 6.44814 58.4304 6.07025 58.6534 5.64362V5.64442ZM56.5346 9.70537C56.7624 9.27635 56.9672 8.89046 57.1831 8.48221C56.7782 8.23534 56.3898 7.99806 55.9825 7.75039C55.7737 8.197 55.5879 8.59246 55.3949 9.00391C55.7753 9.2388 56.1344 9.4601 56.5338 9.70617L56.5346 9.70537ZM22.1472 9.70777C22.5434 9.46329 22.9057 9.24039 23.2837 9.00711C23.0884 8.59087 22.8978 8.18581 22.6913 7.7472C22.2753 8.00685 21.8973 8.24333 21.5042 8.4894C21.7225 8.90325 21.9273 9.29232 22.1472 9.70857V9.70777ZM25.0174 9.30511C24.913 9.04705 24.8118 8.79939 24.6876 8.4942C23.9038 8.93281 23.1445 9.35704 22.4058 9.77008C22.8756 9.82281 23.332 9.96662 23.7535 9.89551C24.1719 9.82441 24.5539 9.5368 24.9518 9.34425C24.9628 9.33866 24.9723 9.33227 25.0174 9.30511ZM56.2467 9.85077C56.2625 9.82521 56.2775 9.79964 56.2933 9.77408C55.5364 9.35224 54.7803 8.93121 54.0013 8.49739C53.8763 8.80258 53.7727 9.05584 53.6991 9.2348C54.3509 9.79006 55.054 10.0002 55.8528 9.80683C55.9738 9.77727 56.1154 9.834 56.2467 9.85077ZM42.2435 10.7C41.7769 10.6721 41.3443 10.6465 40.899 10.6201V11.8425H42.1368C42.1708 11.4766 42.2048 11.1115 42.2435 10.7ZM36.4453 10.7024C36.4841 11.1091 36.5197 11.491 36.5529 11.8401H37.7701V10.6193C37.3256 10.6473 36.9064 10.6729 36.4453 10.7016V10.7024ZM36.2721 0.711045H35.5144C35.5674 1.21277 35.6173 1.68254 35.6695 2.17788C35.9241 2.14911 36.1472 2.12355 36.4034 2.09399C36.3583 1.61943 36.3156 1.17203 36.2713 0.711045H36.2721ZM43.146 0.708649H42.4065C42.3685 1.17362 42.3305 1.63061 42.2918 2.10198C42.5686 2.12515 42.7916 2.14432 43.0305 2.16429C43.0708 1.65857 43.1072 1.19919 43.146 0.70785V0.708649ZM26.1294 9.65264C26.3406 10.0913 26.536 10.4963 26.7416 10.9237C26.8808 10.8678 26.9979 10.8207 27.1474 10.7608C26.9844 10.315 26.8318 9.89711 26.6681 9.45051C26.4782 9.52162 26.3232 9.57994 26.1287 9.65264H26.1294ZM52.0192 9.44812C51.85 9.91149 51.6965 10.3293 51.5376 10.7647C51.6894 10.8239 51.8104 10.8702 51.952 10.9245C52.1553 10.4971 52.3506 10.0865 52.5555 9.65584C52.3704 9.58393 52.2154 9.52401 52.02 9.44812H52.0192ZM51.2173 12.6231C51.0962 12.5799 51.0029 12.5472 50.9143 12.5152C50.443 13.5155 50.4042 13.7072 50.666 13.8486C50.8455 13.4491 51.0251 13.0521 51.218 12.6231H51.2173ZM28.185 13.831C28.208 13.8023 28.2309 13.7727 28.2538 13.7439C28.1052 13.3349 27.9557 12.925 27.7983 12.4928C27.6765 12.5432 27.5784 12.5831 27.4669 12.6286C27.6322 12.9898 27.7809 13.3365 27.9517 13.672C27.9889 13.7455 28.1044 13.7791 28.1842 13.8302H28.185V13.831Z" fill="white"/>
<path d="M21.1197 50.0993C23.6175 50.2071 26.1152 50.3293 28.6137 50.4196C30.8812 50.5019 33.1503 50.5275 35.4171 50.621C38.3166 50.7408 41.2161 50.8782 44.1124 51.0588C45.9821 51.1754 47.8384 51.1011 49.701 50.9485C51.5707 50.7951 53.446 50.6905 55.3205 50.6329C56.0552 50.6106 56.7963 50.7751 57.5342 50.855C57.5619 52.0287 57.5928 53.2031 57.6133 54.3767C57.6157 54.5317 57.5635 54.6883 57.5366 54.8441C57.4544 54.8225 57.3713 54.8065 57.2906 54.7802C55.8496 54.2952 54.3998 53.835 52.9722 53.3133C52.0595 52.9802 51.1705 52.977 50.257 53.2526C49.0446 53.6185 47.8289 54.0132 46.5389 53.8598C45.4657 53.7328 44.3987 53.545 43.3294 53.3868C42.2474 53.2271 41.1678 53.0393 40.0819 52.9187C38.6954 52.7645 37.3778 53.0952 36.091 53.5994C34.9908 54.0308 33.8598 54.3272 32.6695 54.0851C31.9213 53.9325 31.1604 53.7855 30.4478 53.5179C27.996 52.5967 25.5726 52.6606 23.1413 53.5778C22.4714 53.8302 21.7802 54.0252 21.0984 54.2465C21.1047 52.8635 21.1118 51.4806 21.1182 50.0977L21.1197 50.0993Z" fill="white"/>
<path d="M57.1057 57.6835C57.01 58.0694 56.9143 58.4552 56.8178 58.8411C56.2721 58.8843 55.7263 58.937 55.1798 58.9681C53.6351 59.0544 52.0897 59.1199 50.5466 59.2158C47.6875 59.394 44.86 59.2254 42.0593 58.5751C40.9497 58.3178 39.8147 58.1421 38.6813 58.0238C37.09 57.8568 35.5303 58.1884 33.9778 58.4984C32.5422 58.7844 31.1036 58.8875 29.6712 58.516C28.613 58.2411 27.565 57.9271 26.5171 57.6124C25.4098 57.2792 24.2946 57.0555 23.1383 57.28C22.6028 57.3839 22.0745 57.5285 21.543 57.6547C21.4449 57.0643 21.3469 56.4739 21.2488 55.8843C22.81 55.5703 24.3792 55.2947 25.9286 54.932C27.1545 54.6452 28.3346 54.6843 29.5123 55.1165C30.2549 55.389 31.0055 55.6366 31.7505 55.9011C32.9606 56.3301 34.1613 56.2949 35.3547 55.8364C35.7977 55.6662 36.2414 55.496 36.6827 55.3234C37.82 54.8784 38.9914 54.725 40.1928 54.9647C41.7058 55.2667 43.2125 55.5999 44.7247 55.9083C45.7149 56.1096 46.7139 56.3349 47.7262 56.1591C48.5013 56.0241 49.2559 55.774 50.0278 55.6119C50.7254 55.4656 51.4317 55.2923 52.1379 55.2707C53.129 55.2404 53.9974 55.7093 54.8247 56.2166C55.5942 56.6888 56.3448 57.1937 57.1041 57.6843H57.1057V57.6835Z" fill="white"/>
<path d="M54.4902 63.7409C53.9745 64.3665 53.458 64.9928 52.9424 65.6184C51.5076 65.0807 50.0682 64.5558 48.6398 64.0005C47.6709 63.6242 46.6775 63.3958 45.6438 63.4924C44.6172 63.5883 43.593 63.7337 42.5758 63.9039C41.1498 64.1427 39.738 64.5422 38.2796 64.4248C36.9841 64.3209 35.6917 64.1531 34.4073 63.955C32.9805 63.7353 31.5473 63.5723 30.1158 63.7393C28.3307 63.947 26.5574 64.2642 24.7795 64.535C24.0408 63.633 23.3867 62.6767 22.9351 61.591C23.0054 61.5718 23.0758 61.5526 23.1462 61.5327C25.1441 60.9638 27.1301 60.3462 29.1429 59.8405C30.8355 59.4147 32.4774 59.624 33.9826 60.5995C34.556 60.971 35.1452 61.3185 35.7376 61.6597C36.9896 62.3803 38.3183 62.6152 39.7072 62.1606C40.7575 61.8171 41.8031 61.4456 42.821 61.0142C45.0348 60.0762 47.2335 60.0706 49.3935 61.1108C51.1153 61.9401 52.7937 62.8621 54.491 63.7425V63.7409H54.4902Z" fill="white"/>
<path d="M26.5178 66.3861C28.1534 66.7544 29.7954 67.0972 31.4223 67.5014C32.2591 67.7092 33.0421 67.6229 33.8077 67.2865C34.476 66.9925 35.142 66.6857 35.7818 66.3334C37.2664 65.5177 38.7604 65.5225 40.2671 66.2287C41.1497 66.6426 42.0166 67.0892 42.8913 67.5206C43.6633 67.9017 44.4542 68.2356 45.3361 68.1366C45.8288 68.0814 46.3176 67.9648 46.7992 67.8418C47.7507 67.5989 48.5503 67.8633 49.2463 68.528C47.7428 69.4588 46.1096 70.0652 44.4115 70.5118C42.2721 71.0742 40.0915 71.2532 37.8975 71.0902C33.6993 70.7786 29.9132 69.3757 26.6902 66.5723C26.627 66.5172 26.5756 66.4476 26.5186 66.3853L26.5178 66.3861Z" fill="white"/>
<path d="M46.1206 43.8005C45.2451 43.6143 44.4107 43.4473 43.5826 43.254C43.3501 43.1997 43.229 43.2476 43.1128 43.4577C42.7624 44.0913 42.3923 44.7144 42.0277 45.3408C41.9612 45.4542 41.8877 45.5637 41.7999 45.7035C41.107 45.1962 40.4292 44.7192 39.7751 44.2103C39.5355 44.0242 39.3765 44.0369 39.1432 44.2151C38.4844 44.7192 37.805 45.1962 37.0971 45.7099C36.7008 45.0252 36.3204 44.3709 35.9431 43.7158C35.6371 43.1837 35.6394 43.1845 35.0455 43.3147C34.3115 43.4753 33.5759 43.6335 32.7953 43.8029C32.7241 43.1414 32.6395 42.511 32.5905 41.8766C32.5145 40.8996 32.524 40.9004 31.5836 40.7126C30.9754 40.5904 30.368 40.4633 29.7606 40.3363C29.7273 40.3291 29.6973 40.3068 29.6396 40.2788C29.9362 39.3816 30.232 38.486 30.5404 37.5537C29.7637 36.9936 28.9831 36.4312 28.1685 35.8439C28.6509 35.3175 29.1191 34.8029 29.5905 34.2924C29.9567 33.897 30.0026 33.4647 29.7281 32.9958C29.3809 32.4038 29.0337 31.8126 28.662 31.1798C29.4086 30.8499 30.1228 30.5119 30.8552 30.2195C31.2056 30.0797 31.3661 29.9463 31.2878 29.5093C31.1486 28.7383 31.1083 27.9489 31.0197 27.1061H31.9854C32.5343 27.1061 33.084 27.0909 33.6321 27.1165C33.8947 27.1284 33.9848 27.0238 34.056 26.7913C34.2996 25.9964 34.5662 25.2078 34.8406 24.3658C35.7494 24.7668 36.6249 25.1535 37.5099 25.5442C38.1569 24.8259 38.7952 24.1181 39.4603 23.3799C39.9982 23.9807 40.5455 24.5407 41.0287 25.1527C41.3032 25.5002 41.5262 25.5242 41.9019 25.3349C42.5971 24.9857 43.3216 24.6941 44.0761 24.361C44.3 25.0552 44.5175 25.7295 44.7342 26.4038C44.8852 26.8744 45.2024 27.1093 45.6856 27.1093H47.8867C47.8251 27.7085 47.7665 28.2781 47.7072 28.8469C47.6906 29.0059 47.6669 29.1641 47.6542 29.3231C47.6004 30.015 47.602 30.0126 48.2585 30.3018C48.9141 30.5902 49.5674 30.8834 50.2405 31.183C49.7921 31.95 49.3721 32.6842 48.9339 33.408C48.8121 33.6093 48.8145 33.7468 48.979 33.9201C49.4686 34.4362 49.9431 34.9659 50.4224 35.4916C50.5189 35.5979 50.6107 35.7097 50.7309 35.8503C50.0285 36.3569 49.3642 36.8538 48.68 37.3204C48.4372 37.4857 48.374 37.6264 48.4799 37.9156C48.7655 38.6961 49.0122 39.4911 49.2859 40.3131C48.4072 40.4969 47.5656 40.6823 46.7194 40.8428C46.5042 40.8836 46.4141 40.9483 46.3935 41.1848C46.3192 42.0412 46.2155 42.8953 46.1175 43.8013H46.1206V43.8005ZM47.2279 27.7053C46.7083 27.7053 46.2235 27.7093 45.7378 27.7045C45.3368 27.7005 44.8307 27.8315 44.5649 27.635C44.3 27.4384 44.2746 26.9103 44.1481 26.5269C44.001 26.0787 43.8586 25.6289 43.7107 25.1695C42.9649 25.5026 42.2594 25.8046 41.5658 26.133C41.3269 26.2456 41.1845 26.2185 41.0105 26.0131C40.5131 25.4267 39.9918 24.8619 39.4627 24.2707C38.9162 24.8747 38.3815 25.4467 37.8714 26.0403C37.7116 26.2265 37.5851 26.2384 37.3771 26.1426C36.6613 25.8118 35.9368 25.5002 35.1942 25.1719C34.9158 26.0355 34.6476 26.8688 34.3732 27.7213H31.6967C31.7758 28.4746 31.8209 29.2001 31.9403 29.9127C32.006 30.3026 31.8707 30.4456 31.5433 30.5758C30.8694 30.8451 30.2122 31.1566 29.5241 31.461C29.9314 32.1697 30.3055 32.8432 30.7057 33.5023C30.8307 33.7076 30.8172 33.833 30.6559 34.0048C30.122 34.5745 29.604 35.1593 29.0598 35.7609C29.7107 36.2258 30.3292 36.6812 30.9635 37.1126C31.1826 37.2612 31.2325 37.3891 31.1376 37.6495C30.875 38.3734 30.6511 39.1108 30.4052 39.8634C31.1431 40.0223 31.8383 40.2157 32.5462 40.3084C33.0002 40.3683 33.0753 40.5936 33.1014 40.9787C33.1481 41.6753 33.2382 42.3688 33.3118 43.079C34.0766 42.9177 34.8066 42.7874 35.5232 42.6013C35.8577 42.5142 36.0183 42.5885 36.1765 42.8921C36.5189 43.5504 36.9041 44.1863 37.2766 44.8407C37.9363 44.3629 38.5666 43.9203 39.1788 43.4537C39.39 43.2924 39.5323 43.29 39.7451 43.4537C40.3588 43.9267 40.9923 44.3725 41.6322 44.8399C42.0308 44.1432 42.4207 43.4905 42.7798 42.8202C42.9166 42.5645 43.0677 42.5238 43.3319 42.5869C44.0745 42.7651 44.8235 42.9145 45.5947 43.0806C45.6753 42.3209 45.7821 41.5898 45.8185 40.8556C45.8367 40.4905 45.9791 40.3843 46.3025 40.3259C47.031 40.1957 47.7531 40.0255 48.5171 39.8634C48.2324 39.0053 47.9556 38.1712 47.6732 37.3204C48.4008 36.7995 49.1198 36.285 49.8569 35.7569C49.2321 35.073 48.646 34.4322 48.0465 33.7763C48.4958 33.0062 48.9371 32.248 49.3974 31.4586C48.6516 31.1287 47.9445 30.8067 47.2303 30.5047C47.0088 30.4112 46.9218 30.3202 46.9622 30.0461C47.0769 29.2832 47.1401 28.513 47.2279 27.7061V27.7053Z" fill="white"/>
<path d="M22.6556 68.8947C22.2887 68.8939 22.0102 68.6175 22.0047 68.2492C21.9992 67.8777 22.3076 67.5565 22.6651 67.5613C23.0108 67.5661 23.3129 67.8713 23.32 68.2212C23.3279 68.5983 23.0353 68.8955 22.6556 68.8939V68.8947Z" fill="white"/>
<path d="M56.6738 68.2356C56.673 68.635 56.4041 68.9019 56.0087 68.8939C55.652 68.8867 55.3625 68.5919 55.3633 68.2348C55.3641 67.8696 55.6876 67.5509 56.0443 67.5621C56.3978 67.5732 56.6746 67.8696 56.6738 68.2356Z" fill="white"/>
<path d="M31.049 83.5997C30.7603 83.535 30.4708 83.4702 30.1821 83.4055C30.5143 83.3943 30.5981 83.185 30.6559 82.931C30.7666 82.4428 30.8884 81.9571 30.9311 81.4274C30.451 82.0226 29.9717 82.6178 29.4394 83.2785C29.2734 82.4388 29.1215 81.6687 28.9696 80.8993C28.9467 80.8953 28.923 80.8905 28.9 80.8865C28.7601 81.4889 28.6082 82.0897 28.4927 82.6969C28.4761 82.784 28.6351 82.9062 28.726 83.0292C28.4382 82.9613 28.1495 82.8934 27.8616 82.8255C28.2167 82.8199 28.2847 82.5842 28.3456 82.3086C28.4611 81.7813 28.5924 81.2572 28.7355 80.7371C28.8099 80.4687 28.7972 80.2602 28.4255 80.1411C29.1484 80.1331 29.2528 80.217 29.3706 80.8178C29.4837 81.3946 29.6008 81.9707 29.7281 82.6114C30.1086 82.1336 30.4518 81.7062 30.7911 81.2748C31.0877 80.8977 31.4713 80.8074 31.9419 81.0032C31.6081 80.9544 31.5227 81.143 31.4642 81.417C31.3519 81.9443 31.1866 82.4604 31.0743 82.9885C31.0379 83.1611 31.098 83.3544 31.1146 83.539C31.0925 83.5597 31.0703 83.5813 31.0482 83.6021V83.5997H31.049Z" fill="white"/>
<path d="M57.3928 80.2651C57.3864 80.0958 57.4347 79.8984 57.3651 79.7618C57.1025 79.2489 56.7988 78.7584 56.518 78.255C56.3915 78.0282 56.2459 77.8724 55.9114 78.0697C56.3314 77.5712 56.567 77.5336 56.9989 77.8412C57.4829 78.1863 57.9662 78.5315 58.5269 78.9309C58.4637 78.2359 58.4423 77.6239 58.3426 77.0263C58.2643 76.5573 58.489 76.3872 58.8132 76.2969C58.8639 76.4902 58.8797 76.6923 58.9659 76.8569C59.2285 77.3563 59.5195 77.8396 59.7963 78.3309C59.9134 78.5387 60.0368 78.7232 60.3437 78.6265C60.0257 78.8127 59.7078 78.998 59.3898 79.1834C59.6508 78.9629 59.5575 78.74 59.4317 78.5211C59.1652 78.0577 58.8931 77.5983 58.5696 77.1581C58.6464 77.9451 58.7231 78.7328 58.8117 79.638C58.103 79.1355 57.4821 78.6945 56.8605 78.2542C56.836 78.2702 56.8114 78.2862 56.7861 78.3022C56.866 78.4508 56.9435 78.5994 57.025 78.7464C57.18 79.0252 57.339 79.3016 57.4948 79.5797C57.619 79.8026 57.7423 80.0239 58.0816 79.952C57.8649 80.0702 57.649 80.1877 57.4323 80.3059C57.4189 80.2931 57.4062 80.2795 57.3936 80.2667V80.2651H57.3928Z" fill="white"/>
<path d="M35.9804 83.0045C36.36 83.4862 36.4676 84.131 37.0924 84.3603C36.6336 84.5009 36.4043 84.421 36.1797 84.0415C36.0112 83.7571 35.8522 83.4663 35.6687 83.1922C35.6007 83.09 35.475 83.0268 35.3532 82.927C35.0969 83.7091 35.1554 84.0934 35.5153 84.2836C35.3334 84.274 35.1515 84.2708 34.9704 84.2532C34.7892 84.2356 34.6097 84.2045 34.3875 84.1493C34.8011 84.1597 34.7884 83.8689 34.8114 83.6149C34.8644 83.0276 34.9245 82.4396 34.9411 81.8516C34.945 81.7022 34.7971 81.5488 34.7188 81.3962C35.074 81.4322 35.4837 81.4586 35.8878 81.5193C36.4288 81.6008 36.6827 81.8237 36.7112 82.1984C36.7396 82.5683 36.5466 82.7928 35.9796 83.0045H35.9804ZM35.301 82.7896C35.6371 82.8383 35.974 82.8782 36.1393 82.5355C36.22 82.3677 36.2176 82.0937 36.1354 81.9275C35.9938 81.6415 35.7012 81.6335 35.3974 81.7134C35.365 82.0737 35.3342 82.4213 35.301 82.7896Z" fill="white"/>
<path d="M50.813 80.0614C51.1555 79.9384 51.4932 79.7978 51.8412 79.6955C52.3276 79.5533 52.7033 79.6732 52.8734 79.9879C53.0434 80.3035 52.9485 80.6095 52.5641 80.9818C53.0213 81.4564 53.6319 81.8007 54.0748 81.8335C53.6224 82.1378 53.48 82.1402 53.0648 81.8494C52.8148 81.6745 52.5712 81.4891 52.3126 81.3293C52.2058 81.2638 52.0666 81.251 51.9124 81.2063C52.005 82.0276 52.1964 82.3272 52.6867 82.3759C52.277 82.5165 51.9314 82.6356 51.668 82.7267C51.6831 82.5181 51.7542 82.2944 51.702 82.1059C51.551 81.5642 51.3564 81.0345 51.1642 80.5056C51.116 80.3738 51.0116 80.2628 50.9333 80.1421C50.8929 80.1158 50.8526 80.0894 50.8123 80.063V80.0614H50.813ZM51.8096 81.1152C52.1687 81.0385 52.4534 80.8851 52.4748 80.5456C52.4866 80.3554 52.3545 80.0918 52.2019 79.9696C51.9749 79.7874 51.7028 79.8857 51.4656 80.075C51.5787 80.417 51.6886 80.7501 51.8096 81.1152Z" fill="white"/>
<path d="M23.9798 81.2756C23.563 81.1486 23.2372 81.0104 23.2182 80.5118C23.2055 80.1955 23.1312 79.8791 23.0616 79.5683C23.0379 79.4621 22.9422 79.3726 22.8654 79.2527C22.4573 79.8168 22.3316 80.1651 22.4067 80.527C22.1046 80.38 21.8246 80.2442 21.5454 80.1076C21.9678 80.1771 22.0548 79.8503 22.1861 79.5755C22.3869 79.1553 22.6005 78.7406 22.7887 78.314C22.8718 78.1246 22.9058 77.9129 22.9738 77.6685C23.3115 77.8474 23.692 78.0304 24.0534 78.2469C24.3484 78.4234 24.5058 78.6991 24.4038 79.057C24.297 79.4333 24.0249 79.5779 23.6485 79.5451C23.5899 79.5403 23.5298 79.5451 23.4681 79.5451C23.6105 80.7292 23.6326 80.8043 23.9806 81.2764L23.9798 81.2756ZM22.8765 79.1121C23.1668 79.2967 23.4618 79.4261 23.7252 79.1888C23.8636 79.0642 23.9624 78.8157 23.9585 78.6264C23.9506 78.2932 23.6666 78.1926 23.3534 78.1223C23.1937 78.4538 23.0371 78.7782 22.8765 79.1121Z" fill="white"/>
<path d="M46.4171 82.7984C46.4211 83.6102 45.8073 84.2517 45.0267 84.2533C44.2777 84.2549 43.6703 83.5638 43.6719 82.7122C43.6735 81.9404 44.2825 81.3068 45.0259 81.3044C45.8097 81.3021 46.4132 81.9492 46.4171 82.7984ZM46.0003 82.9958C45.8849 82.5971 45.8105 82.2496 45.6808 81.9244C45.555 81.6096 45.2759 81.4618 44.9453 81.481C44.5846 81.5018 44.326 81.6975 44.2231 82.0578C44.0563 82.6466 44.1441 83.2099 44.4667 83.7188C44.7491 84.163 45.3779 84.2181 45.6824 83.8075C45.8516 83.579 45.9015 83.2594 45.9988 82.9966H46.0003V82.9958Z" fill="white"/>
<path d="M25.8747 79.0914C26.6214 79.085 27.2264 79.6842 27.2367 80.4392C27.2478 81.2716 26.585 82.0074 25.8122 82.0218C25.0727 82.0354 24.459 81.4226 24.4558 80.6684C24.4519 79.8072 25.0894 79.0986 25.8747 79.0922V79.0914ZM26.895 80.2051C26.865 80.1923 26.8357 80.1787 26.8056 80.1659C26.8135 79.7289 26.6435 79.4533 26.2892 79.3278C25.9364 79.2032 25.5599 79.2775 25.3654 79.6418C25.1463 80.0517 24.985 80.5135 24.9043 80.972C24.8315 81.3859 25.0735 81.6607 25.4429 81.7822C25.8217 81.9068 26.1484 81.7726 26.3327 81.4586C26.5628 81.0663 26.7107 80.6253 26.8942 80.2051H26.895Z" fill="white"/>
<path d="M41.7017 84.4857H40.8269C41.1852 84.4481 41.1599 84.1909 41.1456 83.936C41.1188 83.4567 41.0903 82.9765 41.0721 82.4972C41.0523 81.9794 41.0064 81.9147 40.5232 81.7925C40.8688 81.596 41.2176 81.6431 41.462 81.9139C41.9547 82.4604 42.4499 83.0045 42.9458 83.5485C42.9592 83.5629 42.9893 83.5621 43.0264 83.5733C43.0019 83.0684 42.9995 82.5675 42.9426 82.0729C42.9244 81.9131 42.7654 81.7701 42.6682 81.6167C42.8793 81.6008 43.1735 81.5792 43.4686 81.5576C43.1269 81.6815 43.1475 81.9339 43.1664 82.2175C43.2147 82.9406 43.2376 83.6652 43.1917 84.4457C42.5788 83.7706 41.965 83.0956 41.3521 82.4205C41.3252 82.43 41.2983 82.4388 41.2706 82.4484C41.303 83.0181 41.3204 83.5893 41.3805 84.1565C41.3924 84.2668 41.5696 84.3587 41.7009 84.4881V84.4857H41.7017Z" fill="white"/>
<path d="M37.3074 81.6672C37.9987 81.7008 38.6899 81.7343 39.4018 81.7687V82.3367C39.1376 81.6185 38.5492 82.0052 38.0794 81.8758V82.9048C38.739 83.0526 38.8893 83.0142 39.1257 82.6267V83.5447C38.9312 82.9088 38.4258 83.2411 37.9987 83.1093C37.9987 83.5016 37.9916 83.8403 38.0058 84.1783C38.0082 84.235 38.1047 84.3357 38.1569 84.3349C38.6496 84.3333 39.2135 84.5298 39.4983 83.8036C39.4998 84.4259 39.3622 84.5769 38.8639 84.5578C38.323 84.5362 37.7828 84.5034 37.2109 84.4475C37.5637 84.41 37.5755 84.1735 37.5803 83.9162C37.5898 83.3745 37.6096 82.8337 37.6341 82.2928C37.6459 82.0252 37.6602 81.7687 37.2521 81.7599C37.2703 81.7296 37.2884 81.7 37.3066 81.6696V81.6672H37.3074Z" fill="white"/>
<path d="M54.9092 78.4971C54.9788 78.4532 55.0437 78.3996 55.118 78.3677C55.3158 78.2806 55.5175 78.2031 55.7468 78.136C55.4447 78.3477 55.5095 78.5826 55.6369 78.8518C55.8133 79.2273 55.9706 79.6148 56.1098 80.0063C56.3408 80.655 56.1383 81.0585 55.47 81.3357C54.8262 81.6033 54.4054 81.4587 54.1183 80.8475C53.9309 80.4489 53.7774 80.035 53.6019 79.6308C53.4555 79.296 53.4508 79.2976 53.0664 79.2553C53.4144 79.1035 53.7616 78.9509 54.1096 78.7991C53.7893 79.0324 53.8905 79.2888 54.021 79.5645C54.2148 79.9735 54.3746 80.3993 54.5794 80.802C54.7803 81.1967 55.0848 81.2989 55.4597 81.1463C55.871 80.9794 56.0917 80.6031 55.9548 80.2132C55.7761 79.7059 55.5712 79.2065 55.3387 78.7224C55.2865 78.6129 55.073 78.5826 54.933 78.5163L54.9092 78.4963V78.4971Z" fill="white"/>
<path d="M46.9621 83.8291C46.9225 83.6142 46.8695 83.3226 46.8165 83.0317C46.8379 83.0222 46.8592 83.0134 46.8814 83.0038C46.9415 83.0996 47 83.1963 47.0633 83.2906C47.284 83.6198 47.7846 83.7156 48.1018 83.4911C48.3992 83.281 48.3644 82.8967 48.01 82.7234C47.749 82.5955 47.4635 82.5212 47.1922 82.4134C46.6489 82.1977 46.4432 81.8709 46.5721 81.4443C46.6868 81.0632 47.1392 80.8387 47.6177 80.9002C47.753 80.9178 47.8977 80.8651 48.078 80.8379C48.1215 81.0736 48.1753 81.3684 48.2291 81.6624C48.2078 81.672 48.1872 81.6808 48.1658 81.6903C48.1168 81.6049 48.0883 81.485 48.014 81.4387C47.7989 81.3045 47.5719 81.1271 47.3385 81.1079C47.1899 81.0959 46.9684 81.3069 46.8853 81.473C46.8482 81.5481 47.038 81.8078 47.1788 81.8901C47.4168 82.0283 47.6968 82.093 47.9602 82.1873C48.4996 82.379 48.7219 82.6906 48.6285 83.1244C48.5352 83.5542 48.0923 83.8235 47.5806 83.7843C47.3931 83.7699 47.2017 83.8091 46.9621 83.8283V83.8291Z" fill="white"/>
<path d="M20.3471 79.3207C20.0742 79.1729 19.8022 79.0259 19.5293 78.8781C19.8607 78.9947 19.9967 78.795 20.1264 78.5665C20.4096 78.0664 20.7078 77.5734 20.9767 77.0653C21.0415 76.9431 21.0178 76.7721 21.0344 76.6243C21.055 76.6051 21.0747 76.5852 21.0953 76.5652C21.4196 76.7529 21.7589 76.9199 22.0658 77.134C22.4675 77.4144 22.553 77.8515 22.3212 78.2246C22.0855 78.6033 21.694 78.6768 21.2385 78.4203C21.1127 78.3492 20.9941 78.2637 20.8296 78.1575C20.7014 78.5457 20.287 78.7886 20.3993 79.2656C20.3819 79.2839 20.3653 79.3023 20.3479 79.3207H20.3471ZM20.9166 78.008C21.1349 78.2022 21.3674 78.4147 21.6236 78.207C21.8079 78.0576 21.9693 77.7883 21.9954 77.5559C22.0278 77.2635 21.7731 77.1037 21.4789 77.0358C21.2899 77.3625 21.108 77.6773 20.9166 78.0088V78.008Z" fill="white"/>
<path d="M31.0488 83.5997C31.071 83.579 31.0931 83.5574 31.1153 83.5366C31.449 83.69 31.6665 83.5406 31.8405 83.2586C32.2265 82.6322 32.6172 82.0083 33.0071 81.3843C33.0704 81.2828 33.14 81.1846 33.2594 81.0056C33.363 81.4035 33.4493 81.7246 33.5291 82.0466C33.6533 82.5467 33.7609 83.0517 33.9009 83.5462C33.957 83.7435 34.0812 83.9201 34.1856 84.1286C33.8858 84.0855 33.5513 84.0367 33.2167 83.9888C33.5331 83.9169 33.4943 83.6908 33.4516 83.4815C33.4065 83.2618 33.4034 82.9989 33.0649 83.0085C32.9454 83.0117 32.8252 82.971 32.705 82.9502C32.3222 82.8847 32.0343 83.0716 31.9884 83.4567C31.9766 83.5598 32.1 83.6796 32.1901 83.8442C31.8042 83.7611 31.4269 83.6796 31.0496 83.5981V83.5997H31.0488ZM33.3101 82.8799C33.2128 82.494 33.1281 82.1585 33.023 81.7406C32.7936 82.1073 32.6117 82.3981 32.4037 82.7321C32.7335 82.7864 33.0032 82.8304 33.3101 82.8807V82.8799Z" fill="white"/>
<path d="M50.8132 80.0613C50.8535 80.0876 50.8939 80.114 50.9342 80.1404C50.7824 80.1635 50.6795 80.2179 50.7468 80.404C50.7871 80.5159 50.8156 80.6325 50.8314 80.7827C50.5601 80.3649 50.2224 80.4128 49.8174 80.5974C50.0009 81.3244 50.1702 82.049 50.3766 82.7625C50.4082 82.8719 50.6115 82.9302 50.7452 83.0197C50.4154 83.1036 50.0563 83.1955 49.698 83.2865C49.9899 83.1164 49.9574 82.8839 49.8831 82.6091C49.713 81.9827 49.5699 81.3492 49.4164 80.722C48.8335 80.746 48.7331 80.8259 48.5978 81.3284C48.5551 81.1366 48.5124 80.9449 48.4666 80.738C49.263 80.5087 50.0381 80.285 50.8132 80.0621V80.0613Z" fill="white"/>
<path d="M21.0344 76.6243L20.8762 76.5012C20.8873 76.4836 20.8984 76.4661 20.9086 76.4485C20.9711 76.4876 21.0328 76.5268 21.0953 76.5659C21.0747 76.5851 21.055 76.6051 21.0344 76.625V76.6243Z" fill="white"/>
<path d="M20.3986 79.2664C20.4421 79.2968 20.4848 79.3279 20.5283 79.3583C20.518 79.3751 20.5069 79.3927 20.4966 79.4094L20.3472 79.3208C20.3646 79.3024 20.3812 79.284 20.3986 79.2656V79.2664Z" fill="white"/>
<path d="M22.8235 77.6917C22.7895 77.6742 22.7554 77.6574 22.7214 77.6398C22.7317 77.6222 22.7483 77.5871 22.7523 77.5887C22.7823 77.5999 22.81 77.6174 22.8385 77.6326C22.8337 77.6518 22.8282 77.6718 22.8235 77.6909V77.6917Z" fill="white"/>
<path d="M57.4314 80.3051C57.384 80.3251 57.3357 80.3458 57.2883 80.3658C57.2827 80.3442 57.278 80.3219 57.2725 80.3003C57.3128 80.2883 57.3523 80.2771 57.3927 80.2651C57.4053 80.2787 57.4188 80.2915 57.4314 80.3043V80.3051Z" fill="white"/>
<path d="M22.5205 80.4968C22.5419 80.5072 22.5624 80.5168 22.583 80.5264C22.5704 80.5392 22.5585 80.5631 22.5458 80.5631C22.5268 80.5639 22.5071 80.5488 22.4873 80.5408C22.4984 80.5264 22.5094 80.512 22.5213 80.4968H22.5205Z" fill="white"/>
<path d="M54.9338 78.517C54.9122 78.5274 54.8905 78.5369 54.8689 78.5473C54.8825 78.5306 54.8961 78.5138 54.9098 78.4978L54.9338 78.5178V78.517Z" fill="white"/>
<path d="M58.983 76.2649C58.9686 76.2577 58.9541 76.2497 58.9397 76.2417C58.9477 76.2345 58.9565 76.2209 58.9621 76.2217C58.9782 76.2249 58.9926 76.2353 59.007 76.2425C58.999 76.2497 58.9918 76.2561 58.983 76.2649Z" fill="white"/>
<path d="M39.4199 39.0093C38.5404 39.034 37.7099 38.8199 36.9032 38.4868C36.6952 38.4005 36.5093 38.2847 36.6161 38.025C36.7244 37.7622 36.9506 37.7717 37.1721 37.87C38.6946 38.5467 40.2155 38.5147 41.738 37.87C41.9587 37.7765 42.1952 37.7574 42.298 38.0202C42.4064 38.2974 42.1936 38.4053 41.9737 38.4948C41.1536 38.8279 40.3104 39.0412 39.4191 39.0101L39.4199 39.0093Z" fill="white"/>
<path d="M35.7509 34.223C35.5492 34.3556 35.3989 34.4866 35.2241 34.5561C35.1237 34.5961 34.9315 34.5801 34.8777 34.5114C34.8239 34.4427 34.8445 34.227 34.9133 34.1646C35.0794 34.0112 35.2795 33.8363 35.4875 33.8003C36.0325 33.7069 36.5908 33.6326 37.1421 33.6461C37.642 33.6589 37.8081 34.032 37.7258 34.7351C37.3375 34.827 37.3161 34.8102 37.1824 34.2653C37.0282 34.5833 36.8273 34.7934 36.4714 34.7942C36.1028 34.7942 35.8846 34.6088 35.7501 34.2222L35.7509 34.223Z" fill="white"/>
<path d="M41.6677 34.246C41.6922 34.6694 41.5601 34.8492 41.2042 34.7717C41.0215 33.9879 41.311 33.6028 42.0956 33.6236C42.4942 33.634 42.8952 33.6803 43.2859 33.7562C43.4915 33.7962 43.6901 33.9192 43.8704 34.0374C44.0373 34.1461 44.2042 34.3291 44.0207 34.5136C43.9487 34.5855 43.7051 34.512 43.5517 34.4641C43.4188 34.4225 43.3025 34.3235 43.1799 34.25C42.7513 34.9714 42.2142 34.9906 41.6677 34.246Z" fill="white"/>
<path d="M34.2773 33.4631C35.2518 33.0277 36.1439 32.3542 37.2836 32.4197C37.7234 32.4453 38.0919 32.6235 38.3411 32.9814C38.4241 33.1004 38.4502 33.3585 38.3774 33.4671C38.2398 33.6716 38.0635 33.5246 37.9195 33.396C37.3034 32.8472 36.5884 32.8719 35.8544 33.0501C35.3261 33.1779 34.8025 33.3249 34.2773 33.4631Z" fill="white"/>
<path d="M44.315 33.3664C43.7432 33.2306 43.2204 33.0948 42.6929 32.9845C42.0641 32.8535 41.4828 32.9646 40.9869 33.4008C40.8397 33.5302 40.6634 33.67 40.5297 33.4623C40.4593 33.3536 40.491 33.0972 40.5756 32.9813C40.9869 32.4173 41.6061 32.2911 42.2136 32.4516C42.9111 32.6362 43.5708 32.9654 44.2462 33.2362C44.2699 33.2458 44.2786 33.2945 44.3158 33.3664H44.315Z" fill="white"/>
<path d="M38.6631 36.5862H40.2267C39.681 37.2884 39.3132 37.2924 38.6631 36.5862Z" fill="white"/>
<path d="M101.492 32.3966L104.007 33.0381C103.479 35.1249 102.531 36.7164 101.161 37.8117C99.7913 38.9078 98.1161 39.4551 96.1372 39.4551C94.1584 39.4551 92.4223 39.0341 91.1387 38.1912C89.855 37.3491 88.8782 36.1284 88.2083 34.5305C87.5384 32.9327 87.2039 31.2174 87.2039 29.383C87.2039 27.3833 87.5819 25.6393 88.338 24.1509C89.0942 22.6625 90.1706 21.5312 91.5665 20.7586C92.9625 19.986 94.4985 19.5994 96.176 19.5994C98.0774 19.5994 99.6766 20.0883 100.974 21.0662C102.27 22.0441 103.173 23.4198 103.683 25.1919L101.207 25.7815C100.766 24.3849 100.127 23.3671 99.2882 22.7296C98.4499 22.092 97.3956 21.7732 96.1246 21.7732C94.6638 21.7732 93.4426 22.1272 92.4619 22.8342C91.4803 23.5413 90.7915 24.4912 90.3936 25.6832C89.9958 26.8752 89.7973 28.1039 89.7973 29.3702C89.7973 31.0033 90.033 32.4285 90.5036 33.6461C90.9749 34.8645 91.7073 35.7744 92.7015 36.3768C93.6957 36.9792 94.7713 37.2804 95.93 37.2804C97.3386 37.2804 98.5313 36.8698 99.5089 36.0493C100.486 35.2288 101.147 34.0104 101.493 32.395L101.492 32.3966Z" fill="white"/>
<path d="M115.793 37.4132C114.929 38.1554 114.097 38.6795 113.297 38.9847C112.497 39.2898 111.639 39.4432 110.723 39.4432C109.21 39.4432 108.048 39.0701 107.235 38.3231C106.423 37.5769 106.017 36.623 106.017 35.4614C106.017 34.7807 106.17 34.1583 106.477 33.5951C106.784 33.0318 107.186 32.5796 107.683 32.2393C108.18 31.899 108.74 31.6409 109.362 31.4667C109.82 31.3445 110.511 31.2271 111.437 31.1128C113.321 30.8859 114.708 30.6151 115.599 30.3011C115.607 29.9783 115.611 29.773 115.611 29.6851C115.611 28.7248 115.391 28.0481 114.95 27.6551C114.354 27.1222 113.468 26.8561 112.292 26.8561C111.194 26.8561 110.383 27.0503 109.86 27.4386C109.338 27.8268 108.951 28.5147 108.7 29.5014L106.418 29.1874C106.626 28.2007 106.967 27.4042 107.443 26.797C107.918 26.1906 108.605 25.7233 109.505 25.3957C110.404 25.0681 111.445 24.9044 112.629 24.9044C113.814 24.9044 114.76 25.0442 115.495 25.3238C116.23 25.6034 116.77 25.9549 117.116 26.3784C117.461 26.8018 117.703 27.3371 117.842 27.9826C117.919 28.3845 117.959 29.1091 117.959 30.1565V33.2995C117.959 35.4909 118.008 36.8771 118.108 37.4579C118.207 38.0387 118.404 38.5956 118.698 39.1277H116.261C116.018 38.6387 115.863 38.0667 115.794 37.4116L115.793 37.4132ZM112.395 21.2644L110.931 23.4911H108.26L111.06 19.824H113.55L116.467 23.4911H113.822L112.396 21.2644H112.395ZM115.599 32.1482C114.751 32.4974 113.48 32.7946 111.786 33.039C110.827 33.1788 110.148 33.3362 109.751 33.5104C109.353 33.6854 109.046 33.9402 108.83 34.2766C108.614 34.6129 108.506 34.986 108.506 35.3967C108.506 36.0254 108.741 36.5495 109.212 36.9682C109.683 37.3876 110.372 37.5969 111.28 37.5969C112.188 37.5969 112.979 37.3988 113.679 37.0009C114.379 36.6038 114.893 36.0598 115.222 35.3703C115.473 34.8374 115.598 34.0521 115.598 33.0127V32.1482H115.599Z" fill="white"/>
<path d="M121.575 39.1291V25.2197H123.663V27.1715C124.095 26.4908 124.67 25.9428 125.387 25.5281C126.104 25.1135 126.921 24.9058 127.837 24.9058C128.857 24.9058 129.693 25.1199 130.346 25.5473C130.998 25.9755 131.459 26.5731 131.727 27.3417C132.816 25.7175 134.233 24.9058 135.98 24.9058C137.346 24.9058 138.395 25.2876 139.131 26.0514C139.865 26.8152 140.232 27.992 140.232 29.5811V39.1291H137.912V30.3672C137.912 29.4245 137.836 28.7454 137.685 28.3308C137.534 27.9161 137.259 27.5822 136.862 27.3289C136.464 27.0756 135.997 26.9494 135.461 26.9494C134.493 26.9494 133.689 27.2746 133.049 27.9249C132.409 28.5752 132.09 29.617 132.09 31.0487V39.1299H129.756V30.0932C129.756 29.0458 129.565 28.2597 129.186 27.7356C128.805 27.2115 128.183 26.9494 127.318 26.9494C126.661 26.9494 126.054 27.1244 125.497 27.4735C124.939 27.8226 124.535 28.334 124.284 29.0059C124.034 29.6786 123.909 30.6477 123.909 31.9132V39.1299H121.575L121.575 39.1291Z" fill="white"/>
<path d="M152.68 37.4131C151.815 38.1553 150.983 38.6794 150.184 38.9846C149.384 39.2898 148.526 39.4432 147.61 39.4432C146.097 39.4432 144.934 39.0701 144.122 38.3231C143.31 37.5769 142.903 36.623 142.903 35.4613C142.903 34.7806 143.057 34.1583 143.364 33.595C143.671 33.0318 144.072 32.5796 144.57 32.2392C145.066 31.8989 145.626 31.6409 146.249 31.4667C146.707 31.3444 147.398 31.227 148.323 31.1128C150.207 30.8859 151.595 30.615 152.485 30.3011C152.494 29.9783 152.498 29.773 152.498 29.6851C152.498 28.7248 152.277 28.0481 151.837 27.655C151.24 27.1221 150.354 26.8561 149.178 26.8561C148.081 26.8561 147.27 27.0502 146.747 27.4385C146.224 27.8268 145.838 28.5147 145.587 29.5013L143.305 29.1873C143.512 28.2007 143.854 27.4041 144.329 26.797C144.805 26.1906 145.492 25.7232 146.391 25.3956C147.291 25.0681 148.331 24.9043 149.516 24.9043C150.701 24.9043 151.647 25.0441 152.382 25.3237C153.116 25.6034 153.657 25.9549 154.002 26.3783C154.348 26.8018 154.59 27.337 154.728 27.9826C154.806 28.3844 154.845 29.1091 154.845 30.1564V33.2994C154.845 35.4909 154.894 36.877 154.994 37.4578C155.093 38.0387 155.29 38.5955 155.584 39.1276H153.146C152.904 38.6387 152.749 38.0666 152.68 37.4115V37.4131ZM152.486 32.1482C151.639 32.4973 150.368 32.7945 148.674 33.039C147.714 33.1788 147.036 33.3362 146.638 33.5103C146.24 33.6853 145.933 33.9402 145.717 34.2765C145.501 34.6129 145.393 34.986 145.393 35.3966C145.393 36.0254 145.629 36.5495 146.099 36.9681C146.571 37.3875 147.26 37.5969 148.168 37.5969C149.076 37.5969 149.867 37.3987 150.566 37.0009C151.266 36.6038 151.781 36.0597 152.11 35.3702C152.36 34.8374 152.485 34.052 152.485 33.0126V32.1482H152.486Z" fill="white"/>
<path d="M158.437 39.1291V25.2198H160.537V27.3282C161.074 26.3415 161.568 25.6912 162.022 25.3764C162.476 25.0624 162.975 24.905 163.519 24.905C164.305 24.905 165.105 25.1583 165.918 25.6648L165.114 27.8523C164.544 27.5119 163.973 27.3418 163.403 27.3418C162.893 27.3418 162.435 27.4967 162.028 27.8067C161.622 28.1167 161.332 28.5465 161.16 29.097C160.9 29.9351 160.771 30.8522 160.771 31.8477V39.1299H158.437V39.1291Z" fill="white"/>
<path d="M176.291 37.4131C175.426 38.1553 174.594 38.6794 173.795 38.9846C172.995 39.2898 172.137 39.4432 171.221 39.4432C169.708 39.4432 168.545 39.0701 167.733 38.3231C166.921 37.5769 166.514 36.623 166.514 35.4613C166.514 34.7806 166.668 34.1583 166.975 33.595C167.282 33.0318 167.683 32.5796 168.181 32.2392C168.678 31.8989 169.238 31.6409 169.86 31.4667C170.318 31.3444 171.009 31.227 171.935 31.1128C173.819 30.8859 175.207 30.615 176.096 30.3011C176.105 29.9783 176.109 29.773 176.109 29.6851C176.109 28.7248 175.888 28.0481 175.448 27.655C174.851 27.1221 173.965 26.8561 172.79 26.8561C171.692 26.8561 170.881 27.0502 170.358 27.4385C169.835 27.8268 169.449 28.5147 169.198 29.5013L166.916 29.1873C167.123 28.2007 167.465 27.4041 167.94 26.797C168.416 26.1906 169.103 25.7232 170.002 25.3956C170.902 25.0681 171.942 24.9043 173.127 24.9043C174.312 24.9043 175.258 25.0441 175.993 25.3237C176.727 25.6034 177.268 25.9549 177.613 26.3783C177.959 26.8018 178.201 27.337 178.339 27.9826C178.417 28.3844 178.456 29.1091 178.456 30.1564V33.2994C178.456 35.4909 178.505 36.877 178.605 37.4578C178.704 38.0387 178.901 38.5955 179.195 39.1276H176.758C176.516 38.6387 176.36 38.0666 176.291 37.4115V37.4131ZM176.096 32.1482C175.249 32.4973 173.978 32.7945 172.284 33.039C171.325 33.1788 170.646 33.3362 170.248 33.5103C169.85 33.6853 169.544 33.9402 169.328 34.2765C169.112 34.6129 169.003 34.986 169.003 35.3966C169.003 36.0254 169.239 36.5495 169.71 36.9681C170.181 37.3875 170.87 37.5969 171.778 37.5969C172.686 37.5969 173.477 37.3987 174.177 37.0009C174.877 36.6038 175.391 36.0597 175.72 35.3702C175.971 34.8374 176.096 34.052 176.096 33.0126V32.1482H176.096Z" fill="white"/>
<path d="M189.672 39.1291V19.9285H193.458L197.957 33.523C198.372 34.7893 198.674 35.736 198.864 36.3648C199.08 35.6665 199.417 34.6407 199.876 33.2873L204.427 19.9285H207.811V39.1291H205.386V23.0587L199.863 39.1291H197.593L192.096 22.7838V39.1291H189.671H189.672Z" fill="white"/>
<path d="M220.595 39.1291V37.0862C219.523 38.6577 218.066 39.4438 216.225 39.4438C215.413 39.4438 214.654 39.2864 213.95 38.9725C213.245 38.6585 212.722 38.263 212.38 37.7869C212.039 37.3107 211.799 36.7283 211.661 36.038C211.566 35.5754 211.518 34.842 211.518 33.8378V25.2197H213.852V32.9342C213.852 34.1653 213.9 34.9946 213.995 35.4228C214.142 36.0428 214.453 36.5293 214.928 36.8833C215.403 37.2372 215.991 37.4138 216.691 37.4138C217.391 37.4138 218.048 37.2324 218.662 36.8705C219.276 36.5086 219.71 36.0148 219.964 35.3909C220.219 34.7669 220.347 33.8609 220.347 32.6729V25.2205H222.681V39.1299H220.594L220.595 39.1291Z" fill="white"/>
<path d="M226.338 39.1291V25.2198H228.439V27.1972C229.451 25.6696 230.911 24.905 232.822 24.905C233.651 24.905 234.414 25.0552 235.11 25.3572C235.806 25.6584 236.326 26.0539 236.672 26.5428C237.017 27.0318 237.259 27.6126 237.398 28.2845C237.484 28.7215 237.527 29.4853 237.527 30.5766V39.1291H235.193V30.6685C235.193 29.7082 235.103 28.9899 234.921 28.5138C234.739 28.0376 234.418 27.6581 233.956 27.3745C233.493 27.0909 232.951 26.9487 232.329 26.9487C231.335 26.9487 230.476 27.2675 229.755 27.905C229.033 28.5425 228.672 29.7521 228.672 31.5329V39.1291H226.338Z" fill="white"/>
<path d="M241.119 22.6392V19.9285H243.453V22.6392H241.119ZM241.119 39.1291V25.2198H243.453V39.1291H241.119Z" fill="white"/>
<path d="M255.991 34.0345L258.286 34.3357C258.035 35.9335 257.393 37.1847 256.361 38.0882C255.328 38.9918 254.059 39.444 252.556 39.444C250.671 39.444 249.156 38.8217 248.011 37.5777C246.866 36.3338 246.293 34.5506 246.293 32.2273C246.293 30.7253 246.54 29.4111 247.032 28.2854C247.525 27.1589 248.274 26.3144 249.281 25.7512C250.288 25.188 251.384 24.9067 252.568 24.9067C254.064 24.9067 255.287 25.2886 256.237 26.0524C257.188 26.8162 257.798 27.9011 258.065 29.3072L255.796 29.6612C255.58 28.7272 255.197 28.0242 254.648 27.5528C254.1 27.0814 253.436 26.8457 252.658 26.8457C251.483 26.8457 250.528 27.2716 249.793 28.1224C249.058 28.9741 248.691 30.3211 248.691 32.1626C248.691 34.0041 249.046 35.3887 249.754 36.2355C250.463 37.0824 251.388 37.5058 252.529 37.5058C253.445 37.5058 254.209 37.2222 254.824 36.6542C255.438 36.0869 255.827 35.2137 255.991 34.0345Z" fill="white"/>
<path d="M260.295 22.6392V19.9285H262.629V22.6392H260.295ZM260.295 39.1291V25.2198H262.629V39.1291H260.295Z" fill="white"/>
<path d="M266.182 44.4596V25.2198H268.308V27.027C268.81 26.3199 269.376 25.7894 270.007 25.4355C270.638 25.0816 271.403 24.905 272.302 24.905C273.478 24.905 274.515 25.211 275.414 25.8214C276.313 26.4326 276.991 27.2946 277.45 28.4083C277.908 29.5212 278.137 30.742 278.137 32.069C278.137 33.4927 277.884 34.7734 277.379 35.9127C276.873 37.0519 276.138 37.9251 275.174 38.5323C274.21 39.1387 273.197 39.4423 272.134 39.4423C271.356 39.4423 270.658 39.2761 270.04 38.9446C269.422 38.613 268.914 38.1936 268.517 37.6871V44.458H266.183L266.182 44.4596ZM268.296 32.2528C268.296 34.0432 268.654 35.3654 269.372 36.221C270.089 37.0767 270.958 37.5049 271.978 37.5049C272.998 37.5049 273.903 37.0623 274.643 36.1755C275.381 35.2895 275.752 33.9161 275.752 32.0562C275.752 30.1963 275.391 28.9572 274.669 28.0752C273.947 27.1932 273.085 26.7521 272.082 26.7521C271.079 26.7521 270.208 27.2219 269.443 28.1599C268.678 29.0986 268.296 30.4632 268.296 32.2528Z" fill="white"/>
<path d="M289.935 37.4131C289.07 38.1553 288.238 38.6794 287.439 38.9846C286.639 39.2898 285.781 39.4432 284.865 39.4432C283.352 39.4432 282.19 39.0701 281.377 38.3231C280.565 37.5769 280.158 36.623 280.158 35.4613C280.158 34.7806 280.312 34.1583 280.619 33.595C280.926 33.0318 281.327 32.5796 281.825 32.2392C282.322 31.8989 282.882 31.6409 283.504 31.4667C283.962 31.3444 284.653 31.227 285.579 31.1128C287.463 30.8859 288.851 30.615 289.74 30.3011C289.749 29.9783 289.753 29.773 289.753 29.6851C289.753 28.7248 289.532 28.0481 289.092 27.655C288.495 27.1221 287.609 26.8561 286.434 26.8561C285.336 26.8561 284.525 27.0502 284.002 27.4385C283.48 27.8268 283.093 28.5147 282.842 29.5013L280.56 29.1873C280.767 28.2007 281.109 27.4041 281.584 26.797C282.06 26.1906 282.747 25.7232 283.646 25.3956C284.546 25.0681 285.587 24.9043 286.771 24.9043C287.956 24.9043 288.902 25.0441 289.637 25.3237C290.372 25.6034 290.912 25.9549 291.257 26.3783C291.603 26.8018 291.845 27.337 291.983 27.9826C292.061 28.3844 292.1 29.1091 292.1 30.1564V33.2994C292.1 35.4909 292.15 36.877 292.249 37.4578C292.348 38.0387 292.545 38.5955 292.839 39.1276H290.402C290.16 38.6387 290.004 38.0666 289.935 37.4115V37.4131ZM289.74 32.1482C288.893 32.4973 287.622 32.7945 285.928 33.039C284.969 33.1788 284.29 33.3362 283.892 33.5103C283.495 33.6853 283.188 33.9402 282.972 34.2765C282.756 34.6129 282.647 34.986 282.647 35.3966C282.647 36.0254 282.883 36.5495 283.354 36.9681C283.825 37.3875 284.514 37.5969 285.422 37.5969C286.33 37.5969 287.121 37.3987 287.821 37.0009C288.521 36.6038 289.035 36.0597 289.364 35.3702C289.615 34.8374 289.74 34.052 289.74 33.0126V32.1482H289.74Z" fill="white"/>
<path d="M295.666 39.1291V19.9285H298V39.1291H295.666Z" fill="white"/>
<path d="M95.2633 65.4809V63.7257C94.3901 65.1054 93.1065 65.7949 91.4124 65.7949C90.3146 65.7949 89.3054 65.4889 88.3847 64.8777C87.4641 64.2665 86.7507 63.4133 86.2453 62.3171C85.7399 61.2218 85.4868 59.9619 85.4868 58.539C85.4868 57.1161 85.7154 55.8914 86.1741 54.7609C86.6321 53.6304 87.3194 52.7636 88.236 52.1612C89.1519 51.5588 90.1761 51.2576 91.3087 51.2576C92.1384 51.2576 92.8779 51.4341 93.5257 51.7881C94.1742 52.142 94.701 52.6022 95.1075 53.1694V46.2803H97.428V65.4809H95.2625H95.2633ZM87.8857 58.5398C87.8857 60.3206 88.2574 61.6524 89.0009 62.5344C89.7443 63.4165 90.6214 63.8575 91.633 63.8575C92.6446 63.8575 93.5193 63.4364 94.2327 62.5936C94.9462 61.7515 95.3021 60.4652 95.3021 58.7363C95.3021 56.8333 94.939 55.436 94.213 54.5452C93.4869 53.6544 92.5924 53.2094 91.5294 53.2094C90.4664 53.2094 89.6257 53.6376 88.9297 54.4932C88.2337 55.3489 87.8857 56.6983 87.8857 58.5406V58.5398Z" fill="white"/>
<path d="M110.524 61.002L112.935 61.3032C112.555 62.7269 111.85 63.831 110.822 64.6172C109.793 65.4033 108.479 65.7956 106.88 65.7956C104.866 65.7956 103.269 65.1692 102.09 63.9165C100.91 62.6638 100.32 60.9061 100.32 58.6452C100.32 56.3842 100.916 54.4892 102.109 53.1965C103.301 51.9046 104.848 51.2583 106.751 51.2583C108.653 51.2583 110.095 51.891 111.263 53.1573C112.429 54.4236 113.013 56.2045 113.013 58.5014C113.013 58.6412 113.008 58.8505 113 59.1301H102.732C102.818 60.6585 103.246 61.8281 104.016 62.6398C104.785 63.4515 105.744 63.8582 106.894 63.8582C107.749 63.8582 108.479 63.6313 109.084 63.1775C109.69 62.7237 110.169 61.9991 110.524 61.0036V61.002ZM102.862 57.1903H110.55C110.446 56.0207 110.152 55.1427 109.668 54.5579C108.925 53.6495 107.961 53.1957 106.777 53.1957C105.705 53.1957 104.803 53.5584 104.073 54.283C103.342 55.0077 102.939 55.9768 102.861 57.1903H102.862Z" fill="white"/>
<path d="M132.268 58.4215V55.1866H140.54V62.8356C139.736 63.6217 138.571 64.3136 137.046 64.9112C135.52 65.5088 133.975 65.8084 132.41 65.8084C130.422 65.8084 128.689 65.3873 127.211 64.5445C125.733 63.7024 124.622 62.4968 123.879 60.9293C123.135 59.3618 122.763 57.6569 122.763 55.8146C122.763 53.8149 123.179 52.0381 124.008 50.4842C124.838 48.9302 126.052 47.7382 127.652 46.909C128.871 46.2714 130.388 45.9526 132.203 45.9526C134.563 45.9526 136.406 46.4528 137.733 47.4522C139.06 48.4525 139.914 49.8338 140.294 51.5971L136.482 52.3177C136.214 51.375 135.711 50.6304 134.971 50.0847C134.232 49.539 133.309 49.2658 132.203 49.2658C130.525 49.2658 129.193 49.8027 128.203 50.8764C127.214 51.9502 126.719 53.544 126.719 55.6564C126.719 57.935 127.22 59.6447 128.223 60.7839C129.226 61.9232 130.54 62.4928 132.165 62.4928C132.969 62.4928 133.775 62.3338 134.583 62.0151C135.391 61.6963 136.085 61.3104 136.664 60.8558V58.4199H132.269L132.268 58.4215Z" fill="white"/>
<path d="M153.116 65.4809V63.3981C152.615 64.1403 151.956 64.7251 151.139 65.1534C150.322 65.5808 149.46 65.7949 148.553 65.7949C147.646 65.7949 146.798 65.5896 146.063 65.1789C145.328 64.7683 144.797 64.1923 144.469 63.4501C144.14 62.7078 143.976 61.682 143.976 60.3726V51.5716H147.62V57.963C147.62 59.9188 147.687 61.1172 147.82 61.5582C147.954 61.9992 148.199 62.3483 148.553 62.6056C148.907 62.8628 149.356 62.9923 149.901 62.9923C150.524 62.9923 151.081 62.8197 151.574 62.4746C152.067 62.1294 152.404 61.702 152.586 61.1907C152.768 60.6802 152.858 59.4291 152.858 57.4381V51.5708H156.502V65.4801H153.117L153.116 65.4809Z" fill="white"/>
<path d="M162.996 55.8154L159.69 55.2131C160.062 53.8685 160.702 52.873 161.609 52.2267C162.517 51.5803 163.865 51.2576 165.655 51.2576C167.279 51.2576 168.489 51.4517 169.285 51.84C170.08 52.2283 170.64 52.722 170.964 53.3196C171.288 53.918 171.451 55.0157 171.451 56.6136L171.412 60.9094C171.412 62.1318 171.47 63.0338 171.587 63.6138C171.704 64.1946 171.921 64.817 172.241 65.4801H168.637C168.542 65.2356 168.425 64.8737 168.287 64.3927C168.226 64.1746 168.183 64.0308 168.157 63.9605C167.535 64.5717 166.869 65.0303 166.16 65.3355C165.451 65.6407 164.695 65.7941 163.891 65.7941C162.473 65.7941 161.356 65.4058 160.539 64.6284C159.722 63.8511 159.314 62.8692 159.314 61.6812C159.314 60.895 159.5 60.1944 159.872 59.5792C160.243 58.9632 160.764 58.4919 161.434 58.1643C162.104 57.8367 163.069 57.5507 164.332 57.3062C166.034 56.9835 167.214 56.6823 167.871 56.4027V56.036C167.871 55.3289 167.698 54.8248 167.352 54.5236C167.006 54.2224 166.354 54.0714 165.395 54.0714C164.746 54.0714 164.241 54.2 163.878 54.4581C163.515 54.7161 163.22 55.1675 162.996 55.8138L162.996 55.8154ZM167.872 58.801C167.405 58.9584 166.666 59.1462 165.655 59.3643C164.643 59.5824 163.982 59.7965 163.671 60.0058C163.196 60.3462 162.958 60.7784 162.958 61.3025C162.958 61.8266 163.148 62.2628 163.528 62.6383C163.908 63.0138 164.392 63.2015 164.98 63.2015C165.637 63.2015 166.264 62.9834 166.86 62.5464C167.301 62.2149 167.59 61.809 167.728 61.328C167.823 61.0141 167.871 60.4157 167.871 59.5337V58.8002L167.872 58.801Z" fill="white"/>
<path d="M178.529 65.4809H174.885V51.5716H178.27V53.549C178.849 52.615 179.37 51.999 179.832 51.7018C180.294 51.4054 180.819 51.2568 181.407 51.2568C182.237 51.2568 183.037 51.4885 183.806 51.9511L182.678 55.1596C182.065 54.7577 181.494 54.5572 180.967 54.5572C180.439 54.5572 180.025 54.6994 179.671 54.983C179.316 55.2667 179.037 55.7796 178.835 56.5218C178.631 57.264 178.53 58.8187 178.53 61.1843V65.4801L178.529 65.4809Z" fill="white"/>
<path d="M194.438 65.4809V63.3981C193.937 64.1403 193.278 64.7251 192.461 65.1534C191.644 65.5808 190.782 65.7949 189.875 65.7949C188.968 65.7949 188.12 65.5896 187.385 65.1789C186.65 64.7683 186.119 64.1923 185.791 63.4501C185.462 62.7078 185.298 61.682 185.298 60.3726V51.5716H188.942V57.963C188.942 59.9188 189.009 61.1172 189.142 61.5582C189.276 61.9992 189.521 62.3483 189.875 62.6056C190.229 62.8628 190.678 62.9923 191.223 62.9923C191.846 62.9923 192.403 62.8197 192.896 62.4746C193.389 62.1294 193.726 61.702 193.908 61.1907C194.09 60.6802 194.18 59.4291 194.18 57.4381V51.5708H197.824V65.4801H194.439L194.438 65.4809Z" fill="white"/>
<path d="M205.161 51.5715V65.0486C205.161 66.8214 205.046 68.0718 204.818 68.8012C204.588 69.5298 204.148 70.1002 203.495 70.5101C202.843 70.9207 202.011 71.1261 200.999 71.1261C200.636 71.1261 200.244 71.0933 199.825 71.0278C199.406 70.9623 198.954 70.864 198.47 70.733L199.106 67.59C199.279 67.6252 199.441 67.6531 199.592 67.6755C199.743 67.6971 199.884 67.7082 200.014 67.7082C200.385 67.7082 200.69 67.6276 200.928 67.4662C201.165 67.3048 201.323 67.1106 201.401 66.8837C201.478 66.6569 201.517 65.9754 201.517 64.8409V51.5739H205.161V51.5715ZM201.517 49.686V46.281H205.161V49.686H201.517Z" fill="white"/>
<path d="M211.695 55.8154L208.389 55.213C208.761 53.8684 209.401 52.8729 210.308 52.2266C211.216 51.5803 212.564 51.2575 214.354 51.2575C215.978 51.2575 217.188 51.4517 217.984 51.8399C218.779 52.2282 219.339 52.722 219.663 53.3195C219.987 53.9179 220.15 55.0157 220.15 56.6135L220.111 60.9094C220.111 62.1317 220.169 63.0337 220.286 63.6137C220.403 64.1945 220.62 64.8169 220.94 65.48H217.336C217.241 65.2355 217.124 64.8736 216.986 64.3927C216.925 64.1746 216.882 64.0308 216.856 63.9605C216.234 64.5716 215.568 65.0302 214.859 65.3354C214.15 65.6406 213.394 65.794 212.59 65.794C211.172 65.794 210.055 65.4057 209.238 64.6284C208.421 63.851 208.013 62.8691 208.013 61.6811C208.013 60.895 208.199 60.1943 208.571 59.5791C208.942 58.9632 209.463 58.4918 210.133 58.1642C210.802 57.8367 211.768 57.5507 213.03 57.3062C214.733 56.9834 215.913 56.6822 216.57 56.4026V56.0359C216.57 55.3289 216.397 54.8247 216.051 54.5235C215.705 54.2223 215.053 54.0713 214.093 54.0713C213.445 54.0713 212.94 54.2 212.577 54.458C212.213 54.7161 211.919 55.1675 211.695 55.8138L211.695 55.8154ZM216.571 58.801C216.104 58.9584 215.364 59.1461 214.354 59.3642C213.342 59.5823 212.681 59.7965 212.37 60.0058C211.895 60.3461 211.657 60.7783 211.657 61.3024C211.657 61.8265 211.847 62.2627 212.227 62.6382C212.607 63.0137 213.091 63.2015 213.679 63.2015C214.336 63.2015 214.963 62.9834 215.559 62.5464C216 62.2148 216.289 61.809 216.427 61.328C216.522 61.014 216.57 60.4156 216.57 59.5336V58.8002L216.571 58.801ZM212.629 49.869L214.418 45.9526H218.502L214.937 49.869H212.629Z" fill="white"/>
</g>
<defs>
<clipPath id="clip0_2156_954">
<rect width="298" height="87" fill="white"/>
</clipPath>
</defs>
</svg>
