<svg width="267" height="86" viewBox="0 0 267 86" fill="none" xmlns="http://www.w3.org/2000/svg">
<g clip-path="url(#clip0_2054_2020)">
<path d="M0 73.6515C0.71352 73.5457 1.42944 73.4486 2.14136 73.3333C3.91836 73.0442 5.68654 72.6951 7.50117 72.7117C10.3384 72.737 13.054 73.319 15.6598 74.4168C15.7607 74.4594 15.8616 74.5029 15.9913 74.5582C16.423 73.7597 16.8498 72.9707 17.3023 72.1328C15.2514 71.9946 13.689 70.9332 12.254 69.7864C11.5509 70.0834 10.907 70.4309 10.2191 70.6307C8.67516 71.0785 7.19527 70.7989 5.78344 70.081C4.77522 69.5685 3.91275 68.8695 3.09352 68.0592C3.50514 67.9992 3.90394 67.9937 4.26511 67.876C4.71356 67.7299 5.16762 67.5427 5.55441 67.2805C6.10937 66.9038 6.26633 66.3044 6.19986 65.6639C6.18865 65.5565 6.02288 65.4262 5.89956 65.3756C4.17782 64.6649 2.85248 63.5505 2.13175 61.8138C1.70012 60.7745 1.54556 59.4603 1.73535 58.4637C2.69872 59.6254 3.63968 60.7935 5.27172 61.1773C5.20846 60.6268 5.13959 60.1261 5.09394 59.6238C4.8513 56.9252 4.90255 54.2479 5.71617 51.6291C6.23269 49.9674 7.15843 48.5103 8.15543 47.1077C9.65695 44.9959 11.2041 42.9141 12.7761 40.852C14.1639 39.0309 15.1273 37.0351 15.5397 34.793C15.7487 33.6589 15.7311 32.5209 15.4796 31.3876C14.6508 31.4523 13.8428 31.5376 13.0316 31.5732C11.7198 31.6308 10.4129 31.5779 9.15164 31.1641C8.57426 30.9745 8.04572 30.6965 7.64452 30.2337C8.52221 28.3857 10.9078 26.7778 13.7371 26.112C13.8316 25.2883 13.8972 24.4638 14.0262 23.6487C14.2656 22.1363 14.662 20.6658 15.5973 19.4109C15.9553 18.9307 16.4286 18.5335 16.8506 18.0975C19.0376 20.2662 20.8042 24.1897 18.1727 27.949C18.1976 27.9821 18.2208 28.0248 18.2552 28.0556C20.0939 29.7267 20.8827 31.758 20.5199 34.2283C20.1852 36.5123 19.639 38.7394 18.7734 40.8821C18.0791 42.5998 16.9779 44.0908 15.9585 45.6261C15.4284 46.4238 15.1505 47.2878 15.3355 48.2552C15.458 48.8973 15.8336 49.3088 16.3781 49.387C17.0748 49.4873 17.5601 49.2606 17.838 48.6027C18.0102 48.1952 18.0815 47.7427 18.1655 47.3052C18.2056 47.0967 18.1727 46.8747 18.1727 46.5644C18.3025 46.701 18.3689 46.761 18.4242 46.8297C19.7543 48.4866 20.2773 50.3252 19.6783 52.4007C19.4292 53.2631 19.0961 54.1034 18.8799 54.9729C18.6092 56.0612 18.4034 57.1661 18.819 58.2781C19.0905 59.0047 19.5029 59.6183 20.1499 60.074C21.0749 60.724 21.9902 61.385 22.9111 62.0405C22.9864 62.0942 23.0705 62.1353 23.1882 62.2048C22.8655 61.5414 22.5508 60.9325 22.2705 60.3085C21.3432 58.2504 20.8675 56.0841 20.777 53.842C20.7273 52.6147 20.7714 51.3843 20.7714 50.1546C20.7714 40.5898 20.7714 31.0251 20.7714 21.4603V20.9983H22.2457C23.358 20.9983 24.4695 20.9951 25.5818 20.9999C26.1048 21.0022 26.3882 20.5766 26.7862 20.3562C26.8199 20.3381 26.8199 20.2449 26.8199 20.1864C26.8215 19.2853 26.8215 18.385 26.8215 17.4704C26.6541 17.4807 26.5084 17.4965 26.3634 17.4981C25.4105 17.506 24.8491 16.6183 25.3216 15.8033C25.4873 15.5174 25.746 15.2575 26.0191 15.0648C26.5884 14.6629 27.1963 14.3138 27.8185 13.9236C27.4381 13.0786 27.0473 12.2051 26.6509 11.3332C26.4491 10.8902 26.2297 10.455 26.0351 10.0088C25.9374 9.78451 25.7684 9.69448 25.5658 9.78372C25.2006 9.94641 24.8571 10.1565 24.5015 10.3413C24.4014 10.3934 24.2637 10.4945 24.1916 10.4637C23.5398 10.1857 22.8887 10.271 22.2064 10.4542C21.3095 8.76809 20.4182 7.09459 19.4821 5.33501C20.8178 4.58316 22.1384 3.83999 23.4957 3.0763C23.8008 3.81946 24.0675 4.46864 24.3478 5.1502C24.6929 5.01358 25.0293 4.88011 25.4008 4.73321C25.187 4.03191 24.9796 3.34955 24.7474 2.58665C26.0383 2.16571 27.3268 1.74476 28.6585 1.3104C29.103 2.91835 29.5354 4.48207 29.9687 6.05053C31.2844 5.7986 32.5841 5.54903 33.9223 5.29315C33.7012 3.67336 33.481 2.06304 33.2544 0.403754C34.5933 0.268705 35.9019 0.136815 37.2472 0.000976562C37.3129 0.628835 37.3882 1.20615 37.4282 1.78504C37.449 2.09384 37.5219 2.26758 37.8839 2.19019C38.0616 2.15228 38.2514 2.16729 38.4781 2.15702V0.0112434H41.1712V2.14912C41.5219 2.16886 41.8262 2.18545 42.1906 2.20598C42.2675 1.48493 42.3436 0.769412 42.426 0.00176632C43.7642 0.136025 45.0727 0.266336 46.4197 0.401384C46.1978 2.05672 45.9816 3.66704 45.7638 5.29394C47.0779 5.54587 48.3656 5.79228 49.6958 6.04737C50.1306 4.49312 50.5671 2.93019 51.0187 1.31356C52.324 1.73608 53.5949 2.14833 54.9114 2.57401C54.6952 3.3077 54.491 3.99874 54.2772 4.72295C54.6208 4.86589 54.9451 5.00173 55.3134 5.15494C55.5953 4.48918 55.8724 3.83368 56.1911 3.08025C57.5317 3.83447 58.8506 4.57684 60.1928 5.33185C59.2646 7.07959 58.3806 8.7444 57.4804 10.4408C57.3315 10.4116 57.1897 10.3887 57.0504 10.3563C56.5707 10.2457 56.0926 10.2284 55.6354 10.4274C55.4256 10.519 55.3086 10.4337 55.1429 10.3279C54.817 10.1194 54.4694 9.93772 54.1138 9.78214C53.9112 9.69369 53.7431 9.78293 53.643 10.0049C53.0512 11.3127 52.4498 12.6166 51.8532 13.9189C52.4522 14.2917 53.0472 14.6305 53.6037 15.023C53.8864 15.2228 54.1355 15.4953 54.3349 15.7788C54.5887 16.1413 54.6135 16.5599 54.3741 16.9508C54.1283 17.3512 53.7439 17.5155 53.2762 17.4973C53.1449 17.4918 53.0135 17.4752 52.8558 17.461C52.8558 18.3842 52.8558 19.2964 52.8574 20.2093C52.8574 20.2662 52.867 20.357 52.9022 20.3752C53.3274 20.5924 53.6261 21.0173 54.1923 21.007C55.7475 20.9801 57.3035 20.9975 58.9107 20.9975V21.4785C58.9107 30.7874 58.9131 40.0962 58.9083 49.4051C58.9075 51.1331 58.9211 52.8635 58.8466 54.5899C58.7713 56.3258 58.3301 58.0025 57.6983 59.6191C57.3803 60.431 56.9431 61.1978 56.5603 61.9852C56.5355 62.0357 56.5163 62.0887 56.461 62.2198C56.6124 62.1297 56.6932 62.0887 56.7661 62.0365C57.6862 61.381 58.616 60.7366 59.5225 60.0629C60.6925 59.1942 61.1754 58.008 61.0729 56.5848C61.0016 55.5968 60.7245 54.661 60.3874 53.7243C59.8308 52.1756 59.4656 50.5882 60.059 48.9471C60.3682 48.0933 60.8022 47.3178 61.4252 46.6212C61.4837 47.088 61.5253 47.5302 61.6014 47.9662C61.6382 48.1778 61.7207 48.3879 61.8152 48.5838C62.1403 49.2575 62.588 49.492 63.3039 49.3854C63.8717 49.3009 64.2617 48.8539 64.3626 48.1826C64.5019 47.2562 64.2385 46.4238 63.7428 45.6522C63.2879 44.943 62.817 44.2441 62.347 43.5443C60.5395 40.8568 59.7643 37.817 59.2502 34.6911C59.0861 33.6921 58.9812 32.6859 59.207 31.6774C59.5153 30.3017 60.2384 29.1644 61.2595 28.1985C61.3379 28.1243 61.4308 28.0643 61.5333 27.9853C60.365 26.3323 59.9181 24.557 60.3137 22.6181C60.6661 20.8925 61.5245 19.4259 62.7522 18.1465C63.5794 18.648 64.1384 19.3469 64.5684 20.1572C65.3364 21.604 65.6495 23.1733 65.8249 24.7773C65.8721 25.2117 65.8945 25.6492 65.9298 26.1065C68.5276 26.6467 70.6105 27.945 72.0608 30.2037C71.4233 30.9145 70.5961 31.2107 69.7168 31.3828C68.0743 31.7051 66.4239 31.619 64.775 31.4279C64.6036 31.4081 64.4323 31.3852 64.2168 31.3584C64.0142 32.1568 63.9438 32.9616 64.0134 33.7742C64.2128 36.1072 65.0225 38.2277 66.399 40.1247C67.907 42.2033 69.4806 44.2354 70.9861 46.3156C71.9887 47.7008 72.9457 49.124 73.6159 50.7027C74.484 52.7482 74.7299 54.9113 74.6978 57.1021C74.6802 58.3168 74.5289 59.5291 74.4384 60.7429C74.4296 60.8622 74.4248 60.9822 74.4143 61.1662C76.0624 60.7864 77.0009 59.5938 77.9587 58.4266C77.9587 59.0212 78.0244 59.6238 77.9467 60.2082C77.6128 62.7386 76.1313 64.3971 73.7873 65.3567C73.5487 65.4546 73.4518 65.5549 73.4534 65.8187C73.4582 66.7396 73.9274 67.3524 74.7587 67.6636C75.3249 67.8752 75.9391 67.9637 76.4988 68.0987C74.1797 70.6007 70.9917 71.6629 68.1464 70.1237C67.931 70.0068 67.7268 69.8702 67.4938 69.7288C66.2261 70.7492 64.8903 71.6732 63.199 72.038C63.6491 72.8705 64.0799 73.6689 64.5107 74.4658C70.9548 71.7356 75.4185 72.624 79.9743 73.6539C79.8414 73.6713 79.7093 73.6934 79.5763 73.7052C78.1629 73.8332 76.7423 73.9098 75.3369 74.0962C72.8015 74.4318 70.6201 75.5209 68.7895 77.2852C68.7654 77.3081 68.7542 77.3452 68.7182 77.4092C69.1394 77.4447 69.5422 77.4582 69.9378 77.5158C72.7086 77.917 74.2742 79.3638 74.7723 82.0822C74.9733 83.18 75.0198 84.3046 75.1359 85.4174C75.1054 85.43 75.0758 85.4426 75.0454 85.4553C74.91 85.2649 74.7819 85.0683 74.637 84.885C73.9987 84.0827 73.4157 83.2266 72.699 82.4992C71.5963 81.3801 70.2077 81.1684 68.7758 81.7592C67.6339 82.2299 66.5328 82.8143 65.4613 83.4303C63.8757 84.3425 62.3349 85.3321 60.6004 85.9631C60.5788 85.971 60.5547 85.9741 60.4995 85.9883C59.613 84.8685 58.7177 83.7375 57.8352 82.6224C46.1466 87.0071 34.478 87.0166 22.7366 82.6224C22.626 82.7582 22.4635 82.9525 22.3057 83.1507C21.605 84.0321 20.8987 84.9095 20.2116 85.802C20.0482 86.0136 19.9201 86.0468 19.6647 85.9528C18.0478 85.3558 16.608 84.4396 15.1377 83.5725C14.2824 83.0678 13.4216 82.5592 12.5198 82.1446C10.083 81.0239 8.40849 81.4733 6.82049 83.6143C6.41288 84.164 6.02208 84.7271 5.62248 85.2831C5.56081 85.3684 5.49195 85.4482 5.36542 85.6069C5.5424 84.0132 5.48474 82.4874 6.01407 81.0342C6.69636 79.1601 8.04172 78.0608 10.0053 77.6896C10.5811 77.5806 11.1697 77.5442 11.8263 77.4653C11.53 77.2031 11.269 76.9567 10.9911 76.73C9.05074 75.1473 6.82369 74.2683 4.31316 74.074C2.92215 73.9659 1.53355 73.8308 0.144146 73.7092C0.0993003 73.7052 0.0528534 73.721 0.00720728 73.7281C0.00720728 73.7037 0.00720728 73.6792 0.00720728 73.6547L0 73.6515ZM49.8615 67.7441C50.0946 67.613 50.3348 67.4938 50.559 67.3493C51.6666 66.6321 52.7276 65.859 53.6045 64.8662C54.1267 64.2479 54.6496 63.6287 55.1717 63.0103C55.9197 62.0666 56.4762 61.0146 56.9319 59.9121C57.1665 59.3442 57.3323 58.7496 57.5293 58.1667C57.6262 57.7853 57.7231 57.4038 57.8208 57.0224C57.9665 56.0873 58.1123 55.1522 58.258 54.2171C58.2853 54.0631 58.3381 53.9083 58.3357 53.7551C58.3149 52.5942 58.2837 51.434 58.2556 50.2739C58.262 50.1522 58.2732 50.0314 58.2732 49.9098C58.274 40.6025 58.274 31.296 58.2732 21.9887C58.2732 21.8702 58.2636 21.7517 58.2564 21.5969H57.8376C56.5163 21.5969 55.1941 21.6025 53.8728 21.5898C53.7038 21.5882 53.5212 21.514 53.3707 21.4295C52.6107 21.0046 51.8892 20.5 51.098 20.1438C48.1774 18.8272 45.0567 18.3613 41.8847 18.1678C39.986 18.0525 38.0889 18.1086 36.1933 18.2965C34.4884 18.4655 32.8059 18.7443 31.1587 19.2071C29.4802 19.6778 27.8657 20.3025 26.4499 21.3339C26.1824 21.5282 25.9302 21.6056 25.6083 21.6025C24.3358 21.589 23.0641 21.5969 21.7916 21.5969H21.3704V22.0811C21.3704 31.0835 21.3704 40.086 21.3704 49.0884C21.3704 49.2345 21.38 49.3799 21.3856 49.526C21.3792 50.893 21.372 52.2601 21.3656 53.6272C21.416 54.1658 21.4665 54.7044 21.5169 55.243C21.6162 55.8267 21.7155 56.4103 21.8148 56.9931C21.9325 57.4599 22.007 57.9424 22.1768 58.3894C22.4963 59.2313 22.8711 60.0535 23.2226 60.8843C23.6799 61.9576 24.3422 62.9029 25.0901 63.7945C25.6771 64.405 26.2641 65.0155 26.8511 65.626C26.9088 65.6884 26.9608 65.7563 27.0249 65.8108C30.2882 68.5821 34.1217 69.9689 38.3723 70.2769C40.5938 70.438 42.8016 70.2611 44.9678 69.7051C46.6871 69.2636 48.3408 68.6642 49.8631 67.7441H49.8615ZM24.745 73.6018C24.7706 73.5647 24.797 73.5283 24.8227 73.4912C24.741 73.3972 24.6673 73.2938 24.5752 73.2108C24.0211 72.7101 23.4317 72.2442 22.9151 71.7095C22.3626 71.1377 22.011 70.4388 21.8853 69.6451C21.8517 69.4342 21.8757 69.2297 22.136 69.2004C22.3706 69.1744 22.4154 69.3497 22.4707 69.5471C22.5772 69.9294 22.6869 70.3243 22.8791 70.6678C23.3163 71.4481 24.0114 72.0009 24.6881 72.5759C25.5186 73.2827 26.5028 73.4572 27.5382 73.5038C27.8057 73.5157 28.078 73.4778 28.3446 73.4383C28.6193 73.3972 28.8275 73.2606 28.8804 72.9629C28.9364 72.6477 28.7634 72.4369 28.516 72.3074C28.2477 72.1668 27.9546 72.0617 27.6623 71.9764C26.546 71.6519 25.5338 70.6117 25.4529 69.6182C25.4097 69.0867 25.4849 68.5473 25.4641 68.0126C25.4329 67.2363 25.4401 66.4473 25.2911 65.6908C25.0837 64.6396 24.3494 63.8751 23.5278 63.2393C22.3442 62.3232 21.1141 61.4648 19.8913 60.6C19.0665 60.0163 18.5315 59.2471 18.2192 58.3026C17.8468 57.1756 18.0198 56.0581 18.2921 54.9571C18.5651 53.8523 18.9527 52.775 19.2354 51.6717C19.5493 50.4484 19.2506 49.3048 18.646 48.1826C18.5475 48.4274 18.4779 48.6351 18.3826 48.8318C17.9653 49.6902 17.1934 50.0993 16.2692 49.9588C15.494 49.8411 14.9071 49.2037 14.7549 48.32C14.5595 47.1867 14.9183 46.1979 15.5133 45.2455C16.4166 43.7986 17.4216 42.3913 18.1327 40.8544C19.1529 38.651 19.6775 36.2817 19.9698 33.8658C20.1836 32.1023 19.7279 30.5694 18.5852 29.2181C18.224 28.7916 17.8532 28.3723 17.476 27.9371C20.0675 24.7141 18.8078 21.086 16.8186 18.9118C16.073 19.5199 15.6182 20.3199 15.2746 21.1886C14.6252 22.829 14.4009 24.5483 14.3449 26.2944C14.3369 26.5321 14.28 26.6174 14.0246 26.6585C12.9467 26.833 11.928 27.1861 10.9847 27.7381C9.94364 28.347 9.05955 29.1218 8.3228 30.1706C8.73042 30.3467 9.08677 30.5441 9.46876 30.6578C11.0231 31.1222 12.6135 31.0606 14.2047 30.9192C14.7765 30.8687 15.3451 30.7897 15.9097 30.7242C16.3613 32.3637 16.3525 33.9622 15.9697 35.5662C15.4436 37.7696 14.3777 39.6998 13.0099 41.5052C11.3338 43.7165 9.71701 45.9728 8.09778 48.2252C6.28715 50.7446 5.55921 53.5869 5.5488 56.6456C5.5432 58.342 5.6409 60.0274 5.96282 61.6922C6.18144 62.8239 6.46733 63.943 6.71238 65.07C6.95582 66.1907 6.70517 67.3303 5.54079 68.0008C5.20446 68.1943 4.83128 68.3238 4.44529 68.496C5.45991 69.3473 6.57784 69.9902 7.90078 70.1947C9.5096 70.4427 10.9479 70.0186 12.1675 68.9825C12.6928 69.3813 13.1845 69.7699 13.6914 70.1371C15.0672 71.1338 16.5815 71.6937 18.3193 71.5516C18.626 71.5263 18.9383 71.5279 19.245 71.5547C20.0018 71.6211 20.7457 71.6637 21.4425 72.0815C22.3097 72.6027 23.2459 73.0142 24.1596 73.4572C24.3366 73.5433 24.5504 73.5552 24.7474 73.6018H24.745ZM75.2488 68.4612C75.0542 68.398 74.9012 68.3546 74.7523 68.3001C73.3292 67.7773 72.6814 66.7159 72.9457 65.239C73.1675 63.9983 73.4606 62.7702 73.7024 61.5327C74.086 59.563 74.1941 57.5784 74.0724 55.5747C73.9282 53.2039 73.33 50.9894 72.048 48.951C70.5881 46.6299 68.9176 44.4612 67.2663 42.276C66.2869 40.9808 65.2635 39.7148 64.6124 38.2056C63.802 36.3251 63.2399 34.4029 63.4641 32.3329C63.5233 31.7872 63.6475 31.2486 63.7412 30.71C63.9478 30.7329 64.0711 30.7431 64.1928 30.7605C65.8713 31.0053 67.5538 31.138 69.2427 30.8806C69.9755 30.7692 70.6898 30.5875 71.3112 30.1271C71.2239 30.0063 71.1494 29.8949 71.0662 29.7915C69.6784 28.0682 67.8677 27.0431 65.6823 26.6593C65.414 26.6119 65.3428 26.5313 65.3372 26.2747C65.2971 24.6138 65.0737 22.9798 64.4955 21.4098C64.1424 20.4518 63.6707 19.5649 62.8435 18.9062C60.9327 21.0615 59.5569 24.6517 62.2893 28.084C62.1668 28.1827 62.0402 28.2775 61.9217 28.3818C60.5307 29.5964 59.6194 31.059 59.673 32.9466C59.6979 33.8295 59.814 34.7188 59.9838 35.5867C60.5219 38.343 61.2835 41.0242 62.9171 43.384C63.3624 44.0269 63.7852 44.684 64.2128 45.3387C64.7774 46.2035 65.0577 47.1409 64.9416 48.1771C64.8367 49.1145 64.2184 49.8308 63.4016 49.958C62.4382 50.108 61.6454 49.6634 61.2378 48.7402C61.1666 48.5783 61.1113 48.4093 61.028 48.1865C60.5644 49.0426 60.2753 49.8964 60.3353 50.8283C60.4066 51.9387 60.7053 52.9985 61.1033 54.0394C61.5373 55.1751 61.7744 56.3582 61.6086 57.5768C61.4388 58.827 60.8358 59.8386 59.7852 60.5865C58.5848 61.4411 57.3779 62.2901 56.2096 63.1864C55.3639 63.8356 54.5831 64.6072 54.3757 65.6773C54.2067 66.5516 54.2588 67.4677 54.226 68.3665C54.2139 68.7061 54.2884 69.0559 54.2324 69.386C54.1603 69.807 54.0866 70.2737 53.8528 70.6125C53.3571 71.3296 52.6548 71.8209 51.7763 72.0467C51.5104 72.1154 51.2381 72.2418 51.0243 72.41C50.6071 72.7386 50.7256 73.2851 51.2429 73.417C51.5472 73.4951 51.8812 73.5291 52.1935 73.4975C52.887 73.4288 53.635 73.4738 54.2292 73.0647C54.913 72.594 55.5641 72.0625 56.1663 71.4931C56.7229 70.9663 57.1209 70.3132 57.2234 69.5313C57.2514 69.3165 57.3411 69.1396 57.5573 69.2154C57.6694 69.2549 57.8072 69.514 57.7719 69.623C57.6022 70.1497 57.4396 70.6947 57.1601 71.1677C56.662 72.0104 55.8988 72.6248 55.1116 73.2022C55.0043 73.2803 54.9243 73.3941 54.8322 73.492L54.9074 73.5868C55.0364 73.5654 55.1701 73.5575 55.2942 73.5204C56.3145 73.2132 57.253 72.7441 58.1531 72.1786C58.5167 71.9504 58.9403 71.749 59.3591 71.6882C60.0991 71.5808 60.8591 71.5389 61.607 71.561C62.9468 71.6005 64.1792 71.2949 65.2923 70.573C66.0531 70.0802 66.7786 69.5337 67.5274 69.007C69.9546 71.039 73.0289 70.4198 75.2504 68.4596L75.2488 68.4612ZM62.5167 72.0602C62.1483 72.1368 61.7015 72.1107 61.406 72.3074C55.3703 76.3241 48.6467 78.1334 41.441 78.3909C38.7207 78.488 36.0156 78.2771 33.3305 77.8238C30.285 77.3097 27.33 76.5026 24.4959 75.2745C22.5836 74.4452 20.761 73.4604 19.0416 72.2884C18.5371 71.9441 18.0174 72.0633 17.7387 72.5806C16.9347 74.0717 16.1299 75.5627 15.3267 77.0546C15.2706 77.1581 15.221 77.2647 15.1673 77.3737C15.2466 77.4408 15.301 77.489 15.3579 77.5348C17.46 79.2343 19.7744 80.5943 22.2497 81.6897C27.3893 83.965 32.8059 85.0549 38.4108 85.2626C42.8577 85.4276 47.2581 85.0264 51.5849 83.9595C55.85 82.9075 59.8644 81.2877 63.4873 78.7976C64.1424 78.3474 64.7678 77.857 65.4036 77.3879C64.4339 75.5983 63.4937 73.8624 62.5175 72.0602H62.5167ZM20.2484 72.1794C20.2252 72.2434 20.202 72.3074 20.1796 72.3713C28.5424 77.3531 37.5988 78.7328 47.166 77.2197C51.9172 76.4686 56.3601 74.8306 60.3906 72.1897C59.6771 72.1826 59.0308 72.2892 58.3886 72.6722C57.4684 73.2203 56.4634 73.6381 55.4752 74.0661C55.0172 74.2644 54.5487 74.2399 54.3333 73.7882C53.5389 73.8932 52.7989 74.0148 52.0542 74.078C51.7306 74.1056 51.3815 74.0614 51.0708 73.9659C50.1186 73.6736 49.8952 72.5696 50.6736 71.952C50.9595 71.7245 51.3342 71.5729 51.693 71.4742C52.9727 71.1219 53.6782 70.2303 53.667 68.9375C53.6598 68.1106 53.6726 67.2837 53.6878 66.4568C53.6926 66.1986 53.7351 65.9419 53.7687 65.6015C49.7983 69.2715 45.0943 70.9087 39.8274 70.9087C34.5605 70.9087 29.8622 69.2549 26.0175 65.7144C26.0175 66.9741 26.0071 68.259 26.0271 69.5424C26.0311 69.773 26.1112 70.0392 26.2473 70.2232C26.691 70.8226 27.2387 71.2941 28.0067 71.4773C28.3118 71.55 28.6161 71.6842 28.8796 71.8525C29.3665 72.1628 29.5546 72.6849 29.4185 73.1824C29.2752 73.7076 28.7554 74.0496 28.0331 74.0796C27.1274 74.1167 26.2441 73.9761 25.3824 73.7163C25.0349 74.1728 24.8283 74.2517 24.2685 74.0875C23.1378 73.7558 22.0967 73.2409 21.1189 72.5901C20.8547 72.4148 20.5399 72.3129 20.2484 72.1778V72.1794ZM52.2616 19.9985C52.2616 19.4843 52.2656 19.0097 52.26 18.535C52.2544 18.0754 52.4033 17.5068 52.1839 17.1853C51.9412 16.83 51.3695 16.6767 50.921 16.4777C47.9524 15.1588 44.7956 14.6723 41.5796 14.5167C39.0474 14.3943 36.5217 14.5096 34.0191 14.9464C32.098 15.2812 30.2385 15.8064 28.4447 16.5891C27.6463 16.9374 27.2771 17.3662 27.4037 18.2452C27.4846 18.8091 27.4189 19.3935 27.4189 19.9906C31.3725 18.0825 35.5495 17.5178 39.8258 17.517C44.1149 17.5163 48.304 18.0793 52.2616 19.9985ZM19.6518 85.4197C19.6759 85.3858 19.7007 85.3518 19.7247 85.3186C19.7095 85.2499 19.6991 85.1796 19.6791 85.1125C19.2458 83.6443 18.2729 82.5711 17.0869 81.6494C16.3509 81.0776 15.5853 80.5343 14.9095 79.8985C14.0614 79.1017 13.9837 78.2282 14.5371 77.2173C14.9319 76.4947 15.3219 75.7697 15.7143 75.0454C12.9795 73.571 6.58985 72.7022 4.49334 73.5402C6.21267 73.7163 7.79587 74.1593 9.27096 74.9491C10.7485 75.7396 12.0105 76.7829 13.1421 78.1113C12.2299 78.1113 11.3987 78.0394 10.5851 78.1255C8.67035 78.3277 7.25132 79.2525 6.55702 81.0903C6.24871 81.9053 6.08614 82.7503 6.07093 83.6207C6.55222 83.101 6.98545 82.5695 7.48436 82.1075C8.33001 81.3248 9.34303 80.9426 10.5226 81.0263C11.4396 81.091 12.2916 81.3777 13.0788 81.8097C14.5323 82.6074 15.9473 83.4722 17.3944 84.2809C18.1295 84.6916 18.8991 85.0422 19.6526 85.4197H19.6518ZM64.767 74.9294C65.189 75.7128 65.6038 76.4567 65.9946 77.2133C66.4159 78.0292 66.4127 78.8387 65.7976 79.5605C65.4829 79.9301 65.1105 80.2587 64.7318 80.5674C64.0471 81.125 63.3135 81.6257 62.6457 82.2015C61.6895 83.0267 61.0304 84.0511 60.7093 85.3297C60.8366 85.2823 60.9271 85.2594 61.0072 85.2168C62.2533 84.5557 63.4977 83.8915 64.7438 83.2305C65.9682 82.5813 67.175 81.8974 68.4259 81.3035C69.2243 80.9244 70.1108 80.8423 70.9957 81.0058C72.1488 81.219 72.9969 81.9069 73.7312 82.759C73.9587 83.0228 74.1653 83.304 74.3815 83.5772C74.3743 83.0157 74.3126 82.4763 74.2005 81.9479C73.7008 79.6071 72.14 78.2298 69.7288 78.0402C68.9616 77.9794 68.1864 78.0307 67.3312 78.0307C69.6103 75.3732 72.4163 73.8363 75.8614 73.4312C72.0151 72.8207 68.3506 73.4075 64.767 74.9294ZM53.3002 16.965C53.8167 16.916 54.0762 16.5283 53.8279 16.1026C53.6974 15.8791 53.494 15.6785 53.281 15.5237C51.5024 14.2253 49.4571 13.5327 47.3318 13.0517C44.3576 12.3789 41.3409 12.1593 38.2923 12.2912C35.7945 12.3986 33.3329 12.7161 30.932 13.4142C29.2447 13.9055 27.6295 14.557 26.2249 15.6327C25.7764 15.9762 25.6323 16.4051 25.8373 16.6941C26.0415 16.9824 26.5092 16.9942 26.9864 16.7297C27.362 16.5212 27.7304 16.2977 28.1188 16.1136C31.2315 14.6423 34.5653 14.114 37.9687 13.9315C40.5634 13.7925 43.1492 13.9189 45.7126 14.362C48.1534 14.7829 50.5158 15.4305 52.6612 16.7067C52.8558 16.8228 53.0856 16.8813 53.2994 16.9658L53.3002 16.965ZM14.7181 77.9004C14.5747 78.6673 14.8142 79.2485 15.2978 79.6955C15.8712 80.2263 16.4975 80.7049 17.1229 81.1771C18.0991 81.9148 19.0216 82.699 19.6086 83.7904C19.7888 84.1245 19.9233 84.4831 20.0955 84.8677C20.7385 83.9824 21.3536 83.1349 21.999 82.2457C19.3756 81.1037 17.0244 79.6008 14.7173 77.8996L14.7181 77.9004ZM58.5287 82.2552C59.1661 83.1215 59.7675 83.9397 60.3313 84.7058C60.7325 84.0463 61.0793 83.3758 61.5229 82.7732C62.206 81.8445 63.2086 81.253 64.0983 80.5406C64.5924 80.1457 65.0633 79.709 65.4733 79.232C65.7824 78.8718 65.8969 78.4027 65.7712 77.8459C63.5418 79.6647 61.1369 81.0808 58.5287 82.2544V82.2552ZM40.7948 11.6531V7.70744C40.7948 6.91058 40.6242 6.74315 39.8082 6.76289C39.6368 6.76684 39.4622 6.78816 39.2957 6.82765C39.021 6.8932 38.864 7.02825 38.8696 7.35916C38.8897 8.69622 38.8777 10.0341 38.8793 11.3711C38.8793 11.4643 38.8937 11.5575 38.9017 11.6531H40.7948ZM2.32635 60.0487C2.16218 61.7428 4.17141 64.3031 5.98524 64.7359C5.77623 63.7377 5.56882 62.745 5.35741 61.7333C4.10174 61.6259 3.20163 60.8716 2.32635 60.0487ZM73.688 64.7304C75.5267 64.1168 77.2516 62.2316 77.3725 59.999C76.4884 60.8693 75.5667 61.6251 74.3046 61.7388C74.0956 62.7544 73.893 63.7361 73.688 64.7304ZM39.7201 3.83526C38.5557 3.8858 37.4386 3.93477 36.2902 3.98452C36.3327 4.49313 36.3711 4.9504 36.4104 5.4124C37.5251 5.36423 38.615 5.31684 39.7201 5.26867V3.83447V3.83526ZM39.9595 5.26946C41.0615 5.31763 42.149 5.36502 43.2629 5.41319C43.3005 4.93539 43.3374 4.47338 43.3766 3.98057C42.2058 3.9324 41.0927 3.88659 39.9595 3.83921V5.26867V5.26946ZM37.8582 2.79041H36.9389C36.9117 2.61587 36.8876 2.46423 36.8588 2.2818C35.9395 2.37657 35.0546 2.46739 34.1409 2.56059C34.2153 3.07393 34.2786 3.51382 34.3443 3.96873C35.5279 3.86527 36.6882 3.76339 37.8582 3.66072V2.78962V2.79041ZM45.5252 2.55743C44.6026 2.46502 43.7065 2.37499 42.8072 2.28496C42.7752 2.49346 42.7512 2.64509 42.7263 2.80699H41.823V3.66309C42.9978 3.76497 44.1574 3.86606 45.333 3.96794C45.397 3.49803 45.4571 3.05655 45.5252 2.55822V2.55743ZM34.7431 5.78517C34.7855 6.30246 34.8216 6.74394 34.86 7.22095C35.9371 7.13645 36.9717 7.0551 38.0448 6.97139C38.0176 6.48885 37.992 6.03631 37.9639 5.53956C36.8716 5.62327 35.833 5.70225 34.7431 5.78517ZM44.7932 7.22253C44.8429 6.75184 44.8917 6.29062 44.9446 5.79623C43.8331 5.70856 42.78 5.62485 41.6837 5.53877V6.97613C42.7023 7.05668 43.7193 7.13803 44.7932 7.22253ZM31.3148 6.36406C31.4301 6.85214 31.5366 7.3023 31.6424 7.7493C32.6866 7.57713 33.6836 7.41286 34.6974 7.24543C34.623 6.74552 34.5549 6.28351 34.4836 5.80649C33.4274 5.99209 32.4159 6.16978 31.3148 6.36327V6.36406ZM44.9718 7.24701C46.0169 7.41839 47.0147 7.58108 48.0333 7.74772C48.139 7.28966 48.2415 6.84661 48.3544 6.3538C47.2813 6.17531 46.2507 6.00393 45.1872 5.82703C45.1112 6.32853 45.0447 6.76921 44.9718 7.24701ZM26.5364 7.52343C27.5446 7.19568 28.5152 6.87978 29.4954 6.5615C29.3649 6.10581 29.2399 5.66908 29.1062 5.20154C28.0683 5.54114 27.0729 5.86652 26.0495 6.20137C26.2265 6.68234 26.3794 7.09775 26.5364 7.52343ZM50.1691 6.56071C51.1757 6.88767 52.1431 7.20279 53.1337 7.52422C53.2922 7.1017 53.4524 6.67365 53.631 6.199C52.5963 5.86336 51.5977 5.53877 50.5687 5.2047C50.4285 5.68092 50.3028 6.10897 50.1699 6.56071H50.1691ZM44.517 9.06425C43.4543 8.98527 42.4429 8.91025 41.4058 8.83364V10.2797C42.3876 10.35 43.3478 10.4195 44.3103 10.489C44.3792 10.0128 44.4417 9.58154 44.517 9.06504V9.06425ZM46.1138 9.06583C46.2003 8.61172 46.2851 8.1655 46.382 7.66006C45.3322 7.53686 44.328 7.41839 43.3037 7.29835C43.2485 7.81801 43.1996 8.26896 43.1516 8.71913C44.147 8.83522 45.0991 8.94737 46.1138 9.06583ZM35.3501 10.4906C36.3343 10.4179 37.2873 10.3476 38.2378 10.2773V8.83048C37.1912 8.91183 36.1765 8.99001 35.1491 9.06978C35.222 9.58549 35.2844 10.0278 35.3501 10.4906ZM36.3743 7.29282C35.3277 7.41997 34.3251 7.54238 33.2952 7.66717C33.3985 8.19157 33.485 8.63541 33.5699 9.06741C34.5861 8.94579 35.5431 8.83127 36.5113 8.71597C36.4648 8.23737 36.4232 7.80458 36.3743 7.29282ZM31.1082 6.40592C30.0936 6.67523 29.1182 6.93506 28.1156 7.202C28.2822 7.69481 28.4247 8.11496 28.5672 8.53669C29.5394 8.28555 30.4748 8.04388 31.4285 7.79748C31.3268 7.35521 31.2267 6.92005 31.109 6.40592H31.1082ZM48.561 6.40592C48.4425 6.924 48.3408 7.36548 48.2415 7.79985C49.2265 8.05257 50.161 8.29265 51.1148 8.53748C51.2582 8.09048 51.3935 7.66796 51.5448 7.19805C50.5486 6.93348 49.5813 6.67681 48.5618 6.40592H48.561ZM58.6552 6.95954C57.7471 6.44699 56.8654 5.94944 55.9501 5.43294C55.7491 5.90521 55.5761 6.31273 55.4039 6.71709C56.2808 7.21069 57.1313 7.68928 58.0058 8.1813C58.2124 7.79274 58.4158 7.40892 58.6552 6.95875V6.95954ZM46.3212 9.10453C47.2797 9.30118 48.2007 9.49072 49.1496 9.68579C49.2762 9.23168 49.3987 8.79494 49.5316 8.31872C48.5258 8.10627 47.56 7.9033 46.579 7.69639C46.4861 8.20262 46.4045 8.65121 46.3212 9.10532V9.10453ZM23.72 5.4282C22.7886 5.95813 21.9093 6.45884 21.0164 6.96665C21.2567 7.4176 21.4649 7.80774 21.6643 8.18051C22.5452 7.68454 23.3972 7.20358 24.2701 6.71235C24.0979 6.30957 23.9274 5.91074 23.72 5.42741V5.4282ZM30.522 9.685C31.463 9.49072 32.3799 9.30118 33.3353 9.10295C33.2496 8.63225 33.1663 8.17814 33.0774 7.69323C32.0724 7.90804 31.1202 8.1118 30.1352 8.32267C30.2706 8.7981 30.3883 9.2143 30.522 9.685ZM44.525 10.519C45.4811 10.6651 46.374 10.8025 47.2813 10.9407C47.3943 10.474 47.4984 10.0412 47.6145 9.55864C46.6327 9.39911 45.6845 9.2451 44.7179 9.08794C44.6499 9.5926 44.589 10.0459 44.525 10.519ZM54.1875 2.94915C53.2634 2.64983 52.3601 2.35683 51.4271 2.05435C51.2934 2.5361 51.1717 2.97442 51.0459 3.42774C51.9653 3.72074 52.8566 4.00505 53.7679 4.29648C53.9072 3.84868 54.0362 3.43406 54.1875 2.94915ZM53.3307 7.59214C54.2075 7.99492 55.0476 8.38111 55.9165 8.77994C56.1095 8.37242 56.2992 7.97359 56.5091 7.53054C55.6065 7.10881 54.7353 6.70129 53.8312 6.27877C53.6534 6.74394 53.4948 7.16014 53.3307 7.59135V7.59214ZM32.3911 10.9431C33.3337 10.797 34.229 10.6588 35.1475 10.5166C35.0794 10.0396 35.013 9.57838 34.9425 9.08636C33.9695 9.24668 33.0398 9.3999 32.0708 9.56022C32.1821 10.0388 32.2822 10.4724 32.3919 10.9431H32.3911ZM28.6281 3.42774C28.4968 2.96494 28.3726 2.52663 28.2381 2.05277C27.2988 2.35999 26.3971 2.65536 25.4921 2.95152C25.6387 3.43406 25.7684 3.85895 25.9014 4.29727C26.8175 4.00505 27.7016 3.72311 28.6281 3.42774ZM23.161 7.52975C23.3828 7.98939 23.579 8.39374 23.7648 8.77836C24.6505 8.36926 25.4889 7.98228 26.3378 7.58977C26.168 7.14829 26.0087 6.73367 25.8333 6.2764C24.9316 6.69892 24.0603 7.10802 23.161 7.52975ZM41.5716 2.76671C41.2408 2.75171 40.9365 2.73749 40.6242 2.72328C40.6042 2.54874 40.5866 2.39553 40.5698 2.24152H39.0907C39.0747 2.42001 39.0618 2.57164 39.0482 2.72012C38.7023 2.74065 38.3876 2.75881 38.048 2.77856C38.0752 3.10236 38.0985 3.38588 38.1209 3.6544H41.5724V2.76671H41.5716ZM27.6904 10.5435C28.5753 10.2702 29.4393 10.0041 30.313 9.73476C30.1817 9.2838 30.0575 8.85575 29.9166 8.37084C28.9925 8.66463 28.0972 8.94895 27.1866 9.23879C27.3676 9.7079 27.5286 10.1241 27.6904 10.5435ZM49.7502 8.37005C49.6101 8.86997 49.4908 9.29723 49.3674 9.73791C50.2507 10.0088 51.1108 10.2726 51.9925 10.5427C52.1551 10.1091 52.3104 9.69448 52.481 9.23721C51.5697 8.94737 50.6856 8.66621 49.7502 8.36926V8.37005ZM29.5755 11.6333C30.4724 11.4075 31.3252 11.1927 32.1917 10.9747C32.0756 10.5 31.9675 10.0586 31.8546 9.59418C30.9232 9.8319 30.0367 10.0578 29.1326 10.2884C29.2912 10.7686 29.4305 11.1934 29.5755 11.6333ZM50.5286 10.2844C49.5981 10.0483 48.7236 9.82637 47.8187 9.59655C47.7042 10.083 47.6001 10.5245 47.4936 10.9794C48.3833 11.2029 49.2321 11.4162 50.0954 11.6325C50.2371 11.1927 50.3733 10.7678 50.5294 10.2836L50.5286 10.2844ZM54.4814 8.31082C53.5645 7.96017 52.6692 7.6182 51.7434 7.26439C51.5849 7.7572 51.4496 8.17972 51.3118 8.60856C51.8948 8.82416 52.4706 9.00265 53.0135 9.24984C53.4219 9.43544 53.7359 9.09742 54.1066 9.1448C54.1275 9.14717 54.1651 9.07215 54.1835 9.02871C54.278 8.80679 54.3685 8.58329 54.4806 8.31082H54.4814ZM25.1766 8.31793C25.3224 8.63225 25.38 8.97185 25.5834 9.13217C25.7852 9.29091 26.1624 9.37226 26.4123 9.30434C27.0681 9.12743 27.696 8.85023 28.3566 8.6054C28.2037 8.14813 28.0627 7.72561 27.9082 7.2636C26.9993 7.61425 26.1184 7.95464 25.1766 8.31793ZM45.7702 10.8941C44.8221 10.7899 43.9235 10.6912 42.9818 10.5877C42.9426 11.011 42.9073 11.3798 42.8721 11.7589C43.7666 11.8655 44.6411 11.9698 45.5436 12.0772C45.6141 11.7068 45.6845 11.3411 45.7694 10.8941H45.7702ZM30.8127 11.5101C29.9751 11.7621 29.1703 12.0037 28.335 12.2549C28.5024 12.7058 28.6489 13.0991 28.7963 13.4964C29.5979 13.2279 30.3691 12.9688 31.1547 12.7058C31.0425 12.3133 30.936 11.9421 30.8127 11.5101ZM48.6499 11.462C47.7466 11.2835 46.8761 11.1113 45.9816 10.9344C45.9039 11.3593 45.8351 11.7352 45.7654 12.1175C46.6279 12.2983 47.4623 12.4736 48.3128 12.6529C48.4217 12.2691 48.529 11.8884 48.6499 11.462ZM36.798 11.7589C36.7595 11.3751 36.7227 11.0063 36.6802 10.5861C35.7401 10.6919 34.8352 10.7938 33.9046 10.8981C33.9863 11.3427 34.0536 11.7092 34.1217 12.0795C35.0089 11.9729 35.8714 11.8703 36.798 11.7589ZM31.3597 12.6529C32.2333 12.4681 33.0574 12.2936 33.9158 12.1119C33.843 11.7234 33.7733 11.3498 33.6956 10.9336C32.7891 11.1129 31.9274 11.2827 31.0257 11.4604C31.1458 11.8884 31.2524 12.2683 31.3597 12.6521V12.6529ZM50.8778 13.4964C51.0315 13.0786 51.1749 12.6853 51.3342 12.2509C50.4902 12.0006 49.6878 11.7621 48.8541 11.5149C48.7324 11.9603 48.6283 12.3378 48.5266 12.7114C49.3282 12.9791 50.081 13.2302 50.8778 13.4964ZM55.5297 5.87757C54.8538 5.60274 54.2107 5.34133 53.5629 5.07755C53.6077 4.87458 53.6438 4.71189 53.6862 4.51682C53.3835 4.4102 53.0904 4.30674 52.7717 4.1946C52.6203 4.66055 52.4802 5.09097 52.3441 5.50955C53.3178 5.89416 54.2484 6.2614 55.1941 6.63495C55.3054 6.38223 55.4087 6.15083 55.5297 5.87678V5.87757ZM25.9999 4.5105C26.0645 4.89748 25.9192 5.16179 25.5642 5.30342C25.1005 5.4898 24.6385 5.67855 24.1484 5.87678C24.2669 6.15241 24.3742 6.40039 24.4751 6.63495C25.4433 6.2535 26.3754 5.88705 27.3396 5.50718C27.1939 5.07676 27.0489 4.64634 26.8952 4.19381C26.5836 4.30437 26.2994 4.40467 25.9999 4.5105ZM38.2674 6.97929C38.6142 6.29851 39.2012 6.19269 39.8154 6.18321C40.448 6.17373 41.0334 6.30878 41.4322 6.98876V5.54824H38.1818C38.2106 6.02921 38.237 6.46989 38.2666 6.97929H38.2674ZM35.7625 0.729924C35.1387 0.797054 34.5469 0.860234 33.9215 0.927364C33.9895 1.42649 34.0536 1.88929 34.1168 2.35604C34.7231 2.28575 35.2996 2.21862 35.8946 2.14991C35.849 1.65947 35.8082 1.21721 35.7633 0.729924H35.7625ZM43.9043 0.727555C43.8635 1.23932 43.8275 1.69027 43.7906 2.15544C44.4088 2.22415 44.9758 2.28654 45.5596 2.3513C45.6229 1.86244 45.6829 1.40201 45.7454 0.924995C45.1168 0.857865 44.5338 0.795474 43.9043 0.727555ZM29.3721 11.6902C29.2287 11.2503 29.0902 10.8286 28.9364 10.3579C28.3318 10.5735 27.752 10.7804 27.1506 10.9952C27.3572 11.4541 27.539 11.8576 27.724 12.2683C28.295 12.0677 28.8227 11.8829 29.3713 11.691L29.3721 11.6902ZM52.5178 10.9897C51.8996 10.7717 51.3358 10.5727 50.7408 10.3626C50.5839 10.8254 50.4381 11.255 50.2892 11.6957C50.8553 11.8908 51.3863 12.0732 51.946 12.2659C52.1334 11.8482 52.3144 11.443 52.5178 10.9897ZM34.3587 4.19223C34.4276 4.71821 34.4876 5.1818 34.5501 5.66118C35.1147 5.58141 35.6432 5.50718 36.2022 5.42899C36.1581 4.95987 36.1165 4.5184 36.0708 4.02559C35.5006 4.08166 34.9577 4.13457 34.3587 4.19302V4.19223ZM43.5992 4.02006C43.5528 4.5184 43.5119 4.96066 43.4663 5.44636C44.0317 5.50402 44.5762 5.5593 45.156 5.61774C45.208 5.11309 45.2545 4.66213 45.3025 4.19302C44.7172 4.133 44.1806 4.0785 43.5992 4.01927V4.02006ZM41.4082 7.18225V8.63383C41.9207 8.65831 42.4172 8.68122 42.9426 8.70649C42.9906 8.22632 43.0355 7.7722 43.0835 7.29045C42.5085 7.25333 41.9728 7.21858 41.4082 7.18146V7.18225ZM27.0898 4.1172C27.2475 4.59816 27.3861 5.02068 27.5342 5.47006C28.0579 5.3129 28.5552 5.16442 29.0613 5.01279C28.9268 4.54051 28.8051 4.11246 28.673 3.64887C28.1396 3.80683 27.6391 3.95451 27.0906 4.1172H27.0898ZM52.127 5.4669C52.276 5.01042 52.4153 4.58079 52.5675 4.11404C52.0269 3.95451 51.516 3.80446 50.9787 3.64571C50.8497 4.133 50.7344 4.57052 50.6159 5.01832C51.1388 5.17311 51.6161 5.31526 52.127 5.4669ZM36.5929 7.29045C36.6402 7.78168 36.685 8.24211 36.7307 8.70886C37.268 8.68122 37.7549 8.65594 38.2538 8.62988V7.18541C37.7005 7.22016 37.1679 7.25333 36.5929 7.28966V7.29045ZM39.1051 1.98485H40.5578V0.560916H39.1051V1.98485ZM56.465 3.92608C56.2784 4.39125 56.1135 4.80192 55.9429 5.22602C56.4058 5.46137 56.835 5.67855 57.2818 5.906C57.4876 5.47006 57.6766 5.06965 57.8728 4.65266C57.3972 4.40783 56.9543 4.1788 56.4642 3.92608H56.465ZM21.7948 4.65424C21.9982 5.0815 22.1896 5.48348 22.3922 5.90758C22.8527 5.67066 23.2827 5.45031 23.7328 5.21891C23.547 4.7806 23.3716 4.36597 23.1882 3.93319C22.6949 4.18907 22.2513 4.41889 21.7956 4.65503L21.7948 4.65424ZM22.204 6.01183C21.999 5.58062 21.8092 5.1818 21.609 4.76085C21.1494 5.04596 20.7257 5.30895 20.2837 5.5822C20.5111 5.99999 20.7217 6.38776 20.9395 6.78737C21.3744 6.52044 21.7692 6.27798 22.2032 6.01183H22.204ZM59.3872 5.58062C58.9323 5.29947 58.5095 5.03806 58.0618 4.76085C57.8568 5.19206 57.6662 5.59326 57.4668 6.0142C57.9017 6.2764 58.3141 6.52596 58.7425 6.78422C58.9619 6.37512 59.1613 6.00156 59.3872 5.57983V5.58062ZM57.2418 9.59497C57.4724 9.17087 57.6798 8.78941 57.8985 8.38585C57.4884 8.14181 57.0952 7.90725 56.6828 7.66243C56.4714 8.1039 56.2832 8.49483 56.0878 8.90156C56.473 9.13375 56.8366 9.35251 57.241 9.59576L57.2418 9.59497ZM22.4242 9.59734C22.8254 9.35567 23.1922 9.13533 23.575 8.90472C23.3772 8.49325 23.1842 8.09285 22.9752 7.65927C22.554 7.91594 22.1712 8.14971 21.7732 8.39295C21.9942 8.80205 22.2016 9.18666 22.4242 9.59813V9.59734ZM25.3304 9.1993C25.2247 8.94421 25.1222 8.69938 24.9964 8.39769C24.2028 8.83127 23.4341 9.25063 22.6861 9.65894C23.1618 9.71106 23.6239 9.85322 24.0507 9.78293C24.4743 9.71264 24.8611 9.42833 25.2639 9.238C25.2751 9.23247 25.2847 9.22615 25.3304 9.1993ZM56.9503 9.7387C56.9663 9.71343 56.9815 9.68816 56.9976 9.66289C56.2312 9.24589 55.4656 8.82969 54.6768 8.40085C54.5503 8.70254 54.4454 8.95289 54.3709 9.1298C55.0308 9.67868 55.7427 9.88639 56.5515 9.69527C56.674 9.66605 56.8174 9.72212 56.9503 9.7387ZM42.772 10.5782C42.2995 10.5506 41.8615 10.5253 41.4106 10.4992V11.7076H42.6639C42.6983 11.3459 42.7327 10.9849 42.772 10.5782ZM36.9013 10.5806C36.9405 10.9826 36.9765 11.3601 37.0102 11.7052H38.2426V10.4985C37.7926 10.5261 37.3681 10.5514 36.9013 10.5798V10.5806ZM36.7259 0.703862H35.9587C36.0124 1.19983 36.0628 1.66421 36.1157 2.15386C36.3735 2.12543 36.5994 2.10016 36.8588 2.07093C36.8132 1.60182 36.7699 1.15955 36.7251 0.703862H36.7259ZM43.6857 0.701493H42.937C42.8985 1.16113 42.8601 1.61287 42.8208 2.07883C43.1011 2.10174 43.3269 2.12069 43.5688 2.14043C43.6096 1.64052 43.6465 1.1864 43.6857 0.700703V0.701493ZM26.4563 9.54284C26.6701 9.97642 26.8679 10.3768 27.0761 10.7994C27.2171 10.7441 27.3356 10.6975 27.487 10.6382C27.322 10.1976 27.1674 9.78451 27.0017 9.34303C26.8095 9.41332 26.6525 9.47098 26.4555 9.54284H26.4563ZM52.67 9.34066C52.4986 9.79873 52.3433 10.2118 52.1823 10.6422C52.336 10.7006 52.4586 10.7464 52.6019 10.8001C52.8077 10.3776 53.0055 9.97168 53.2129 9.546C53.0255 9.47493 52.8686 9.41569 52.6708 9.34066H52.67ZM51.858 12.4792C51.7354 12.4365 51.6409 12.4041 51.5513 12.3726C51.074 13.3613 51.0347 13.5509 51.2998 13.6907C51.4816 13.2958 51.6634 12.9033 51.8588 12.4792H51.858ZM28.5376 13.6733C28.5608 13.6449 28.5841 13.6156 28.6073 13.5872C28.4567 13.1828 28.3054 12.7777 28.146 12.3504C28.0227 12.4002 27.9234 12.4397 27.8105 12.4847C27.9778 12.8417 28.1284 13.1844 28.3014 13.5161C28.339 13.5888 28.4559 13.6219 28.5368 13.6725L28.5376 13.6733Z" fill="white"/>
<path d="M21.3839 49.525C23.9129 49.6316 26.4418 49.7525 28.9716 49.8417C31.2675 49.9231 33.565 49.9483 35.8601 50.0407C38.7959 50.1592 41.7317 50.295 44.6642 50.4735C46.5573 50.5888 48.4368 50.5154 50.3227 50.3645C52.2159 50.2129 54.1146 50.1094 56.0125 50.0526C56.7564 50.0305 57.5068 50.1932 58.254 50.2721C58.282 51.4323 58.3132 52.5932 58.334 53.7534C58.3364 53.9066 58.2836 54.0614 58.2564 54.2154C58.1731 54.1941 58.089 54.1783 58.0073 54.1522C56.5482 53.6728 55.0803 53.2179 53.6349 52.7022C52.7108 52.3729 51.8106 52.3697 50.8857 52.6422C49.6581 53.0039 48.4272 53.394 47.1211 53.2424C46.0344 53.1168 44.9541 52.9312 43.8714 52.7749C42.7759 52.6169 41.6828 52.4313 40.5833 52.3121C39.1795 52.1597 37.8453 52.4866 36.5424 52.985C35.4285 53.4114 34.2833 53.7044 33.0781 53.4651C32.3206 53.3143 31.5502 53.169 30.8287 52.9044C28.3462 51.9938 25.8925 52.057 23.4308 52.9636C22.7525 53.2132 22.0526 53.4059 21.3623 53.6247C21.3687 52.2576 21.3759 50.8905 21.3823 49.5234L21.3839 49.525Z" fill="white"/>
<path d="M57.8199 57.0223C57.723 57.4038 57.6261 57.7852 57.5284 58.1667C56.9758 58.2094 56.4233 58.2615 55.8699 58.2923C54.3059 58.3776 52.7411 58.4423 51.1788 58.5371C48.2838 58.7132 45.4209 58.5466 42.5853 57.9037C41.4618 57.6494 40.3126 57.4757 39.165 57.3588C37.5538 57.1937 35.9746 57.5215 34.4026 57.8279C32.9492 58.1106 31.4925 58.2125 30.0422 57.8453C28.9707 57.5736 27.9097 57.2632 26.8486 56.9521C25.7275 56.6227 24.5983 56.4016 23.4275 56.6235C22.8854 56.7262 22.3504 56.8691 21.8123 56.9939C21.713 56.4103 21.6137 55.8266 21.5144 55.2438C23.0952 54.9334 24.684 54.661 26.2528 54.3024C27.494 54.0189 28.6888 54.0576 29.8813 54.4848C30.6332 54.7542 31.3932 54.999 32.1475 55.2604C33.3728 55.6845 34.5884 55.6497 35.7968 55.1964C36.2453 55.0282 36.6945 54.86 37.1414 54.6894C38.2929 54.2495 39.4789 54.0979 40.6954 54.3348C42.2273 54.6333 43.7529 54.9626 45.284 55.2675C46.2866 55.4665 47.298 55.6892 48.3231 55.5155C49.1079 55.382 49.8718 55.1348 50.6534 54.9745C51.3597 54.83 52.0749 54.6586 52.79 54.6373C53.7934 54.6073 54.6727 55.0708 55.5103 55.5723C56.2895 56.0391 57.0495 56.5382 57.8183 57.0231L57.8199 57.0223Z" fill="white"/>
<path d="M55.1718 63.0101C54.6497 63.6285 54.1267 64.2477 53.6046 64.8661C52.1519 64.3346 50.6945 63.8157 49.2482 63.2668C48.2672 62.8948 47.2614 62.669 46.2147 62.7645C45.1753 62.8593 44.1382 63.003 43.1084 63.1712C41.6645 63.4074 40.2351 63.8023 38.7584 63.6862C37.4467 63.5835 36.1382 63.4176 34.8377 63.2218C33.393 63.0046 31.9419 62.8435 30.4925 63.0086C28.685 63.2139 26.8896 63.5274 25.0894 63.7952C24.3415 62.9035 23.6792 61.9582 23.2219 60.8849C23.2932 60.8659 23.3645 60.847 23.4357 60.8272C25.4586 60.2649 27.4694 59.6544 29.5075 59.1545C31.2212 58.7336 32.8837 58.9405 34.4076 59.9048C34.9882 60.272 35.5848 60.6156 36.1846 60.9528C37.4523 61.6652 38.7977 61.8974 40.2039 61.448C41.2673 61.1084 42.326 60.7412 43.3567 60.3147C45.5981 59.3875 47.8244 59.382 50.0114 60.4102C51.7547 61.23 53.4541 62.1414 55.1726 63.0117L55.1718 63.0101Z" fill="white"/>
<path d="M26.8496 65.6252C28.5057 65.9893 30.1682 66.3281 31.8154 66.7277C32.6627 66.933 33.4555 66.8477 34.2307 66.5152C34.9073 66.2246 35.5816 65.9213 36.2295 65.5731C37.7326 64.7667 39.2453 64.7715 40.7709 65.4696C41.6646 65.8787 42.5423 66.3202 43.4279 66.7466C44.2095 67.1234 45.0104 67.4535 45.9033 67.3556C46.4022 67.3011 46.8971 67.1858 47.3847 67.0641C48.3481 66.824 49.1577 67.0855 49.8624 67.7425C48.3401 68.6626 46.6864 69.262 44.9671 69.7035C42.8009 70.2595 40.5931 70.4364 38.3716 70.2753C34.121 69.9673 30.2875 68.5805 27.0242 65.8092C26.9601 65.7547 26.9081 65.686 26.8504 65.6244L26.8496 65.6252Z" fill="white"/>
<path d="M46.6975 43.2985C45.811 43.1145 44.9662 42.9495 44.1277 42.7583C43.8923 42.7046 43.7697 42.752 43.652 42.9597C43.2973 43.586 42.9225 44.202 42.5533 44.8212C42.4861 44.9333 42.4116 45.0415 42.3227 45.1797C41.6212 44.6783 40.9349 44.2068 40.2726 43.7037C40.03 43.5197 39.869 43.5323 39.6328 43.7084C38.9657 44.2068 38.2778 44.6783 37.5611 45.1861C37.1599 44.5092 36.7747 43.8624 36.3927 43.2148C36.0828 42.6888 36.0852 42.6896 35.4838 42.8184C34.7406 42.9771 33.9959 43.1335 33.2055 43.3009C33.1334 42.647 33.0477 42.0239 32.9981 41.3968C32.9212 40.4309 32.9308 40.4317 31.9786 40.2461C31.3628 40.1253 30.7478 39.9997 30.1328 39.8741C30.0991 39.867 30.0687 39.8449 30.0103 39.8173C30.3106 38.9304 30.6101 38.0451 30.9224 37.1234C30.136 36.5698 29.3456 36.0138 28.5208 35.4333C29.0092 34.9129 29.4833 34.4043 29.9606 33.8996C30.3311 33.509 30.3776 33.0817 30.0999 32.6178C29.7484 32.0326 29.3968 31.4482 29.0205 30.8227C29.7764 30.4966 30.4996 30.1625 31.2411 29.8734C31.5959 29.7352 31.7584 29.6033 31.6791 29.1713C31.5382 28.4092 31.4974 27.6289 31.4077 26.7957C31.756 26.7957 32.0707 26.7957 32.3855 26.7957C32.9412 26.7957 33.4978 26.7807 34.0527 26.806C34.3186 26.8179 34.4099 26.7144 34.482 26.4846C34.7286 25.6988 34.9985 24.9193 35.2764 24.0869C36.1965 24.4833 37.083 24.8656 37.9791 25.2518C38.6342 24.5418 39.2804 23.842 39.9539 23.1123C40.4984 23.7062 41.0526 24.2598 41.5419 24.8648C41.8198 25.2083 42.0456 25.232 42.426 25.0448C43.1299 24.6997 43.8634 24.4115 44.6274 24.0821C44.854 24.7684 45.0743 25.435 45.2937 26.1015C45.4464 26.5664 45.7675 26.7989 46.2571 26.7989C46.9834 26.7989 47.7097 26.7989 48.4857 26.7989C48.4233 27.3912 48.364 27.9543 48.3039 28.5166C48.2871 28.6738 48.2631 28.8302 48.2503 28.9873C48.1958 29.6713 48.1974 29.6689 48.8621 29.9548C49.526 30.2399 50.1874 30.5297 50.8689 30.8259C50.4149 31.584 49.9896 32.3098 49.546 33.0254C49.4227 33.2244 49.4251 33.3602 49.5916 33.5316C50.0873 34.0418 50.5678 34.5654 51.0531 35.085C51.1508 35.1901 51.2437 35.3007 51.3654 35.4397C50.6543 35.9404 49.9816 36.4316 49.2889 36.8928C49.0431 37.0563 48.979 37.1953 49.0863 37.4812C49.3754 38.2528 49.6253 39.0386 49.9023 39.8512C49.0126 40.0329 48.1606 40.2161 47.3037 40.3749C47.0859 40.4151 46.9946 40.4791 46.9738 40.7129C46.8985 41.5595 46.7936 42.4037 46.6943 43.2993L46.6975 43.2985ZM47.8186 27.3881C47.2925 27.3881 46.8016 27.392 46.3099 27.3873C45.9039 27.3833 45.3914 27.5128 45.1223 27.3186C44.854 27.1243 44.8284 26.6023 44.7003 26.2232C44.5513 25.7801 44.4072 25.3355 44.2574 24.8814C43.5023 25.2107 42.788 25.5092 42.0856 25.8338C41.8438 25.9452 41.6997 25.9183 41.5235 25.7153C41.0198 25.1357 40.492 24.5773 39.9563 23.9929C39.4029 24.5899 38.8616 25.1554 38.3451 25.7422C38.1833 25.9262 38.0552 25.9381 37.8446 25.8433C37.1198 25.5163 36.3863 25.2083 35.6343 24.8837C35.3525 25.7375 35.081 26.5612 34.8031 27.4039H32.0932C32.1732 28.1486 32.2189 28.8657 32.3398 29.5702C32.4063 29.9556 32.2693 30.0969 31.9378 30.2257C31.2555 30.4918 30.59 30.7998 29.8933 31.1007C30.3058 31.8012 30.6845 32.467 31.0897 33.1186C31.2163 33.3215 31.2027 33.4455 31.0393 33.6153C30.4988 34.1784 29.9742 34.7565 29.4233 35.3512C30.0823 35.8108 30.7086 36.261 31.3508 36.6875C31.5726 36.8344 31.6231 36.9607 31.527 37.2182C31.2611 37.9337 31.0345 38.6627 30.7854 39.4066C31.5326 39.5638 32.2365 39.7549 32.9532 39.8465C33.4129 39.9057 33.489 40.1284 33.5154 40.5091C33.5626 41.1978 33.6539 41.8833 33.7284 42.5854C34.5028 42.4259 35.2419 42.2971 35.9675 42.1131C36.3062 42.027 36.4688 42.1005 36.6289 42.4006C36.9757 43.0513 37.3657 43.68 37.7429 44.3268C38.4107 43.8545 39.049 43.417 39.6688 42.9558C39.8826 42.7963 40.0268 42.7939 40.2422 42.9558C40.8636 43.4233 41.5051 43.864 42.1529 44.326C42.5565 43.6373 42.9513 42.9921 43.3149 42.3295C43.4534 42.0768 43.6064 42.0365 43.8739 42.0989C44.6258 42.275 45.3842 42.4227 46.165 42.587C46.2466 41.8359 46.3548 41.1133 46.3916 40.3875C46.41 40.0266 46.5542 39.9215 46.8817 39.8639C47.6192 39.7352 48.3504 39.5669 49.124 39.4066C48.8357 38.5584 48.5554 37.7339 48.2695 36.8928C49.0062 36.3779 49.7342 35.8693 50.4805 35.3472C49.8479 34.6712 49.2545 34.0378 48.6475 33.3894C49.1023 32.6281 49.5492 31.8786 50.0153 31.0983C49.2601 30.7722 48.5442 30.4539 47.821 30.1554C47.5968 30.063 47.5087 29.9729 47.5496 29.7021C47.6657 28.9478 47.7297 28.1865 47.8186 27.3888V27.3881Z" fill="white"/>
<path d="M22.9392 68.105C22.5676 68.1042 22.2857 67.831 22.2801 67.4669C22.2745 67.0997 22.5868 66.7822 22.9488 66.7869C23.2987 66.7917 23.6046 67.0933 23.6118 67.4393C23.6199 67.812 23.3236 68.1058 22.9392 68.1042V68.105Z" fill="white"/>
<path d="M57.3829 67.4534C57.382 67.8483 57.1098 68.1121 56.7094 68.1042C56.3482 68.0971 56.0551 67.8056 56.0559 67.4526C56.0567 67.0917 56.3842 66.7766 56.7454 66.7876C57.1034 66.7987 57.3837 67.0917 57.3829 67.4534Z" fill="white"/>
<path d="M31.4372 82.6413C31.1449 82.5773 30.8518 82.5133 30.5595 82.4494C30.8959 82.4383 30.9808 82.2314 31.0392 81.9803C31.1513 81.4977 31.2747 81.0175 31.3179 80.4939C30.8318 81.0823 30.3465 81.6707 29.8076 82.3238C29.6394 81.4938 29.4856 80.7324 29.3319 79.9719C29.3087 79.9679 29.2846 79.9632 29.2614 79.9593C29.1197 80.5547 28.9659 81.1486 28.849 81.7488C28.8322 81.8349 28.9932 81.9558 29.0852 82.0774C28.7938 82.0103 28.5015 81.9431 28.21 81.876C28.5695 81.8705 28.6384 81.6375 28.7001 81.365C28.817 80.8438 28.9499 80.3257 29.0949 79.8116C29.1701 79.5462 29.1573 79.3401 28.7809 79.2224C29.5129 79.2145 29.6186 79.2974 29.7379 79.8913C29.8524 80.4615 29.9709 81.031 30.0999 81.6643C30.4851 81.1921 30.8326 80.7695 31.1762 80.3431C31.4762 79.9703 31.8646 79.8808 32.3413 80.0746C32.0034 80.0264 31.9169 80.2128 31.8576 80.4837C31.7439 81.0049 31.5766 81.5151 31.4628 82.0371C31.426 82.2077 31.4869 82.3988 31.5037 82.5813C31.4813 82.6018 31.4588 82.6231 31.4364 82.6436L31.4372 82.6413Z" fill="white"/>
<path d="M58.1108 79.3449C58.1044 79.1774 58.1532 78.9824 58.0827 78.8473C57.8169 78.3403 57.5094 77.8554 57.2251 77.3578C57.0969 77.1335 56.9496 76.9795 56.6108 77.1746C57.0361 76.6818 57.2747 76.6447 57.712 76.9487C58.202 77.2899 58.6913 77.6311 59.2591 78.026C59.195 77.3389 59.1734 76.7339 59.0725 76.1432C58.9932 75.6796 59.2207 75.5114 59.549 75.4221C59.6003 75.6132 59.6163 75.8131 59.7036 75.9757C59.9694 76.4693 60.2641 76.9471 60.5444 77.4328C60.6629 77.6382 60.7879 77.8206 61.0986 77.7251C60.7766 77.9091 60.4547 78.0923 60.1328 78.2755C60.3971 78.0575 60.3026 77.8372 60.1752 77.6208C59.9054 77.1628 59.6299 76.7086 59.3024 76.2735C59.38 77.0514 59.4577 77.8301 59.5474 78.7249C58.8299 78.2281 58.2012 77.7922 57.5718 77.357C57.547 77.3728 57.5222 77.3886 57.4965 77.4044C57.5774 77.5513 57.6559 77.6982 57.7384 77.8435C57.8953 78.1191 58.0563 78.3924 58.2141 78.6672C58.3398 78.8876 58.4647 79.1063 58.8083 79.0353C58.5888 79.1522 58.3702 79.2682 58.1508 79.3851C58.1372 79.3725 58.1244 79.3591 58.1116 79.3464L58.1108 79.3449Z" fill="white"/>
<path d="M36.4305 82.0529C36.8148 82.5291 36.9238 83.1665 37.5564 83.3931C37.0919 83.5321 36.8597 83.4532 36.6323 83.078C36.4617 82.7969 36.3007 82.5094 36.1149 82.2385C36.0461 82.1374 35.9187 82.075 35.7954 81.9763C35.536 82.7495 35.5952 83.1294 35.9596 83.3173C35.7754 83.3078 35.5912 83.3047 35.4078 83.2873C35.2244 83.2699 35.0427 83.2391 34.8176 83.1846C35.2364 83.1949 35.2236 82.9074 35.2469 82.6563C35.3005 82.0758 35.3614 81.4946 35.3782 80.9133C35.3822 80.7656 35.2324 80.614 35.1532 80.4631C35.5127 80.4987 35.9275 80.5247 36.3368 80.5848C36.8845 80.6653 37.1416 80.8857 37.1704 81.2561C37.1992 81.6217 37.0038 81.8436 36.4297 82.0529H36.4305ZM35.7426 81.8405C36.0829 81.8886 36.424 81.9281 36.5914 81.5893C36.6731 81.4235 36.6707 81.1526 36.5874 80.9883C36.4441 80.7056 36.1478 80.6977 35.8403 80.7767C35.8074 81.1328 35.7762 81.4764 35.7426 81.8405Z" fill="white"/>
<path d="M51.4488 79.1435C51.7955 79.0218 52.1375 78.8828 52.4899 78.7818C52.9823 78.6412 53.3627 78.7596 53.5349 79.0708C53.7071 79.3828 53.611 79.6852 53.2218 80.0533C53.6847 80.5224 54.3029 80.8628 54.7513 80.8952C54.2933 81.1961 54.1491 81.1984 53.7287 80.911C53.4756 80.738 53.229 80.5548 52.9671 80.3968C52.859 80.3321 52.7181 80.3194 52.5619 80.2752C52.6556 81.0871 52.8494 81.3832 53.3459 81.4314C52.9311 81.5704 52.5811 81.6881 52.3145 81.7781C52.3297 81.572 52.4018 81.3508 52.3489 81.1645C52.196 80.629 51.999 80.1054 51.8044 79.5826C51.7555 79.4523 51.6498 79.3425 51.5705 79.2232C51.5297 79.1972 51.4888 79.1711 51.448 79.1451L51.4488 79.1435ZM52.4578 80.1852C52.8214 80.1093 53.1097 79.9577 53.1313 79.6221C53.1433 79.4341 53.0096 79.1735 52.855 79.0526C52.6252 78.8726 52.3497 78.9697 52.1095 79.1569C52.224 79.4949 52.3353 79.8242 52.4578 80.1852Z" fill="white"/>
<path d="M24.2798 80.3438C23.8578 80.2183 23.5279 80.0816 23.5087 79.5888C23.4958 79.2761 23.4206 78.9633 23.3501 78.6561C23.3261 78.5511 23.2292 78.4626 23.1515 78.3442C22.7383 78.9017 22.6109 79.2461 22.687 79.6038C22.3811 79.4585 22.0976 79.3243 21.8149 79.1892C22.2426 79.2579 22.3307 78.9349 22.4636 78.6632C22.667 78.2478 22.8832 77.8379 23.0738 77.4162C23.1579 77.229 23.1923 77.0197 23.2612 76.7781C23.6031 76.955 23.9883 77.1358 24.3543 77.3499C24.653 77.5244 24.8124 77.7969 24.7091 78.1507C24.601 78.5227 24.3255 78.6656 23.9443 78.6332C23.885 78.6285 23.8242 78.6332 23.7617 78.6332C23.9059 79.8036 23.9283 79.8779 24.2806 80.3446L24.2798 80.3438ZM23.1627 78.2052C23.4566 78.3876 23.7553 78.5155 24.022 78.281C24.1621 78.1578 24.2622 77.9122 24.2582 77.725C24.2502 77.3957 23.9627 77.2962 23.6456 77.2267C23.4838 77.5544 23.3253 77.8751 23.1627 78.2052Z" fill="white"/>
<path d="M46.9979 81.8492C47.0019 82.6516 46.3804 83.2857 45.5901 83.2873C44.8317 83.2889 44.2167 82.6058 44.2183 81.7639C44.2199 81.001 44.8365 80.3747 45.5892 80.3723C46.3829 80.37 46.9939 81.0097 46.9979 81.8492ZM46.5758 82.0442C46.4589 81.6501 46.3837 81.3066 46.2523 80.9852C46.125 80.674 45.8423 80.5279 45.5076 80.5469C45.1424 80.5674 44.8805 80.7609 44.7764 81.1171C44.6075 81.6991 44.6963 82.2559 45.0231 82.759C45.309 83.1981 45.9456 83.2526 46.2539 82.8466C46.4253 82.6208 46.4757 82.3049 46.5742 82.045L46.5758 82.0442Z" fill="white"/>
<path d="M26.1984 78.1846C26.9544 78.1783 27.567 78.7706 27.5774 79.5169C27.5886 80.3399 26.9175 81.0672 26.1351 81.0815C25.3864 81.0949 24.7649 80.4891 24.7617 79.7436C24.7577 78.8922 25.4032 78.1917 26.1984 78.1854V78.1846ZM27.2314 79.2855C27.201 79.2729 27.1714 79.2595 27.1409 79.2468C27.1489 78.8148 26.9768 78.5424 26.618 78.4184C26.2609 78.2952 25.8797 78.3686 25.6827 78.7288C25.4608 79.1339 25.2975 79.5904 25.2158 80.0437C25.1421 80.4528 25.3872 80.7245 25.7611 80.8445C26.1447 80.9677 26.4755 80.8351 26.6621 80.5247C26.8951 80.1369 27.0448 79.701 27.2306 79.2855H27.2314Z" fill="white"/>
<path d="M42.2235 83.517H41.3378C41.7006 83.4799 41.6749 83.2256 41.6605 82.9737C41.6333 82.4998 41.6045 82.0252 41.586 81.5513C41.566 81.0396 41.5196 80.9756 41.0303 80.8547C41.3802 80.6605 41.7334 80.7071 41.9808 80.9748C42.4797 81.515 42.981 82.0528 43.4832 82.5906C43.4968 82.6049 43.5272 82.6041 43.5648 82.6151C43.54 82.116 43.5376 81.6208 43.4799 81.132C43.4615 80.974 43.3006 80.8326 43.2021 80.681C43.4159 80.6652 43.7138 80.6439 44.0125 80.6226C43.6665 80.745 43.6874 80.9945 43.7066 81.2749C43.7554 81.9896 43.7786 82.7059 43.7322 83.4775C43.1116 82.8102 42.4902 82.1428 41.8695 81.4755C41.8423 81.485 41.8151 81.4937 41.787 81.5031C41.8199 82.0662 41.8375 82.6309 41.8984 83.1916C41.9104 83.3006 42.0897 83.3915 42.2227 83.5194L42.2235 83.517Z" fill="white"/>
<path d="M37.7742 80.7307C38.4741 80.7639 39.174 80.7971 39.8948 80.831V81.3925C39.6273 80.6825 39.0315 81.0648 38.5558 80.9368V81.954C39.2237 82.1002 39.3758 82.0622 39.6153 81.6792V82.5866C39.4183 81.958 38.9066 82.2865 38.4741 82.1562C38.4741 82.544 38.4669 82.8789 38.4813 83.2129C38.4837 83.269 38.5814 83.3685 38.6343 83.3677C39.1332 83.3661 39.7042 83.5604 39.9925 82.8425C39.9941 83.4577 39.8547 83.607 39.3502 83.5881C38.8025 83.5667 38.2555 83.5344 37.6765 83.4791C38.0337 83.442 38.0457 83.2082 38.0505 82.9539C38.0601 82.4184 38.0801 81.8838 38.1049 81.3491C38.117 81.0845 38.1314 80.831 37.7182 80.8223C37.7366 80.7923 37.755 80.7631 37.7734 80.7331L37.7742 80.7307Z" fill="white"/>
<path d="M55.5961 77.597C55.6666 77.5535 55.7322 77.5006 55.8075 77.469C56.0077 77.3829 56.2119 77.3063 56.4442 77.24C56.1383 77.4493 56.2039 77.6815 56.3329 77.9476C56.5114 78.3188 56.6708 78.7018 56.8117 79.0888C57.0456 79.7301 56.8406 80.1289 56.1639 80.403C55.512 80.6675 55.086 80.5246 54.7953 79.9204C54.6055 79.5263 54.4501 79.1172 54.2724 78.7176C54.1242 78.3867 54.1194 78.3883 53.7302 78.3464C54.0826 78.1964 54.4341 78.0455 54.7865 77.8955C54.4622 78.1261 54.5647 78.3796 54.6968 78.6521C54.893 79.0564 55.0548 79.4774 55.2622 79.8754C55.4656 80.2656 55.7739 80.3666 56.1535 80.2158C56.5699 80.0507 56.7933 79.6788 56.6548 79.2934C56.4738 78.7919 56.2664 78.2983 56.0309 77.8197C55.9781 77.7115 55.7619 77.6815 55.6201 77.6159L55.5961 77.5962V77.597Z" fill="white"/>
<path d="M47.5497 82.868C47.5096 82.6555 47.456 82.3673 47.4023 82.0798C47.424 82.0703 47.4456 82.0616 47.468 82.0522C47.5289 82.1469 47.5881 82.2425 47.6522 82.3357C47.8756 82.6611 48.3825 82.7558 48.7037 82.5339C49.0048 82.3262 48.9695 81.9463 48.6108 81.775C48.3465 81.6486 48.0574 81.5752 47.7827 81.4685C47.2326 81.2553 47.0244 80.9323 47.1549 80.5106C47.271 80.1338 47.7291 79.9119 48.2136 79.9727C48.3505 79.9901 48.497 79.938 48.6796 79.9111C48.7237 80.1441 48.7781 80.4355 48.8326 80.7262C48.811 80.7356 48.7901 80.7443 48.7685 80.7538C48.7189 80.6693 48.69 80.5508 48.6148 80.505C48.3969 80.3723 48.1671 80.197 47.9309 80.1781C47.7803 80.1662 47.5561 80.3747 47.472 80.539C47.4344 80.6132 47.6266 80.8699 47.7691 80.9512C48.0102 81.0879 48.2936 81.1518 48.5603 81.245C49.1065 81.4346 49.3315 81.7426 49.237 82.1714C49.1425 82.5963 48.694 82.8625 48.1759 82.8238C47.9861 82.8095 47.7923 82.8482 47.5497 82.8672V82.868Z" fill="white"/>
<path d="M20.6017 78.4114C20.3254 78.2653 20.05 78.12 19.7737 77.9739C20.1092 78.0892 20.247 77.8917 20.3783 77.6658C20.665 77.1715 20.9669 76.6842 21.2392 76.1819C21.3048 76.0611 21.2808 75.892 21.2976 75.7459C21.3184 75.727 21.3385 75.7072 21.3593 75.6875C21.6876 75.8731 22.0312 76.0382 22.3419 76.2498C22.7487 76.527 22.8352 76.959 22.6005 77.3278C22.3619 77.7022 21.9655 77.7748 21.5042 77.5213C21.3769 77.451 21.2568 77.3665 21.0902 77.2615C20.9605 77.6453 20.5409 77.8854 20.6546 78.3569C20.637 78.375 20.6201 78.3932 20.6025 78.4114H20.6017ZM21.1783 77.1138C21.3993 77.3057 21.6348 77.5158 21.8942 77.3105C22.0808 77.1628 22.2442 76.8966 22.2706 76.6668C22.3034 76.3778 22.0456 76.2198 21.7477 76.1527C21.5563 76.4757 21.3721 76.7868 21.1783 77.1146V77.1138Z" fill="white"/>
<path d="M31.4373 82.6413C31.4597 82.6207 31.4821 82.5994 31.5045 82.5789C31.8425 82.7305 32.0627 82.5828 32.2389 82.304C32.6297 81.6849 33.0253 81.0681 33.4201 80.4512C33.4841 80.3509 33.5546 80.2538 33.6755 80.0769C33.7804 80.4702 33.8677 80.7877 33.9486 81.106C34.0743 81.6003 34.1832 82.0995 34.325 82.5883C34.3818 82.7834 34.5076 82.9579 34.6133 83.1641C34.3098 83.1214 33.971 83.0733 33.6323 83.0259C33.9526 82.9548 33.9134 82.7313 33.8701 82.5244C33.8245 82.3072 33.8213 82.0474 33.4785 82.0568C33.3576 82.06 33.2359 82.0197 33.1141 81.9992C32.7266 81.9344 32.4351 82.1192 32.3886 82.4999C32.3766 82.6018 32.5015 82.7202 32.5928 82.8829C32.202 82.8008 31.82 82.7202 31.4381 82.6397L31.4373 82.6413ZM33.7268 81.9297C33.6283 81.5482 33.5426 81.2165 33.4361 80.8035C33.2038 81.166 33.0197 81.4535 32.809 81.7836C33.143 81.8373 33.4161 81.8807 33.7268 81.9305V81.9297Z" fill="white"/>
<path d="M51.4488 79.1433C51.4896 79.1694 51.5304 79.1954 51.5713 79.2215C51.4175 79.2444 51.3134 79.2981 51.3815 79.4821C51.4223 79.5927 51.4512 79.708 51.4672 79.8565C51.1925 79.4434 50.8506 79.4908 50.4405 79.6732C50.6263 80.3919 50.7977 81.1082 51.0067 81.8135C51.0387 81.9217 51.2445 81.9793 51.3799 82.0678C51.0459 82.1507 50.6824 82.2415 50.3196 82.3316C50.6151 82.1633 50.5823 81.9335 50.507 81.6619C50.3348 81.0427 50.1899 80.4164 50.0345 79.7964C49.4443 79.8201 49.3426 79.8991 49.2057 80.3959C49.1624 80.2063 49.1192 80.0168 49.0728 79.8122C49.8792 79.5856 50.664 79.3644 51.4488 79.1441V79.1433Z" fill="white"/>
<path d="M21.2976 75.7458L21.1375 75.6241C21.1487 75.6068 21.1599 75.5894 21.1703 75.572C21.2335 75.6107 21.296 75.6494 21.3593 75.6881C21.3385 75.7071 21.3184 75.7268 21.2976 75.7466V75.7458Z" fill="white"/>
<path d="M20.6536 78.3575C20.6977 78.3875 20.7409 78.4183 20.7849 78.4483C20.7745 78.4649 20.7633 78.4823 20.7529 78.4988C20.7025 78.4696 20.652 78.4404 20.6016 78.4112C20.6192 78.393 20.636 78.3749 20.6536 78.3567V78.3575Z" fill="white"/>
<path d="M23.1089 76.8009C23.0745 76.7835 23.0401 76.7669 23.0056 76.7496C23.016 76.7322 23.0328 76.6974 23.0368 76.699C23.0673 76.7101 23.0953 76.7275 23.1241 76.7425C23.1193 76.7614 23.1137 76.7812 23.1089 76.8001V76.8009Z" fill="white"/>
<path d="M58.15 79.3842C58.1019 79.404 58.0531 79.4245 58.005 79.4442C57.9994 79.4229 57.9946 79.4008 57.989 79.3795C58.0299 79.3676 58.0699 79.3566 58.1107 79.3447C58.1236 79.3582 58.1372 79.3708 58.15 79.3834V79.3842Z" fill="white"/>
<path d="M22.8024 79.5737C22.8242 79.5841 22.8452 79.5937 22.8662 79.6033C22.8533 79.6161 22.8412 79.64 22.8283 79.64C22.8089 79.6408 22.7887 79.6257 22.7686 79.6177C22.7798 79.6033 22.7911 79.5889 22.8032 79.5737H22.8024Z" fill="white"/>
<path d="M55.62 77.6169C55.5984 77.6271 55.5768 77.6366 55.5552 77.6469C55.5688 77.6303 55.5824 77.6137 55.596 77.5979L55.62 77.6176V77.6169Z" fill="white"/>
<path d="M59.7206 75.3908C59.706 75.3836 59.6915 75.3757 59.677 75.3677C59.6851 75.3605 59.6939 75.3469 59.6996 75.3477C59.7157 75.3509 59.7302 75.3613 59.7448 75.3685C59.7367 75.3757 59.7294 75.382 59.7206 75.3908Z" fill="white"/>
<path d="M39.9131 38.5624C39.0226 38.5869 38.1817 38.3752 37.3649 38.0459C37.1543 37.9606 36.9661 37.8461 37.0742 37.5894C37.1839 37.3296 37.413 37.339 37.6372 37.4362C39.1788 38.1051 40.7187 38.0735 42.2603 37.4362C42.4837 37.3438 42.7231 37.3248 42.8272 37.5847C42.9369 37.8587 42.7215 37.9653 42.4989 38.0538C41.6685 38.3831 40.8148 38.594 39.9123 38.5632L39.9131 38.5624Z" fill="white"/>
<path d="M36.1982 33.8311C35.994 33.9622 35.8419 34.0917 35.6649 34.1604C35.5632 34.1999 35.3686 34.1841 35.3141 34.1162C35.2597 34.0483 35.2805 33.835 35.3502 33.7734C35.5183 33.6218 35.7209 33.4488 35.9316 33.4133C36.4833 33.3209 37.0487 33.2474 37.6068 33.2609C38.113 33.2735 38.2811 33.6423 38.1978 34.3373C37.8046 34.4281 37.783 34.4115 37.6477 33.8729C37.4915 34.1873 37.2881 34.395 36.9278 34.3957C36.5546 34.3957 36.3336 34.2125 36.1974 33.8303L36.1982 33.8311Z" fill="white"/>
<path d="M42.1891 33.8538C42.2139 34.2724 42.0801 34.4501 41.7198 34.3735C41.5348 33.5987 41.8279 33.218 42.6223 33.2386C43.0259 33.2488 43.4319 33.2947 43.8275 33.3697C44.0357 33.4092 44.2367 33.5308 44.4193 33.6477C44.5883 33.7551 44.7572 33.9359 44.5715 34.1184C44.4986 34.1895 44.2519 34.1168 44.0966 34.0694C43.962 34.0283 43.8443 33.9304 43.7202 33.8578C43.2862 34.5709 42.7424 34.5899 42.1891 33.8538Z" fill="white"/>
<path d="M34.7063 33.08C35.6929 32.6496 36.5962 31.9838 37.7502 32.0486C38.1954 32.0739 38.5686 32.25 38.8209 32.6038C38.9049 32.7215 38.9314 32.9766 38.8577 33.084C38.7183 33.2861 38.5398 33.1408 38.394 33.0137C37.7702 32.4711 37.0463 32.4956 36.3031 32.6717C35.7682 32.7981 35.238 32.9434 34.7063 33.08Z" fill="white"/>
<path d="M44.8692 32.9843C44.2902 32.8501 43.7609 32.7158 43.2267 32.6068C42.5901 32.4773 42.0015 32.5871 41.4994 33.0183C41.3505 33.1462 41.1719 33.2844 41.0365 33.0791C40.9653 32.9717 40.9973 32.7182 41.083 32.6037C41.4994 32.0461 42.1264 31.9213 42.7415 32.0801C43.4478 32.2625 44.1156 32.5879 44.7995 32.8556C44.8236 32.8651 44.8324 32.9133 44.87 32.9843H44.8692Z" fill="white"/>
<path d="M39.1467 36.167H40.7299C40.1774 36.8612 39.805 36.8651 39.1467 36.167Z" fill="white"/>
<path d="M115.657 35.2777C115.568 36.4655 115.13 37.6272 114.342 38.7621C113.554 39.8978 112.726 40.7444 111.858 41.3035C110.564 40.4482 109.152 39.7619 107.621 39.247C106.089 38.7321 104.579 38.4738 103.091 38.4738C101.302 38.4738 99.7527 38.8932 98.4426 39.7311C97.1317 40.5699 96.1179 41.8706 95.4012 43.6349C94.6836 45.3992 94.3249 47.6872 94.3249 50.4987C94.3249 54.5857 95.0904 57.5726 96.6232 59.4585C98.1551 61.3445 100.347 62.2882 103.199 62.2882C104.934 62.2882 106.493 62.1311 107.875 61.8167C109.256 61.5024 110.398 61.2228 111.301 60.9788L115.738 66.7164C114.71 67.0481 113.475 67.3806 112.032 67.7123C110.588 68.044 108.998 68.3188 107.263 68.5376C105.527 68.7556 103.685 68.8653 101.737 68.8653C99.0096 68.8653 96.6368 68.4373 94.6172 67.5812C92.5983 66.7259 90.9246 65.4986 89.5961 63.9001C88.2675 62.3017 87.2754 60.3675 86.6203 58.097C85.9652 55.8264 85.6377 53.2763 85.6377 50.4466C85.6377 47.2678 86.107 44.495 87.0455 42.1281C87.9841 39.7619 89.2589 37.7962 90.871 36.2333C92.4822 34.6704 94.2976 33.4999 96.3165 32.7228C98.3353 31.9457 100.425 31.5571 102.586 31.5571C105.012 31.5571 107.345 31.8975 109.586 32.5791C111.827 33.2606 113.849 34.1602 115.656 35.2777H115.657ZM110.131 47.7748C112.239 47.7748 113.7 48.2597 114.515 49.2288C115.329 50.1978 115.737 51.4425 115.737 52.962V54.7437H105.27C104.367 54.7437 103.614 54.6347 103.012 54.4159C102.41 54.1979 101.958 53.8307 101.657 53.3158C101.356 52.8009 101.205 52.1067 101.205 51.2332C101.205 50.674 101.262 50.0801 101.378 49.4515C101.494 48.8228 101.639 48.2637 101.816 47.7748H110.131ZM107.767 58.3852C107.767 57.1453 107.811 55.8312 107.9 54.442C107.988 53.0536 108.201 51.7742 108.538 50.6037L115.737 52.962V66.7164L107.767 66.8214V58.3852Z" fill="white"/>
<path d="M121.554 48.5078C121.554 47.4772 121.452 46.5169 121.249 45.626C121.045 44.7352 120.704 43.958 120.226 43.2946C120.846 42.7884 121.608 42.369 122.511 42.0373C123.414 41.7056 124.379 41.5398 125.407 41.5398C127.071 41.5398 128.231 41.9765 128.887 42.85C129.542 43.7235 129.87 44.9721 129.87 46.5966V57.7575C129.87 58.9279 130.029 59.7967 130.348 60.3645C130.666 60.9323 131.26 61.2159 132.128 61.2159C132.676 61.2159 133.314 61.0721 134.04 60.7839C134.767 60.4956 135.488 60.0202 136.206 59.356C136.923 58.6926 137.547 57.8191 138.079 56.7363V63.8884C136.839 65.0936 135.489 66.1763 134.027 67.1375C132.566 68.0978 130.888 68.5788 128.994 68.5788C127.382 68.5788 126.023 68.1815 124.916 67.387C123.808 66.5925 122.972 65.4963 122.405 64.0993C121.838 62.7022 121.555 61.0863 121.555 59.2525V48.511L121.554 48.5078ZM144.401 60.6385C144.401 61.4765 144.538 62.237 144.813 62.9178C145.087 63.5993 145.446 64.0969 145.889 64.4112C145.747 65.1449 145.42 65.9133 144.906 66.7165C144.392 67.5205 143.879 68.1223 143.366 68.5243C141.01 68.4887 139.208 67.695 137.959 66.14C136.711 64.5857 136.086 62.7172 136.086 60.5335V41.9584C136.653 41.8533 137.312 41.7751 138.065 41.7222C138.818 41.6701 139.548 41.6433 140.257 41.6433C140.966 41.6433 141.66 41.6693 142.395 41.7222C143.13 41.7744 143.799 41.8533 144.401 41.9584V60.6385Z" fill="white"/>
<path d="M149.262 60.9527C149.262 58.8393 149.758 57.1145 150.75 55.7782C151.741 54.442 153.039 53.4508 154.642 52.8048C156.244 52.1588 157.958 51.8357 159.782 51.8357C160.579 51.8357 161.584 51.8531 162.797 51.8879C164.01 51.9234 165.104 52.0364 166.078 52.2283V57.4154C165.317 57.2409 164.4 57.1406 163.328 57.1145C162.257 57.0884 161.366 57.075 160.658 57.075C159.471 57.075 158.622 57.3854 158.108 58.0053C157.594 58.6253 157.337 59.4245 157.337 60.4023C157.337 61.1012 157.554 61.6817 157.988 62.1445C158.422 62.6073 159.02 62.8387 159.781 62.8387C160.844 62.8387 161.924 62.4635 163.022 61.7125C164.12 60.9614 165.05 59.9308 165.811 58.6214L166.981 63.8085C166.29 64.6125 165.502 65.4022 164.617 66.1793C163.731 66.9565 162.695 67.5985 161.509 68.1048C160.322 68.611 158.932 68.8645 157.338 68.8645C155.514 68.8645 154.004 68.4673 152.809 67.6728C151.613 66.8783 150.723 65.8737 150.139 64.6599C149.554 63.446 149.262 62.21 149.262 60.9527ZM173.357 64.306C173.216 65.0397 172.888 65.8255 172.374 66.6643C171.86 67.503 171.347 68.1222 170.833 68.5241C169.275 68.4886 167.986 68.1395 166.968 67.4761C165.949 66.8127 165.17 65.9961 164.63 65.0263C164.09 64.0573 163.741 63.1096 163.581 62.184V50.971C163.581 49.8882 163.303 49.0629 162.744 48.4951C162.186 47.928 161.305 47.6437 160.101 47.6437C158.967 47.6437 157.727 47.823 156.382 48.1807C155.036 48.5393 153.663 48.9192 152.264 49.3204C151.68 48.657 151.224 47.7969 150.896 46.7394C150.568 45.6827 150.361 44.6482 150.272 43.6349C151.476 43.146 152.804 42.7306 154.257 42.3902C155.708 42.0498 157.152 41.7876 158.587 41.6044C160.021 41.4212 161.305 41.3296 162.438 41.3296C163.997 41.3296 165.494 41.6139 166.928 42.1809C168.362 42.7488 169.545 43.6831 170.475 44.9846C171.404 46.2861 171.87 48.0457 171.87 50.2633V60.9267C171.87 61.6777 171.994 62.3411 172.242 62.9176C172.489 63.4942 172.862 63.957 173.357 64.306Z" fill="white"/>
<path d="M176.517 45.7569C176.659 45.0232 176.987 44.2374 177.501 43.3987C178.014 42.56 178.527 41.9408 179.042 41.5388C181.503 41.7134 183.354 42.6089 184.594 44.224C185.833 45.8398 186.577 47.9572 186.825 50.5776V68.1047C186.258 68.2098 185.607 68.2832 184.872 68.3274C184.137 68.3709 183.407 68.393 182.68 68.393C181.954 68.393 181.277 68.3709 180.541 68.3274C179.806 68.284 179.129 68.2098 178.509 68.1047V51.1802C178.509 49.626 178.283 48.4074 177.832 47.5252C177.38 46.643 176.942 46.0539 176.517 45.7569H176.517ZM195.991 42.0372C195.991 42.9975 195.814 44.2248 195.46 45.7182C195.105 47.2117 194.592 48.5345 193.919 49.6876C193.459 49.513 193.003 49.378 192.551 49.2816C192.1 49.1861 191.643 49.1379 191.183 49.1379C190.475 49.1379 189.837 49.265 189.271 49.5178C188.704 49.7713 188.191 50.1425 187.73 50.6313C187.27 51.121 186.836 51.7235 186.428 52.4391C186.021 53.1554 185.631 53.9759 185.259 54.9015L184.329 53.6703C184.417 52.2211 184.604 50.7845 184.887 49.3606C185.17 47.9374 185.605 46.6407 186.19 45.4702C186.774 44.3006 187.575 43.3616 188.594 42.654C189.612 41.9463 190.9 41.5925 192.459 41.5925C193.274 41.5925 193.933 41.632 194.439 41.7102C194.943 41.7884 195.461 41.8982 195.993 42.0379L195.991 42.0372Z" fill="white"/>
<path d="M199.071 48.5078C199.071 47.4772 198.97 46.5169 198.766 45.626C198.562 44.7352 198.222 43.958 197.744 43.2946C198.363 42.7884 199.125 42.369 200.028 42.0373C200.932 41.7056 201.897 41.5398 202.924 41.5398C204.588 41.5398 205.749 41.9765 206.404 42.85C207.059 43.7235 207.387 44.9721 207.387 46.5966V57.7575C207.387 58.9279 207.546 59.7967 207.865 60.3645C208.184 60.9323 208.777 61.2159 209.645 61.2159C210.194 61.2159 210.831 61.0721 211.558 60.7839C212.284 60.4956 213.005 60.0202 213.723 59.356C214.441 58.6926 215.064 57.8191 215.596 56.7363V63.8884C214.356 65.0936 213.006 66.1763 211.545 67.1375C210.083 68.0978 208.406 68.5788 206.511 68.5788C204.899 68.5788 203.54 68.1815 202.433 67.387C201.326 66.5925 200.49 65.4963 199.923 64.0993C199.356 62.7022 199.072 61.0863 199.072 59.2525V48.511L199.071 48.5078ZM221.918 60.6385C221.918 61.4765 222.055 62.237 222.33 62.9178C222.605 63.5993 222.964 64.0969 223.406 64.4112C223.265 65.1449 222.937 65.9133 222.424 66.7165C221.91 67.5205 221.396 68.1223 220.883 68.5243C218.527 68.4887 216.725 67.695 215.477 66.14C214.228 64.5857 213.604 62.7172 213.604 60.5335V41.9584C214.171 41.8533 214.83 41.7751 215.582 41.7222C216.335 41.6701 217.066 41.6433 217.774 41.6433C218.483 41.6433 219.177 41.6693 219.912 41.7222C220.648 41.7744 221.316 41.8533 221.918 41.9584V60.6385Z" fill="white"/>
<path d="M238.204 66.8474C238.204 69.3794 237.938 71.5023 237.407 73.2137C236.876 74.9251 235.884 76.2921 234.432 77.3141C232.979 78.336 230.854 79.1084 228.056 79.6328C227.471 79.1787 226.958 78.4711 226.515 77.5107C226.072 76.5496 225.833 75.6066 225.798 74.681C226.824 74.2443 227.648 73.7815 228.268 73.2926C228.888 72.8038 229.34 72.1664 229.623 71.3798C229.906 70.594 230.048 69.5547 230.048 68.2619V50.7608C230.048 49.8873 229.863 49.1623 229.49 48.5866C229.119 48.0101 228.463 47.7218 227.524 47.7218H226.276C226.045 46.831 225.931 45.9054 225.931 44.945C225.931 44.4909 225.957 44.006 226.011 43.4911C226.063 42.9762 226.152 42.4826 226.276 42.0111C227.215 41.9242 228.158 41.8587 229.106 41.8144C230.053 41.771 230.81 41.7489 231.377 41.7489H232.519C234.289 41.7489 235.68 42.312 236.689 43.439C237.699 44.5652 238.204 46.0894 238.204 48.0109V66.8482V66.8474ZM228.162 34.596C228.162 34.1072 228.214 33.5962 228.321 33.0631C228.427 32.5308 228.577 32.0198 228.773 31.5302C229.233 31.3035 229.83 31.1108 230.566 30.9537C231.301 30.7965 232.022 30.7175 232.731 30.7175C233.44 30.7175 234.196 30.7957 234.949 30.9537C235.702 31.1108 236.282 31.3035 236.689 31.5302C236.884 32.0191 237.035 32.5387 237.141 33.0892C237.248 33.6396 237.3 34.1419 237.3 34.5952C237.3 35.0486 237.248 35.5738 237.141 36.1147C237.035 36.6565 236.884 37.1628 236.689 37.6342C236.282 37.8617 235.702 38.0536 234.949 38.2108C234.196 38.3679 233.457 38.4469 232.731 38.4469C232.005 38.4469 231.287 38.3727 230.526 38.2242C229.765 38.0757 229.18 37.8799 228.773 37.635C228.578 37.1635 228.428 36.6573 228.322 36.1155C228.215 35.5745 228.162 35.0675 228.162 34.596H228.162Z" fill="white"/>
<path d="M242.905 60.9528C242.905 58.8394 243.4 57.1145 244.392 55.7783C245.384 54.442 246.681 53.4509 248.284 52.8048C249.887 52.1588 251.601 51.8358 253.425 51.8358C254.222 51.8358 255.227 51.8532 256.44 51.8879C257.653 51.9235 258.746 52.0364 259.721 52.2283V57.4154C258.959 57.2409 258.042 57.1406 256.971 57.1145C255.899 57.0885 255.009 57.0751 254.301 57.0751C253.114 57.0751 252.264 57.3854 251.75 58.0054C251.236 58.6254 250.98 59.4246 250.98 60.4023C250.98 61.1012 251.197 61.6817 251.631 62.1445C252.065 62.6073 252.662 62.8387 253.424 62.8387C254.487 62.8387 255.567 62.4636 256.665 61.7125C257.763 60.9615 258.692 59.9308 259.454 58.6214L260.623 63.8085C259.932 64.6125 259.144 65.4023 258.259 66.1794C257.374 66.9565 256.337 67.5986 255.151 68.1048C253.965 68.6111 252.574 68.8646 250.981 68.8646C249.156 68.8646 247.647 68.4673 246.451 67.6728C245.256 66.8783 244.366 65.8738 243.781 64.6599C243.197 63.446 242.905 62.2101 242.905 60.9528ZM267 64.3061C266.858 65.0398 266.531 65.8256 266.017 66.6643C265.503 67.503 264.989 68.1222 264.476 68.5242C262.918 68.4887 261.629 68.1396 260.61 67.4762C259.592 66.8128 258.813 65.9962 258.273 65.0264C257.732 64.0573 257.383 63.1096 257.224 62.184V50.971C257.224 49.8883 256.945 49.063 256.387 48.4951C255.829 47.9281 254.948 47.6438 253.743 47.6438C252.61 47.6438 251.37 47.823 250.025 48.1808C248.678 48.5393 247.306 48.9192 245.907 49.3204C245.322 48.657 244.867 47.797 244.539 46.7395C244.211 45.6828 244.003 44.6482 243.914 43.6349C245.119 43.1461 246.447 42.7307 247.899 42.3903C249.351 42.0499 250.795 41.7877 252.229 41.6045C253.663 41.4212 254.948 41.3296 256.081 41.3296C257.639 41.3296 259.136 41.6139 260.57 42.181C262.005 42.7488 263.187 43.6831 264.117 44.9846C265.047 46.2862 265.512 48.0457 265.512 50.2634V60.9267C265.512 61.6778 265.636 62.3412 265.885 62.9177C266.132 63.4942 266.504 63.957 267 64.3061ZM257.888 27.7845C258.879 28.0814 259.88 28.6801 260.89 29.5788C261.9 30.4783 262.564 31.4521 262.882 32.5001L253.053 39.7833C252.362 39.574 251.693 39.1807 251.047 38.6042C250.4 38.0277 249.936 37.3643 249.652 36.6132L257.888 27.7837V27.7845Z" fill="white"/>
<path d="M126.59 32.386C126.59 32.9713 126.47 33.4633 126.231 33.8613C125.991 34.2601 125.662 34.5602 125.243 34.7632C124.824 34.9654 124.342 35.0665 123.793 35.0665H121.965V34.0809C122.099 34.0769 122.285 34.0722 122.522 34.0659C122.76 34.0595 122.995 34.0556 123.229 34.054C123.463 34.0524 123.637 34.0508 123.751 34.0508C124.161 34.0508 124.473 33.9616 124.686 33.7831C124.899 33.6046 125.045 33.3875 125.125 33.1308C125.204 32.8741 125.243 32.6261 125.243 32.3852C125.243 32.1444 125.203 31.8916 125.125 31.6373C125.045 31.383 124.899 31.1682 124.686 30.9945C124.472 30.8199 124.161 30.7331 123.751 30.7331C123.58 30.7331 123.381 30.7323 123.153 30.7299C122.926 30.7283 122.71 30.7252 122.507 30.7212V37.9696C122.409 37.9854 122.302 37.9973 122.184 38.006C122.066 38.0139 121.954 38.0178 121.849 38.0178C121.759 38.0178 121.654 38.0139 121.531 38.006C121.41 37.9981 121.302 37.9862 121.209 37.9696V29.8256L121.288 29.7538C121.747 29.7459 122.177 29.7372 122.577 29.7269C122.977 29.7167 123.382 29.7119 123.792 29.7119C124.333 29.7119 124.813 29.8098 125.234 30.0065C125.654 30.2031 125.986 30.4993 126.227 30.8958C126.468 31.2922 126.589 31.789 126.589 32.386H126.59Z" fill="white"/>
<path d="M135.262 32.1756C135.262 32.5445 135.194 32.8762 135.058 33.17C134.922 33.4645 134.736 33.7141 134.5 33.9179C134.265 34.1216 133.998 34.2701 133.702 34.3625C133.905 34.4304 134.078 34.5591 134.22 34.7471C134.362 34.9359 134.478 35.1459 134.568 35.3781L135.11 36.7902C135.199 37.0263 135.284 37.208 135.366 37.3344C135.447 37.4607 135.543 37.5697 135.653 37.6621C135.567 37.7861 135.441 37.8824 135.272 37.9504C135.103 38.0183 134.938 38.0522 134.775 38.0522C134.532 38.0522 134.352 37.9859 134.239 37.854C134.125 37.7221 134.019 37.5255 133.921 37.2649L133.318 35.6419C133.217 35.3655 133.081 35.1333 132.91 34.9445C132.739 34.7566 132.463 34.6618 132.081 34.6618H130.552V33.6699C130.734 33.662 130.942 33.6541 131.173 33.6462C131.405 33.6383 131.634 33.632 131.859 33.628C132.084 33.6241 132.276 33.6217 132.434 33.6217C132.832 33.6217 133.139 33.5498 133.355 33.4053C133.57 33.2608 133.718 33.0775 133.799 32.8556C133.88 32.6337 133.921 32.4063 133.921 32.1733C133.921 31.9292 133.88 31.6955 133.799 31.4728C133.718 31.25 133.569 31.0692 133.355 30.9286C133.139 30.788 132.832 30.7185 132.434 30.7185H132.023C131.867 30.7185 131.706 30.7178 131.541 30.7154C131.377 30.7138 131.225 30.7106 131.087 30.7067V37.9669C130.986 37.9827 130.878 37.9946 130.761 38.0033C130.645 38.0112 130.535 38.0151 130.429 38.0151C130.339 38.0151 130.235 38.0112 130.115 38.0033C129.995 37.9954 129.889 37.9835 129.795 37.9669V29.823L129.874 29.7511C130.333 29.7432 130.782 29.7345 131.221 29.7242C131.66 29.714 132.087 29.7092 132.501 29.7092C133.065 29.7092 133.554 29.8032 133.966 29.992C134.379 30.1807 134.697 30.4571 134.923 30.8212C135.149 31.1861 135.261 31.637 135.261 32.1733L135.262 32.1756Z" fill="white"/>
<path d="M138.779 29.838L138.858 29.7598H140.04V30.8054C140.04 30.9736 140.041 31.111 140.046 31.2169C140.05 31.3227 140.053 31.4585 140.053 31.6228V36.3163C140.053 36.4206 140.05 36.5185 140.046 36.6109C140.042 36.7033 140.04 36.8052 140.04 36.9174V37.9812H139.522C139.294 37.9812 139.113 37.9109 138.98 37.7711C138.845 37.6305 138.779 37.4386 138.779 37.1938V29.8372V29.838ZM143.764 29.7598C143.784 29.8561 143.796 29.9469 143.8 30.033C143.804 30.1191 143.807 30.1981 143.807 30.2707C143.807 30.3434 143.799 30.4318 143.782 30.5385C143.766 30.6443 143.74 30.7462 143.703 30.8417H140.461C140.319 30.8417 140.172 30.8394 140.019 30.8354C139.867 30.8315 139.73 30.8275 139.607 30.8236V29.7598H143.764ZM143.105 33.2931C143.125 33.3737 143.141 33.4637 143.151 33.5632C143.161 33.6635 143.166 33.7496 143.166 33.8215C143.166 33.8934 143.161 33.9787 143.151 34.0766C143.141 34.1745 143.125 34.2677 143.105 34.3562H140.814C140.721 34.3562 140.603 34.3554 140.461 34.353C140.319 34.3514 140.172 34.3483 140.019 34.3443C139.867 34.3404 139.73 34.338 139.607 34.338V33.3105C139.729 33.3066 139.866 33.3034 140.019 33.3018C140.171 33.3003 140.319 33.2979 140.461 33.2955C140.603 33.2939 140.721 33.2924 140.814 33.2924H143.105V33.2931ZM144.001 36.8937C144.001 37.2862 143.941 37.5657 143.821 37.7324C143.701 37.899 143.475 37.9819 143.142 37.9819H139.607V36.9482C139.802 36.9363 139.995 36.9245 140.186 36.9118C140.377 36.9 140.596 36.8937 140.845 36.8937H144.001Z" fill="white"/>
<path d="M148.651 37.9693C148.549 37.9851 148.443 37.997 148.331 38.0056C148.219 38.0135 148.111 38.0175 148.005 38.0175C147.908 38.0175 147.799 38.0135 147.679 38.0056C147.559 37.9977 147.451 37.9859 147.354 37.9693V29.8316L147.433 29.7598H148.64V30.3908C148.64 30.7035 148.641 31.0171 148.646 31.3314C148.65 31.6457 148.652 31.9553 148.652 32.2601V37.9701L148.651 37.9693ZM152.258 29.7598C152.282 29.8316 152.3 29.9138 152.311 30.0062C152.321 30.0986 152.326 30.1847 152.326 30.2644C152.326 30.4729 152.266 30.623 152.146 30.7154C152.025 30.8078 151.844 30.8536 151.6 30.8536H149.809C149.472 30.8536 149.167 30.8504 148.894 30.8449C148.622 30.8386 148.371 30.8323 148.138 30.8236V29.7598H152.258ZM151.613 33.3058C151.633 33.3903 151.648 33.4819 151.659 33.5822C151.669 33.6825 151.674 33.7686 151.674 33.8404C151.674 33.9084 151.669 33.9929 151.659 34.0932C151.648 34.1935 151.633 34.2859 151.613 34.3696H149.169C149.014 34.3696 148.847 34.368 148.666 34.3633C148.485 34.3593 148.315 34.3554 148.157 34.3514V33.3239C148.315 33.32 148.485 33.316 148.666 33.3121C148.847 33.3082 149.014 33.3058 149.169 33.3058H151.613Z" fill="white"/>
<path d="M155.373 29.838L155.452 29.7598H156.634V30.8054C156.634 30.9736 156.636 31.111 156.64 31.2169C156.644 31.3227 156.647 31.4585 156.647 31.6228V36.3163C156.647 36.4206 156.644 36.5185 156.64 36.6109C156.636 36.7033 156.634 36.8052 156.634 36.9174V37.9812H156.116C155.889 37.9812 155.708 37.9109 155.574 37.7711C155.439 37.6305 155.373 37.4386 155.373 37.1938V29.8372V29.838ZM160.358 29.7598C160.378 29.8561 160.391 29.9469 160.395 30.033C160.399 30.1191 160.401 30.1981 160.401 30.2707C160.401 30.3434 160.393 30.4318 160.376 30.5385C160.36 30.6443 160.334 30.7462 160.297 30.8417H157.055C156.913 30.8417 156.766 30.8394 156.613 30.8354C156.461 30.8315 156.324 30.8275 156.202 30.8236V29.7598H160.358ZM159.7 33.2931C159.72 33.3737 159.735 33.4637 159.745 33.5632C159.756 33.6635 159.76 33.7496 159.76 33.8215C159.76 33.8934 159.756 33.9787 159.745 34.0766C159.735 34.1745 159.72 34.2677 159.7 34.3562H157.408C157.315 34.3562 157.197 34.3554 157.055 34.353C156.913 34.3514 156.766 34.3483 156.613 34.3443C156.461 34.3404 156.324 34.338 156.202 34.338V33.3105C156.323 33.3066 156.46 33.3034 156.613 33.3018C156.765 33.3003 156.913 33.2979 157.055 33.2955C157.197 33.2939 157.316 33.2924 157.408 33.2924H159.7V33.2931ZM160.596 36.8937C160.596 37.2862 160.536 37.5657 160.416 37.7324C160.295 37.899 160.069 37.9819 159.736 37.9819H156.202V36.9482C156.396 36.9363 156.589 36.9245 156.781 36.9118C156.971 36.9 157.191 36.8937 157.439 36.8937H160.596Z" fill="white"/>
<path d="M163.984 29.7598C164.078 29.7441 164.184 29.7322 164.304 29.7235C164.424 29.7156 164.531 29.7117 164.625 29.7117C164.73 29.7117 164.842 29.7156 164.96 29.7235C165.078 29.7314 165.186 29.7433 165.283 29.7598V37.9694C165.185 37.9852 165.078 37.997 164.96 38.0057C164.842 38.0136 164.73 38.0176 164.625 38.0176C164.531 38.0176 164.424 38.0136 164.304 38.0057C164.184 37.9978 164.078 37.986 163.984 37.9694V29.7598Z" fill="white"/>
<path d="M168.304 30.8354C168.284 30.743 168.27 30.6514 168.262 30.559C168.254 30.4666 168.25 30.3805 168.25 30.3008C168.25 30.221 168.254 30.1349 168.262 30.0425C168.27 29.9501 168.284 29.8561 168.304 29.7598H173.905C173.929 29.8316 173.948 29.913 173.96 30.003C173.972 30.093 173.978 30.1799 173.978 30.2644C173.978 30.4729 173.919 30.6198 173.801 30.7059C173.683 30.792 173.5 30.8354 173.252 30.8354H172.448C172.371 30.8354 172.255 30.8338 172.103 30.8291C171.951 30.8251 171.832 30.8228 171.747 30.8228H170.455C170.374 30.8228 170.258 30.8251 170.108 30.8291C169.957 30.833 169.839 30.8354 169.754 30.8354H168.304ZM170.456 31.7128C170.456 31.5486 170.457 31.4017 170.459 31.2714C170.461 31.1411 170.462 30.9918 170.462 30.8236V30.2944H171.748V37.9693C171.647 37.9851 171.538 37.997 171.423 38.0056C171.306 38.0135 171.202 38.0175 171.109 38.0175C171.007 38.0175 170.899 38.0135 170.783 38.0056C170.667 37.9977 170.558 37.9859 170.457 37.9693V31.7128H170.456Z" fill="white"/>
<path d="M182.912 35.0907C182.912 35.7517 182.785 36.3077 182.531 36.7587C182.277 37.2096 181.919 37.55 181.458 37.7806C180.997 38.0112 180.453 38.1266 179.828 38.1266C179.203 38.1266 178.671 38.0112 178.21 37.7806C177.749 37.55 177.392 37.2096 177.138 36.7587C176.884 36.3077 176.757 35.7517 176.757 35.0907V29.7835L176.831 29.7117H177.33C177.594 29.7117 177.781 29.7764 177.891 29.9067C178 30.0371 178.056 30.2424 178.056 30.5228V35.0844C178.056 35.7454 178.206 36.2453 178.507 36.5842C178.808 36.923 179.251 37.092 179.835 37.092C180.42 37.092 180.869 36.923 181.17 36.5842C181.47 36.2453 181.621 35.7454 181.621 35.0844V29.7598C181.715 29.7441 181.818 29.7322 181.932 29.7235C182.045 29.7156 182.151 29.7117 182.249 29.7117C182.346 29.7117 182.457 29.7156 182.581 29.7235C182.705 29.7314 182.816 29.7433 182.913 29.7598V35.0907H182.912Z" fill="white"/>
<path d="M192.151 32.1756C192.151 32.5445 192.083 32.8762 191.947 33.17C191.811 33.4645 191.625 33.7141 191.389 33.9179C191.154 34.1224 190.887 34.2701 190.591 34.3625C190.794 34.4304 190.966 34.5591 191.109 34.7471C191.251 34.9359 191.367 35.1459 191.457 35.3781L191.999 36.7902C192.088 37.0263 192.173 37.208 192.254 37.3344C192.335 37.4607 192.431 37.5697 192.541 37.6621C192.455 37.7861 192.329 37.8824 192.16 37.9504C191.992 38.0183 191.826 38.0522 191.663 38.0522C191.42 38.0522 191.24 37.9859 191.127 37.854C191.013 37.7221 190.907 37.5255 190.809 37.2649L190.206 35.6419C190.104 35.3655 189.968 35.1333 189.797 34.9445C189.627 34.7566 189.35 34.6618 188.968 34.6618H187.439V33.6699C187.621 33.662 187.829 33.6541 188.06 33.6462C188.292 33.6383 188.52 33.632 188.746 33.628C188.972 33.6241 189.163 33.6217 189.322 33.6217C189.72 33.6217 190.026 33.5498 190.242 33.4053C190.457 33.2608 190.605 33.0775 190.687 32.8556C190.768 32.6329 190.809 32.4063 190.809 32.1733C190.809 31.9292 190.768 31.6955 190.687 31.4728C190.605 31.25 190.457 31.0692 190.242 30.9286C190.026 30.788 189.72 30.7185 189.322 30.7185H188.91C188.754 30.7185 188.593 30.7178 188.429 30.7154C188.265 30.7138 188.113 30.7106 187.975 30.7067V37.9669C187.873 37.9827 187.764 37.9946 187.649 38.0033C187.533 38.0112 187.422 38.0151 187.316 38.0151C187.227 38.0151 187.123 38.0112 187.002 38.0033C186.882 37.9954 186.776 37.9835 186.682 37.9669V29.823L186.761 29.7511C187.22 29.7432 187.67 29.7345 188.108 29.7242C188.547 29.714 188.974 29.7092 189.388 29.7092C189.953 29.7092 190.441 29.8032 190.854 29.992C191.266 30.1807 191.585 30.4571 191.811 30.8212C192.036 31.1861 192.148 31.637 192.148 32.1733L192.151 32.1756Z" fill="white"/>
<path d="M197.562 29.7598C197.664 29.7441 197.788 29.7322 197.933 29.7235C198.08 29.7156 198.207 29.7117 198.317 29.7117C198.415 29.7117 198.537 29.7156 198.686 29.7235C198.834 29.7314 198.954 29.7456 199.043 29.7654L201.779 37.8912C201.685 37.9473 201.571 37.9883 201.435 38.0144C201.298 38.0405 201.162 38.0539 201.023 38.0539C200.816 38.0539 200.656 38.0081 200.545 37.9157C200.433 37.8233 200.335 37.6456 200.249 37.381L198.909 33.1977C198.795 32.8454 198.681 32.4735 198.568 32.0825C198.454 31.6916 198.352 31.3386 198.263 31.0219H198.195C198.155 31.2019 198.106 31.3986 198.049 31.611C197.992 31.8235 197.935 32.0296 197.878 32.2302C197.821 32.4308 197.771 32.6046 197.726 32.753L196.038 37.982C195.961 37.9978 195.874 38.0097 195.776 38.0184C195.678 38.0263 195.579 38.0302 195.477 38.0302C195.368 38.0302 195.257 38.0223 195.145 38.0065C195.033 37.9907 194.934 37.9702 194.85 37.9465L194.813 37.8801L197.561 29.7606L197.562 29.7598ZM197.398 35.9863C197.361 35.9863 197.285 35.9855 197.17 35.9831C197.054 35.9808 196.937 35.9792 196.82 35.9768C196.702 35.9752 196.625 35.9737 196.588 35.9737H195.984L196.386 34.9336H196.916C196.953 34.9336 197.023 34.9328 197.127 34.9304C197.23 34.9288 197.333 34.9264 197.435 34.9241C197.536 34.9225 197.605 34.9209 197.642 34.9209H198.861C198.902 34.9209 198.973 34.9217 199.075 34.9241C199.176 34.9264 199.28 34.928 199.389 34.9304C199.496 34.9328 199.569 34.9336 199.605 34.9336H200.147L200.494 35.9737H199.897C199.86 35.9737 199.783 35.9745 199.662 35.9768C199.542 35.9792 199.424 35.9808 199.306 35.9831C199.188 35.9855 199.111 35.9863 199.075 35.9863H197.399H197.398Z" fill="white"/>
<path d="M215.321 33.8642C215.321 34.3333 215.289 34.7819 215.226 35.2108C215.163 35.6396 215.04 36.04 214.858 36.4128C214.675 36.7855 214.399 37.1196 214.029 37.4166C213.854 37.5611 213.642 37.6772 213.392 37.7648C213.142 37.8533 212.887 37.9181 212.624 37.9599C212.362 38.0018 212.124 38.0231 211.908 38.0231C211.579 38.0231 211.278 38.0207 211.007 38.0168C210.734 38.0128 210.458 38.0065 210.178 37.9986C209.898 37.9907 209.58 37.9828 209.227 37.9749L209.148 37.903V29.8254L209.227 29.7535C209.58 29.7417 209.897 29.7322 210.175 29.7267C210.453 29.7204 210.73 29.7164 211.003 29.7148C211.278 29.7133 211.579 29.7117 211.908 29.7117C212.124 29.7117 212.362 29.733 212.624 29.7749C212.886 29.8167 213.142 29.883 213.392 29.9731C213.642 30.0631 213.854 30.1808 214.029 30.3245C214.395 30.6207 214.67 30.9555 214.855 31.3283C215.039 31.7011 215.163 32.1007 215.226 32.5272C215.289 32.9536 215.321 33.3998 215.321 33.8642ZM213.974 33.8642C213.974 33.508 213.95 33.1448 213.901 32.7767C213.852 32.4079 213.757 32.0707 213.614 31.7643C213.472 31.4578 213.263 31.2106 212.989 31.0219C212.716 30.8339 212.353 30.7391 211.902 30.7391C211.646 30.7391 211.409 30.7384 211.189 30.736C210.97 30.7344 210.72 30.7312 210.44 30.7273V36.9901C210.72 36.9901 210.97 36.9909 211.189 36.9932C211.409 36.9956 211.646 36.9964 211.902 36.9964C212.353 36.9964 212.716 36.9024 212.989 36.7137C213.264 36.5257 213.472 36.2769 213.614 35.9681C213.756 35.6593 213.852 35.3213 213.901 34.9525C213.95 34.5837 213.974 34.2212 213.974 33.865V33.8642Z" fill="white"/>
<path d="M218.709 29.838L218.788 29.7598H219.97V30.8054C219.97 30.9736 219.972 31.111 219.976 31.2169C219.98 31.3227 219.983 31.4585 219.983 31.6228V36.3163C219.983 36.4206 219.98 36.5185 219.976 36.6109C219.972 36.7033 219.97 36.8052 219.97 36.9174V37.9812H219.452C219.224 37.9812 219.043 37.9109 218.91 37.7711C218.776 37.6305 218.709 37.4386 218.709 37.1938V29.8372V29.838ZM223.694 29.7598C223.714 29.8561 223.727 29.9469 223.731 30.033C223.735 30.1191 223.737 30.1981 223.737 30.2707C223.737 30.3434 223.729 30.4318 223.713 30.5385C223.697 30.6443 223.671 30.7462 223.634 30.8417H220.392C220.249 30.8417 220.103 30.8394 219.95 30.8354C219.798 30.8315 219.661 30.8275 219.538 30.8236V29.7598H223.695H223.694ZM223.035 33.2931C223.056 33.3737 223.071 33.4637 223.081 33.5632C223.092 33.6635 223.096 33.7496 223.096 33.8215C223.096 33.8934 223.091 33.9787 223.081 34.0766C223.071 34.1745 223.056 34.2677 223.035 34.3562H220.744C220.651 34.3562 220.533 34.3554 220.391 34.353C220.249 34.3514 220.102 34.3483 219.949 34.3443C219.797 34.3404 219.66 34.338 219.538 34.338V33.3105C219.659 33.3066 219.797 33.3034 219.949 33.3018C220.101 33.3003 220.249 33.2979 220.391 33.2955C220.533 33.2939 220.651 33.2924 220.744 33.2924H223.035V33.2931ZM223.932 36.8937C223.932 37.2862 223.872 37.5657 223.752 37.7324C223.632 37.899 223.405 37.9819 223.072 37.9819H219.538V36.9482C219.732 36.9363 219.926 36.9245 220.117 36.9118C220.307 36.8992 220.527 36.8937 220.775 36.8937H223.932Z" fill="white"/>
</g>
<defs>
<clipPath id="clip0_2054_2020">
<rect width="267" height="86" fill="white"/>
</clipPath>
</defs>
</svg>
