<svg width="169" height="88" viewBox="0 0 169 88" fill="none" xmlns="http://www.w3.org/2000/svg">
<path d="M61.1662 0.0378418C64.8143 0.0378418 68.4624 0.0378418 72.1105 0.0392748C72.4417 0.0392748 72.7743 0.0428573 73.1034 0.0736669C73.4864 0.108775 73.7665 0.410423 73.8027 0.805932C73.824 1.03879 73.8275 1.27381 73.8282 1.5081C73.8303 2.91531 73.819 4.32252 73.8339 5.72973C73.8403 6.30866 73.7488 6.85392 73.5438 7.39703C72.7637 9.4627 72.0013 11.5348 71.2382 13.6077C69.9326 17.1558 68.6347 20.7075 67.327 24.2549C65.9618 27.9592 64.5866 31.6606 63.2193 35.3642C62.5356 37.2157 61.8626 39.0721 61.1796 40.9236C59.9414 44.2825 58.6974 47.6386 57.4585 50.9976C56.6947 53.069 55.9358 55.1433 55.177 57.2168C55.1309 57.3422 55.0954 57.4712 55.0593 57.6001C55.0039 57.7986 55.1451 58.0021 55.3593 58.0351C55.4571 58.0501 55.5557 58.0687 55.655 58.073C55.8869 58.0838 56.1188 58.091 56.3514 58.0924C59.1464 58.1139 61.9115 58.4377 64.654 58.9558C69.3418 59.8414 73.836 61.3338 78.1196 63.4525C79.5784 64.174 81.0039 64.9651 82.4379 65.7374C84.5151 66.8566 86.5874 67.9865 88.6597 69.115C91.1114 70.4506 93.5603 71.7912 96.0127 73.126C96.9176 73.6182 97.8296 74.0976 98.7367 74.5877C99.7019 75.1086 100.665 75.633 101.627 76.1597C103.176 77.008 104.808 77.6693 106.443 78.3214C109.793 79.6569 113.266 80.5003 116.836 80.9631C118.582 81.1895 120.333 81.3242 122.089 81.3937C123.384 81.4453 124.677 81.3636 125.966 81.2655C127.354 81.1601 128.737 80.9932 130.115 80.7804C133.508 80.2566 136.792 79.3431 139.968 78.0305C141.719 77.3068 143.45 76.5394 145.091 75.5836C146.355 74.8478 147.61 74.0969 148.862 73.3395C152.077 71.3935 155.288 69.4418 158.498 67.49C161.311 65.7797 164.121 64.0651 166.933 62.3534C167.188 62.1979 167.445 62.0432 167.707 61.8992C167.822 61.8361 167.95 61.7931 168.077 61.7566C168.47 61.6448 168.915 61.9371 168.965 62.3412C168.986 62.5067 168.994 62.6751 168.994 62.8421C168.996 64.5509 168.996 66.2591 168.994 67.9679C168.994 68.1019 168.989 68.2359 168.979 68.3692C168.961 68.6156 168.855 68.8263 168.664 68.9732C168.455 69.1358 168.229 69.2784 168.002 69.4167C166.24 70.4879 164.475 71.5533 162.714 72.6252C159.902 74.3369 157.095 76.0558 154.281 77.7639C152.49 78.8509 150.696 79.9314 148.896 81.0018C147.149 82.04 145.331 82.9335 143.467 83.7324C140.867 84.8465 138.206 85.7759 135.456 86.4386C132.678 87.1085 129.872 87.6201 127.022 87.8293C124.872 87.987 122.719 88.0565 120.56 87.9454C118.304 87.8301 116.063 87.6037 113.841 87.2024C109.778 86.4687 105.832 85.3388 102.043 83.6643C100.37 82.9249 98.7381 82.1059 97.1318 81.2318C94.7375 79.9292 92.3397 78.6345 89.9448 77.3333C87.2576 75.8738 84.5747 74.4078 81.8868 72.9498C79.8124 71.8249 77.7409 70.6942 75.6537 69.5929C74.3303 68.8944 72.9431 68.3333 71.5559 67.7781C68.9574 66.7377 66.276 65.9904 63.5285 65.4817C62.2895 65.2524 61.0428 65.0768 59.7903 64.9307C57.7755 64.6949 55.7543 64.6663 53.7323 64.6455C52.1735 64.6297 50.6147 64.6448 49.0559 64.6398C48.7587 64.6391 48.4595 64.6262 48.1644 64.5896C47.8559 64.5516 47.6226 64.2937 47.5907 63.9827C47.5701 63.7836 47.5609 63.5815 47.5602 63.3809C47.5573 62.175 47.5687 60.9684 47.5545 59.7625C47.5474 59.1822 47.6616 58.6362 47.8644 58.0967C48.5098 56.3735 49.1452 54.6467 49.7814 52.92C51.4927 48.2734 53.2019 43.6269 54.9117 38.9797C55.6046 37.096 56.2961 35.2116 56.9925 33.3287C58.3613 29.6258 59.7343 25.925 61.1016 22.2214C61.5307 21.06 61.9435 19.8928 62.3704 18.7307C63.6406 15.2764 64.915 11.8243 66.1852 8.37004C66.2774 8.11998 66.3639 7.86419 66.4178 7.60338C66.5015 7.19999 66.2064 6.78944 65.7987 6.71349C65.6689 6.68913 65.5355 6.67551 65.4036 6.67193C65.1051 6.66476 64.8065 6.66548 64.5079 6.66548C59.7655 6.66548 55.0224 6.66548 50.28 6.66405C49.9154 6.66405 49.5502 6.66333 49.1864 6.63897C48.7864 6.61246 48.5041 6.33374 48.458 5.94253C48.4382 5.77702 48.429 5.60864 48.429 5.4417C48.4268 4.03449 48.4275 2.62728 48.429 1.22007C48.429 1.08608 48.4353 0.952098 48.4481 0.818829C48.4892 0.374598 48.7715 0.0958784 49.2261 0.0543213C49.3906 0.0392748 49.5573 0.0378418 49.7232 0.0364088C50.0218 0.0335428 50.3204 0.0342593 50.619 0.0342593H61.1655V0.0378418H61.1662Z" fill="white"/>
<path d="M139.227 30.7901C139.227 25.665 139.228 20.5405 139.225 15.4154C139.225 14.4753 139.275 13.5403 139.446 12.6153C139.795 10.7166 140.492 8.95255 141.478 7.30317C142.586 5.446 143.994 3.85966 145.719 2.56279C146.55 1.93872 147.448 1.44075 148.419 1.08107C150.4 0.348088 152.437 -0.0760813 154.555 0.0113319C157.616 0.137436 160.405 1.0696 162.889 2.91173C164.378 4.01658 165.629 5.33995 166.613 6.91482C167.797 8.80782 168.58 10.8513 168.85 13.0889C168.951 13.9229 169 14.7541 169 15.5924C168.997 25.8419 168.998 36.0922 168.999 46.3418C168.999 48.2011 168.712 50.0102 168.065 51.7549C166.202 56.7755 162.07 60.287 156.995 61.3131C154.917 61.7336 152.844 61.6957 150.777 61.2314C149.902 61.0351 149.047 60.7707 148.211 60.4418C147.309 60.0871 146.469 59.6185 145.698 59.0288C142.801 56.8134 140.845 53.9324 139.784 50.4301C139.413 49.2063 139.227 47.9496 139.227 46.667C139.227 46.4328 139.227 46.1985 139.227 45.9634V30.7894V30.7901ZM145.756 30.7084V45.4791C145.756 45.9477 145.757 46.417 145.765 46.8856C145.784 47.9345 145.99 48.9498 146.372 49.9221C147.072 51.7041 148.266 53.0532 149.946 53.9453C150.802 54.4002 151.718 54.6912 152.674 54.8574C156.917 55.5932 161.183 52.9823 162.252 48.3659C162.435 47.5749 162.452 46.7745 162.452 45.9699C162.451 35.8543 162.451 25.7395 162.451 15.6239C162.451 15.3223 162.456 15.0206 162.444 14.7197C162.311 11.5413 160.383 8.6939 157.702 7.45435C154.742 6.08583 151.897 6.4491 149.16 8.11568C149.103 8.15007 149.05 8.19235 148.998 8.23247C147.319 9.5322 146.282 11.2246 145.907 13.334C145.777 14.0648 145.756 14.7978 145.756 15.5351V30.7077V30.7084Z" fill="white"/>
<path d="M80.3316 30.4161V1.97743C80.3316 1.64283 80.3316 1.3075 80.3451 0.972896C80.35 0.84106 80.3763 0.705641 80.4202 0.581686C80.5174 0.310849 80.7124 0.138888 80.9961 0.0851508C81.1259 0.0607898 81.2592 0.0478927 81.3911 0.0443102C81.6564 0.0371452 81.9216 0.0378617 82.1869 0.0378617H103.873C104.205 0.0378617 104.537 0.0392947 104.868 0.0529082C104.998 0.0586402 105.133 0.0844343 105.256 0.129574C105.487 0.214838 105.649 0.381783 105.698 0.630409C105.73 0.793054 105.744 0.962149 105.744 1.12838C105.748 2.60222 105.749 4.07606 105.743 5.54991C105.742 5.74838 105.721 5.9533 105.668 6.14389C105.602 6.38248 105.428 6.54226 105.188 6.60603C105.061 6.63971 104.927 6.65475 104.795 6.65834C104.464 6.66765 104.132 6.66765 103.8 6.66765C98.7927 6.66765 93.7858 6.66765 88.7782 6.66837C88.447 6.66837 88.1143 6.66335 87.7839 6.68485C87.2534 6.71852 86.9463 7.03163 86.8966 7.58406C86.8732 7.85059 86.8718 8.11928 86.8711 8.38725C86.8683 9.35883 86.8697 10.3304 86.8697 11.3013V24.7672C86.8697 25.1018 86.8683 25.4378 86.8888 25.7717C86.8988 25.9358 86.9364 26.1063 86.9995 26.2575C87.1066 26.5162 87.2973 26.7125 87.5839 26.7483C87.8789 26.7856 88.1782 26.7963 88.4753 26.797C90.5646 26.8006 92.6532 26.7992 94.7425 26.7992C95.6375 26.7992 96.5332 26.7956 97.4282 26.8049C97.658 26.8071 97.8921 26.8343 98.1155 26.8866C98.3169 26.9339 98.4701 27.0822 98.5275 27.2864C98.5807 27.477 98.6162 27.6783 98.6232 27.8761C98.6381 28.311 98.6303 28.7466 98.6303 29.1823C98.6303 30.1202 98.6339 31.0581 98.6275 31.996C98.6254 32.2625 98.6098 32.5319 98.5722 32.7956C98.5296 33.0937 98.2644 33.3358 97.9644 33.3817C97.8339 33.4018 97.7006 33.4147 97.5687 33.4175C97.2701 33.424 96.9715 33.424 96.6737 33.424C94.0205 33.424 91.3681 33.424 88.715 33.4247C88.4165 33.4247 88.1172 33.4197 87.82 33.4405C87.2328 33.4806 86.9349 33.7944 86.8881 34.4077C86.8725 34.6076 86.8725 34.809 86.8711 35.0103C86.8683 35.4459 86.8697 35.8816 86.8697 36.3165C86.8697 41.5756 86.8697 46.8347 86.8711 52.0939C86.8711 52.4621 86.8789 52.8304 86.8995 53.198C86.9066 53.3284 86.9456 53.4645 87.0009 53.5827C87.12 53.8371 87.3179 54.0105 87.5995 54.0614C87.7292 54.0843 87.8626 54.095 87.9945 54.0979C88.3257 54.1044 88.6576 54.1051 88.9895 54.1051C93.9305 54.1051 98.8708 54.1051 103.812 54.1058C104.176 54.1058 104.542 54.1022 104.905 54.1244C105.416 54.1552 105.7 54.4454 105.734 54.9441C105.745 55.111 105.746 55.2787 105.746 55.4464C105.747 56.7862 105.749 58.1261 105.745 59.4659C105.744 59.6995 105.734 59.936 105.693 60.1645C105.647 60.4139 105.474 60.5772 105.231 60.6381C105.071 60.6783 104.905 60.6976 104.74 60.7041C104.442 60.7155 104.144 60.7127 103.845 60.7127C96.6495 60.7127 89.454 60.7134 82.2585 60.7112C81.8613 60.7112 81.462 60.7062 81.0663 60.6747C80.667 60.6432 80.394 60.3623 80.3585 59.9589C80.3323 59.6594 80.3316 59.357 80.3309 59.0561C80.3287 56.678 80.3295 54.2992 80.3295 51.9212V30.4161H80.3316Z" fill="white"/>
<path d="M113.124 30.3775V2.0413C113.124 1.7067 113.123 1.37137 113.131 1.03677C113.135 0.904215 113.153 0.769513 113.184 0.640543C113.253 0.356808 113.434 0.164786 113.714 0.0995841C113.906 0.055161 114.108 0.0429805 114.306 0.042264C115.699 0.037965 117.091 0.039398 118.484 0.042264C118.649 0.042264 118.815 0.0558775 118.979 0.0795221C119.326 0.129677 119.587 0.399798 119.625 0.743719C119.643 0.909947 119.65 1.07761 119.653 1.24455C119.657 1.57916 119.655 1.91448 119.655 2.24909V51.7873C119.655 52.1556 119.655 52.5239 119.658 52.8929C119.66 53.0268 119.665 53.1608 119.679 53.2941C119.726 53.7283 120.028 54.0428 120.451 54.0779C120.748 54.1023 121.047 54.1045 121.345 54.1045C122.97 54.1066 124.595 54.1059 126.22 54.1059C129.735 54.1059 133.249 54.1059 136.763 54.1066C137.095 54.1066 137.427 54.1066 137.757 54.131C138.148 54.1596 138.419 54.4383 138.468 54.846C138.492 55.0452 138.503 55.2466 138.504 55.4472C138.507 56.787 138.509 58.1269 138.502 59.4668C138.502 59.6996 138.483 59.9361 138.436 60.1632C138.386 60.409 138.214 60.5716 137.973 60.6375C137.846 60.6726 137.712 60.6913 137.581 60.6984C137.349 60.7106 137.117 60.7113 136.885 60.7113H114.803C114.571 60.7113 114.339 60.7113 114.107 60.7006C113.975 60.6948 113.842 60.6784 113.714 60.6497C113.429 60.5852 113.253 60.3925 113.176 60.1159C113.141 59.9891 113.134 59.8515 113.131 59.7182C113.124 59.4173 113.125 59.1157 113.125 58.814V30.3775H113.124Z" fill="white"/>
<path d="M8.46276 30.1066C8.46276 28.7015 8.46134 27.2965 8.46418 25.8907C8.46418 25.5898 8.47269 25.2888 8.49183 24.9886C8.50744 24.7393 8.68828 24.5781 8.95352 24.5544C9.0521 24.5451 9.15139 24.5358 9.25068 24.5358C10.145 24.5344 11.0393 24.5358 11.9336 24.5358C12.4024 24.5358 12.8584 24.6139 13.2952 24.783C14.0711 25.0839 14.6597 25.5905 14.986 26.3808C15.0888 26.6308 15.1619 26.8859 15.164 27.1575C15.1675 27.659 15.1725 28.1613 15.1675 28.6628C15.1611 29.2919 14.947 29.8458 14.5207 30.3015C13.8903 30.975 13.8371 30.975 14.1051 31.9946C14.3519 32.9318 14.6016 33.8689 14.8463 34.8068C14.8881 34.9673 14.9158 35.1329 14.9377 35.2984C14.9633 35.4954 14.798 35.7304 14.6151 35.7369C14.2527 35.7498 13.8888 35.7576 13.5271 35.7383C13.3144 35.7268 13.1577 35.5821 13.091 35.3786C12.9974 35.0934 12.9243 34.8011 12.8484 34.5095C12.6726 33.8303 12.5009 33.1489 12.3251 32.4696C12.2747 32.2754 12.2222 32.082 12.1556 31.8928C12.0719 31.6535 11.8995 31.4923 11.6471 31.4744C11.3854 31.4558 11.1194 31.4679 10.857 31.4859C10.6691 31.4988 10.4854 31.6929 10.4684 31.8864C10.445 32.1522 10.4279 32.4195 10.4258 32.6867C10.4194 33.4562 10.4294 34.2258 10.4173 34.9953C10.4067 35.643 10.2868 35.7569 9.66272 35.7734C8.53864 35.8042 8.47056 35.744 8.4663 34.6234C8.46063 33.1181 8.46488 31.612 8.46488 30.1066H8.46276ZM10.4088 27.937H10.4294C10.4294 28.238 10.4237 28.5389 10.4322 28.8391C10.4357 28.9709 10.4563 29.1049 10.4875 29.2339C10.5301 29.4087 10.6499 29.5334 10.8208 29.5685C11.2797 29.6624 11.7449 29.6624 12.1988 29.5506C12.6896 29.4302 13.0023 29.0935 13.1378 28.6091C13.2569 28.1842 13.2555 27.7472 13.1307 27.3223C12.9633 26.7534 12.5782 26.4109 11.991 26.3586C11.6315 26.3263 11.2655 26.3514 10.9031 26.3708C10.6726 26.3829 10.4783 26.5907 10.4606 26.8358C10.4336 27.2019 10.4258 27.5695 10.4095 27.9356V27.937H10.4088Z" fill="white"/>
<path d="M34.1119 30.0206C34.1119 29.1501 34.1147 28.2795 34.1104 27.4083C34.1083 26.9999 34.1856 26.6108 34.3509 26.2382C34.7274 25.3906 35.3572 24.8346 36.2416 24.5917C37.0238 24.3767 37.816 24.3724 38.6032 24.5738C39.845 24.8919 40.6592 25.8391 40.801 27.1288C40.8266 27.361 40.8258 27.5967 40.8266 27.831C40.8287 29.3715 40.828 30.9119 40.8266 32.4524C40.8266 32.6201 40.828 32.7878 40.8145 32.9547C40.6847 34.5568 39.7082 35.5255 38.1947 35.7885C37.7032 35.8737 37.1983 35.8787 36.7082 35.787C35.4707 35.5556 34.5771 34.89 34.219 33.6253C34.1381 33.3409 34.1182 33.0321 34.1133 32.7333C34.1005 31.8291 34.1083 30.9248 34.1083 30.0206H34.1119ZM38.8529 30.1668H38.8571V28.3591C38.8571 28.2924 38.8614 28.2244 38.855 28.1584C38.8266 27.8597 38.8231 27.5544 38.7585 27.2635C38.6273 26.6724 38.1437 26.2855 37.5479 26.2511C36.9068 26.2138 36.365 26.5764 36.1877 27.1955C36.1154 27.4491 36.0763 27.7214 36.0742 27.9858C36.0629 29.3922 36.0678 30.798 36.0685 32.2045C36.0685 32.3385 36.0671 32.4746 36.0905 32.605C36.1253 32.8014 36.1629 33.0013 36.2302 33.1876C36.4196 33.7099 36.8891 34.0123 37.4735 34.008C38.0493 34.0037 38.5103 33.6848 38.7068 33.1639C38.8146 32.8773 38.8507 32.5807 38.8514 32.2776C38.8529 31.5747 38.8514 30.8711 38.8514 30.1682L38.8529 30.1668Z" fill="white"/>
<path d="M23.7022 29.1171C23.7022 30.1209 23.7029 31.1247 23.7022 32.1293C23.7022 32.3973 23.7036 32.6652 23.6909 32.9325C23.6107 34.5869 22.4512 35.5671 21.0966 35.7863C20.5718 35.8716 20.0356 35.8759 19.5123 35.7748C18.0385 35.4904 17.0754 34.4536 17.0038 32.9583C16.991 32.691 16.9925 32.423 16.9925 32.1551C16.9925 30.0801 16.9925 28.0051 16.9925 25.9301C16.9925 25.7624 16.991 25.5955 16.9946 25.4278C17.0145 24.6218 17.1066 24.5322 17.9435 24.5358C18.1733 24.5372 18.4038 24.5666 18.6336 24.5924C18.7463 24.6053 18.8903 24.7493 18.8988 24.8604C18.9222 25.1592 18.9506 25.4594 18.9513 25.7589C18.9562 27.5996 18.9534 29.4402 18.9541 31.2809C18.9541 31.6822 18.9463 32.0849 18.9683 32.4854C18.9811 32.7161 19.0165 32.9547 19.0945 33.1704C19.2839 33.6948 19.6846 33.9614 20.2285 34.0036C20.8129 34.0488 21.315 33.7787 21.5342 33.2807C21.6264 33.0708 21.6895 32.8372 21.7129 32.6086C21.7469 32.2769 21.7377 31.9401 21.7384 31.6055C21.7406 29.6982 21.7384 27.7901 21.7406 25.8828C21.7406 25.5819 21.7519 25.281 21.7696 24.9807C21.7817 24.7737 21.9512 24.5903 22.1405 24.5716C22.3377 24.5516 22.5363 24.5358 22.7349 24.5351C23.6171 24.5308 23.6951 24.6024 23.7015 25.5024C23.7093 26.7068 23.7036 27.912 23.7036 29.1164H23.7022V29.1171Z" fill="white"/>
<path d="M0.00348619 30.1239C0.00348619 29.2863 -0.00644259 28.4487 0.00845059 27.6118C0.0141242 27.2794 0.0424921 26.9397 0.118376 26.618C0.333973 25.7074 0.894949 25.0661 1.75166 24.7286C2.81262 24.3109 3.89415 24.3202 4.95937 24.7258C5.60332 24.9708 6.09551 25.4122 6.39833 26.0441C6.68201 26.6359 6.73237 27.2629 6.61748 27.9056C6.59194 28.0489 6.42386 28.2051 6.265 28.2144C5.96785 28.2309 5.66928 28.2509 5.37212 28.2388C4.91611 28.2194 4.8693 28.0969 4.77994 27.7085C4.72746 27.4807 4.67782 27.2507 4.60051 27.0307C4.48279 26.6954 4.2374 26.4776 3.91259 26.3501C3.62678 26.2376 3.33034 26.2168 3.03248 26.2798C2.61618 26.368 2.30626 26.6051 2.13888 27.0035C2.06158 27.1869 2.0091 27.3833 1.96939 27.5789C1.93605 27.7415 1.92612 27.9113 1.92542 28.0783C1.92116 29.4181 1.91478 30.758 1.92612 32.0971C1.92896 32.3952 1.97506 32.699 2.04669 32.9892C2.31973 34.1033 3.58281 34.2309 4.19485 33.7587C4.32393 33.6591 4.45584 33.5366 4.52676 33.394C4.75583 32.934 4.84164 32.4439 4.71399 31.9338C4.67072 31.7596 4.54874 31.6407 4.37641 31.5999C4.15159 31.5468 3.9211 31.5168 3.69416 31.473C3.57998 31.4508 3.45445 31.3054 3.44168 31.1922C3.39984 30.8253 3.38424 30.4585 3.46012 30.0938C3.48424 29.9791 3.61047 29.8487 3.72607 29.828C3.79132 29.8165 3.85586 29.7928 3.92039 29.7921C4.64945 29.7893 5.37851 29.78 6.10756 29.7921C6.47067 29.7986 6.63379 29.9842 6.66286 30.361C6.67067 30.4613 6.67634 30.5617 6.67634 30.662C6.67705 31.3656 6.67776 32.0685 6.67492 32.7721C6.67421 32.939 6.66357 33.1067 6.64939 33.2736C6.55861 34.3004 6.00118 35.0054 5.12674 35.474C4.74377 35.6796 4.32676 35.7957 3.88919 35.8179C3.22538 35.8516 2.56369 35.8666 1.92683 35.6144C0.845305 35.186 0.199225 34.4064 0.0368185 33.2385C-5.98003e-05 32.9748 0.00419539 32.704 0.00277699 32.4367C-0.0014782 31.6665 0.0013586 30.8963 0.0013586 30.126L0.00348619 30.1239Z" fill="white"/>
<path d="M27.9183 24.5401C28.3814 24.5401 28.8452 24.5351 29.3083 24.5415C29.7778 24.5487 30.2317 24.6533 30.6544 24.8546C31.7331 25.3691 32.3451 26.2282 32.4217 27.4362C32.4572 28.0022 32.46 28.5754 32.4167 29.1407C32.3174 30.4326 31.6458 31.3146 30.4487 31.7825C29.9792 31.9659 29.4849 32.0118 28.987 32.0361C28.6899 32.0504 28.3927 32.0676 28.0977 32.0992C27.9062 32.1199 27.7311 32.3091 27.7119 32.504C27.6892 32.7361 27.6729 32.9697 27.6701 33.2033C27.6637 33.7385 27.6708 34.2737 27.6644 34.8083C27.6623 35.0082 27.6424 35.2081 27.6211 35.4065C27.6055 35.552 27.4311 35.7232 27.2878 35.7383C27.1233 35.7555 26.958 35.7712 26.7935 35.7734C25.7949 35.7849 25.7191 35.7196 25.7169 34.7051C25.7105 31.6621 25.7134 28.6184 25.7169 25.5754C25.7169 25.3433 25.7474 25.1104 25.7829 24.8804C25.8042 24.7407 25.9035 24.6375 26.0403 24.6053C26.1999 24.568 26.3651 24.5408 26.5283 24.5372C26.9914 24.5286 27.4552 24.5343 27.9183 24.5343V24.5394V24.5401ZM27.6559 28.2322H27.6694C27.6694 28.5661 27.6665 28.9 27.6708 29.2339C27.6729 29.4001 27.6842 29.567 27.7006 29.7326C27.7261 29.9855 27.902 30.1797 28.1438 30.1904C28.5062 30.2055 28.8714 30.2212 29.231 30.1918C29.7338 30.1503 30.0657 29.8544 30.2969 29.4037C30.5409 28.9294 30.5473 27.6447 30.2969 27.1517C30.0686 26.7018 29.7204 26.4137 29.2239 26.365C28.8651 26.3299 28.4991 26.3507 28.1374 26.3679C27.9013 26.3793 27.7112 26.5828 27.6984 26.8314C27.6743 27.2979 27.6679 27.765 27.6538 28.2315H27.6559V28.2322Z" fill="white"/>
</svg>
